<svg width="80" height="80" viewBox="0 0 80 80" fill="none" xmlns="http://www.w3.org/2000/svg">
<g clip-path="url(#clip0_4101_259693)" filter="url(#filter0_i_4101_259693)">
<path d="M18.0952 0H61.9048C71.9048 0 80 8.09524 80 18.0952V61.9048C80 71.9048 71.9048 80 61.9048 80H18.0952C8.09524 80 0 71.9048 0 61.9048V18.0952C0 8.09524 8.09524 0 18.0952 0Z" fill="#FFFEFF"/>
<path d="M18.0952 0.5H61.9048C71.6286 0.5 79.5 8.37138 79.5 18.0952V61.9048C79.5 71.6286 71.6286 79.5 61.9048 79.5H18.0952C8.37138 79.5 0.5 71.6286 0.5 61.9048V18.0952C0.5 8.37138 8.37138 0.5 18.0952 0.5Z" stroke="black" stroke-opacity="0.05"/>
<path fill-rule="evenodd" clip-rule="evenodd" d="M51.1097 24.2024C51.1097 24.2024 53.3722 23.8075 55.0695 24.2024C55.0695 24.2024 57.5693 22.229 57.6172 15.6642L59.362 13.3125C59.362 13.3125 62.0968 19.1364 58.9851 25.2736C58.9851 25.2736 61.2476 26.8182 61.5779 27.7569L61.2535 28.7954C57.9946 27.0726 54.4799 25.8829 50.8434 25.2718L51.1097 24.2024ZM15.0625 66.8912C15.0839 66.8912 25.7563 67.4212 37.7239 62.1928C34.7386 60.8195 31.8686 59.2095 29.1411 57.3782C24.9756 61.2651 20.2249 64.4753 15.0625 66.8912ZM54.422 49.4218C50.7531 48.6804 47.205 47.4351 43.8784 45.7214C41.5883 49.0121 38.6661 52.448 35.0164 55.4339C35.0164 55.4339 38.8356 51.4597 42.3159 44.8759C41.3431 44.319 40.3944 43.7227 39.47 43.087C37.4177 47.1999 34.8248 51.0208 31.7603 54.4489C34.8353 56.5495 38.1181 58.3295 41.5571 59.7608C46.3689 57.0198 50.7118 53.5297 54.4217 49.4218H54.422ZM47.7654 30.6294L51.5308 31.5536C51.5308 31.5536 49.9921 36.5938 46.3593 42.7965C50.0209 44.7158 53.974 46.0211 58.0596 46.6601C60.9615 42.7578 63.3467 38.4976 65.1562 33.9855C59.1133 29.8547 51.9672 27.6316 44.6441 27.6045C43.9736 31.7237 42.8527 35.7571 41.302 39.6323C42.2816 40.3555 43.2935 41.0314 44.3376 41.6605C45.8791 38.1192 47.0287 34.4203 47.7654 30.6297" fill="#FF5722"/>
</g>
<defs>
<filter id="filter0_i_4101_259693" x="0" y="-1" width="80" height="81" filterUnits="userSpaceOnUse" color-interpolation-filters="sRGB">
<feFlood flood-opacity="0" result="BackgroundImageFix"/>
<feBlend mode="normal" in="SourceGraphic" in2="BackgroundImageFix" result="shape"/>
<feColorMatrix in="SourceAlpha" type="matrix" values="0 0 0 0 0 0 0 0 0 0 0 0 0 0 0 0 0 0 127 0" result="hardAlpha"/>
<feOffset dy="-1"/>
<feGaussianBlur stdDeviation="0.5"/>
<feComposite in2="hardAlpha" operator="arithmetic" k2="-1" k3="1"/>
<feColorMatrix type="matrix" values="0 0 0 0 0 0 0 0 0 0 0 0 0 0 0 0 0 0 0.12 0"/>
<feBlend mode="normal" in2="shape" result="effect1_innerShadow_4101_259693"/>
</filter>
<clipPath id="clip0_4101_259693">
<rect width="80" height="80" fill="white"/>
</clipPath>
</defs>
</svg>
