<svg width="60" height="60" viewBox="0 0 60 60" fill="none" xmlns="http://www.w3.org/2000/svg">
<g clip-path="url(#clip0_4040_113753)" filter="url(#filter0_i_4040_113753)">
<path d="M13.5714 0H46.4286C53.9286 0 60 6.07143 60 13.5714V46.4286C60 53.9286 53.9286 60 46.4286 60H13.5714C6.07143 60 0 53.9286 0 46.4286V13.5714C0 6.07143 6.07143 0 13.5714 0Z" fill="#4A9EF4"/>
<path d="M13.5714 0H46.4286C53.9286 0 60 6.07143 60 13.5714V46.4286C60 53.9286 53.9286 60 46.4286 60H13.5714C6.07143 60 0 53.9286 0 46.4286V13.5714C0 6.07143 6.07143 0 13.5714 0Z" fill="url(#paint0_linear_4040_113753)"/>
<path fill-rule="evenodd" clip-rule="evenodd" d="M34.5119 42.3267C35.7938 41.631 37.2292 41.2666 38.6877 41.2666C40.1463 41.2666 41.5817 41.631 42.8636 42.3267C44.1455 43.0224 45.2333 44.0274 46.0282 45.2503C46.442 45.887 46.2613 46.7387 45.6246 47.1525C44.9879 47.5664 44.1362 47.3857 43.7224 46.749C43.1772 45.9102 42.4311 45.2209 41.5519 44.7437C40.6726 44.2666 39.6881 44.0166 38.6877 44.0166C37.6874 44.0166 36.7028 44.2666 35.8236 44.7437C34.9443 45.2209 34.1982 45.9102 33.6531 46.749C33.2392 47.3857 32.3876 47.5664 31.7508 47.1525C31.1141 46.7387 30.9334 45.887 31.3473 45.2503C32.1421 44.0274 33.2299 43.0224 34.5119 42.3267Z" fill="white"/>
<path fill-rule="evenodd" clip-rule="evenodd" d="M18.0119 42.3267C19.2938 41.631 20.7292 41.2666 22.1877 41.2666C23.6463 41.2666 25.0817 41.631 26.3636 42.3267C27.6455 43.0224 28.7333 44.0274 29.5282 45.2503C29.942 45.887 29.7613 46.7387 29.1246 47.1525C28.4879 47.5664 27.6362 47.3857 27.2224 46.749C26.6772 45.9102 25.9311 45.2209 25.0519 44.7437C24.1726 44.2666 23.1881 44.0166 22.1877 44.0166C21.1874 44.0166 20.2028 44.2666 19.3236 44.7437C18.4443 45.2209 17.6982 45.9102 17.1531 46.749C16.7392 47.3857 15.8876 47.5664 15.2508 47.1525C14.6141 46.7387 14.4334 45.887 14.8473 45.2503C15.6421 44.0274 16.7299 43.0224 18.0119 42.3267Z" fill="white"/>
<path fill-rule="evenodd" clip-rule="evenodd" d="M26.2619 23.7642C27.5438 23.0685 28.9792 22.7041 30.4377 22.7041C31.8963 22.7041 33.3317 23.0685 34.6136 23.7642C35.8955 24.4599 36.9833 25.4649 37.7782 26.6878C38.192 27.3245 38.0113 28.1762 37.3746 28.59C36.7379 29.0039 35.8862 28.8232 35.4724 28.1865C34.9272 27.3477 34.1811 26.6584 33.3019 26.1812C32.4226 25.7041 31.4381 25.4541 30.4377 25.4541C29.4374 25.4541 28.4528 25.7041 27.5736 26.1812C26.6943 26.6584 25.9482 27.3477 25.4031 28.1865C24.9892 28.8232 24.1376 29.0039 23.5008 28.59C22.8641 28.1762 22.6834 27.3245 23.0973 26.6878C23.8921 25.4649 24.9799 24.4599 26.2619 23.7642Z" fill="white"/>
<path fill-rule="evenodd" clip-rule="evenodd" d="M26.3757 13.3366C27.4716 12.2407 28.958 11.625 30.5079 11.625C32.0577 11.625 33.5441 12.2407 34.6401 13.3366C35.736 14.4325 36.3517 15.9189 36.3517 17.4688C36.3517 19.0187 35.736 20.5051 34.6401 21.601C33.5441 22.6969 32.0577 23.3126 30.5079 23.3126C28.958 23.3126 27.4716 22.6969 26.3757 21.601C25.2797 20.5051 24.6641 19.0187 24.6641 17.4688C24.6641 15.9189 25.2797 14.4325 26.3757 13.3366ZM30.5079 14.375C29.6873 14.375 28.9004 14.701 28.3202 15.2812C27.74 15.8614 27.4141 16.6483 27.4141 17.4688C27.4141 18.2893 27.74 19.0762 28.3202 19.6564C28.9004 20.2366 29.6873 20.5626 30.5079 20.5626C31.3284 20.5626 32.1153 20.2366 32.6955 19.6564C33.2757 19.0762 33.6016 18.2893 33.6016 17.4688C33.6016 16.6483 33.2757 15.8614 32.6955 15.2812C32.1153 14.701 31.3284 14.375 30.5079 14.375Z" fill="white"/>
<path fill-rule="evenodd" clip-rule="evenodd" d="M20.0215 30.6323C20.7305 30.3387 21.4904 30.1875 22.2579 30.1875C23.0253 30.1875 23.7852 30.3387 24.4942 30.6323C25.2032 30.926 25.8474 31.3565 26.3901 31.8991C26.9327 32.4418 27.3632 33.086 27.6568 33.795C27.9505 34.504 28.1017 35.2639 28.1017 36.0313C28.1017 36.7987 27.9505 37.5586 27.6568 38.2676C27.3632 38.9766 26.9327 39.6209 26.3901 40.1635C25.8474 40.7061 25.2032 41.1366 24.4942 41.4303C23.7852 41.724 23.0253 41.8751 22.2579 41.8751C21.4904 41.8751 20.7305 41.724 20.0215 41.4303C19.3125 41.1366 18.6683 40.7061 18.1257 40.1635C17.583 39.6209 17.1526 38.9766 16.8589 38.2676C16.5652 37.5586 16.4141 36.7987 16.4141 36.0313C16.4141 35.2639 16.5652 34.504 16.8589 33.795C17.1526 33.086 17.583 32.4418 18.1257 31.8991C18.6683 31.3565 19.3125 30.926 20.0215 30.6323ZM22.2579 32.9375C21.8516 32.9375 21.4493 33.0175 21.0739 33.173C20.6986 33.3285 20.3575 33.5564 20.0702 33.8437C19.783 34.131 19.5551 34.472 19.3996 34.8474C19.2441 35.2227 19.1641 35.625 19.1641 36.0313C19.1641 36.4376 19.2441 36.8399 19.3996 37.2152C19.5551 37.5906 19.783 37.9317 20.0702 38.2189C20.3575 38.5062 20.6986 38.7341 21.0739 38.8896C21.4493 39.0451 21.8516 39.1251 22.2579 39.1251C22.6641 39.1251 23.0665 39.0451 23.4418 38.8896C23.8172 38.7341 24.1582 38.5062 24.4455 38.2189C24.7328 37.9317 24.9607 37.5906 25.1161 37.2152C25.2716 36.8399 25.3516 36.4376 25.3516 36.0313C25.3516 35.625 25.2716 35.2227 25.1161 34.8474C24.9607 34.472 24.7328 34.131 24.4455 33.8437C24.1582 33.5564 23.8172 33.3285 23.4418 33.173C23.0664 33.0175 22.6641 32.9375 22.2579 32.9375Z" fill="white"/>
<path fill-rule="evenodd" clip-rule="evenodd" d="M34.6257 31.8991C35.7216 30.8032 37.208 30.1875 38.7579 30.1875C40.3077 30.1875 41.7941 30.8032 42.8901 31.8991C43.986 32.995 44.6017 34.4814 44.6017 36.0313C44.6017 37.5812 43.986 39.0676 42.8901 40.1635C41.7941 41.2594 40.3077 41.8751 38.7579 41.8751C37.208 41.8751 35.7216 41.2594 34.6257 40.1635C33.5297 39.0676 32.9141 37.5812 32.9141 36.0313C32.9141 34.4814 33.5297 32.995 34.6257 31.8991ZM38.7579 32.9375C37.9373 32.9375 37.1504 33.2635 36.5702 33.8437C35.99 34.4239 35.6641 35.2108 35.6641 36.0313C35.6641 36.8518 35.99 37.6387 36.5702 38.2189C37.1504 38.7991 37.9373 39.1251 38.7579 39.1251C39.5784 39.1251 40.3653 38.7991 40.9455 38.2189C41.5257 37.6387 41.8516 36.8518 41.8516 36.0313C41.8516 35.2108 41.5257 34.4239 40.9455 33.8437C40.3653 33.2635 39.5784 32.9375 38.7579 32.9375Z" fill="white"/>
</g>
<defs>
<filter id="filter0_i_4040_113753" x="0" y="-1" width="60" height="61" filterUnits="userSpaceOnUse" color-interpolation-filters="sRGB">
<feFlood flood-opacity="0" result="BackgroundImageFix"/>
<feBlend mode="normal" in="SourceGraphic" in2="BackgroundImageFix" result="shape"/>
<feColorMatrix in="SourceAlpha" type="matrix" values="0 0 0 0 0 0 0 0 0 0 0 0 0 0 0 0 0 0 127 0" result="hardAlpha"/>
<feOffset dy="-1"/>
<feGaussianBlur stdDeviation="0.5"/>
<feComposite in2="hardAlpha" operator="arithmetic" k2="-1" k3="1"/>
<feColorMatrix type="matrix" values="0 0 0 0 0 0 0 0 0 0 0 0 0 0 0 0 0 0 0.12 0"/>
<feBlend mode="normal" in2="shape" result="effect1_innerShadow_4040_113753"/>
</filter>
<linearGradient id="paint0_linear_4040_113753" x1="4.12497" y1="4.12503" x2="58.3596" y2="51.5901" gradientUnits="userSpaceOnUse">
<stop stop-color="#4BAFFF"/>
<stop offset="1" stop-color="#4F4BFF" stop-opacity="0.929412"/>
</linearGradient>
<clipPath id="clip0_4040_113753">
<rect width="60" height="60" fill="white"/>
</clipPath>
</defs>
</svg>
