<svg width="80" height="80" viewBox="0 0 80 80" fill="none" xmlns="http://www.w3.org/2000/svg">
<g clip-path="url(#clip0_5745_180352)" filter="url(#filter0_i_5745_180352)">
<path d="M18.0952 0H61.9048C71.9048 0 80 8.09524 80 18.0952V61.9048C80 71.9048 71.9048 80 61.9048 80H18.0952C8.09524 80 0 71.9048 0 61.9048V18.0952C0 8.09524 8.09524 0 18.0952 0Z" fill="black"/>
<path d="M18.0952 0.5H61.9048C71.6286 0.5 79.5 8.37138 79.5 18.0952V61.9048C79.5 71.6286 71.6286 79.5 61.9048 79.5H18.0952C8.37138 79.5 0.5 71.6286 0.5 61.9048V18.0952C0.5 8.37138 8.37138 0.5 18.0952 0.5Z" stroke="black" stroke-opacity="0.05"/>
<g clip-path="url(#clip1_5745_180352)">
<path d="M54.4972 37.948C54.2368 37.8231 53.9722 37.703 53.7042 37.5879C53.2375 28.9879 48.5382 24.0643 40.6477 24.0139C40.6119 24.0137 40.5764 24.0137 40.5406 24.0137C35.821 24.0137 31.8958 26.0283 29.4799 29.6941L33.8195 32.671C35.6243 29.9327 38.4567 29.349 40.5427 29.349C40.5668 29.349 40.591 29.349 40.6148 29.3492C43.2129 29.3658 45.1734 30.1211 46.4423 31.5943C47.3657 32.6667 47.9833 34.1487 48.2891 36.0191C45.9856 35.6276 43.4945 35.5072 40.8313 35.6599C33.3293 36.0921 28.5064 40.4674 28.8303 46.547C28.9947 49.6309 30.5311 52.284 33.1562 54.0171C35.3757 55.4822 38.2343 56.1987 41.2052 56.0365C45.1287 55.8214 48.2066 54.3245 50.3539 51.5874C51.9846 49.5088 53.0161 46.8151 53.4715 43.4209C55.3413 44.5494 56.727 46.0343 57.4923 47.8194C58.7937 50.8539 58.8696 55.8403 54.8009 59.9056C51.236 63.4669 46.9509 65.0076 40.475 65.0552C33.2914 65.002 27.8585 62.6982 24.3262 58.2077C21.0185 54.003 19.3091 47.9296 19.2453 40.1562C19.3091 32.3828 21.0185 26.3094 24.3262 22.1047C27.8585 17.6143 33.2913 15.3105 40.4749 15.2571C47.7106 15.3109 53.2381 17.6258 56.9056 22.1378C58.7039 24.3505 60.0597 27.133 60.9535 30.3774L66.0389 29.0206C64.9555 25.0272 63.2507 21.586 60.9309 18.732C56.2291 12.9474 49.3527 9.98334 40.4926 9.92188H40.4571C31.6151 9.98312 24.8156 12.9585 20.2478 18.7652C16.183 23.9325 14.0863 31.1224 14.0158 40.135L14.0156 40.1562L14.0158 40.1775C14.0863 49.19 16.183 56.3801 20.2478 61.5474C24.8156 67.354 31.6151 70.3295 40.4571 70.3906H40.4926C48.3537 70.3361 53.8948 68.278 58.4595 63.7173C64.4318 57.7508 64.2519 50.2719 62.2835 45.6806C60.8713 42.3882 58.1789 39.7141 54.4972 37.948ZM40.9244 50.709C37.6364 50.8942 34.2205 49.4184 34.0521 46.2573C33.9272 43.9135 35.7201 41.2982 41.1262 40.9867C41.7453 40.951 42.3528 40.9335 42.9496 40.9335C44.9133 40.9335 46.7503 41.1243 48.4205 41.4894C47.7975 49.2691 44.1435 50.5323 40.9244 50.709Z" fill="white"/>
</g>
</g>
<defs>
<filter id="filter0_i_5745_180352" x="0" y="-1" width="80" height="81" filterUnits="userSpaceOnUse" color-interpolation-filters="sRGB">
<feFlood flood-opacity="0" result="BackgroundImageFix"/>
<feBlend mode="normal" in="SourceGraphic" in2="BackgroundImageFix" result="shape"/>
<feColorMatrix in="SourceAlpha" type="matrix" values="0 0 0 0 0 0 0 0 0 0 0 0 0 0 0 0 0 0 127 0" result="hardAlpha"/>
<feOffset dy="-1"/>
<feGaussianBlur stdDeviation="0.5"/>
<feComposite in2="hardAlpha" operator="arithmetic" k2="-1" k3="1"/>
<feColorMatrix type="matrix" values="0 0 0 0 0 0 0 0 0 0 0 0 0 0 0 0 0 0 0.12 0"/>
<feBlend mode="normal" in2="shape" result="effect1_innerShadow_5745_180352"/>
</filter>
<clipPath id="clip0_5745_180352">
<rect width="80" height="80" fill="white"/>
</clipPath>
<clipPath id="clip1_5745_180352">
<rect width="60.4688" height="60.4688" fill="white" transform="translate(9.92188 9.92188)"/>
</clipPath>
</defs>
</svg>
