<svg width="80" height="80" viewBox="0 0 80 80" fill="none" xmlns="http://www.w3.org/2000/svg">
<g clip-path="url(#clip0_802_79815)" filter="url(#filter0_i_802_79815)">
<path d="M18.0952 0H61.9048C71.9048 0 80 8.09524 80 18.0952V61.9048C80 71.9048 71.9048 80 61.9048 80H18.0952C8.09524 80 0 71.9048 0 61.9048V18.0952C0 8.09524 8.09524 0 18.0952 0Z" fill="#0E1317"/>
<g clip-path="url(#clip1_802_79815)">
<path fill-rule="evenodd" clip-rule="evenodd" d="M33.875 40.9008L15.5723 17.6162H30.0693L41.3674 32.0077L53.4376 17.681H61.4218L45.2278 36.9251L64.4294 61.3841H49.9757L37.7421 45.8206L24.6816 61.3409H16.6541L33.875 40.9008ZM52.0824 57.0698L24.4614 21.9304H27.9609L55.5472 57.0698H52.0824Z" fill="white"/>
</g>
</g>
<defs>
<filter id="filter0_i_802_79815" x="0" y="-1" width="80" height="81" filterUnits="userSpaceOnUse" color-interpolation-filters="sRGB">
<feFlood flood-opacity="0" result="BackgroundImageFix"/>
<feBlend mode="normal" in="SourceGraphic" in2="BackgroundImageFix" result="shape"/>
<feColorMatrix in="SourceAlpha" type="matrix" values="0 0 0 0 0 0 0 0 0 0 0 0 0 0 0 0 0 0 127 0" result="hardAlpha"/>
<feOffset dy="-1"/>
<feGaussianBlur stdDeviation="0.5"/>
<feComposite in2="hardAlpha" operator="arithmetic" k2="-1" k3="1"/>
<feColorMatrix type="matrix" values="0 0 0 0 0 0 0 0 0 0 0 0 0 0 0 0 0 0 0.12 0"/>
<feBlend mode="normal" in2="shape" result="effect1_innerShadow_802_79815"/>
</filter>
<clipPath id="clip0_802_79815">
<rect width="80" height="80" fill="white"/>
</clipPath>
<clipPath id="clip1_802_79815">
<rect width="48" height="48" fill="white" transform="translate(16 16)"/>
</clipPath>
</defs>
</svg>
