<svg width="77" height="74" viewBox="0 0 77 74" fill="none" xmlns="http://www.w3.org/2000/svg">
<mask id="mask0_316_5902" style="mask-type:alpha" maskUnits="userSpaceOnUse" x="0" y="0" width="77" height="74">
<rect width="77" height="74" fill="#D9D9D9"/>
</mask>
<g mask="url(#mask0_316_5902)">
<rect x="0.841797" y="0.767822" width="74.9633" height="72.4645" fill="white" fill-opacity="0.24"/>
<rect x="1.09341" y="1.01944" width="74.4601" height="71.9613" stroke="white" stroke-opacity="0.24" stroke-width="0.503226"/>
<g filter="url(#filter0_d_316_5902)">
<rect x="8.12891" y="7.81299" width="60.3871" height="58.3742" rx="5.03226" fill="white"/>
<rect x="8.63213" y="8.31621" width="59.3806" height="57.3677" rx="4.52903" stroke="#200060" stroke-opacity="0.1" stroke-width="1.00645"/>
</g>
<path d="M31.9356 25.7397H21.4365V36.5496H31.9356V25.7397Z" fill="url(#paint0_linear_316_5902)"/>
<path d="M31.9356 25.7397H21.4365V36.5496H31.9356V25.7397Z" fill="white"/>
<path d="M31.9356 25.7397H21.4365V36.5496H31.9356V25.7397Z" fill="url(#paint1_linear_316_5902)"/>
<path d="M38.4975 36.5496C41.3967 36.5496 43.747 34.1297 43.747 31.1446C43.747 28.1596 41.3967 25.7397 38.4975 25.7397C35.5983 25.7397 33.248 28.1596 33.248 31.1446C33.248 34.1297 35.5983 36.5496 38.4975 36.5496Z" fill="url(#paint2_linear_316_5902)"/>
<path d="M38.4975 36.5496C41.3967 36.5496 43.747 34.1297 43.747 31.1446C43.747 28.1596 41.3967 25.7397 38.4975 25.7397C35.5983 25.7397 33.248 28.1596 33.248 31.1446C33.248 34.1297 35.5983 36.5496 38.4975 36.5496Z" fill="white"/>
<path d="M38.4975 36.5496C41.3967 36.5496 43.747 34.1297 43.747 31.1446C43.747 28.1596 41.3967 25.7397 38.4975 25.7397C35.5983 25.7397 33.248 28.1596 33.248 31.1446C33.248 34.1297 35.5983 36.5496 38.4975 36.5496Z" fill="url(#paint3_linear_316_5902)"/>
<path d="M50.3089 36.5496C53.2082 36.5496 55.5584 34.1297 55.5584 31.1446C55.5584 28.1596 53.2082 25.7397 50.3089 25.7397C47.4097 25.7397 45.0594 28.1596 45.0594 31.1446C45.0594 34.1297 47.4097 36.5496 50.3089 36.5496Z" fill="url(#paint4_linear_316_5902)"/>
<path d="M50.3089 36.5496C53.2082 36.5496 55.5584 34.1297 55.5584 31.1446C55.5584 28.1596 53.2082 25.7397 50.3089 25.7397C47.4097 25.7397 45.0594 28.1596 45.0594 31.1446C45.0594 34.1297 47.4097 36.5496 50.3089 36.5496Z" fill="white"/>
<path d="M50.3089 36.5496C53.2082 36.5496 55.5584 34.1297 55.5584 31.1446C55.5584 28.1596 53.2082 25.7397 50.3089 25.7397C47.4097 25.7397 45.0594 28.1596 45.0594 31.1446C45.0594 34.1297 47.4097 36.5496 50.3089 36.5496Z" fill="url(#paint5_linear_316_5902)"/>
<path d="M25.8687 42.6171C25.8338 42.292 25.687 42.0388 25.4281 41.8577C25.1717 41.6765 24.8381 41.586 24.4274 41.586C24.1386 41.586 23.891 41.6294 23.6843 41.7162C23.4777 41.8031 23.3197 41.921 23.2101 42.0699C23.1006 42.2188 23.0446 42.3888 23.0421 42.5798C23.0421 42.7387 23.0782 42.8764 23.1504 42.993C23.2251 43.1097 23.3259 43.2089 23.4528 43.2908C23.5798 43.3702 23.7204 43.4372 23.8748 43.4918C24.0291 43.5464 24.1847 43.5923 24.3415 43.6296L25.0584 43.8082C25.3472 43.8752 25.6247 43.9658 25.8911 44.08C26.1599 44.1941 26.4001 44.338 26.6117 44.5118C26.8258 44.6855 26.9951 44.8952 27.1196 45.1408C27.244 45.3865 27.3062 45.6744 27.3062 46.0044C27.3062 46.4511 27.1917 46.8445 26.9627 47.1844C26.7337 47.5219 26.4026 47.7862 25.9695 47.9773C25.5389 48.1659 25.0174 48.2602 24.405 48.2602C23.8101 48.2602 23.2935 48.1684 22.8554 47.9847C22.4198 47.8011 22.0788 47.5331 21.8323 47.1807C21.5884 46.8283 21.4564 46.399 21.4365 45.8928H22.7994C22.8193 46.1583 22.9015 46.3792 23.0458 46.5553C23.1902 46.7315 23.3782 46.8631 23.6097 46.9499C23.8437 47.0368 24.105 47.0802 24.3938 47.0802C24.695 47.0802 24.9589 47.0355 25.1854 46.9462C25.4144 46.8544 25.5936 46.7278 25.7231 46.5665C25.8525 46.4027 25.9185 46.2116 25.921 45.9933C25.9185 45.7947 25.86 45.631 25.7455 45.5019C25.631 45.3704 25.4704 45.2612 25.2638 45.1743C25.0597 45.085 24.8207 45.0056 24.5469 44.9361L23.6769 44.7128C23.0471 44.5515 22.5492 44.307 22.1833 43.9795C21.8199 43.6494 21.6382 43.2114 21.6382 42.6655C21.6382 42.2163 21.7601 41.823 22.0041 41.4855C22.2505 41.148 22.5853 40.8861 23.0085 40.7C23.4317 40.5114 23.9109 40.4171 24.4461 40.4171C24.9887 40.4171 25.4642 40.5114 25.8724 40.7C26.2832 40.8861 26.6055 41.1455 26.8395 41.478C27.0735 41.8081 27.1942 42.1877 27.2017 42.6171H25.8687Z" fill="url(#paint6_linear_316_5902)"/>
<path d="M25.8687 42.6171C25.8338 42.292 25.687 42.0388 25.4281 41.8577C25.1717 41.6765 24.8381 41.586 24.4274 41.586C24.1386 41.586 23.891 41.6294 23.6843 41.7162C23.4777 41.8031 23.3197 41.921 23.2101 42.0699C23.1006 42.2188 23.0446 42.3888 23.0421 42.5798C23.0421 42.7387 23.0782 42.8764 23.1504 42.993C23.2251 43.1097 23.3259 43.2089 23.4528 43.2908C23.5798 43.3702 23.7204 43.4372 23.8748 43.4918C24.0291 43.5464 24.1847 43.5923 24.3415 43.6296L25.0584 43.8082C25.3472 43.8752 25.6247 43.9658 25.8911 44.08C26.1599 44.1941 26.4001 44.338 26.6117 44.5118C26.8258 44.6855 26.9951 44.8952 27.1196 45.1408C27.244 45.3865 27.3062 45.6744 27.3062 46.0044C27.3062 46.4511 27.1917 46.8445 26.9627 47.1844C26.7337 47.5219 26.4026 47.7862 25.9695 47.9773C25.5389 48.1659 25.0174 48.2602 24.405 48.2602C23.8101 48.2602 23.2935 48.1684 22.8554 47.9847C22.4198 47.8011 22.0788 47.5331 21.8323 47.1807C21.5884 46.8283 21.4564 46.399 21.4365 45.8928H22.7994C22.8193 46.1583 22.9015 46.3792 23.0458 46.5553C23.1902 46.7315 23.3782 46.8631 23.6097 46.9499C23.8437 47.0368 24.105 47.0802 24.3938 47.0802C24.695 47.0802 24.9589 47.0355 25.1854 46.9462C25.4144 46.8544 25.5936 46.7278 25.7231 46.5665C25.8525 46.4027 25.9185 46.2116 25.921 45.9933C25.9185 45.7947 25.86 45.631 25.7455 45.5019C25.631 45.3704 25.4704 45.2612 25.2638 45.1743C25.0597 45.085 24.8207 45.0056 24.5469 44.9361L23.6769 44.7128C23.0471 44.5515 22.5492 44.307 22.1833 43.9795C21.8199 43.6494 21.6382 43.2114 21.6382 42.6655C21.6382 42.2163 21.7601 41.823 22.0041 41.4855C22.2505 41.148 22.5853 40.8861 23.0085 40.7C23.4317 40.5114 23.9109 40.4171 24.4461 40.4171C24.9887 40.4171 25.4642 40.5114 25.8724 40.7C26.2832 40.8861 26.6055 41.1455 26.8395 41.478C27.0735 41.8081 27.1942 42.1877 27.2017 42.6171H25.8687Z" fill="white"/>
<path d="M25.8687 42.6171C25.8338 42.292 25.687 42.0388 25.4281 41.8577C25.1717 41.6765 24.8381 41.586 24.4274 41.586C24.1386 41.586 23.891 41.6294 23.6843 41.7162C23.4777 41.8031 23.3197 41.921 23.2101 42.0699C23.1006 42.2188 23.0446 42.3888 23.0421 42.5798C23.0421 42.7387 23.0782 42.8764 23.1504 42.993C23.2251 43.1097 23.3259 43.2089 23.4528 43.2908C23.5798 43.3702 23.7204 43.4372 23.8748 43.4918C24.0291 43.5464 24.1847 43.5923 24.3415 43.6296L25.0584 43.8082C25.3472 43.8752 25.6247 43.9658 25.8911 44.08C26.1599 44.1941 26.4001 44.338 26.6117 44.5118C26.8258 44.6855 26.9951 44.8952 27.1196 45.1408C27.244 45.3865 27.3062 45.6744 27.3062 46.0044C27.3062 46.4511 27.1917 46.8445 26.9627 47.1844C26.7337 47.5219 26.4026 47.7862 25.9695 47.9773C25.5389 48.1659 25.0174 48.2602 24.405 48.2602C23.8101 48.2602 23.2935 48.1684 22.8554 47.9847C22.4198 47.8011 22.0788 47.5331 21.8323 47.1807C21.5884 46.8283 21.4564 46.399 21.4365 45.8928H22.7994C22.8193 46.1583 22.9015 46.3792 23.0458 46.5553C23.1902 46.7315 23.3782 46.8631 23.6097 46.9499C23.8437 47.0368 24.105 47.0802 24.3938 47.0802C24.695 47.0802 24.9589 47.0355 25.1854 46.9462C25.4144 46.8544 25.5936 46.7278 25.7231 46.5665C25.8525 46.4027 25.9185 46.2116 25.921 45.9933C25.9185 45.7947 25.86 45.631 25.7455 45.5019C25.631 45.3704 25.4704 45.2612 25.2638 45.1743C25.0597 45.085 24.8207 45.0056 24.5469 44.9361L23.6769 44.7128C23.0471 44.5515 22.5492 44.307 22.1833 43.9795C21.8199 43.6494 21.6382 43.2114 21.6382 42.6655C21.6382 42.2163 21.7601 41.823 22.0041 41.4855C22.2505 41.148 22.5853 40.8861 23.0085 40.7C23.4317 40.5114 23.9109 40.4171 24.4461 40.4171C24.9887 40.4171 25.4642 40.5114 25.8724 40.7C26.2832 40.8861 26.6055 41.1455 26.8395 41.478C27.0735 41.8081 27.1942 42.1877 27.2017 42.6171H25.8687Z" fill="url(#paint7_linear_316_5902)"/>
<path d="M28.0609 48.1448V42.4272H29.4126V48.1448H28.0609ZM28.7405 41.6157C28.5264 41.6157 28.3422 41.545 28.1879 41.4036C28.0335 41.2596 27.9564 41.0872 27.9564 40.8861C27.9564 40.6827 28.0335 40.5102 28.1879 40.3687C28.3422 40.2248 28.5264 40.1528 28.7405 40.1528C28.957 40.1528 29.1413 40.2248 29.2931 40.3687C29.4474 40.5102 29.5246 40.6827 29.5246 40.8861C29.5246 41.0872 29.4474 41.2596 29.2931 41.4036C29.1413 41.545 28.957 41.6157 28.7405 41.6157Z" fill="url(#paint8_linear_316_5902)"/>
<path d="M28.0609 48.1448V42.4272H29.4126V48.1448H28.0609ZM28.7405 41.6157C28.5264 41.6157 28.3422 41.545 28.1879 41.4036C28.0335 41.2596 27.9564 41.0872 27.9564 40.8861C27.9564 40.6827 28.0335 40.5102 28.1879 40.3687C28.3422 40.2248 28.5264 40.1528 28.7405 40.1528C28.957 40.1528 29.1413 40.2248 29.2931 40.3687C29.4474 40.5102 29.5246 40.6827 29.5246 40.8861C29.5246 41.0872 29.4474 41.2596 29.2931 41.4036C29.1413 41.545 28.957 41.6157 28.7405 41.6157Z" fill="white"/>
<path d="M28.0609 48.1448V42.4272H29.4126V48.1448H28.0609ZM28.7405 41.6157C28.5264 41.6157 28.3422 41.545 28.1879 41.4036C28.0335 41.2596 27.9564 41.0872 27.9564 40.8861C27.9564 40.6827 28.0335 40.5102 28.1879 40.3687C28.3422 40.2248 28.5264 40.1528 28.7405 40.1528C28.957 40.1528 29.1413 40.2248 29.2931 40.3687C29.4474 40.5102 29.5246 40.6827 29.5246 40.8861C29.5246 41.0872 29.4474 41.2596 29.2931 41.4036C29.1413 41.545 28.957 41.6157 28.7405 41.6157Z" fill="url(#paint9_linear_316_5902)"/>
<path d="M31.7336 44.7947V48.1448H30.382V42.4272H31.6739V43.3988H31.7411C31.873 43.0786 32.0834 42.8243 32.3721 42.6357C32.6634 42.4471 33.0231 42.3528 33.4512 42.3528C33.847 42.3528 34.1918 42.4371 34.4855 42.6059C34.7818 42.7746 35.0108 43.0191 35.1726 43.3392C35.3369 43.6593 35.4178 44.0477 35.4153 44.5043V48.1448H34.0636V44.7128C34.0636 44.3306 33.964 44.0316 33.7649 43.8157C33.5682 43.5998 33.2957 43.4918 32.9472 43.4918C32.7107 43.4918 32.5003 43.5439 32.3161 43.6482C32.1344 43.7499 31.9913 43.8976 31.8867 44.0911C31.7847 44.2847 31.7336 44.5192 31.7336 44.7947Z" fill="url(#paint10_linear_316_5902)"/>
<path d="M31.7336 44.7947V48.1448H30.382V42.4272H31.6739V43.3988H31.7411C31.873 43.0786 32.0834 42.8243 32.3721 42.6357C32.6634 42.4471 33.0231 42.3528 33.4512 42.3528C33.847 42.3528 34.1918 42.4371 34.4855 42.6059C34.7818 42.7746 35.0108 43.0191 35.1726 43.3392C35.3369 43.6593 35.4178 44.0477 35.4153 44.5043V48.1448H34.0636V44.7128C34.0636 44.3306 33.964 44.0316 33.7649 43.8157C33.5682 43.5998 33.2957 43.4918 32.9472 43.4918C32.7107 43.4918 32.5003 43.5439 32.3161 43.6482C32.1344 43.7499 31.9913 43.8976 31.8867 44.0911C31.7847 44.2847 31.7336 44.5192 31.7336 44.7947Z" fill="white"/>
<path d="M31.7336 44.7947V48.1448H30.382V42.4272H31.6739V43.3988H31.7411C31.873 43.0786 32.0834 42.8243 32.3721 42.6357C32.6634 42.4471 33.0231 42.3528 33.4512 42.3528C33.847 42.3528 34.1918 42.4371 34.4855 42.6059C34.7818 42.7746 35.0108 43.0191 35.1726 43.3392C35.3369 43.6593 35.4178 44.0477 35.4153 44.5043V48.1448H34.0636V44.7128C34.0636 44.3306 33.964 44.0316 33.7649 43.8157C33.5682 43.5998 33.2957 43.4918 32.9472 43.4918C32.7107 43.4918 32.5003 43.5439 32.3161 43.6482C32.1344 43.7499 31.9913 43.8976 31.8867 44.0911C31.7847 44.2847 31.7336 44.5192 31.7336 44.7947Z" fill="url(#paint11_linear_316_5902)"/>
<path d="M38.8705 48.2565C38.298 48.2565 37.8063 48.1312 37.3956 47.8805C36.9874 47.6299 36.6725 47.2837 36.4509 46.842C36.2319 46.3978 36.1223 45.8866 36.1223 45.3083C36.1223 44.7277 36.2343 44.2152 36.4584 43.771C36.6824 43.3243 36.9986 42.9769 37.4068 42.7287C37.8175 42.4781 38.3029 42.3528 38.863 42.3528C39.3285 42.3528 39.7405 42.4384 40.099 42.6096C40.4599 42.7784 40.7474 43.0178 40.9615 43.328C41.1756 43.6358 41.2975 43.9956 41.3274 44.4075H40.0355C39.9832 44.1321 39.8587 43.9025 39.6621 43.7189C39.4679 43.5328 39.2078 43.4397 38.8817 43.4397C38.6054 43.4397 38.3627 43.5142 38.1536 43.6631C37.9445 43.8095 37.7814 44.0204 37.6644 44.2959C37.5499 44.5713 37.4927 44.9014 37.4927 45.286C37.4927 45.6756 37.5499 46.0106 37.6644 46.2911C37.7789 46.569 37.9395 46.7837 38.1461 46.935C38.3552 47.0839 38.6004 47.1584 38.8817 47.1584C39.0808 47.1584 39.2588 47.1212 39.4156 47.0467C39.575 46.9698 39.7081 46.8593 39.8152 46.7154C39.9222 46.5715 39.9956 46.3965 40.0355 46.1906H41.3274C41.2951 46.5951 41.1756 46.9536 40.969 47.2663C40.7623 47.5765 40.4811 47.8197 40.1251 47.9959C39.7691 48.1696 39.3509 48.2565 38.8705 48.2565Z" fill="url(#paint12_linear_316_5902)"/>
<path d="M38.8705 48.2565C38.298 48.2565 37.8063 48.1312 37.3956 47.8805C36.9874 47.6299 36.6725 47.2837 36.4509 46.842C36.2319 46.3978 36.1223 45.8866 36.1223 45.3083C36.1223 44.7277 36.2343 44.2152 36.4584 43.771C36.6824 43.3243 36.9986 42.9769 37.4068 42.7287C37.8175 42.4781 38.3029 42.3528 38.863 42.3528C39.3285 42.3528 39.7405 42.4384 40.099 42.6096C40.4599 42.7784 40.7474 43.0178 40.9615 43.328C41.1756 43.6358 41.2975 43.9956 41.3274 44.4075H40.0355C39.9832 44.1321 39.8587 43.9025 39.6621 43.7189C39.4679 43.5328 39.2078 43.4397 38.8817 43.4397C38.6054 43.4397 38.3627 43.5142 38.1536 43.6631C37.9445 43.8095 37.7814 44.0204 37.6644 44.2959C37.5499 44.5713 37.4927 44.9014 37.4927 45.286C37.4927 45.6756 37.5499 46.0106 37.6644 46.2911C37.7789 46.569 37.9395 46.7837 38.1461 46.935C38.3552 47.0839 38.6004 47.1584 38.8817 47.1584C39.0808 47.1584 39.2588 47.1212 39.4156 47.0467C39.575 46.9698 39.7081 46.8593 39.8152 46.7154C39.9222 46.5715 39.9956 46.3965 40.0355 46.1906H41.3274C41.2951 46.5951 41.1756 46.9536 40.969 47.2663C40.7623 47.5765 40.4811 47.8197 40.1251 47.9959C39.7691 48.1696 39.3509 48.2565 38.8705 48.2565Z" fill="white"/>
<path d="M38.8705 48.2565C38.298 48.2565 37.8063 48.1312 37.3956 47.8805C36.9874 47.6299 36.6725 47.2837 36.4509 46.842C36.2319 46.3978 36.1223 45.8866 36.1223 45.3083C36.1223 44.7277 36.2343 44.2152 36.4584 43.771C36.6824 43.3243 36.9986 42.9769 37.4068 42.7287C37.8175 42.4781 38.3029 42.3528 38.863 42.3528C39.3285 42.3528 39.7405 42.4384 40.099 42.6096C40.4599 42.7784 40.7474 43.0178 40.9615 43.328C41.1756 43.6358 41.2975 43.9956 41.3274 44.4075H40.0355C39.9832 44.1321 39.8587 43.9025 39.6621 43.7189C39.4679 43.5328 39.2078 43.4397 38.8817 43.4397C38.6054 43.4397 38.3627 43.5142 38.1536 43.6631C37.9445 43.8095 37.7814 44.0204 37.6644 44.2959C37.5499 44.5713 37.4927 44.9014 37.4927 45.286C37.4927 45.6756 37.5499 46.0106 37.6644 46.2911C37.7789 46.569 37.9395 46.7837 38.1461 46.935C38.3552 47.0839 38.6004 47.1584 38.8817 47.1584C39.0808 47.1584 39.2588 47.1212 39.4156 47.0467C39.575 46.9698 39.7081 46.8593 39.8152 46.7154C39.9222 46.5715 39.9956 46.3965 40.0355 46.1906H41.3274C41.2951 46.5951 41.1756 46.9536 40.969 47.2663C40.7623 47.5765 40.4811 47.8197 40.1251 47.9959C39.7691 48.1696 39.3509 48.2565 38.8705 48.2565Z" fill="url(#paint13_linear_316_5902)"/>
<path d="M42.0167 48.1448V42.4272H43.3273V43.3801H43.3871C43.4916 43.0501 43.6709 42.7957 43.9248 42.6171C44.1812 42.4359 44.4737 42.3453 44.8022 42.3453C44.8769 42.3453 44.9603 42.349 45.0524 42.3565C45.147 42.3615 45.2254 42.3701 45.2876 42.3825V43.6221C45.2304 43.6023 45.1395 43.5849 45.0151 43.57C44.8931 43.5526 44.7749 43.5439 44.6603 43.5439C44.4139 43.5439 44.1924 43.5973 43.9957 43.704C43.8015 43.8082 43.6485 43.9534 43.5364 44.1395C43.4244 44.3256 43.3684 44.5403 43.3684 44.7835V48.1448H42.0167Z" fill="url(#paint14_linear_316_5902)"/>
<path d="M42.0167 48.1448V42.4272H43.3273V43.3801H43.3871C43.4916 43.0501 43.6709 42.7957 43.9248 42.6171C44.1812 42.4359 44.4737 42.3453 44.8022 42.3453C44.8769 42.3453 44.9603 42.349 45.0524 42.3565C45.147 42.3615 45.2254 42.3701 45.2876 42.3825V43.6221C45.2304 43.6023 45.1395 43.5849 45.0151 43.57C44.8931 43.5526 44.7749 43.5439 44.6603 43.5439C44.4139 43.5439 44.1924 43.5973 43.9957 43.704C43.8015 43.8082 43.6485 43.9534 43.5364 44.1395C43.4244 44.3256 43.3684 44.5403 43.3684 44.7835V48.1448H42.0167Z" fill="white"/>
<path d="M42.0167 48.1448V42.4272H43.3273V43.3801H43.3871C43.4916 43.0501 43.6709 42.7957 43.9248 42.6171C44.1812 42.4359 44.4737 42.3453 44.8022 42.3453C44.8769 42.3453 44.9603 42.349 45.0524 42.3565C45.147 42.3615 45.2254 42.3701 45.2876 42.3825V43.6221C45.2304 43.6023 45.1395 43.5849 45.0151 43.57C44.8931 43.5526 44.7749 43.5439 44.6603 43.5439C44.4139 43.5439 44.1924 43.5973 43.9957 43.704C43.8015 43.8082 43.6485 43.9534 43.5364 44.1395C43.4244 44.3256 43.3684 44.5403 43.3684 44.7835V48.1448H42.0167Z" fill="url(#paint15_linear_316_5902)"/>
<path d="M47.3128 48.2602C46.9493 48.2602 46.622 48.1957 46.3308 48.0666C46.042 47.9351 45.813 47.7416 45.6437 47.4859C45.4769 47.2303 45.3935 46.9152 45.3935 46.5405C45.3935 46.2179 45.4533 45.9511 45.5728 45.7401C45.6923 45.5292 45.8553 45.3605 46.0619 45.2339C46.2685 45.1073 46.5013 45.0118 46.7602 44.9473C47.0215 44.8803 47.2916 44.8319 47.5704 44.8021C47.9065 44.7674 48.179 44.7363 48.3881 44.709C48.5972 44.6793 48.7491 44.6346 48.8437 44.575C48.9408 44.513 48.9893 44.4175 48.9893 44.2884V44.2661C48.9893 43.9857 48.9059 43.7685 48.7391 43.6147C48.5724 43.4608 48.3321 43.3839 48.0185 43.3839C47.6874 43.3839 47.4248 43.4558 47.2306 43.5998C47.039 43.7437 46.9095 43.9137 46.8423 44.1097L45.5802 43.9311C45.6798 43.5836 45.8441 43.2933 46.0731 43.06C46.3021 42.8243 46.5822 42.6481 46.9132 42.5314C47.2443 42.4123 47.6102 42.3528 48.011 42.3528C48.2873 42.3528 48.5624 42.385 48.8362 42.4496C49.11 42.5141 49.3602 42.6208 49.5867 42.7697C49.8133 42.9161 49.995 43.1159 50.1319 43.369C50.2713 43.6221 50.341 43.9385 50.341 44.3182V48.1448H49.0416V47.3594H48.9968C48.9146 47.5182 48.7989 47.6671 48.6495 47.8061C48.5027 47.9426 48.3172 48.053 48.0932 48.1374C47.8716 48.2193 47.6115 48.2602 47.3128 48.2602ZM47.6638 47.27C47.9351 47.27 48.1703 47.2167 48.3695 47.11C48.5686 47.0008 48.7217 46.8569 48.8287 46.6782C48.9383 46.4995 48.993 46.3047 48.993 46.0938V45.42C48.9507 45.4548 48.8785 45.487 48.7765 45.5168C48.6769 45.5466 48.5649 45.5726 48.4404 45.595C48.316 45.6173 48.1927 45.6372 48.0708 45.6545C47.9488 45.6719 47.843 45.6868 47.7534 45.6992C47.5517 45.7265 47.3713 45.7712 47.212 45.8332C47.0526 45.8952 46.9269 45.9821 46.8348 46.0938C46.7427 46.203 46.6967 46.3444 46.6967 46.5181C46.6967 46.7663 46.7875 46.9536 46.9693 47.0802C47.151 47.2068 47.3825 47.27 47.6638 47.27Z" fill="url(#paint16_linear_316_5902)"/>
<path d="M47.3128 48.2602C46.9493 48.2602 46.622 48.1957 46.3308 48.0666C46.042 47.9351 45.813 47.7416 45.6437 47.4859C45.4769 47.2303 45.3935 46.9152 45.3935 46.5405C45.3935 46.2179 45.4533 45.9511 45.5728 45.7401C45.6923 45.5292 45.8553 45.3605 46.0619 45.2339C46.2685 45.1073 46.5013 45.0118 46.7602 44.9473C47.0215 44.8803 47.2916 44.8319 47.5704 44.8021C47.9065 44.7674 48.179 44.7363 48.3881 44.709C48.5972 44.6793 48.7491 44.6346 48.8437 44.575C48.9408 44.513 48.9893 44.4175 48.9893 44.2884V44.2661C48.9893 43.9857 48.9059 43.7685 48.7391 43.6147C48.5724 43.4608 48.3321 43.3839 48.0185 43.3839C47.6874 43.3839 47.4248 43.4558 47.2306 43.5998C47.039 43.7437 46.9095 43.9137 46.8423 44.1097L45.5802 43.9311C45.6798 43.5836 45.8441 43.2933 46.0731 43.06C46.3021 42.8243 46.5822 42.6481 46.9132 42.5314C47.2443 42.4123 47.6102 42.3528 48.011 42.3528C48.2873 42.3528 48.5624 42.385 48.8362 42.4496C49.11 42.5141 49.3602 42.6208 49.5867 42.7697C49.8133 42.9161 49.995 43.1159 50.1319 43.369C50.2713 43.6221 50.341 43.9385 50.341 44.3182V48.1448H49.0416V47.3594H48.9968C48.9146 47.5182 48.7989 47.6671 48.6495 47.8061C48.5027 47.9426 48.3172 48.053 48.0932 48.1374C47.8716 48.2193 47.6115 48.2602 47.3128 48.2602ZM47.6638 47.27C47.9351 47.27 48.1703 47.2167 48.3695 47.11C48.5686 47.0008 48.7217 46.8569 48.8287 46.6782C48.9383 46.4995 48.993 46.3047 48.993 46.0938V45.42C48.9507 45.4548 48.8785 45.487 48.7765 45.5168C48.6769 45.5466 48.5649 45.5726 48.4404 45.595C48.316 45.6173 48.1927 45.6372 48.0708 45.6545C47.9488 45.6719 47.843 45.6868 47.7534 45.6992C47.5517 45.7265 47.3713 45.7712 47.212 45.8332C47.0526 45.8952 46.9269 45.9821 46.8348 46.0938C46.7427 46.203 46.6967 46.3444 46.6967 46.5181C46.6967 46.7663 46.7875 46.9536 46.9693 47.0802C47.151 47.2068 47.3825 47.27 47.6638 47.27Z" fill="white"/>
<path d="M47.3128 48.2602C46.9493 48.2602 46.622 48.1957 46.3308 48.0666C46.042 47.9351 45.813 47.7416 45.6437 47.4859C45.4769 47.2303 45.3935 46.9152 45.3935 46.5405C45.3935 46.2179 45.4533 45.9511 45.5728 45.7401C45.6923 45.5292 45.8553 45.3605 46.0619 45.2339C46.2685 45.1073 46.5013 45.0118 46.7602 44.9473C47.0215 44.8803 47.2916 44.8319 47.5704 44.8021C47.9065 44.7674 48.179 44.7363 48.3881 44.709C48.5972 44.6793 48.7491 44.6346 48.8437 44.575C48.9408 44.513 48.9893 44.4175 48.9893 44.2884V44.2661C48.9893 43.9857 48.9059 43.7685 48.7391 43.6147C48.5724 43.4608 48.3321 43.3839 48.0185 43.3839C47.6874 43.3839 47.4248 43.4558 47.2306 43.5998C47.039 43.7437 46.9095 43.9137 46.8423 44.1097L45.5802 43.9311C45.6798 43.5836 45.8441 43.2933 46.0731 43.06C46.3021 42.8243 46.5822 42.6481 46.9132 42.5314C47.2443 42.4123 47.6102 42.3528 48.011 42.3528C48.2873 42.3528 48.5624 42.385 48.8362 42.4496C49.11 42.5141 49.3602 42.6208 49.5867 42.7697C49.8133 42.9161 49.995 43.1159 50.1319 43.369C50.2713 43.6221 50.341 43.9385 50.341 44.3182V48.1448H49.0416V47.3594H48.9968C48.9146 47.5182 48.7989 47.6671 48.6495 47.8061C48.5027 47.9426 48.3172 48.053 48.0932 48.1374C47.8716 48.2193 47.6115 48.2602 47.3128 48.2602ZM47.6638 47.27C47.9351 47.27 48.1703 47.2167 48.3695 47.11C48.5686 47.0008 48.7217 46.8569 48.8287 46.6782C48.9383 46.4995 48.993 46.3047 48.993 46.0938V45.42C48.9507 45.4548 48.8785 45.487 48.7765 45.5168C48.6769 45.5466 48.5649 45.5726 48.4404 45.595C48.316 45.6173 48.1927 45.6372 48.0708 45.6545C47.9488 45.6719 47.843 45.6868 47.7534 45.6992C47.5517 45.7265 47.3713 45.7712 47.212 45.8332C47.0526 45.8952 46.9269 45.9821 46.8348 46.0938C46.7427 46.203 46.6967 46.3444 46.6967 46.5181C46.6967 46.7663 46.7875 46.9536 46.9693 47.0802C47.151 47.2068 47.3825 47.27 47.6638 47.27Z" fill="url(#paint17_linear_316_5902)"/>
<path d="M52.1122 48.2267C51.8857 48.2267 51.6915 48.1473 51.5297 47.9885C51.3679 47.8296 51.2883 47.6361 51.2907 47.4078C51.2883 47.1844 51.3679 46.9933 51.5297 46.8345C51.6915 46.6757 51.8857 46.5963 52.1122 46.5963C52.3313 46.5963 52.5217 46.6757 52.6835 46.8345C52.8478 46.9933 52.9312 47.1844 52.9337 47.4078C52.9312 47.5592 52.8914 47.6969 52.8142 47.821C52.7395 47.945 52.6399 48.0443 52.5155 48.1188C52.3935 48.1907 52.2591 48.2267 52.1122 48.2267Z" fill="url(#paint18_linear_316_5902)"/>
<path d="M52.1122 48.2267C51.8857 48.2267 51.6915 48.1473 51.5297 47.9885C51.3679 47.8296 51.2883 47.6361 51.2907 47.4078C51.2883 47.1844 51.3679 46.9933 51.5297 46.8345C51.6915 46.6757 51.8857 46.5963 52.1122 46.5963C52.3313 46.5963 52.5217 46.6757 52.6835 46.8345C52.8478 46.9933 52.9312 47.1844 52.9337 47.4078C52.9312 47.5592 52.8914 47.6969 52.8142 47.821C52.7395 47.945 52.6399 48.0443 52.5155 48.1188C52.3935 48.1907 52.2591 48.2267 52.1122 48.2267Z" fill="white"/>
<path d="M52.1122 48.2267C51.8857 48.2267 51.6915 48.1473 51.5297 47.9885C51.3679 47.8296 51.2883 47.6361 51.2907 47.4078C51.2883 47.1844 51.3679 46.9933 51.5297 46.8345C51.6915 46.6757 51.8857 46.5963 52.1122 46.5963C52.3313 46.5963 52.5217 46.6757 52.6835 46.8345C52.8478 46.9933 52.9312 47.1844 52.9337 47.4078C52.9312 47.5592 52.8914 47.6969 52.8142 47.821C52.7395 47.945 52.6399 48.0443 52.5155 48.1188C52.3935 48.1907 52.2591 48.2267 52.1122 48.2267Z" fill="url(#paint19_linear_316_5902)"/>
<path d="M0.841797 15.8646V0.767822H16.4592" stroke="white" stroke-opacity="0.4" stroke-width="1.00645"/>
<path d="M0.841797 58.1354V73.2322H16.4592" stroke="white" stroke-opacity="0.4" stroke-width="1.00645"/>
<path d="M75.8057 15.8646V0.767822H60.1883" stroke="white" stroke-opacity="0.4" stroke-width="1.00645"/>
<path d="M75.8057 58.1354V73.2322H60.1883" stroke="white" stroke-opacity="0.4" stroke-width="1.00645"/>
</g>
<defs>
<filter id="filter0_d_316_5902" x="-7.97432" y="-2.25153" width="92.5932" height="90.5807" filterUnits="userSpaceOnUse" color-interpolation-filters="sRGB">
<feFlood flood-opacity="0" result="BackgroundImageFix"/>
<feColorMatrix in="SourceAlpha" type="matrix" values="0 0 0 0 0 0 0 0 0 0 0 0 0 0 0 0 0 0 127 0" result="hardAlpha"/>
<feOffset dy="6.03871"/>
<feGaussianBlur stdDeviation="8.05161"/>
<feComposite in2="hardAlpha" operator="out"/>
<feColorMatrix type="matrix" values="0 0 0 0 0.0837717 0 0 0 0 0.0915935 0 0 0 0 0.240209 0 0 0 0.1 0"/>
<feBlend mode="normal" in2="BackgroundImageFix" result="effect1_dropShadow_316_5902"/>
<feBlend mode="normal" in="SourceGraphic" in2="effect1_dropShadow_316_5902" result="shape"/>
</filter>
<linearGradient id="paint0_linear_316_5902" x1="21.4365" y1="37" x2="55.5584" y2="37" gradientUnits="userSpaceOnUse">
<stop stop-color="#1A0D34"/>
<stop offset="1" stop-color="#462191"/>
</linearGradient>
<linearGradient id="paint1_linear_316_5902" x1="38.4975" y1="25.7397" x2="38.4975" y2="48.2602" gradientUnits="userSpaceOnUse">
<stop stop-color="#7A7CF5"/>
<stop offset="1" stop-color="#5D58F1"/>
</linearGradient>
<linearGradient id="paint2_linear_316_5902" x1="21.4365" y1="37" x2="55.5584" y2="37" gradientUnits="userSpaceOnUse">
<stop stop-color="#1A0D34"/>
<stop offset="1" stop-color="#462191"/>
</linearGradient>
<linearGradient id="paint3_linear_316_5902" x1="38.4975" y1="25.7397" x2="38.4975" y2="48.2602" gradientUnits="userSpaceOnUse">
<stop stop-color="#7A7CF5"/>
<stop offset="1" stop-color="#5D58F1"/>
</linearGradient>
<linearGradient id="paint4_linear_316_5902" x1="21.4365" y1="37" x2="55.5584" y2="37" gradientUnits="userSpaceOnUse">
<stop stop-color="#1A0D34"/>
<stop offset="1" stop-color="#462191"/>
</linearGradient>
<linearGradient id="paint5_linear_316_5902" x1="38.4975" y1="25.7397" x2="38.4975" y2="48.2602" gradientUnits="userSpaceOnUse">
<stop stop-color="#7A7CF5"/>
<stop offset="1" stop-color="#5D58F1"/>
</linearGradient>
<linearGradient id="paint6_linear_316_5902" x1="21.4365" y1="37" x2="55.5584" y2="37" gradientUnits="userSpaceOnUse">
<stop stop-color="#1A0D34"/>
<stop offset="1" stop-color="#462191"/>
</linearGradient>
<linearGradient id="paint7_linear_316_5902" x1="38.4975" y1="25.7397" x2="38.4975" y2="48.2602" gradientUnits="userSpaceOnUse">
<stop stop-color="#7A7CF5"/>
<stop offset="1" stop-color="#5D58F1"/>
</linearGradient>
<linearGradient id="paint8_linear_316_5902" x1="21.4365" y1="37" x2="55.5584" y2="37" gradientUnits="userSpaceOnUse">
<stop stop-color="#1A0D34"/>
<stop offset="1" stop-color="#462191"/>
</linearGradient>
<linearGradient id="paint9_linear_316_5902" x1="38.4975" y1="25.7397" x2="38.4975" y2="48.2602" gradientUnits="userSpaceOnUse">
<stop stop-color="#7A7CF5"/>
<stop offset="1" stop-color="#5D58F1"/>
</linearGradient>
<linearGradient id="paint10_linear_316_5902" x1="21.4365" y1="37" x2="55.5584" y2="37" gradientUnits="userSpaceOnUse">
<stop stop-color="#1A0D34"/>
<stop offset="1" stop-color="#462191"/>
</linearGradient>
<linearGradient id="paint11_linear_316_5902" x1="38.4975" y1="25.7397" x2="38.4975" y2="48.2602" gradientUnits="userSpaceOnUse">
<stop stop-color="#7A7CF5"/>
<stop offset="1" stop-color="#5D58F1"/>
</linearGradient>
<linearGradient id="paint12_linear_316_5902" x1="21.4365" y1="37" x2="55.5584" y2="37" gradientUnits="userSpaceOnUse">
<stop stop-color="#1A0D34"/>
<stop offset="1" stop-color="#462191"/>
</linearGradient>
<linearGradient id="paint13_linear_316_5902" x1="38.4975" y1="25.7397" x2="38.4975" y2="48.2602" gradientUnits="userSpaceOnUse">
<stop stop-color="#7A7CF5"/>
<stop offset="1" stop-color="#5D58F1"/>
</linearGradient>
<linearGradient id="paint14_linear_316_5902" x1="21.4365" y1="37" x2="55.5584" y2="37" gradientUnits="userSpaceOnUse">
<stop stop-color="#1A0D34"/>
<stop offset="1" stop-color="#462191"/>
</linearGradient>
<linearGradient id="paint15_linear_316_5902" x1="38.4975" y1="25.7397" x2="38.4975" y2="48.2602" gradientUnits="userSpaceOnUse">
<stop stop-color="#7A7CF5"/>
<stop offset="1" stop-color="#5D58F1"/>
</linearGradient>
<linearGradient id="paint16_linear_316_5902" x1="21.4365" y1="37" x2="55.5584" y2="37" gradientUnits="userSpaceOnUse">
<stop stop-color="#1A0D34"/>
<stop offset="1" stop-color="#462191"/>
</linearGradient>
<linearGradient id="paint17_linear_316_5902" x1="38.4975" y1="25.7397" x2="38.4975" y2="48.2602" gradientUnits="userSpaceOnUse">
<stop stop-color="#7A7CF5"/>
<stop offset="1" stop-color="#5D58F1"/>
</linearGradient>
<linearGradient id="paint18_linear_316_5902" x1="21.4365" y1="37" x2="55.5584" y2="37" gradientUnits="userSpaceOnUse">
<stop stop-color="#1A0D34"/>
<stop offset="1" stop-color="#462191"/>
</linearGradient>
<linearGradient id="paint19_linear_316_5902" x1="38.4975" y1="25.7397" x2="38.4975" y2="48.2602" gradientUnits="userSpaceOnUse">
<stop stop-color="#7A7CF5"/>
<stop offset="1" stop-color="#5D58F1"/>
</linearGradient>
</defs>
</svg>
