<svg width="32" height="32" viewBox="0 0 32 32" fill="none" xmlns="http://www.w3.org/2000/svg">
<path d="M2.66699 21.3334C2.66699 18.2149 2.66699 16.6556 3.38228 15.5172C3.75527 14.9236 4.25722 14.4217 4.85084 14.0487C5.98922 13.3334 7.54847 13.3334 10.667 13.3334H21.3337C24.4522 13.3334 26.0114 13.3334 27.1498 14.0487C27.7434 14.4217 28.2454 14.9236 28.6184 15.5172C29.3337 16.6556 29.3337 18.2149 29.3337 21.3334C29.3337 24.4519 29.3337 26.0112 28.6184 27.1495C28.2454 27.7431 27.7434 28.2451 27.1498 28.6181C26.0114 29.3334 24.4522 29.3334 21.3337 29.3334H10.667C7.54847 29.3334 5.98922 29.3334 4.85084 28.6181C4.25722 28.2451 3.75527 27.7431 3.38228 27.1495C2.66699 26.0112 2.66699 24.4519 2.66699 21.3334Z" stroke="#8067F6" stroke-width="2" stroke-linecap="round" stroke-linejoin="round"/>
<path d="M26.6663 13.3333C26.6663 11.4665 26.6663 10.5331 26.303 9.82003C25.9835 9.19282 25.4735 8.68289 24.8463 8.36331C24.1333 8 23.1998 8 21.333 8H10.6663C8.7995 8 7.86608 8 7.15304 8.36331C6.52583 8.68289 6.0159 9.19282 5.69632 9.82003C5.33301 10.5331 5.33301 11.4665 5.33301 13.3333" stroke="#8067F6" stroke-width="2" stroke-linecap="round" stroke-linejoin="round"/>
<path d="M24 7.99996C24 5.4858 24 4.22872 23.219 3.44767C22.4379 2.66663 21.1808 2.66663 18.6667 2.66663H13.3333C10.8192 2.66663 9.5621 2.66663 8.78105 3.44767C8 4.22872 8 5.4858 8 7.99996" stroke="#8067F6" stroke-width="2" stroke-linecap="round" stroke-linejoin="round"/>
<path d="M20 18.6666C20 20.1394 18.8061 21.3333 17.3333 21.3333H14.6667C13.1939 21.3333 12 20.1394 12 18.6666" stroke="#8067F6" stroke-width="2" stroke-linecap="round"/>
</svg>
