<svg width="15" height="17" viewBox="0 0 15 17" fill="none" xmlns="http://www.w3.org/2000/svg">
<g clip-path="url(#clip0_195_27929)">
<path d="M7.50317 4.68208C5.37371 4.68208 3.65607 6.3854 3.65607 8.49711C3.65607 10.6088 5.37371 12.3122 7.50317 12.3122C9.63263 12.3122 11.3503 10.6088 11.3503 8.49711C11.3503 6.3854 9.63263 4.68208 7.50317 4.68208ZM7.50317 10.9774C6.12705 10.9774 5.00205 9.86508 5.00205 8.49711C5.00205 7.12915 6.12371 6.01684 7.50317 6.01684C8.88263 6.01684 10.0043 7.12915 10.0043 8.49711C10.0043 9.86508 8.87928 10.9774 7.50317 10.9774ZM12.405 4.52602C12.405 5.02075 12.0032 5.41587 11.5076 5.41587C11.0087 5.41587 10.6103 5.01743 10.6103 4.52602C10.6103 4.03462 11.0121 3.63618 11.5076 3.63618C12.0032 3.63618 12.405 4.03462 12.405 4.52602ZM14.9529 5.42915C14.896 4.23716 14.6215 3.1813 13.7409 2.31138C12.8637 1.44145 11.7989 1.16919 10.5969 1.10942C9.35808 1.0397 5.64491 1.0397 4.40607 1.10942C3.20741 1.16587 2.14268 1.43813 1.2621 2.30806C0.381522 3.17798 0.110317 4.23384 0.0500488 5.42583C-0.0202637 6.65434 -0.0202637 10.3366 0.0500488 11.5651C0.106968 12.7571 0.381522 13.8129 1.2621 14.6829C2.14268 15.5528 3.20406 15.825 4.40607 15.8848C5.64491 15.9545 9.35808 15.9545 10.5969 15.8848C11.7989 15.8284 12.8637 15.5561 13.7409 14.6829C14.6181 13.8129 14.8927 12.7571 14.9529 11.5651C15.0233 10.3366 15.0233 6.65766 14.9529 5.42915ZM13.3525 12.8832C13.0913 13.534 12.5858 14.0354 11.9262 14.2977C10.9384 14.6862 8.59469 14.5965 7.50317 14.5965C6.41165 14.5965 4.06455 14.6829 3.08018 14.2977C2.42393 14.0387 1.91835 13.5373 1.65384 12.8832C1.2621 11.9038 1.3525 9.57954 1.3525 8.49711C1.3525 7.41469 1.26545 5.08716 1.65384 4.11098C1.915 3.4602 2.42058 2.95884 3.08018 2.69653C4.0679 2.30806 6.41165 2.3977 7.50317 2.3977C8.59469 2.3977 10.9418 2.31138 11.9262 2.69653C12.5824 2.95552 13.088 3.45688 13.3525 4.11098C13.7442 5.09048 13.6538 7.41469 13.6538 8.49711C13.6538 9.57954 13.7442 11.9071 13.3525 12.8832Z" fill="#1E0059"/>
</g>
<defs>
<clipPath id="clip0_195_27929">
<rect width="15" height="17" fill="white"/>
</clipPath>
</defs>
</svg>
