<svg width="32" height="32" viewBox="0 0 32 32" fill="none" xmlns="http://www.w3.org/2000/svg">
<path opacity="0.2" fill-rule="evenodd" clip-rule="evenodd" d="M29.3333 16.0001C29.3333 23.3639 23.3638 29.3334 16 29.3334C12.366 29.3334 9.07163 27.8797 6.66663 25.522C6.41948 25.2873 4.63661 22.6318 3.77608 21.3334C3.06249 19.7002 2.66663 17.8964 2.66663 16.0001C2.66663 8.63628 8.63616 2.66675 16 2.66675C19.6339 2.66675 22.9283 4.12051 25.3333 6.47817L28.2238 10.6667C28.9374 12.3 29.3333 14.1038 29.3333 16.0001ZM23.8946 17.1351C23.7893 17.2995 23.4283 17.4656 22.7063 17.7977C21.6362 18.29 20.9492 19.3671 20.9863 20.4943C21.0146 21.3555 21.0288 21.7861 20.9354 21.9499C20.8419 22.1136 20.6157 22.2376 20.1632 22.4855L19.733 22.7212C19.2944 22.9615 19.075 23.0816 18.8877 23.0728C18.7003 23.0639 18.3818 22.848 17.7449 22.4161C16.708 21.713 15.2931 21.7131 14.2563 22.4161C13.6194 22.848 13.3009 23.064 13.1135 23.0728C12.9262 23.0817 12.7069 22.9616 12.2682 22.7212L11.838 22.4856C11.3856 22.2377 11.1594 22.1138 11.066 21.9501C10.9725 21.7863 10.9866 21.3557 11.0148 20.4943C11.0516 19.3671 10.3641 18.2899 9.2936 17.7976C8.57165 17.4657 8.21068 17.2997 8.10532 17.1352C7.99996 16.9708 7.99996 16.7089 7.99996 16.185V15.8152C7.99996 15.2913 7.99996 15.0293 8.10534 14.8649C8.21072 14.7005 8.57169 14.5345 9.29362 14.2026C10.3644 13.7104 11.0524 12.6332 11.0159 11.5059C10.9879 10.6444 10.9739 10.2137 11.0674 10.05C11.1608 9.88631 11.3869 9.76241 11.8393 9.51459L12.2695 9.27892C12.708 9.03864 12.9273 8.9185 13.1147 8.92735C13.302 8.93621 13.6205 9.15211 14.2576 9.58393C15.2938 10.2862 16.7074 10.2862 17.7435 9.584C18.3807 9.15219 18.6992 8.93628 18.8865 8.92743C19.0739 8.91858 19.2931 9.03872 19.7317 9.279L20.1619 9.51466C20.6143 9.76252 20.8405 9.88646 20.934 10.0502C21.0274 10.2139 21.0133 10.6446 20.9852 11.5059C20.9483 12.6331 21.6359 13.7103 22.7063 14.2026C23.4283 14.5346 23.7892 14.7006 23.8946 14.865C24 15.0294 24 15.2913 24 15.8152V16.185C24 16.7088 24 16.9707 23.8946 17.1351Z" fill="#8067F6"/>
<path d="M23.0164 17.6754C23.5461 17.4995 23.8109 17.4115 23.9055 17.2805C24 17.1495 24 16.9391 24 16.5184V15.4819C24 15.0611 24 14.8507 23.9054 14.7197C23.8109 14.5887 23.5461 14.5008 23.0164 14.3249C21.6543 13.8727 20.7942 12.5126 21.0196 11.1591C21.1177 10.5701 21.1668 10.2756 21.0971 10.1322C21.0274 9.98881 20.8409 9.88663 20.4679 9.68226L19.4524 9.12595C19.0998 8.93278 18.9235 8.8362 18.769 8.8519C18.6145 8.86759 18.4087 9.0422 17.9971 9.39143C16.8669 10.3504 15.1343 10.3504 14.0042 9.39136C13.5926 9.04213 13.3868 8.86752 13.2323 8.85182C13.0777 8.83612 12.9014 8.93271 12.5488 9.12588L11.5334 9.68219C11.1604 9.88653 10.9739 9.9887 10.9042 10.1321C10.8346 10.2754 10.8836 10.57 10.9816 11.1591C11.2068 12.5126 10.346 13.8727 8.98358 14.3249C8.45394 14.5007 8.18913 14.5886 8.09456 14.7197C8 14.8507 8 15.0611 8 15.4819V16.5184C8 16.9391 8 17.1495 8.09455 17.2805C8.1891 17.4116 8.45393 17.4995 8.98357 17.6753C10.3457 18.1276 11.2058 19.4877 10.9804 20.8411C10.8823 21.4301 10.8332 21.7246 10.9029 21.868C10.9726 22.0114 11.1591 22.1136 11.5321 22.318L12.5476 22.8743C12.9002 23.0675 13.0765 23.1641 13.2311 23.1484C13.3856 23.1326 13.5914 22.958 14.0028 22.6087C15.1337 21.6489 16.8676 21.6488 17.9984 22.6087C18.4099 22.9579 18.6156 23.1326 18.7702 23.1483C18.9247 23.164 19.1011 23.0674 19.4537 22.8742L20.4691 22.3179C20.8422 22.1135 21.0287 22.0113 21.0984 21.8679C21.1681 21.7245 21.119 21.43 21.0208 20.8411C20.7951 19.4877 21.6546 18.1276 23.0164 17.6754Z" stroke="#8067F6" stroke-width="1.5" stroke-linecap="round"/>
<circle opacity="0.4" cx="16" cy="16.0001" r="2.33333" fill="#8067F6"/>
<circle cx="16" cy="16.0001" r="2.33333" stroke="#8067F6" stroke-width="1.5"/>
<path d="M25.3333 2.66675V6.47817C22.9283 4.12051 19.6339 2.66675 16 2.66675C8.63616 2.66675 2.66663 8.63628 2.66663 16.0001C2.66663 17.8964 3.06249 19.7002 3.77608 21.3334M6.66663 29.3334V25.522C9.07163 27.8797 12.366 29.3334 16 29.3334C23.3638 29.3334 29.3333 23.3639 29.3333 16.0001C29.3333 14.1038 28.9374 12.3 28.2238 10.6667" stroke="#8067F6" stroke-width="1.5" stroke-linecap="round" stroke-linejoin="round"/>
</svg>
