<svg width="64" height="64" viewBox="0 0 64 64" fill="none" xmlns="http://www.w3.org/2000/svg">
<rect width="64" height="64" rx="12" fill="white"/>
<path fill-rule="evenodd" clip-rule="evenodd" d="M25.913 26.7277C29.6765 26.7254 32.7266 23.6422 32.7266 19.8391V19.3799H22.727C20.7188 19.3799 19.0908 21.0248 19.0908 23.0538C19.0908 25.0821 20.7176 26.7265 22.7248 26.7277C20.7176 26.7289 19.0908 28.3733 19.0908 30.4017C19.0908 32.4307 20.7188 34.0756 22.727 34.0756H25.9087C22.1433 34.0756 19.0908 37.1597 19.0908 40.9642V41.4234H29.0904C31.0987 41.4234 32.7266 39.7786 32.7266 37.7495C32.7266 35.7205 31.0987 34.0756 29.0904 34.0756C31.0987 34.0756 32.7266 32.4307 32.7266 30.4017C32.7266 28.3726 31.0987 26.7277 29.0904 26.7277H25.913ZM40.8971 19.3799C37.3888 19.3799 34.5446 22.2535 34.5446 25.7983V27.1859V27.1995L34.5658 41.4239C38.0742 41.4185 40.914 38.5406 40.9087 34.9958L40.9065 33.6082C40.9064 33.4931 40.9032 33.3787 40.8971 33.2651V19.3799Z" fill="#8067F6"/>
</svg>
