<svg width="302" height="150" viewBox="0 0 302 150" fill="none" xmlns="http://www.w3.org/2000/svg">
<rect x="0.800781" y="0.273071" width="300.8" height="149.333" rx="12.6061" fill="#F8F6FE"/>
<rect x="1.28563" y="0.75792" width="299.83" height="148.364" rx="12.1212" stroke="#0B264C" stroke-opacity="0.1" stroke-width="0.969697"/>
<rect x="29.5039" y="25.873" width="98.1333" height="98.1333" rx="12.8" fill="white"/>
<path d="M54.3418 93.9397H48.2734L61.8828 56.1077H68.4844L82.0684 93.9397H76.0254L65.3105 62.9885H65.0059L54.3418 93.9397ZM55.3574 79.137H74.9844V83.9104H55.3574V79.137ZM91.5533 94.5491C89.759 94.5491 88.134 94.219 86.6783 93.5588C85.2226 92.8818 84.0715 91.9 83.2252 90.6135C82.3788 89.3271 81.9556 87.7613 81.9556 85.9163C81.9556 84.3082 82.2603 82.9963 82.8697 81.9807C83.496 80.9482 84.3339 80.1272 85.3834 79.5178C86.4328 78.9084 87.6008 78.4514 88.8873 78.1467C90.1737 77.842 91.494 77.6051 92.8482 77.4358C94.5578 77.2496 95.9374 77.0888 96.9869 76.9534C98.0364 76.818 98.7981 76.6064 99.272 76.3186C99.7629 76.0139 100.008 75.5315 100.008 74.8713V74.7444C100.008 73.1363 99.5513 71.8922 98.6373 71.012C97.7401 70.1318 96.4029 69.6917 94.6255 69.6917C92.7805 69.6917 91.3163 70.0979 90.233 70.9104C89.1666 71.706 88.4302 72.6116 88.024 73.6272L82.8189 72.4338C83.4452 70.7073 84.3508 69.3193 85.5357 68.2698C86.7375 67.2034 88.1086 66.4247 89.649 65.9338C91.2063 65.443 92.8313 65.1975 94.524 65.1975C95.6581 65.1975 96.8599 65.3329 98.1295 65.6038C99.399 65.8577 100.592 66.3401 101.71 67.051C102.844 67.745 103.766 68.7437 104.477 70.0471C105.188 71.3505 105.544 73.0347 105.544 75.0999V93.9397H100.135V90.0549H99.9322C99.5936 90.7489 99.0604 91.443 98.3326 92.137C97.6216 92.831 96.7076 93.4065 95.5904 93.8635C94.4732 94.3206 93.1275 94.5491 91.5533 94.5491ZM92.7466 90.1311C94.287 90.1311 95.5989 89.8349 96.6822 89.2424C97.7655 88.6331 98.5949 87.8375 99.1705 86.8557C99.746 85.8739 100.034 84.8329 100.034 83.7327V80.051C99.8306 80.2372 99.4498 80.415 98.8912 80.5842C98.3326 80.7535 97.6978 80.8974 96.9869 81.0159C96.2759 81.1344 95.5819 81.2444 94.9048 81.3459C94.2278 81.4306 93.6607 81.4983 93.2037 81.5491C92.1373 81.7014 91.164 81.9384 90.2837 82.26C89.4035 82.5647 88.6926 83.0217 88.1509 83.6311C87.6262 84.2236 87.3638 85.0107 87.3638 85.9924C87.3638 87.3635 87.8716 88.3961 88.8873 89.0901C89.9029 89.7841 91.1893 90.1311 92.7466 90.1311Z" fill="#1E0059"/>
<path d="M156.605 49.989V64.5397H154.408V49.989H156.605ZM160.512 58.0651V64.5397H158.403V53.6218H160.454V55.4186H160.6C160.847 54.8262 161.235 54.3574 161.762 54.0124C162.289 53.6608 162.967 53.485 163.793 53.485C164.536 53.485 165.183 53.6413 165.737 53.9538C166.297 54.2598 166.73 54.7188 167.036 55.3307C167.348 55.9427 167.504 56.7012 167.504 57.6061V64.5397H165.395V57.86C165.395 57.0723 165.187 56.4538 164.77 56.0046C164.353 55.5488 163.787 55.321 163.071 55.321C162.582 55.321 162.143 55.4317 161.752 55.653C161.368 55.8679 161.065 56.1771 160.844 56.5807C160.623 56.9844 160.512 57.4792 160.512 58.0651ZM174.214 53.6218V55.3307H168.257V53.6218H174.214ZM169.848 51.0241H171.968V61.3366C171.968 61.8379 172.072 62.2057 172.28 62.4401C172.488 62.668 172.824 62.7819 173.286 62.7819C173.397 62.7819 173.514 62.7754 173.637 62.7624C173.768 62.7494 173.898 62.7298 174.028 62.7038L174.429 64.4616C174.214 64.5332 173.979 64.5886 173.725 64.6276C173.471 64.6667 173.218 64.6862 172.964 64.6862C172.02 64.6862 171.264 64.4225 170.698 63.8952C170.132 63.3613 169.848 62.6517 169.848 61.7663V51.0241ZM179.917 64.7643C178.849 64.7643 177.925 64.5332 177.144 64.071C176.362 63.6087 175.76 62.9577 175.337 62.1179C174.92 61.2715 174.712 60.2852 174.712 59.1589C174.712 58.0391 174.917 57.0528 175.327 56.1999C175.744 55.347 176.327 54.683 177.075 54.2077C177.831 53.7259 178.716 53.485 179.732 53.485C180.35 53.485 180.949 53.586 181.529 53.7878C182.108 53.9896 182.629 54.3086 183.091 54.7448C183.553 55.181 183.918 55.7474 184.185 56.444C184.458 57.1406 184.595 57.9805 184.595 58.9636V59.7253H175.913V58.1335H183.501L182.515 58.6608C182.515 57.9903 182.411 57.3978 182.202 56.8835C181.994 56.3692 181.682 55.9688 181.265 55.6823C180.855 55.3893 180.344 55.2429 179.732 55.2429C179.12 55.2429 178.596 55.3893 178.159 55.6823C177.73 55.9753 177.401 56.3627 177.173 56.8444C176.945 57.3262 176.831 57.8535 176.831 58.4265V59.5104C176.831 60.2591 176.961 60.8939 177.222 61.4147C177.482 61.9356 177.844 62.3327 178.306 62.6061C178.775 62.8796 179.318 63.0163 179.937 63.0163C180.34 63.0163 180.705 62.9577 181.03 62.8405C181.362 62.7233 181.649 62.5475 181.89 62.3132C182.131 62.0788 182.313 61.7891 182.437 61.444L184.448 61.8249C184.286 62.4108 183.999 62.9252 183.589 63.3679C183.179 63.8106 182.661 64.1556 182.036 64.403C181.418 64.6439 180.711 64.7643 179.917 64.7643ZM185.679 64.5397V53.6218H187.72V55.3698H187.837C188.039 54.7839 188.391 54.3216 188.892 53.9831C189.4 53.638 189.973 53.4655 190.611 53.4655C190.741 53.4655 190.894 53.472 191.07 53.485C191.252 53.4916 191.399 53.5013 191.509 53.5143V55.5456C191.425 55.5196 191.272 55.4935 191.05 55.4675C190.836 55.4414 190.617 55.4284 190.396 55.4284C189.895 55.4284 189.446 55.5358 189.048 55.7507C188.658 55.959 188.349 56.2487 188.121 56.6198C187.899 56.9844 187.789 57.4076 187.789 57.8893V64.5397H185.679ZM195.621 51.8737V49.989H206.891V51.8737H202.36V64.5397H200.172V51.8737H195.621ZM207.956 64.5397V53.6218H210.065V64.5397H207.956ZM209.02 51.9421C208.649 51.9421 208.333 51.8184 208.073 51.571C207.813 51.3236 207.682 51.0274 207.682 50.6823C207.682 50.3307 207.813 50.0313 208.073 49.7839C208.333 49.5365 208.649 49.4128 209.02 49.4128C209.385 49.4128 209.697 49.5365 209.958 49.7839C210.225 50.0313 210.358 50.3307 210.358 50.6823C210.358 51.0274 210.225 51.3236 209.958 51.571C209.697 51.8184 209.385 51.9421 209.02 51.9421ZM216.247 68.8561C214.945 68.8561 213.92 68.612 213.171 68.1237C212.422 67.6354 211.905 67.056 211.618 66.3854L213.435 65.6335C213.565 65.8418 213.737 66.0632 213.952 66.2975C214.174 66.5319 214.47 66.7305 214.841 66.8932C215.212 67.056 215.691 67.1374 216.277 67.1374C217.077 67.1374 217.741 66.9421 218.269 66.5515C218.796 66.1673 219.06 65.5488 219.06 64.696V62.5573H218.913C218.796 62.7852 218.617 63.0423 218.376 63.3288C218.135 63.6087 217.807 63.8529 217.39 64.0612C216.973 64.2696 216.43 64.3737 215.759 64.3737C214.9 64.3737 214.125 64.1719 213.435 63.7682C212.751 63.3581 212.204 62.7591 211.794 61.9714C211.39 61.1771 211.189 60.2005 211.189 59.0417C211.189 57.8828 211.387 56.89 211.784 56.0632C212.188 55.2298 212.735 54.5918 213.425 54.1491C214.115 53.7064 214.9 53.485 215.779 53.485C216.456 53.485 217.002 53.599 217.419 53.8268C217.842 54.0482 218.171 54.3086 218.405 54.6081C218.64 54.9076 218.822 55.1712 218.952 55.3991H219.109V53.6218H221.169V64.7839C221.169 65.7214 220.951 66.4896 220.515 67.0886C220.085 67.6875 219.499 68.1302 218.757 68.4167C218.015 68.7097 217.178 68.8561 216.247 68.8561ZM216.228 62.6061C217.146 62.6061 217.849 62.2904 218.337 61.6589C218.832 61.0209 219.079 60.1387 219.079 59.0124C219.079 58.2767 218.972 57.6322 218.757 57.0788C218.542 56.5189 218.223 56.0827 217.8 55.7702C217.377 55.4512 216.853 55.2917 216.228 55.2917C215.59 55.2917 215.056 55.4577 214.626 55.7897C214.203 56.1153 213.884 56.5612 213.669 57.1276C213.454 57.6875 213.347 58.3158 213.347 59.0124C213.347 59.722 213.454 60.3503 213.669 60.8972C213.884 61.4375 214.206 61.8574 214.636 62.1569C215.072 62.4564 215.603 62.6061 216.228 62.6061ZM224.91 58.0651V64.5397H222.8V49.989H224.88V55.4186H225.027C225.281 54.8262 225.668 54.3574 226.189 54.0124C226.716 53.6608 227.403 53.485 228.25 53.485C228.998 53.485 229.653 53.638 230.213 53.944C230.772 54.25 231.209 54.709 231.521 55.321C231.84 55.933 232 56.6947 232 57.6061V64.5397H229.871V57.86C229.871 57.0528 229.662 56.4278 229.246 55.985C228.836 55.5423 228.263 55.321 227.527 55.321C227.019 55.321 226.57 55.4317 226.179 55.653C225.789 55.8679 225.479 56.1771 225.252 56.5807C225.024 56.9844 224.91 57.4792 224.91 58.0651ZM238.709 53.6218V55.3307H232.752V53.6218H238.709ZM234.344 51.0241H236.463V61.3366C236.463 61.8379 236.567 62.2057 236.775 62.4401C236.984 62.668 237.319 62.7819 237.781 62.7819C237.892 62.7819 238.009 62.7754 238.133 62.7624C238.263 62.7494 238.393 62.7298 238.523 62.7038L238.924 64.4616C238.709 64.5332 238.475 64.5886 238.221 64.6276C237.967 64.6667 237.713 64.6862 237.459 64.6862C236.515 64.6862 235.76 64.4225 235.193 63.8952C234.627 63.3613 234.344 62.6517 234.344 61.7663V51.0241Z" fill="#1E0059"/>
<path d="M154.145 91.0518H156.221L159.812 99.8246H159.941L163.539 91.0518H165.645V102.34H163.979V94.1731H163.873L160.532 102.325H159.183L155.88 94.1655H155.774V102.34H154.145V91.0518ZM167.464 102.34V91.0518H174.547V92.514H169.168V95.9155H174.168V97.37H169.168V100.878H174.6V102.34H167.464ZM179.82 102.34H177.032V100.847H179.721C180.58 100.847 181.294 100.688 181.865 100.37C182.436 100.047 182.863 99.5746 183.145 98.9534C183.428 98.3271 183.57 97.5695 183.57 96.6806C183.57 95.7968 183.428 95.0468 183.145 94.4306C182.868 93.8145 182.451 93.3473 181.895 93.0291C181.34 92.7059 180.65 92.5443 179.827 92.5443H176.971V91.0518H179.933C181.039 91.0518 181.989 91.2766 182.782 91.7261C183.575 92.1756 184.183 92.822 184.608 93.6655C185.032 94.5039 185.244 95.5089 185.244 96.6806C185.244 97.8574 185.029 98.8675 184.6 99.7109C184.176 100.554 183.56 101.203 182.751 101.658C181.943 102.112 180.966 102.34 179.82 102.34ZM177.865 91.0518V102.34H176.161V91.0518H177.865ZM188.411 91.0518V102.34H186.706V91.0518H188.411ZM197.501 91.0518H199.206V98.4761C199.206 99.264 199.019 99.9635 198.645 100.575C198.277 101.181 197.757 101.658 197.085 102.006C196.413 102.35 195.625 102.522 194.721 102.522C193.822 102.522 193.034 102.35 192.358 102.006C191.686 101.658 191.163 101.181 190.789 100.575C190.421 99.9635 190.236 99.264 190.236 98.4761V91.0518H191.941V98.3397C191.941 98.8498 192.052 99.3044 192.274 99.7034C192.501 100.097 192.822 100.408 193.236 100.635C193.656 100.862 194.15 100.976 194.721 100.976C195.297 100.976 195.792 100.862 196.206 100.635C196.62 100.408 196.938 100.097 197.161 99.7034C197.388 99.3044 197.501 98.8498 197.501 98.3397V91.0518ZM201.024 91.0518H203.1L206.691 99.8246H206.82L210.418 91.0518H212.524V102.34H210.858V94.1731H210.751L207.411 102.325H206.062L202.759 94.1655H202.653V102.34H201.024V91.0518Z" fill="#1E0059"/>
</svg>
