<svg width="65" height="64" viewBox="0 0 65 64" fill="none" xmlns="http://www.w3.org/2000/svg">
<rect x="0.724609" width="64" height="64" rx="12" fill="white"/>
<path d="M33.0006 18.2275C40.2305 18.2275 46.0915 24.1174 46.0915 31.3831H43.7107H39.0894C39.0894 28.0038 36.3633 25.2642 33.0006 25.2642C29.638 25.2642 26.9117 28.0038 26.9117 31.3831H22.2892H19.9097C19.9097 24.1174 25.7709 18.2275 33.0006 18.2275Z" fill="#8067F6"/>
<path d="M33.0006 44.5393C25.7709 44.5393 19.9097 38.6494 19.9097 31.3838H22.2892H26.9117H39.0894C39.0894 34.7631 36.3633 37.5027 33.0006 37.5027C29.638 37.5027 26.9117 34.7631 26.9117 31.3838H22.2892C22.2892 37.3284 27.0847 42.1475 33 42.1475C38.9153 42.1475 43.7107 37.3284 43.7107 31.3838H46.0915C46.0915 38.6494 40.2305 44.5393 33.0006 44.5393Z" fill="#8067F6"/>
</svg>
