<svg width="33" height="33" viewBox="0 0 33 33" fill="none" xmlns="http://www.w3.org/2000/svg">
<rect x="0.65918" y="0.0322266" width="32.2065" height="32.2065" rx="6.03871" fill="white"/>
<path fill-rule="evenodd" clip-rule="evenodd" d="M18.1722 10.9885L18.2306 10.5488L17.3584 10.4309L17.2999 10.8707L16.7682 14.8709L14.6316 10.9752L14.4187 10.5869L13.6486 11.0163L13.8615 11.4046L16.3725 15.983L11.3912 15.723L10.9517 15.7L10.9062 16.5862L11.3457 16.6092L15.4748 16.8247L12.2411 18.7627L11.8628 18.9894L12.3125 19.7522L12.6907 19.5255L15.5949 17.785L13.4051 20.6209L13.1348 20.971L13.8291 21.5161L14.0994 21.166L16.9188 17.5148L19.207 21.1702L19.4419 21.5454L20.1861 21.0718L19.9512 20.6966L18.3651 18.1629L20.8302 20.2734L21.1656 20.5605L21.7352 19.8841L21.3998 19.5969L18.7582 17.3354L22.0215 17.8869L22.4555 17.9603L22.601 17.0851L22.167 17.0118L17.8614 16.2841L20.9483 12.3881L21.2229 12.0415L20.5354 11.4876L20.2607 11.8342L17.616 15.1722L18.1722 10.9885Z" fill="#8067F6"/>
<path opacity="0.4" fill-rule="evenodd" clip-rule="evenodd" d="M12.1436 12.6758L12.5053 12.9283L16.9766 16.0504L16.9878 16.0581L17.2374 16.0042L22.0046 14.9739L22.4349 14.8809L22.6193 15.7486L22.1891 15.8416L17.6175 16.8296L17.5653 17.1771L16.8711 21.7999L16.8052 22.2386L15.9351 22.1057L16.001 21.6671L16.6952 17.0442L16.7103 16.9437L16.4756 16.7799L12.0043 13.6579L11.6426 13.4053L12.1436 12.6758Z" fill="#8067F6"/>
</svg>
