<svg width="65" height="64" viewBox="0 0 65 64" fill="none" xmlns="http://www.w3.org/2000/svg">
<rect x="0.724609" width="64" height="64" rx="12" fill="white"/>
<path fill-rule="evenodd" clip-rule="evenodd" d="M29.2312 31.3773C29.2312 29.2886 30.9184 27.5954 32.9997 27.5954V25.0742C29.5308 25.0742 26.7188 27.8963 26.7188 31.3773C26.7188 34.8583 29.5308 37.6803 32.9997 37.6803V35.1591C30.9184 35.1591 29.2312 33.466 29.2312 31.3773Z" fill="#8067F6"/>
<path fill-rule="evenodd" clip-rule="evenodd" d="M25.4665 31.3768C25.4665 27.1995 28.841 23.8132 33.0037 23.8132V21.292C27.4534 21.292 22.9541 25.8072 22.9541 31.3768C22.9541 36.9466 27.4534 41.4617 33.0037 41.4617C38.554 41.4617 43.0532 36.9466 43.0532 31.3768H40.5408C40.5408 35.5541 37.1664 38.9404 33.0037 38.9404C28.841 38.9404 25.4665 35.5541 25.4665 31.3768Z" fill="#8067F6"/>
<path fill-rule="evenodd" clip-rule="evenodd" d="M21.694 31.3774C21.694 25.1115 26.7557 20.032 32.9998 20.032V17.5107C25.3683 17.5107 19.1816 23.719 19.1816 31.3774C19.1816 39.0357 25.3683 45.2441 32.9998 45.2441C40.6314 45.2441 46.818 39.0357 46.818 31.3774C46.818 28.8717 46.1546 26.5176 44.9935 24.4865L42.8142 25.741C43.7628 27.4004 44.3056 29.3234 44.3056 31.3774C44.3056 37.6434 39.2438 42.7229 32.9998 42.7229C26.7557 42.7229 21.694 37.6434 21.694 31.3774Z" fill="#8067F6"/>
<path d="M33 37.6802C36.4694 37.6802 39.2819 34.8578 39.2819 31.3762C39.2819 27.8947 36.4694 25.0723 33 25.0723V37.6802Z" fill="#8067F6"/>
</svg>
