<svg width="64" height="64" viewBox="0 0 64 64" fill="none" xmlns="http://www.w3.org/2000/svg">
<rect width="64" height="64" rx="12" fill="white"/>
<path opacity="0.5" fill-rule="evenodd" clip-rule="evenodd" d="M31.5354 19.8775C31.7264 19.0242 31.1939 18.1766 30.3461 17.9844C29.4983 17.7922 28.6563 18.3281 28.4653 19.1814C27.7652 22.3102 26.8584 24.3056 25.4913 25.71C24.1279 27.1107 22.1294 28.1045 18.8648 28.8447C18.017 29.0369 17.4846 29.8845 17.6755 30.7378C17.8665 31.5911 18.7086 32.1271 19.5564 31.9348C23.1062 31.13 25.7751 29.9446 27.7392 27.9268C29.6995 25.913 30.7805 23.2508 31.5354 19.8775ZM41.1357 31.9347C41.9834 31.7425 42.5159 30.8949 42.3249 30.0416C42.134 29.1883 41.2918 28.6524 40.4441 28.8446C37.0927 29.6044 34.4478 30.6925 32.447 32.6656C30.4424 34.6426 29.2647 37.3289 28.465 40.9019C28.2741 41.7553 28.8065 42.6028 29.6542 42.7951C30.5021 42.9873 31.3441 42.4514 31.5351 41.598C32.2706 38.312 33.2579 36.3006 34.6494 34.9282C36.0448 33.5521 38.0272 32.6396 41.1357 31.9347Z" fill="#8067F6"/>
<path fill-rule="evenodd" clip-rule="evenodd" d="M31.5351 19.1814C31.3441 18.3281 30.5021 17.7922 29.6543 17.9844C28.8065 18.1766 28.2741 19.0242 28.465 19.8775C29.2199 23.2508 30.3009 25.913 32.2612 27.9268C34.2253 29.9446 36.8942 31.13 40.4441 31.9348C41.2918 32.1271 42.134 31.5911 42.3249 30.7378C42.5159 29.8845 41.9834 29.0369 41.1357 28.8447C37.871 28.1045 35.8725 27.1107 34.5091 25.71C33.142 24.3056 32.2353 22.3102 31.5351 19.1814ZM19.5564 28.8446C18.7086 28.6524 17.8665 29.1883 17.6755 30.0416C17.4846 30.8949 18.017 31.7425 18.8648 31.9347C22.1294 32.6749 24.1279 33.6687 25.4913 35.0693C26.8584 36.4738 27.7652 38.4692 28.4653 41.598C28.6563 42.4513 29.4983 42.9873 30.3461 42.7951C31.1939 42.6028 31.7264 41.7553 31.5354 40.902C30.7805 37.5287 29.6995 34.8664 27.7392 32.8525C25.7751 30.8348 23.1062 29.6495 19.5564 28.8446Z" fill="#8067F6"/>
</svg>
