<svg width="33" height="33" viewBox="0 0 33 33" fill="none" xmlns="http://www.w3.org/2000/svg">
<rect x="0.658203" y="0.0322266" width="32.2065" height="32.2065" rx="6.03871" fill="white"/>
<path opacity="0.4" d="M18.3335 11.1057H13.4537C12.5554 11.1057 11.8271 11.8178 11.8271 12.6962V17.4675C11.8271 18.3459 12.5554 19.0579 13.4537 19.0579H18.3335C19.2318 19.0579 19.9601 18.3459 19.9601 17.4675V12.6962C19.9601 11.8178 19.2318 11.1057 18.3335 11.1057Z" fill="#8067F6"/>
<path opacity="0.2" d="M16.9106 12.4971H12.0309C11.1325 12.4971 10.4043 13.2091 10.4043 14.0875V18.8588C10.4043 19.7372 11.1325 20.4493 12.0309 20.4493H16.9106C17.809 20.4493 18.5372 19.7372 18.5372 18.8588V14.0875C18.5372 13.2091 17.809 12.4971 16.9106 12.4971Z" fill="#8067F6"/>
<path d="M19.7573 9.71387H14.8776C13.9792 9.71387 13.251 10.4259 13.251 11.3043V16.0756C13.251 16.954 13.9792 17.6661 14.8776 17.6661H19.7573C20.6557 17.6661 21.3839 16.954 21.3839 16.0756V11.3043C21.3839 10.4259 20.6557 9.71387 19.7573 9.71387Z" fill="#8067F6"/>
</svg>
