<svg width="28" height="28" viewBox="0 0 28 28" fill="none" xmlns="http://www.w3.org/2000/svg">
<path d="M24.3178 10.2272L24.3178 3.40906M24.3178 3.40906H17.4996M24.3178 3.40906L15.2269 12.5M11.8178 5.68178H9.31783C7.40856 5.68178 6.45392 5.68178 5.72468 6.05335C5.08322 6.38019 4.56169 6.90172 4.23485 7.54318C3.86328 8.27243 3.86328 9.22706 3.86328 11.1363V18.4091C3.86328 20.3183 3.86328 21.273 4.23485 22.0022C4.56169 22.6437 5.08322 23.1652 5.72468 23.492C6.45392 23.8636 7.40856 23.8636 9.31783 23.8636H16.5906C18.4998 23.8636 19.4545 23.8636 20.1837 23.492C20.8252 23.1652 21.3467 22.6437 21.6735 22.0022C22.0451 21.273 22.0451 20.3183 22.0451 18.4091V15.9091" stroke="#1E0059" stroke-width="2.27273" stroke-linecap="round" stroke-linejoin="round"/>
</svg>
