<svg width="32" height="32" viewBox="0 0 32 32" fill="none" xmlns="http://www.w3.org/2000/svg">
<path opacity="0.2" fill-rule="evenodd" clip-rule="evenodd" d="M15.9998 29.3333C23.3636 29.3333 29.3332 23.3638 29.3332 16C29.3332 8.63616 23.3636 2.66663 15.9998 2.66663C8.63604 2.66663 2.6665 8.63616 2.6665 16C2.6665 23.3638 8.63604 29.3333 15.9998 29.3333ZM12.7736 14.8569C13.2024 14.6666 13.746 14.6666 14.8332 14.6666H17.1665C18.2537 14.6666 18.7973 14.6666 19.2261 14.8569C19.7978 15.1107 20.2521 15.5973 20.4889 16.2099C20.6665 16.6693 20.6665 17.2518 20.6665 18.4166C20.6665 19.5815 20.6665 20.1639 20.4889 20.6233C20.2521 21.2359 19.7978 21.7226 19.2261 21.9763C18.7973 22.1666 18.2537 22.1666 17.1665 22.1666H14.8332C13.746 22.1666 13.2024 22.1666 12.7736 21.9763C12.2018 21.7226 11.7476 21.2359 11.5108 20.6233C11.3332 20.1639 11.3332 19.5815 11.3332 18.4166C11.3332 17.2518 11.3332 16.6693 11.5108 16.2099C11.7476 15.5973 12.2018 15.1107 12.7736 14.8569Z" fill="#8067F6"/>
<path d="M26.0576 14.0003L29.3332 14.667C28.6625 7.92923 22.9637 2.66699 16.0328 2.66699C8.65081 2.66699 2.6665 8.63653 2.6665 16.0003C2.6665 23.3641 8.65081 29.3337 16.0328 29.3337C21.5139 29.3337 26.2244 26.0427 28.287 21.3337" stroke="#8067F6" stroke-width="1.5" stroke-linecap="round" stroke-linejoin="round"/>
<path d="M12.7739 21.8101L12.4697 22.4956L12.4697 22.4956L12.7739 21.8101ZM11.5111 20.4571L10.8116 20.7275H10.8116L11.5111 20.4571ZM20.4892 20.4571L21.1888 20.7275V20.7275L20.4892 20.4571ZM19.2264 21.8101L19.5307 22.4956L19.5307 22.4956L19.2264 21.8101ZM19.2264 14.6907L19.5307 14.0051L19.2264 14.6907ZM20.4892 16.0437L21.1888 15.7732V15.7732L20.4892 16.0437ZM12.7739 14.6907L12.4697 14.0051L12.7739 14.6907ZM11.5111 16.0437L10.8116 15.7732H10.8116L11.5111 16.0437ZM12.9168 14.5004C12.9168 14.9146 13.2526 15.2504 13.6668 15.2504C14.081 15.2504 14.4168 14.9146 14.4168 14.5004H12.9168ZM17.5835 14.5004C17.5835 14.9146 17.9193 15.2504 18.3335 15.2504C18.7477 15.2504 19.0835 14.9146 19.0835 14.5004H17.5835ZM14.8335 14.5004V15.2504H17.1668V14.5004V13.7504H14.8335V14.5004ZM17.1668 22.0004V21.2504H14.8335V22.0004V22.7504H17.1668V22.0004ZM14.8335 22.0004V21.2504C14.2789 21.2504 13.9032 21.2499 13.6115 21.2286C13.3276 21.2078 13.181 21.1702 13.0781 21.1245L12.7739 21.8101L12.4697 22.4956C12.7956 22.6402 13.1352 22.6978 13.5021 22.7246C13.8612 22.7508 14.3009 22.7504 14.8335 22.7504V22.0004ZM11.3335 18.2504H10.5835C10.5835 18.8232 10.5831 19.2879 10.6072 19.6659C10.6317 20.0497 10.6835 20.3962 10.8116 20.7275L11.5111 20.4571L12.2107 20.1866C12.1611 20.0586 12.1241 19.8841 12.1042 19.5706C12.0839 19.2513 12.0835 18.8424 12.0835 18.2504H11.3335ZM12.7739 21.8101L13.0781 21.1245C12.6978 20.9557 12.3798 20.6243 12.2107 20.1866L11.5111 20.4571L10.8116 20.7275C11.116 21.515 11.7066 22.1569 12.4697 22.4956L12.7739 21.8101ZM20.6668 18.2504H19.9168C19.9168 18.8424 19.9165 19.2513 19.8961 19.5706C19.8762 19.8841 19.8392 20.0586 19.7897 20.1866L20.4892 20.4571L21.1888 20.7275C21.3169 20.3962 21.3687 20.0497 21.3931 19.6659C21.4172 19.2879 21.4168 18.8232 21.4168 18.2504H20.6668ZM17.1668 22.0004V22.7504C17.6994 22.7504 18.1391 22.7508 18.4982 22.7246C18.8651 22.6978 19.2047 22.6402 19.5307 22.4956L19.2264 21.8101L18.9222 21.1245C18.8193 21.1702 18.6727 21.2078 18.3888 21.2286C18.0971 21.2499 17.7214 21.2504 17.1668 21.2504V22.0004ZM20.4892 20.4571L19.7897 20.1866C19.6205 20.6243 19.3025 20.9557 18.9222 21.1245L19.2264 21.8101L19.5307 22.4956C20.2938 22.1569 20.8843 21.515 21.1888 20.7275L20.4892 20.4571ZM17.1668 14.5004V15.2504C17.7214 15.2504 18.0971 15.2508 18.3888 15.2722C18.6727 15.2929 18.8193 15.3305 18.9222 15.3762L19.2264 14.6907L19.5307 14.0051C19.2047 13.8605 18.8651 13.803 18.4982 13.7761C18.1391 13.7499 17.6994 13.7504 17.1668 13.7504V14.5004ZM20.6668 18.2504H21.4168C21.4168 17.6775 21.4172 17.2128 21.3931 16.8348C21.3687 16.451 21.3169 16.1046 21.1888 15.7732L20.4892 16.0437L19.7897 16.3141C19.8392 16.4422 19.8762 16.6167 19.8961 16.9301C19.9165 17.2494 19.9168 17.6584 19.9168 18.2504H20.6668ZM19.2264 14.6907L18.9222 15.3762C19.3025 15.545 19.6205 15.8765 19.7897 16.3141L20.4892 16.0437L21.1888 15.7732C20.8843 14.9857 20.2938 14.3438 19.5307 14.0051L19.2264 14.6907ZM14.8335 14.5004V13.7504C14.3009 13.7504 13.8612 13.7499 13.5021 13.7761C13.1352 13.803 12.7956 13.8605 12.4697 14.0051L12.7739 14.6907L13.0781 15.3762C13.181 15.3305 13.3276 15.2929 13.6115 15.2722C13.9032 15.2508 14.2789 15.2504 14.8335 15.2504V14.5004ZM11.3335 18.2504H12.0835C12.0835 17.6584 12.0839 17.2494 12.1042 16.9301C12.1241 16.6167 12.1611 16.4422 12.2107 16.3141L11.5111 16.0437L10.8116 15.7732C10.6835 16.1046 10.6317 16.451 10.6072 16.8348C10.5831 17.2128 10.5835 17.6775 10.5835 18.2504H11.3335ZM12.7739 14.6907L12.4697 14.0051C11.7066 14.3438 11.116 14.9857 10.8116 15.7732L11.5111 16.0437L12.2107 16.3141C12.3798 15.8765 12.6978 15.545 13.0781 15.3762L12.7739 14.6907ZM13.6668 14.5004H14.4168V12.2504H13.6668H12.9168V14.5004H13.6668ZM18.3335 12.2504H17.5835V14.5004H18.3335H19.0835V12.2504H18.3335ZM16.0002 10.0004V10.7504C16.9006 10.7504 17.5835 11.4474 17.5835 12.2504H18.3335H19.0835C19.0835 10.568 17.6771 9.25037 16.0002 9.25037V10.0004ZM13.6668 12.2504H14.4168C14.4168 11.4474 15.0998 10.7504 16.0002 10.7504V10.0004V9.25037C14.3232 9.25037 12.9168 10.568 12.9168 12.2504H13.6668Z" fill="#8067F6"/>
</svg>
