<svg width="132" height="32" viewBox="0 0 132 32" fill="none" xmlns="http://www.w3.org/2000/svg">
<g clip-path="url(#clip0_195_29305)">
<path d="M39.8864 22.6955H49.1363V19.9094H43.174V9.41504H39.8864V22.6955Z" fill="#1E0059"/>
<path d="M54.6124 20.8384C53.2936 20.8384 52.6064 19.6868 52.6064 17.9594C52.6064 16.232 53.2936 15.0618 54.6124 15.0618C55.9311 15.0618 56.6369 16.232 56.6369 17.9594C56.6369 19.6868 55.9311 20.8384 54.6124 20.8384ZM54.6309 22.9929C57.6957 22.9929 59.7017 20.8198 59.7017 17.9594C59.7017 15.099 57.6957 12.9258 54.6309 12.9258C51.5848 12.9258 49.5416 15.099 49.5416 17.9594C49.5416 20.8198 51.5848 22.9929 54.6309 22.9929Z" fill="#1E0059"/>
<path d="M65.0068 25.9817C66.4184 25.9817 67.6629 25.6659 68.4987 24.923C69.2603 24.2357 69.7618 23.1956 69.7618 21.7654V13.1841H66.8642V14.2057H66.827C66.2698 13.407 65.4154 12.9055 64.1524 12.9055C61.7935 12.9055 60.1589 14.8744 60.1589 17.6605C60.1589 20.5766 62.1464 22.174 64.2824 22.174C65.434 22.174 66.1584 21.7096 66.7156 21.0781H66.7899V22.0254C66.7899 23.177 66.2512 23.8457 64.9696 23.8457C63.9666 23.8457 63.4651 23.4185 63.298 22.917H60.3633C60.6604 24.9044 62.3878 25.9817 65.0068 25.9817ZM64.9882 19.9265C63.8552 19.9265 63.1122 18.9978 63.1122 17.5676C63.1122 16.1188 63.8552 15.1901 64.9882 15.1901C66.2512 15.1901 66.9199 16.2674 66.9199 17.549C66.9199 18.8864 66.307 19.9265 64.9882 19.9265Z" fill="#1E0059"/>
<path d="M75.7227 20.8354C74.4039 20.8354 73.7167 19.6838 73.7167 17.9564C73.7167 16.229 74.4039 15.0589 75.7227 15.0589C77.0415 15.0589 77.747 16.229 77.747 17.9564C77.747 19.6838 77.0415 20.8354 75.7227 20.8354ZM75.7413 22.99C78.8057 22.99 80.8117 20.8168 80.8117 17.9564C80.8117 15.096 78.8057 12.9229 75.7413 12.9229C72.6951 12.9229 70.652 15.096 70.652 17.9564C70.652 20.8168 72.6951 22.99 75.7413 22.99Z" fill="#1E0059"/>
<path d="M81.6949 22.6956H84.7225V13.1856H81.6949V22.6956ZM81.6949 11.8669H84.7225V9.4151H81.6949V11.8669Z" fill="#1E0059"/>
<path d="M86.0356 25.8331H89.0632V21.7096H89.1004C89.6947 22.5083 90.5677 22.9913 91.7936 22.9913C94.2825 22.9913 95.9356 21.0224 95.9356 17.9391C95.9356 15.0787 94.394 12.9055 91.8679 12.9055C90.5677 12.9055 89.639 13.4813 88.9889 14.3357H88.9332V13.1841H86.0356V25.8331ZM91.0135 20.6509C89.7133 20.6509 88.9704 19.5922 88.9704 18.0505C88.9704 16.5089 89.639 15.3387 90.9578 15.3387C92.258 15.3387 92.8709 16.416 92.8709 18.0505C92.8709 19.6665 92.1651 20.6509 91.0135 20.6509Z" fill="#1E0059"/>
<path d="M100.864 22.9913C103.353 22.9913 105.192 21.914 105.192 19.8337C105.192 17.4005 103.223 16.9732 101.551 16.6946C100.344 16.4717 99.2666 16.3789 99.2666 15.7102C99.2666 15.1158 99.8424 14.8372 100.585 14.8372C101.421 14.8372 101.997 15.0973 102.108 15.9517H104.895C104.746 14.0757 103.297 12.9055 100.604 12.9055C98.3565 12.9055 96.4991 13.9457 96.4991 15.9517C96.4991 18.1806 98.2636 18.6263 99.9167 18.905C101.18 19.1278 102.331 19.2207 102.331 20.0751C102.331 20.6881 101.756 21.0224 100.845 21.0224C99.8424 21.0224 99.2109 20.558 99.0994 19.6108H96.239C96.3319 21.7096 98.0779 22.9913 100.864 22.9913Z" fill="#1E0059"/>
<path d="M109.302 22.9721C110.621 22.9721 111.457 22.4521 112.144 21.5234H112.2V22.6935H115.097V13.1836H112.069V18.4958C112.069 19.6288 111.438 20.4089 110.398 20.4089C109.432 20.4089 108.968 19.8331 108.968 18.793V13.1836H105.959V19.4245C105.959 21.5419 107.11 22.9721 109.302 22.9721Z" fill="#1E0059"/>
<path d="M116.417 22.6941H119.444V17.3633C119.444 16.2303 120.001 15.4316 120.949 15.4316C121.859 15.4316 122.286 16.026 122.286 17.0475V22.6941H125.314V17.3633C125.314 16.2303 125.852 15.4316 126.818 15.4316C127.728 15.4316 128.155 16.026 128.155 17.0475V22.6941H131.183V16.5089C131.183 14.3729 130.106 12.9055 127.951 12.9055C126.725 12.9055 125.704 13.4256 124.961 14.5772H124.924C124.441 13.5556 123.493 12.9055 122.249 12.9055C120.874 12.9055 119.964 13.5556 119.37 14.54H119.314V13.1841H116.417V22.6941Z" fill="#1E0059"/>
<path fill-rule="evenodd" clip-rule="evenodd" d="M15.7563 31.2068C24.3049 31.2068 31.2348 24.2769 31.2348 15.7284C31.2348 7.17992 24.3049 0.25 15.7563 0.25C7.20787 0.25 0.277954 7.17992 0.277954 15.7284C0.277954 24.2769 7.20787 31.2068 15.7563 31.2068ZM18.1454 12.2091C19.4648 10.8896 19.4648 8.75041 18.1454 7.43095C16.826 6.11151 14.6868 6.11151 13.3673 7.43095C12.0479 8.75041 12.0479 10.8896 13.3673 12.2091L15.7563 14.5981L18.1454 12.2091ZM19.2758 18.1175C20.5952 19.4369 22.7344 19.4369 24.0539 18.1175C25.3732 16.798 25.3732 14.6588 24.0539 13.3394C22.7344 12.02 20.5952 12.02 19.2758 13.3394L16.8867 15.7285L19.2758 18.1175ZM18.1454 24.0259C19.4648 22.7065 19.4648 20.5673 18.1454 19.2478L15.7563 16.8588L13.3673 19.2478C12.0479 20.5673 12.0479 22.7065 13.3673 24.0259C14.6868 25.3454 16.826 25.3454 18.1454 24.0259ZM7.45888 18.1175C6.13947 16.798 6.13947 14.6588 7.45888 13.3394C8.77836 12.02 10.9176 12.02 12.237 13.3394L14.626 15.7285L12.237 18.1175C10.9176 19.4369 8.77836 19.4369 7.45888 18.1175Z" fill="#1E0059"/>
</g>
<defs>
<clipPath id="clip0_195_29305">
<rect width="131.567" height="31.7308" fill="white" transform="translate(0.198853)"/>
</clipPath>
</defs>
</svg>
