<svg width="38" height="39" viewBox="0 0 38 39" fill="none" xmlns="http://www.w3.org/2000/svg">
<path fill-rule="evenodd" clip-rule="evenodd" d="M15.2312 19.3773C15.2312 17.2886 16.9184 15.5954 18.9997 15.5954V13.0742C15.5308 13.0742 12.7188 15.8963 12.7188 19.3773C12.7188 22.8583 15.5308 25.6803 18.9997 25.6803V23.1591C16.9184 23.1591 15.2312 21.466 15.2312 19.3773Z" fill="#8067F6"/>
<path fill-rule="evenodd" clip-rule="evenodd" d="M11.4665 19.3768C11.4665 15.1995 14.841 11.8132 19.0037 11.8132V9.29199C13.4534 9.29199 8.9541 13.8072 8.9541 19.3768C8.9541 24.9466 13.4534 29.4617 19.0037 29.4617C24.554 29.4617 29.0532 24.9466 29.0532 19.3768H26.5408C26.5408 23.5541 23.1664 26.9404 19.0037 26.9404C14.841 26.9404 11.4665 23.5541 11.4665 19.3768Z" fill="#8067F6"/>
<path fill-rule="evenodd" clip-rule="evenodd" d="M7.69428 19.3774C7.69428 13.1115 12.756 8.03195 19.0001 8.03195V5.51074C11.3685 5.51074 5.18188 11.719 5.18188 19.3774C5.18188 27.0357 11.3685 33.2441 19.0001 33.2441C26.6317 33.2441 32.8182 27.0357 32.8182 19.3774C32.8182 16.8717 32.1548 14.5176 30.9937 12.4865L28.8144 13.741C29.763 15.4004 30.3058 17.3234 30.3058 19.3774C30.3058 25.6434 25.2441 30.7229 19.0001 30.7229C12.756 30.7229 7.69428 25.6434 7.69428 19.3774Z" fill="#8067F6"/>
<path d="M19 25.6802C22.4694 25.6802 25.2819 22.8578 25.2819 19.3762C25.2819 15.8947 22.4694 13.0723 19 13.0723V25.6802Z" fill="#8067F6"/>
</svg>
