<svg width="33" height="33" viewBox="0 0 33 33" fill="none" xmlns="http://www.w3.org/2000/svg">
<rect x="0.25293" y="0.0322266" width="32.2065" height="32.2065" rx="6.03871" fill="white"/>
<path fill-rule="evenodd" clip-rule="evenodd" d="M13.2934 13.4825C15.1873 13.4814 16.7222 11.9298 16.7222 10.016V9.78491H11.6902C10.6796 9.78491 9.86035 10.6127 9.86035 11.6337C9.86035 12.6544 10.679 13.4819 11.6891 13.4825C10.679 13.4832 9.86035 14.3106 9.86035 15.3314C9.86035 16.3524 10.6796 17.1802 11.6902 17.1802H13.2913C11.3964 17.1802 9.86035 18.7322 9.86035 20.6467V20.8778H14.8924C15.903 20.8778 16.7222 20.0501 16.7222 19.029C16.7222 18.0079 15.903 17.1802 14.8924 17.1802C15.903 17.1802 16.7222 16.3524 16.7222 15.3314C16.7222 14.3103 15.903 13.4825 14.8924 13.4825H13.2934ZM20.8339 9.78493C19.0684 9.78493 17.6371 11.231 17.6371 13.0148V13.7131V13.72L17.6478 20.878C19.4133 20.8753 20.8423 19.4271 20.8397 17.6432L20.8386 16.945C20.8385 16.887 20.8369 16.8295 20.8339 16.7723V9.78493Z" fill="#8067F6"/>
</svg>
