<svg width="301" height="150" viewBox="0 0 301 150" fill="none" xmlns="http://www.w3.org/2000/svg">
<rect y="0.273071" width="300.8" height="149.333" rx="12.6061" fill="#F8F6FE"/>
<rect x="0.484848" y="0.75792" width="299.83" height="148.364" rx="12.1212" stroke="#0B264C" stroke-opacity="0.1" stroke-width="0.969697"/>
<rect x="29.1875" y="25.873" width="98.1333" height="98.1333" rx="12.8" fill="white"/>
<path d="M54.0254 93.9397H47.957L61.5664 56.1077H68.168L81.752 93.9397H75.709L64.9941 62.9885H64.6895L54.0254 93.9397ZM55.041 79.137H74.668V83.9104H55.041V79.137ZM91.2369 94.5491C89.4426 94.5491 87.8176 94.219 86.3619 93.5588C84.9061 92.8818 83.7551 91.9 82.9087 90.6135C82.0624 89.3271 81.6392 87.7613 81.6392 85.9163C81.6392 84.3082 81.9439 82.9963 82.5533 81.9807C83.1796 80.9482 84.0175 80.1272 85.067 79.5178C86.1164 78.9084 87.2844 78.4514 88.5709 78.1467C89.8573 77.842 91.1776 77.6051 92.5318 77.4358C94.2414 77.2496 95.621 77.0888 96.6705 76.9534C97.7199 76.818 98.4817 76.6064 98.9556 76.3186C99.4465 76.0139 99.692 75.5315 99.692 74.8713V74.7444C99.692 73.1363 99.2349 71.8922 98.3209 71.012C97.4237 70.1318 96.0865 69.6917 94.3091 69.6917C92.4641 69.6917 90.9999 70.0979 89.9166 70.9104C88.8502 71.706 88.1138 72.6116 87.7076 73.6272L82.5025 72.4338C83.1288 70.7073 84.0344 69.3193 85.2193 68.2698C86.4211 67.2034 87.7922 66.4247 89.3326 65.9338C90.8899 65.443 92.5149 65.1975 94.2076 65.1975C95.3417 65.1975 96.5435 65.3329 97.813 65.6038C99.0826 65.8577 100.276 66.3401 101.393 67.051C102.527 67.745 103.45 68.7437 104.161 70.0471C104.872 71.3505 105.227 73.0347 105.227 75.0999V93.9397H99.8189V90.0549H99.6158C99.2772 90.7489 98.744 91.443 98.0162 92.137C97.3052 92.831 96.3912 93.4065 95.274 93.8635C94.1568 94.3206 92.8111 94.5491 91.2369 94.5491ZM92.4302 90.1311C93.9706 90.1311 95.2824 89.8349 96.3658 89.2424C97.4491 88.6331 98.2785 87.8375 98.8541 86.8557C99.4296 85.8739 99.7173 84.8329 99.7173 83.7327V80.051C99.5142 80.2372 99.1334 80.415 98.5748 80.5842C98.0162 80.7535 97.3814 80.8974 96.6705 81.0159C95.9595 81.1344 95.2655 81.2444 94.5884 81.3459C93.9114 81.4306 93.3443 81.4983 92.8873 81.5491C91.8209 81.7014 90.8476 81.9384 89.9673 82.26C89.0871 82.5647 88.3762 83.0217 87.8345 83.6311C87.3098 84.2236 87.0474 85.0107 87.0474 85.9924C87.0474 87.3635 87.5552 88.3961 88.5709 89.0901C89.5865 89.7841 90.8729 90.1311 92.4302 90.1311Z" fill="#1E0059"/>
<path d="M156.924 52.1223V66.673H153.857V52.1223H156.924ZM161.368 60.3644V66.673H158.35V55.7551H161.319V57.6984H161.426C161.674 57.0539 162.067 56.5461 162.608 56.175C163.148 55.8039 163.825 55.6183 164.639 55.6183C165.394 55.6183 166.052 55.7844 166.612 56.1164C167.178 56.4484 167.618 56.9204 167.93 57.5324C168.243 58.1444 168.399 58.8768 168.399 59.7297V66.673H165.381V60.2668C165.381 59.6027 165.209 59.0819 164.864 58.7043C164.519 58.3202 164.043 58.1281 163.438 58.1281C163.034 58.1281 162.676 58.2193 162.364 58.4016C162.051 58.5773 161.807 58.8312 161.631 59.1633C161.455 59.4953 161.368 59.8957 161.368 60.3644ZM175.577 55.7551V58.0402H169.005V55.7551H175.577ZM170.499 53.1574H173.516V63.3137C173.516 63.6782 173.598 63.9484 173.761 64.1242C173.923 64.2935 174.184 64.3781 174.542 64.3781C174.659 64.3781 174.789 64.3683 174.932 64.3488C175.076 64.3293 175.199 64.3065 175.304 64.2805L175.782 66.5461C175.45 66.6437 175.128 66.7154 174.815 66.7609C174.509 66.8065 174.207 66.8293 173.907 66.8293C172.82 66.8293 171.98 66.5591 171.387 66.0187C170.795 65.4719 170.499 64.7036 170.499 63.7141V53.1574ZM181.349 66.8879C180.229 66.8879 179.262 66.66 178.448 66.2043C177.635 65.7486 177.01 65.1008 176.573 64.2609C176.144 63.4146 175.929 62.4152 175.929 61.2629C175.929 60.1431 176.144 59.16 176.573 58.3137C177.01 57.4673 177.622 56.8065 178.409 56.3312C179.204 55.856 180.135 55.6183 181.202 55.6183C181.925 55.6183 182.599 55.7355 183.224 55.9699C183.849 56.1978 184.396 56.5428 184.864 57.0051C185.333 57.4608 185.698 58.037 185.958 58.7336C186.219 59.4237 186.349 60.2342 186.349 61.1652V61.9855H177.13V60.1203H184.884L183.478 60.6086C183.478 60.0552 183.393 59.5734 183.224 59.1633C183.055 58.7531 182.801 58.4374 182.462 58.216C182.13 57.9881 181.717 57.8742 181.222 57.8742C180.727 57.8742 180.307 57.9881 179.962 58.216C179.624 58.4439 179.363 58.7531 179.181 59.1437C178.999 59.5344 178.907 59.9836 178.907 60.4914V61.8098C178.907 62.4022 179.012 62.91 179.22 63.3332C179.428 63.7499 179.718 64.0721 180.089 64.3C180.467 64.5213 180.9 64.632 181.388 64.632C181.726 64.632 182.032 64.5832 182.306 64.4855C182.579 64.3879 182.814 64.2446 183.009 64.0558C183.211 63.867 183.361 63.6392 183.458 63.3723L186.251 63.5578C186.114 64.2284 185.828 64.8143 185.392 65.3156C184.962 65.8104 184.405 66.1978 183.722 66.4777C183.038 66.7512 182.247 66.8879 181.349 66.8879ZM187.248 66.673V55.7551H190.168V57.6691H190.285C190.487 56.992 190.822 56.481 191.291 56.1359C191.759 55.7844 192.296 55.6086 192.902 55.6086C193.058 55.6086 193.221 55.6183 193.39 55.6379C193.566 55.6509 193.722 55.6769 193.859 55.716V58.3918C193.716 58.3462 193.517 58.3104 193.263 58.2844C193.016 58.2518 192.785 58.2355 192.57 58.2355C192.134 58.2355 191.74 58.3332 191.388 58.5285C191.037 58.7173 190.76 58.9842 190.558 59.3293C190.363 59.6678 190.265 60.0585 190.265 60.5012V66.673H187.248ZM197.444 54.6613V52.1223H209.397V54.6613H204.944V66.673H201.907V54.6613H197.444ZM210.266 66.673V55.7551H213.284V66.673H210.266ZM211.77 54.3586C211.321 54.3586 210.937 54.2088 210.618 53.9094C210.299 53.6099 210.139 53.2486 210.139 52.8254C210.139 52.4022 210.299 52.0441 210.618 51.7512C210.937 51.4517 211.321 51.3019 211.77 51.3019C212.226 51.3019 212.613 51.4517 212.932 51.7512C213.251 52.0441 213.411 52.4022 213.411 52.8254C213.411 53.2486 213.251 53.6099 212.932 53.9094C212.613 54.2088 212.226 54.3586 211.77 54.3586ZM219.554 70.9894C218.083 70.9894 216.93 70.6965 216.097 70.1105C215.264 69.5311 214.756 68.8085 214.573 67.9426L217.366 67.5715C217.451 67.7928 217.585 67.9979 217.767 68.1867C217.949 68.3755 218.193 68.5252 218.499 68.6359C218.805 68.7531 219.18 68.8117 219.622 68.8117C220.28 68.8117 220.823 68.6522 221.253 68.3332C221.683 68.0207 221.898 67.4901 221.898 66.7414V64.7394H221.771C221.64 65.0389 221.442 65.3254 221.175 65.5988C220.908 65.8723 220.566 66.0936 220.15 66.2629C219.733 66.4321 219.235 66.5168 218.655 66.5168C217.835 66.5168 217.09 66.328 216.419 65.9504C215.755 65.5663 215.221 64.9803 214.818 64.1926C214.42 63.4048 214.222 62.4087 214.222 61.2043C214.222 59.9608 214.424 58.9256 214.827 58.0988C215.237 57.272 215.778 56.6535 216.448 56.2433C217.119 55.8267 217.855 55.6183 218.655 55.6183C219.267 55.6183 219.779 55.7225 220.189 55.9308C220.605 56.1327 220.944 56.3866 221.204 56.6926C221.465 56.9986 221.66 57.3013 221.79 57.6008H221.907V55.7551H224.886V66.7902C224.886 67.7147 224.658 68.4894 224.202 69.1144C223.747 69.7394 223.118 70.2082 222.318 70.5207C221.517 70.8332 220.596 70.9894 219.554 70.9894ZM219.612 64.2414C220.342 64.2414 220.905 63.9712 221.302 63.4308C221.706 62.8905 221.907 62.1418 221.907 61.1848C221.907 60.5467 221.816 59.9933 221.634 59.5246C221.458 59.0493 221.201 58.6815 220.862 58.4211C220.524 58.1542 220.107 58.0207 219.612 58.0207C219.118 58.0207 218.698 58.1574 218.353 58.4308C218.014 58.6978 217.757 59.0689 217.581 59.5441C217.405 60.0194 217.318 60.5663 217.318 61.1848C217.318 61.8098 217.405 62.3534 217.581 62.8156C217.757 63.2713 218.014 63.6229 218.353 63.8703C218.698 64.1177 219.118 64.2414 219.612 64.2414ZM229.281 60.3644V66.673H226.263V52.1223H229.183V57.6984H229.32C229.567 57.0539 229.964 56.5461 230.511 56.175C231.065 55.8039 231.755 55.6183 232.582 55.6183C233.337 55.6183 233.998 55.7844 234.564 56.1164C235.13 56.4419 235.57 56.9107 235.882 57.5226C236.201 58.1346 236.361 58.8703 236.361 59.7297V66.673H233.334V60.2668C233.334 59.5962 233.161 59.0721 232.816 58.6945C232.477 58.3169 231.999 58.1281 231.38 58.1281C230.964 58.1281 230.599 58.2193 230.287 58.4016C229.974 58.5773 229.727 58.8312 229.545 59.1633C229.369 59.4953 229.281 59.8957 229.281 60.3644ZM243.529 55.7551V58.0402H236.957V55.7551H243.529ZM238.451 53.1574H241.469V63.3137C241.469 63.6782 241.55 63.9484 241.713 64.1242C241.876 64.2935 242.136 64.3781 242.494 64.3781C242.611 64.3781 242.742 64.3683 242.885 64.3488C243.028 64.3293 243.152 64.3065 243.256 64.2805L243.734 66.5461C243.402 66.6437 243.08 66.7154 242.768 66.7609C242.462 66.8065 242.159 66.8293 241.859 66.8293C240.772 66.8293 239.932 66.5591 239.34 66.0187C238.747 65.4719 238.451 64.7036 238.451 63.7141V53.1574Z" fill="#1E0059"/>
<path d="M153.829 100.206V88.9185H157.973C158.771 88.9185 159.433 89.0499 159.958 89.3125C160.483 89.5751 160.874 89.9312 161.132 90.3807C161.395 90.8251 161.526 91.3251 161.526 91.8807C161.526 92.3504 161.438 92.7468 161.261 93.0701C161.089 93.3933 160.859 93.6509 160.571 93.8428C160.284 94.0347 159.965 94.1761 159.617 94.267V94.3731C159.996 94.3933 160.364 94.5145 160.723 94.7367C161.082 94.9589 161.377 95.2746 161.609 95.6837C161.847 96.0877 161.965 96.5827 161.965 97.1685C161.965 97.7443 161.829 98.262 161.556 98.7216C161.289 99.1761 160.874 99.5372 160.314 99.8049C159.753 100.073 159.034 100.206 158.155 100.206H153.829ZM155.534 98.7519H157.988C158.806 98.7519 159.392 98.5928 159.746 98.2746C160.099 97.9564 160.276 97.56 160.276 97.0852C160.276 96.7266 160.185 96.4009 160.003 96.1079C159.826 95.81 159.571 95.5726 159.238 95.3958C158.905 95.219 158.511 95.1307 158.056 95.1307H155.534V98.7519ZM155.534 93.8049H157.821C158.2 93.8049 158.544 93.7317 158.852 93.5852C159.16 93.4387 159.402 93.2317 159.579 92.964C159.761 92.6913 159.852 92.3756 159.852 92.017C159.852 91.5524 159.688 91.1635 159.359 90.8504C159.036 90.5322 158.539 90.3731 157.867 90.3731H155.534V93.8049ZM168.056 100.358C167.087 100.358 166.218 100.126 165.45 99.661C164.683 99.1963 164.076 98.5322 163.632 97.6685C163.188 96.7999 162.965 95.767 162.965 94.5701C162.965 93.363 163.188 92.3276 163.632 91.464C164.076 90.5953 164.683 89.9286 165.45 89.464C166.218 88.9993 167.087 88.767 168.056 88.767C169.036 88.767 169.907 88.9993 170.67 89.464C171.433 89.9286 172.034 90.5953 172.473 91.464C172.917 92.3276 173.14 93.363 173.14 94.5701C173.14 95.7721 172.917 96.8049 172.473 97.6685C172.034 98.5322 171.433 99.1963 170.67 99.661C169.907 100.126 169.036 100.358 168.056 100.358ZM168.056 98.8049C168.708 98.8049 169.289 98.6433 169.799 98.3201C170.309 97.9968 170.71 97.5196 171.003 96.8882C171.301 96.2569 171.45 95.4842 171.45 94.5701C171.45 93.6509 171.301 92.8756 171.003 92.2443C170.71 91.6079 170.309 91.1281 169.799 90.8049C169.289 90.4817 168.708 90.3201 168.056 90.3201C167.41 90.3201 166.829 90.4817 166.314 90.8049C165.804 91.1281 165.4 91.6079 165.102 92.2443C164.804 92.8756 164.655 93.6509 164.655 94.5701C164.655 95.4842 164.804 96.2569 165.102 96.8882C165.4 97.5196 165.804 97.9968 166.314 98.3201C166.829 98.6433 167.41 98.8049 168.056 98.8049ZM174.602 100.206V88.9185H176.306V98.7443H181.42V100.206H174.602ZM186.367 100.206H183.579V98.714H186.268C187.127 98.714 187.842 98.5549 188.412 98.2367C188.983 97.9135 189.41 97.4413 189.693 96.8201C189.975 96.1938 190.117 95.4362 190.117 94.5473C190.117 93.6635 189.975 92.9135 189.693 92.2973C189.415 91.6812 188.998 91.214 188.443 90.8958C187.887 90.5726 187.198 90.411 186.374 90.411H183.518V88.9185H186.481C187.587 88.9185 188.536 89.1433 189.329 89.5928C190.122 90.0423 190.731 90.6887 191.155 91.5322C191.579 92.3706 191.791 93.3756 191.791 94.5473C191.791 95.7241 191.576 96.7342 191.147 97.5776C190.723 98.4211 190.107 99.0701 189.299 99.5246C188.491 99.9791 187.513 100.206 186.367 100.206ZM184.412 88.9185V100.206H182.708V88.9185H184.412Z" fill="#1E0059"/>
</svg>
