<svg width="32" height="32" viewBox="0 0 32 32" fill="none" xmlns="http://www.w3.org/2000/svg">
<g opacity="0.2">
<path d="M5.03679 15.9232C3.77276 13.7192 3.16242 11.9194 2.79441 10.095C2.25012 7.39685 3.49571 4.76116 5.55913 3.07938C6.43122 2.36859 7.43093 2.61144 7.94663 3.53661L9.11087 5.62529C10.0337 7.28084 10.4951 8.10861 10.4036 8.9862C10.312 9.8638 9.68978 10.5786 8.44526 12.0081L5.03679 15.9232Z" fill="#8067F6"/>
<path d="M16.0768 26.9633C18.2809 28.2273 20.0807 28.8376 21.905 29.2056C24.6032 29.7499 27.2389 28.5043 28.9207 26.4409C29.6314 25.5688 29.3886 24.5691 28.4634 24.0534L26.3748 22.8892C24.7192 21.9664 23.8914 21.505 23.0138 21.5965C22.1362 21.688 21.4215 22.3103 19.992 23.5548L16.0768 26.9633Z" fill="#8067F6"/>
</g>
<path d="M5.03679 15.9232C3.77276 13.7192 3.16242 11.9194 2.79441 10.095C2.25012 7.39685 3.49571 4.76116 5.55913 3.07938C6.43122 2.36859 7.43093 2.61144 7.94663 3.53661L9.11087 5.62529C10.0337 7.28084 10.4951 8.10861 10.4036 8.9862C10.312 9.8638 9.68978 10.5786 8.44526 12.0081L5.03679 15.9232ZM5.03679 15.9232C7.5953 20.3844 11.6104 24.4018 16.0768 26.9632M16.0768 26.9632C18.2809 28.2273 20.0807 28.8376 21.905 29.2056C24.6032 29.7499 27.2389 28.5043 28.9207 26.4409C29.6314 25.5688 29.3886 24.5691 28.4634 24.0534L26.3748 22.8892C24.7192 21.9664 23.8914 21.505 23.0138 21.5965C22.1362 21.688 21.4215 22.3103 19.992 23.5548L16.0768 26.9632Z" stroke="#8067F6" stroke-width="1.5" stroke-linejoin="round"/>
<path d="M16 9.33325H17.1429C17.6816 9.33325 17.951 9.33325 18.1183 9.49597C18.2857 9.65869 18.2857 9.92058 18.2857 10.4444C18.2857 11.4919 18.2857 12.0157 17.951 12.3411C17.6964 12.5887 17.3238 12.6479 16.686 12.6621C16.3589 12.6694 16.1953 12.673 16.0977 12.7702C16 12.8673 16 13.0226 16 13.3333V14.8888C16 15.4126 16 15.6745 16.1674 15.8372C16.3347 15.9999 16.6041 15.9999 17.1429 15.9999H18.2857M24 9.33325V12.6666M24 12.6666H22.0571C21.6261 12.6666 21.4106 12.6666 21.2768 12.5364C21.1429 12.4062 21.1429 12.1967 21.1429 11.7777V9.33325M24 12.6666V15.9999" stroke="#8067F6" stroke-width="1.5" stroke-linecap="round" stroke-linejoin="round"/>
<path d="M13.3334 5.74031C13.4521 5.60699 13.5754 5.47631 13.7032 5.34846C17.2788 1.77284 23.076 1.77284 26.6517 5.34846C30.2273 8.92408 30.2273 14.7213 26.6517 18.2969C26.5238 18.4248 26.3931 18.548 26.2598 18.6667" stroke="#8067F6" stroke-width="1.5" stroke-linecap="round"/>
</svg>
