<svg width="48" height="48" viewBox="0 0 48 48" fill="none" xmlns="http://www.w3.org/2000/svg">
<path d="M36 8H31.5V5.5C31.5 4.68 30.82 4 30 4C29.18 4 28.5 4.68 28.5 5.5V42.5C28.5 43.32 29.18 44 30 44C30.82 44 31.5 43.32 31.5 42.5V40H36C40.42 40 44 36.42 44 32V16C44 11.58 40.42 8 36 8Z" fill="url(#paint0_linear_195_21650)" fill-opacity="0.7"/>
<path d="M13 8C8.58 8 5 11.58 5 16V32C5 36.42 8.58 40 13 40H23C24.1 40 25 39.1 25 38V10C25 8.9 24.1 8 23 8H13ZM13.34 24.76C13.24 25 13.1 25.22 12.92 25.42C12.72 25.6 12.5 25.74 12.26 25.84C12.02 25.94 11.76 26 11.5 26C11.24 26 10.98 25.94 10.74 25.84C10.5 25.74 10.28 25.6 10.08 25.42C9.9 25.22 9.76 25 9.64 24.76C9.54 24.52 9.5 24.26 9.5 24C9.5 23.48 9.72 22.96 10.08 22.58C10.18 22.5 10.28 22.42 10.38 22.34C10.5 22.26 10.62 22.2 10.74 22.16C10.86 22.1 10.98 22.06 11.1 22.04C11.78 21.9 12.46 22.12 12.92 22.58C13.28 22.96 13.5 23.48 13.5 24C13.5 24.26 13.44 24.52 13.34 24.76ZM20.34 24.76C20.24 25 20.1 25.22 19.92 25.42C19.72 25.6 19.5 25.74 19.26 25.84C19.02 25.94 18.76 26 18.5 26C18.24 26 17.98 25.94 17.74 25.84C17.5 25.74 17.28 25.6 17.08 25.42C16.7 25.04 16.5 24.54 16.5 24C16.5 23.74 16.56 23.48 16.66 23.24C16.76 22.98 16.9 22.78 17.08 22.58C17.82 21.84 19.16 21.84 19.92 22.58C20.28 22.96 20.5 23.48 20.5 24C20.5 24.26 20.44 24.52 20.34 24.76Z" fill="url(#paint1_linear_195_21650)" fill-opacity="0.7"/>
<defs>
<linearGradient id="paint0_linear_195_21650" x1="36.25" y1="4" x2="36.25" y2="44" gradientUnits="userSpaceOnUse">
<stop stop-color="#887CF8"/>
<stop offset="1" stop-color="#594BEC"/>
</linearGradient>
<linearGradient id="paint1_linear_195_21650" x1="15" y1="8" x2="15" y2="40" gradientUnits="userSpaceOnUse">
<stop stop-color="#887CF8"/>
<stop offset="1" stop-color="#594BEC"/>
</linearGradient>
</defs>
</svg>
