<svg width="65" height="64" viewBox="0 0 65 64" fill="none" xmlns="http://www.w3.org/2000/svg">
<rect x="0.724609" width="64" height="64" rx="12" fill="white"/>
<path opacity="0.4" d="M35.8487 22.0049H26.1518C24.3666 22.0049 22.9194 23.4199 22.9194 25.1654V34.6469C22.9194 36.3923 24.3666 37.8074 26.1518 37.8074H35.8487C37.6339 37.8074 39.081 36.3923 39.081 34.6469V25.1654C39.081 23.4199 37.6339 22.0049 35.8487 22.0049Z" fill="#8067F6"/>
<path opacity="0.2" d="M33.0206 24.7695H23.3236C21.5385 24.7695 20.0913 26.1845 20.0913 27.93V37.4115C20.0913 39.157 21.5385 40.572 23.3236 40.572H33.0206C34.8058 40.572 36.2529 39.157 36.2529 37.4115V27.93C36.2529 26.1845 34.8058 24.7695 33.0206 24.7695Z" fill="#8067F6"/>
<path d="M38.6778 19.2393H28.9809C27.1957 19.2393 25.7485 20.6543 25.7485 22.3998V31.8812C25.7485 33.6267 27.1957 35.0417 28.9809 35.0417H38.6778C40.463 35.0417 41.9101 33.6267 41.9101 31.8812V22.3998C41.9101 20.6543 40.463 19.2393 38.6778 19.2393Z" fill="#8067F6"/>
</svg>
