<svg width="301" height="150" viewBox="0 0 301 150" fill="none" xmlns="http://www.w3.org/2000/svg">
<rect x="0.199219" y="0.273071" width="300.8" height="149.333" rx="12.6061" fill="#F8F6FE"/>
<rect x="0.684067" y="0.75792" width="299.83" height="148.364" rx="12.1212" stroke="#0B264C" stroke-opacity="0.1" stroke-width="0.969697"/>
<rect x="29.3867" y="25.873" width="98.1333" height="98.1333" rx="12.8" fill="white"/>
<path d="M54.2246 93.9397H48.1562L61.7656 56.1077H68.3672L81.9512 93.9397H75.9082L65.1934 62.9885H64.8887L54.2246 93.9397ZM55.2402 79.137H74.8672V83.9104H55.2402V79.137ZM91.4361 94.5491C89.6418 94.5491 88.0168 94.219 86.5611 93.5588C85.1054 92.8818 83.9543 91.9 83.108 90.6135C82.2616 89.3271 81.8384 87.7613 81.8384 85.9163C81.8384 84.3082 82.1431 82.9963 82.7525 81.9807C83.3788 80.9482 84.2167 80.1272 85.2662 79.5178C86.3156 78.9084 87.4836 78.4514 88.7701 78.1467C90.0565 77.842 91.3768 77.6051 92.731 77.4358C94.4406 77.2496 95.8202 77.0888 96.8697 76.9534C97.9192 76.818 98.6809 76.6064 99.1548 76.3186C99.6457 76.0139 99.8912 75.5315 99.8912 74.8713V74.7444C99.8912 73.1363 99.4341 71.8922 98.5201 71.012C97.6229 70.1318 96.2857 69.6917 94.5084 69.6917C92.6633 69.6917 91.1991 70.0979 90.1158 70.9104C89.0494 71.706 88.313 72.6116 87.9068 73.6272L82.7017 72.4338C83.328 70.7073 84.2336 69.3193 85.4185 68.2698C86.6203 67.2034 87.9914 66.4247 89.5318 65.9338C91.0891 65.443 92.7141 65.1975 94.4068 65.1975C95.5409 65.1975 96.7427 65.3329 98.0123 65.6038C99.2818 65.8577 100.475 66.3401 101.592 67.051C102.726 67.745 103.649 68.7437 104.36 70.0471C105.071 71.3505 105.426 73.0347 105.426 75.0999V93.9397H100.018V90.0549H99.815C99.4765 90.7489 98.9433 91.443 98.2154 92.137C97.5045 92.831 96.5904 93.4065 95.4732 93.8635C94.356 94.3206 93.0103 94.5491 91.4361 94.5491ZM92.6295 90.1311C94.1698 90.1311 95.4817 89.8349 96.565 89.2424C97.6483 88.6331 98.4778 87.8375 99.0533 86.8557C99.6288 85.8739 99.9166 84.8329 99.9166 83.7327V80.051C99.7134 80.2372 99.3326 80.415 98.774 80.5842C98.2154 80.7535 97.5806 80.8974 96.8697 81.0159C96.1587 81.1344 95.4647 81.2444 94.7877 81.3459C94.1106 81.4306 93.5435 81.4983 93.0865 81.5491C92.0201 81.7014 91.0468 81.9384 90.1666 82.26C89.2864 82.5647 88.5754 83.0217 88.0337 83.6311C87.509 84.2236 87.2466 85.0107 87.2466 85.9924C87.2466 87.3635 87.7545 88.3961 88.7701 89.0901C89.7857 89.7841 91.0722 90.1311 92.6295 90.1311Z" fill="#1E0059"/>
<path d="M156.166 49.989V64.5397H154.408V49.989H156.166ZM159.789 57.9772V64.5397H158.129V53.6218H159.731V55.3405H159.887C160.141 54.7806 160.528 54.3314 161.049 53.9929C161.57 53.6543 162.244 53.485 163.071 53.485C163.806 53.485 164.451 53.6348 165.004 53.9343C165.558 54.2337 165.987 54.6895 166.293 55.3015C166.606 55.9069 166.762 56.6752 166.762 57.6061V64.5397H165.102V57.7233C165.102 56.8705 164.877 56.2031 164.428 55.7214C163.979 55.2331 163.367 54.989 162.592 54.989C162.058 54.989 161.58 55.1061 161.157 55.3405C160.733 55.5749 160.398 55.9134 160.151 56.3561C159.91 56.7988 159.789 57.3392 159.789 57.9772ZM173.237 53.6218V55.0475H167.593V53.6218H173.237ZM169.233 51.0241H170.893V61.4147C170.893 61.9811 171.011 62.3978 171.245 62.6647C171.479 62.9252 171.85 63.0554 172.358 63.0554C172.469 63.0554 172.583 63.0488 172.7 63.0358C172.824 63.0228 172.957 63.0033 173.1 62.9772L173.452 64.4811C173.296 64.5397 173.104 64.5853 172.876 64.6179C172.654 64.6569 172.43 64.6765 172.202 64.6765C171.323 64.6765 170.607 64.416 170.054 63.8952C169.507 63.3744 169.233 62.6973 169.233 61.864V51.0241ZM178.892 64.7741C177.844 64.7741 176.935 64.5397 176.167 64.071C175.405 63.6022 174.82 62.9479 174.409 62.1081C173.999 61.2617 173.794 60.2819 173.794 59.1686C173.794 58.0488 173.996 57.0625 174.4 56.2097C174.803 55.3568 175.37 54.6895 176.099 54.2077C176.835 53.7259 177.694 53.485 178.677 53.485C179.243 53.485 179.807 53.5794 180.366 53.7682C180.926 53.9571 181.434 54.263 181.89 54.6862C182.352 55.1094 182.72 55.6693 182.993 56.3659C183.267 57.0625 183.404 57.9186 183.404 58.9343V59.6569H174.986V58.2116H182.495L181.724 58.7585C181.724 58.0293 181.61 57.3815 181.382 56.8151C181.154 56.2487 180.812 55.8028 180.357 55.4772C179.907 55.1517 179.348 54.989 178.677 54.989C178.006 54.989 177.43 55.155 176.948 55.487C176.473 55.8125 176.109 56.239 175.855 56.7663C175.601 57.2936 175.474 57.86 175.474 58.4655V59.4225C175.474 60.2494 175.617 60.9492 175.904 61.5222C176.19 62.0951 176.59 62.5313 177.105 62.8307C177.619 63.1237 178.215 63.2702 178.892 63.2702C179.328 63.2702 179.725 63.2084 180.083 63.0847C180.441 62.9544 180.751 62.7624 181.011 62.5085C181.271 62.2481 181.47 61.9291 181.607 61.5515L183.228 62.0202C183.058 62.5671 182.772 63.0488 182.368 63.4655C181.971 63.8757 181.476 64.1979 180.884 64.4323C180.292 64.6602 179.627 64.7741 178.892 64.7741ZM184.586 64.5397V53.6218H186.187V55.2819H186.304C186.506 54.7416 186.867 54.3054 187.388 53.9733C187.916 53.6348 188.505 53.4655 189.156 53.4655C189.28 53.4655 189.433 53.4688 189.615 53.4753C189.797 53.4753 189.937 53.4785 190.035 53.485V55.1843C189.976 55.1712 189.846 55.1517 189.644 55.1257C189.442 55.0996 189.227 55.0866 189 55.0866C188.472 55.0866 188 55.1973 187.584 55.4186C187.167 55.64 186.838 55.9427 186.597 56.3268C186.363 56.711 186.246 57.1504 186.246 57.6452V64.5397H184.586ZM194.391 51.5515V49.989H205.309V51.5515H200.739V64.5397H198.981V51.5515H194.391ZM206.471 64.5397V53.6218H208.132V64.5397H206.471ZM207.311 51.8054C206.986 51.8054 206.706 51.6947 206.471 51.4733C206.237 51.252 206.12 50.985 206.12 50.6725C206.12 50.36 206.237 50.0931 206.471 49.8718C206.706 49.6504 206.986 49.5397 207.311 49.5397C207.637 49.5397 207.917 49.6504 208.151 49.8718C208.386 50.0931 208.503 50.36 208.503 50.6725C208.503 50.985 208.386 51.252 208.151 51.4733C207.917 51.6947 207.637 51.8054 207.311 51.8054ZM214.275 68.8561C213.057 68.8561 212.094 68.6348 211.384 68.1921C210.681 67.7494 210.16 67.2416 209.821 66.6686L211.15 65.7311C211.299 65.933 211.491 66.1608 211.726 66.4147C211.96 66.6752 212.279 66.8998 212.683 67.0886C213.086 67.2774 213.617 67.3718 214.275 67.3718C215.154 67.3718 215.879 67.1602 216.452 66.737C217.032 66.3138 217.321 65.6465 217.321 64.735V62.528H217.165C217.048 62.7233 216.876 62.9675 216.648 63.2604C216.426 63.5469 216.104 63.8041 215.681 64.0319C215.264 64.2533 214.698 64.364 213.982 64.364C213.103 64.364 212.315 64.1556 211.618 63.739C210.922 63.3223 210.368 62.7168 209.958 61.9225C209.555 61.1283 209.353 60.1647 209.353 59.0319C209.353 57.9121 209.548 56.9388 209.939 56.112C210.336 55.2787 210.886 54.6341 211.589 54.1784C212.292 53.7162 213.103 53.485 214.021 53.485C214.73 53.485 215.293 53.6022 215.71 53.8366C216.133 54.071 216.456 54.3379 216.677 54.6374C216.905 54.9304 217.081 55.1712 217.204 55.36H217.38V53.6218H218.982V64.8522C218.982 65.7897 218.77 66.5515 218.347 67.1374C217.93 67.7298 217.364 68.1628 216.648 68.4362C215.938 68.7162 215.147 68.8561 214.275 68.8561ZM214.216 62.86C215.225 62.86 215.997 62.5182 216.53 61.8347C217.071 61.1511 217.341 60.2038 217.341 58.9929C217.341 58.2051 217.224 57.5117 216.989 56.9128C216.755 56.3138 216.404 55.8451 215.935 55.5065C215.473 55.1615 214.9 54.989 214.216 54.989C213.506 54.989 212.914 55.1712 212.439 55.5358C211.97 55.8939 211.618 56.3757 211.384 56.9811C211.15 57.5866 211.032 58.2572 211.032 58.9929C211.032 59.7481 211.15 60.4186 211.384 61.0046C211.625 61.584 211.983 62.0397 212.458 62.3718C212.933 62.6973 213.519 62.86 214.216 62.86ZM222.39 57.9772V64.5397H220.73V49.989H222.39V55.3405H222.546C222.8 54.7741 223.181 54.3249 223.689 53.9929C224.203 53.6543 224.89 53.485 225.75 53.485C226.492 53.485 227.143 53.6348 227.703 53.9343C228.263 54.2272 228.699 54.6797 229.011 55.2917C229.324 55.8972 229.48 56.6686 229.48 57.6061V64.5397H227.8V57.7233C227.8 56.8509 227.576 56.1771 227.127 55.7018C226.677 55.2266 226.056 54.989 225.261 54.989C224.708 54.989 224.216 55.1061 223.787 55.3405C223.357 55.5749 223.015 55.9134 222.761 56.3561C222.514 56.7988 222.39 57.3392 222.39 57.9772ZM235.955 53.6218V55.0475H230.311V53.6218H235.955ZM231.951 51.0241H233.611V61.4147C233.611 61.9811 233.729 62.3978 233.963 62.6647C234.197 62.9252 234.568 63.0554 235.076 63.0554C235.187 63.0554 235.301 63.0488 235.418 63.0358C235.542 63.0228 235.675 63.0033 235.818 62.9772L236.17 64.4811C236.014 64.5397 235.822 64.5853 235.594 64.6179C235.372 64.6569 235.148 64.6765 234.92 64.6765C234.041 64.6765 233.325 64.416 232.771 63.8952C232.225 63.3744 231.951 62.6973 231.951 61.864V51.0241Z" fill="#1E0059"/>
<path d="M154.028 102.34V91.0518H158.059C158.932 91.0518 159.657 91.2034 160.233 91.5064C160.809 91.8044 161.24 92.221 161.528 92.7564C161.816 93.2867 161.96 93.9003 161.96 94.5973C161.96 95.2842 161.816 95.8902 161.528 96.4155C161.24 96.9407 160.806 97.3473 160.225 97.6352C159.649 97.9231 158.922 98.067 158.043 98.067H155.006V96.6124H157.884C158.445 96.6124 158.897 96.5316 159.24 96.37C159.589 96.2084 159.841 95.9786 159.998 95.6806C160.16 95.3827 160.24 95.0215 160.24 94.5973C160.24 94.168 160.16 93.7993 159.998 93.4912C159.836 93.1781 159.581 92.9382 159.233 92.7715C158.889 92.5998 158.437 92.514 157.877 92.514H155.733V102.34H154.028ZM160.452 102.34L157.718 97.2412H159.604L162.392 102.34H160.452ZM163.392 102.34V91.0518H170.475V92.514H165.096V95.9155H170.096V97.37H165.096V100.878H170.528V102.34H163.392ZM176.862 102.491C175.841 102.491 174.945 102.256 174.172 101.787C173.404 101.317 172.803 100.65 172.369 99.7867C171.94 98.918 171.725 97.8902 171.725 96.7034C171.725 95.5013 171.942 94.4685 172.377 93.6049C172.816 92.7362 173.417 92.0695 174.18 91.6049C174.942 91.1352 175.811 90.9003 176.786 90.9003C177.392 90.9003 177.958 90.9912 178.483 91.1731C179.013 91.3498 179.483 91.6049 179.892 91.9382C180.306 92.2715 180.647 92.6655 180.915 93.12C181.187 93.5695 181.372 94.0695 181.468 94.62H179.725C179.619 94.2816 179.478 93.9811 179.301 93.7185C179.124 93.4508 178.912 93.2236 178.665 93.0367C178.417 92.8448 178.137 92.7008 177.824 92.6049C177.516 92.5039 177.172 92.4534 176.793 92.4534C176.157 92.4534 175.584 92.6175 175.074 92.9458C174.564 93.269 174.16 93.7463 173.862 94.3776C173.564 95.0089 173.415 95.7816 173.415 96.6958C173.415 97.6099 173.564 98.3827 173.862 99.014C174.16 99.6453 174.569 100.125 175.089 100.453C175.609 100.777 176.2 100.938 176.862 100.938C177.473 100.938 178.006 100.814 178.46 100.567C178.915 100.314 179.268 99.9609 179.521 99.5064C179.773 99.0518 179.899 98.514 179.899 97.8928L180.346 97.9761H177.119V96.567H181.559V97.8549C181.559 98.8044 181.357 99.6251 180.952 100.317C180.553 101.009 179.998 101.544 179.286 101.923C178.579 102.302 177.771 102.491 176.862 102.491ZM190.324 91.0518H192.028V98.4761C192.028 99.264 191.841 99.9635 191.468 100.575C191.099 101.181 190.579 101.658 189.907 102.006C189.235 102.35 188.447 102.522 187.543 102.522C186.644 102.522 185.857 102.35 185.18 102.006C184.508 101.658 183.985 101.181 183.612 100.575C183.243 99.9635 183.059 99.264 183.059 98.4761V91.0518H184.763V98.3397C184.763 98.8498 184.874 99.3044 185.096 99.7034C185.324 100.097 185.644 100.408 186.059 100.635C186.478 100.862 186.973 100.976 187.543 100.976C188.119 100.976 188.614 100.862 189.028 100.635C189.442 100.408 189.761 100.097 189.983 99.7034C190.21 99.3044 190.324 98.8498 190.324 98.3397V91.0518ZM193.846 102.34V91.0518H195.551V100.878H200.665V102.34H193.846ZM203.475 102.34H201.665L205.725 91.0518H207.695L211.748 102.34H209.945L206.748 93.1049H206.657L203.475 102.34ZM203.778 97.9231H209.634V99.3473H203.778V97.9231ZM212.71 102.34V91.0518H216.74C217.614 91.0518 218.339 91.2034 218.915 91.5064C219.49 91.8044 219.922 92.221 220.21 92.7564C220.498 93.2867 220.642 93.9003 220.642 94.5973C220.642 95.2842 220.498 95.8902 220.21 96.4155C219.922 96.9407 219.488 97.3473 218.907 97.6352C218.331 97.9231 217.604 98.067 216.725 98.067H213.687V96.6124H216.566C217.127 96.6124 217.579 96.5316 217.922 96.37C218.271 96.2084 218.523 95.9786 218.68 95.6806C218.841 95.3827 218.922 95.0215 218.922 94.5973C218.922 94.168 218.841 93.7993 218.68 93.4912C218.518 93.1781 218.263 92.9382 217.915 92.7715C217.571 92.5998 217.119 92.514 216.559 92.514H214.415V102.34H212.71ZM219.134 102.34L216.399 97.2412H218.286L221.074 102.34H219.134Z" fill="#1E0059"/>
</svg>
