<svg width="32" height="32" viewBox="0 0 32 32" fill="none" xmlns="http://www.w3.org/2000/svg">
<path d="M2.66699 16.5333C2.66699 12.5107 2.66699 10.4994 3.92869 9.24968C5.19038 8 7.22105 8 11.2824 8H12.7183C16.7796 8 18.8103 8 20.072 9.24968C21.3337 10.4994 21.3337 12.5107 21.3337 16.5333V20.8C21.3337 24.8227 21.3337 26.834 20.072 28.0837C18.8103 29.3333 16.7796 29.3333 12.7183 29.3333H11.2824C7.22105 29.3333 5.19038 29.3333 3.92869 28.0837C2.66699 26.834 2.66699 24.8227 2.66699 20.8V16.5333Z" stroke="#8067F6" stroke-width="2" stroke-linejoin="round"/>
<path d="M20.7165 21.3333H21.9474C25.429 21.3333 27.1698 21.3333 28.2514 20.2398C29.333 19.1464 29.333 17.3864 29.333 13.8666V10.1333C29.333 6.61347 29.333 4.85356 28.2514 3.76009C27.1698 2.66663 25.429 2.66663 21.9474 2.66663H20.7165C17.2349 2.66663 15.4941 2.66663 14.4125 3.76009C13.4666 4.7163 13.3479 6.18215 13.333 8.88885" stroke="#8067F6" stroke-width="2" stroke-linejoin="round"/>
<path d="M8 16H12M8 22.6667H14.6667" stroke="#8067F6" stroke-width="2" stroke-linecap="round"/>
<path d="M14 4L19.3333 8.66667" stroke="#8067F6" stroke-width="2" stroke-linejoin="round"/>
</svg>
