<svg width="50" height="50" viewBox="0 0 50 50" fill="none" xmlns="http://www.w3.org/2000/svg">
<path opacity="0.4" d="M33.0806 11.6748H16.9189C13.9437 11.6748 11.5317 14.0331 11.5317 16.9423V32.7448C11.5317 35.6539 13.9437 38.0122 16.9189 38.0122H33.0806C36.0558 38.0122 38.4678 35.6539 38.4678 32.7448V16.9423C38.4678 14.0331 36.0558 11.6748 33.0806 11.6748Z" fill="#8067F6"/>
<path opacity="0.2" d="M28.3667 16.2822H12.2051C9.2298 16.2822 6.81787 18.6406 6.81787 21.5497V37.3522C6.81787 40.2613 9.2298 42.6197 12.2051 42.6197H28.3667C31.342 42.6197 33.7539 40.2613 33.7539 37.3522V21.5497C33.7539 18.6406 31.342 16.2822 28.3667 16.2822Z" fill="#8067F6"/>
<path d="M37.7954 7.06543H21.6338C18.6585 7.06543 16.2466 9.42376 16.2466 12.3329V28.1354C16.2466 31.0445 18.6585 33.4029 21.6338 33.4029H37.7954C40.7707 33.4029 43.1826 31.0445 43.1826 28.1354V12.3329C43.1826 9.42376 40.7707 7.06543 37.7954 7.06543Z" fill="#8067F6"/>
</svg>
