<svg width="32" height="32" viewBox="0 0 32 32" fill="none" xmlns="http://www.w3.org/2000/svg">
<path d="M21.333 22.6666L11.9997 22.6666" stroke="#8067F6" stroke-width="2" stroke-linecap="round" stroke-linejoin="round"/>
<path d="M21.333 17.3333L17.333 17.3333" stroke="#8067F6" stroke-width="2" stroke-linecap="round" stroke-linejoin="round"/>
<path d="M27.333 18.6666C27.333 23.695 27.333 26.2091 25.6733 27.7712C24.0136 29.3333 21.3423 29.3333 15.9997 29.3333H14.9694C10.6211 29.3333 8.44696 29.3333 6.9371 28.2695C6.5045 27.9647 6.12045 27.6033 5.79661 27.1961C4.66634 25.7751 4.66634 23.7288 4.66634 19.6363V16.2424C4.66634 12.2915 4.66634 10.3161 5.29159 8.73832C6.29676 6.20188 8.42252 4.20116 11.1175 3.25512C12.7938 2.66665 14.8928 2.66665 19.0906 2.66665C21.4893 2.66665 22.6887 2.66665 23.6466 3.00292C25.1866 3.54351 26.4013 4.68678 26.9757 6.13617C27.333 7.03774 27.333 8.16657 27.333 10.4242V18.6666Z" stroke="#8067F6" stroke-width="2" stroke-linejoin="round"/>
<path d="M4.66667 16C4.66667 13.5454 6.65651 11.5556 9.11111 11.5556C9.99882 11.5556 11.0454 11.7111 11.9085 11.4798C12.6754 11.2744 13.2744 10.6754 13.4798 9.90849C13.7111 9.04538 13.5556 7.99882 13.5556 7.11111C13.5556 4.65651 15.5454 2.66667 18 2.66667" stroke="#8067F6" stroke-width="2" stroke-linecap="round" stroke-linejoin="round"/>
</svg>
