<svg width="132" height="20" viewBox="0 0 132 20" fill="none" xmlns="http://www.w3.org/2000/svg">
<path d="M18.2901 7.51745C18.2115 7.32693 18.078 7.1641 17.9066 7.04968C17.7352 6.93526 17.5337 6.87444 17.3276 6.87495H12.9109L10.9576 2.31328C10.8772 2.12568 10.7436 1.96579 10.5733 1.85342C10.4029 1.74105 10.2033 1.68115 9.99924 1.68115C9.79517 1.68115 9.59558 1.74105 9.42522 1.85342C9.25487 1.96579 9.12124 2.12568 9.04091 2.31328L7.08841 6.87495H2.67174C2.46569 6.87491 2.26426 6.93598 2.09292 7.05044C1.92159 7.1649 1.78804 7.3276 1.70919 7.51796C1.63033 7.70832 1.6097 7.9178 1.64991 8.11989C1.69012 8.32198 1.78936 8.5076 1.93508 8.65328L5.14091 11.8583L3.79758 17.2349C3.74815 17.433 3.75799 17.6412 3.82587 17.8337C3.89375 18.0261 4.01668 18.1944 4.1794 18.3177C4.34212 18.4409 4.53745 18.5136 4.74113 18.5267C4.94481 18.5399 5.14787 18.4929 5.32508 18.3916L10.0001 15.7199L14.6759 18.3924C14.8532 18.4936 15.0562 18.5404 15.2599 18.5271C15.4635 18.5138 15.6587 18.441 15.8214 18.3177C15.984 18.1944 16.1068 18.0261 16.1746 17.8336C16.2423 17.6411 16.2521 17.4329 16.2026 17.2349L14.8592 11.8583L18.0642 8.65328C18.2104 8.5078 18.31 8.32207 18.3502 8.11977C18.3904 7.91748 18.3695 7.7078 18.2901 7.51745Z" fill="#FF8C45"/>
<path d="M46.2901 7.51745C46.2115 7.32693 46.078 7.1641 45.9066 7.04968C45.7352 6.93526 45.5337 6.87444 45.3276 6.87495H40.9109L38.9576 2.31328C38.8772 2.12568 38.7436 1.96579 38.5733 1.85342C38.4029 1.74105 38.2033 1.68115 37.9992 1.68115C37.7952 1.68115 37.5956 1.74105 37.4252 1.85342C37.2549 1.96579 37.1212 2.12568 37.0409 2.31328L35.0884 6.87495H30.6717C30.4657 6.87491 30.2643 6.93598 30.0929 7.05044C29.9216 7.1649 29.788 7.3276 29.7092 7.51796C29.6303 7.70832 29.6097 7.9178 29.6499 8.11989C29.6901 8.32198 29.7894 8.5076 29.9351 8.65328L33.1409 11.8583L31.7976 17.2349C31.7481 17.433 31.758 17.6412 31.8259 17.8337C31.8937 18.0261 32.0167 18.1944 32.1794 18.3177C32.3421 18.4409 32.5374 18.5136 32.7411 18.5267C32.9448 18.5399 33.1479 18.4929 33.3251 18.3916L38.0001 15.7199L42.6759 18.3924C42.8532 18.4936 43.0562 18.5404 43.2599 18.5271C43.4635 18.5138 43.6587 18.441 43.8214 18.3177C43.984 18.1944 44.1068 18.0261 44.1746 17.8336C44.2423 17.6411 44.2521 17.4329 44.2026 17.2349L42.8592 11.8583L46.0642 8.65328C46.2104 8.5078 46.31 8.32207 46.3502 8.11977C46.3904 7.91748 46.3695 7.7078 46.2901 7.51745Z" fill="#FF8C45"/>
<path d="M74.2901 7.51745C74.2115 7.32693 74.078 7.1641 73.9066 7.04968C73.7352 6.93526 73.5337 6.87444 73.3276 6.87495H68.9109L66.9576 2.31328C66.8772 2.12568 66.7436 1.96579 66.5733 1.85342C66.4029 1.74105 66.2033 1.68115 65.9992 1.68115C65.7952 1.68115 65.5956 1.74105 65.4252 1.85342C65.2549 1.96579 65.1212 2.12568 65.0409 2.31328L63.0884 6.87495H58.6717C58.4657 6.87491 58.2643 6.93598 58.0929 7.05044C57.9216 7.1649 57.788 7.3276 57.7092 7.51796C57.6303 7.70832 57.6097 7.9178 57.6499 8.11989C57.6901 8.32198 57.7894 8.5076 57.9351 8.65328L61.1409 11.8583L59.7976 17.2349C59.7481 17.433 59.758 17.6412 59.8259 17.8337C59.8937 18.0261 60.0167 18.1944 60.1794 18.3177C60.3421 18.4409 60.5374 18.5136 60.7411 18.5267C60.9448 18.5399 61.1479 18.4929 61.3251 18.3916L66.0001 15.7199L70.6759 18.3924C70.8532 18.4936 71.0562 18.5404 71.2599 18.5271C71.4635 18.5138 71.6587 18.441 71.8214 18.3177C71.984 18.1944 72.1068 18.0261 72.1746 17.8336C72.2423 17.6411 72.2521 17.4329 72.2026 17.2349L70.8592 11.8583L74.0642 8.65328C74.2104 8.5078 74.31 8.32207 74.3502 8.11977C74.3904 7.91748 74.3695 7.7078 74.2901 7.51745Z" fill="#FF8C45"/>
<path d="M102.29 7.51745C102.212 7.32693 102.078 7.1641 101.907 7.04968C101.735 6.93526 101.534 6.87444 101.328 6.87495H96.9109L94.9576 2.31328C94.8772 2.12568 94.7436 1.96579 94.5733 1.85342C94.4029 1.74105 94.2033 1.68115 93.9992 1.68115C93.7952 1.68115 93.5956 1.74105 93.4252 1.85342C93.2549 1.96579 93.1212 2.12568 93.0409 2.31328L91.0884 6.87495H86.6717C86.4657 6.87491 86.2643 6.93598 86.0929 7.05044C85.9216 7.1649 85.788 7.3276 85.7092 7.51796C85.6303 7.70832 85.6097 7.9178 85.6499 8.11989C85.6901 8.32198 85.7894 8.5076 85.9351 8.65328L89.1409 11.8583L87.7976 17.2349C87.7481 17.433 87.758 17.6412 87.8259 17.8337C87.8937 18.0261 88.0167 18.1944 88.1794 18.3177C88.3421 18.4409 88.5374 18.5136 88.7411 18.5267C88.9448 18.5399 89.1479 18.4929 89.3251 18.3916L94.0001 15.7199L98.6759 18.3924C98.8532 18.4936 99.0562 18.5404 99.2599 18.5271C99.4635 18.5138 99.6587 18.441 99.8214 18.3177C99.984 18.1944 100.107 18.0261 100.175 17.8336C100.242 17.6411 100.252 17.4329 100.203 17.2349L98.8592 11.8583L102.064 8.65328C102.21 8.5078 102.31 8.32207 102.35 8.11977C102.39 7.91748 102.37 7.7078 102.29 7.51745Z" fill="#FF8C45"/>
<path d="M130.29 7.51745C130.212 7.32693 130.078 7.1641 129.907 7.04968C129.735 6.93526 129.534 6.87444 129.328 6.87495H124.911L122.958 2.31328C122.877 2.12568 122.744 1.96579 122.573 1.85342C122.403 1.74105 122.203 1.68115 121.999 1.68115C121.795 1.68115 121.596 1.74105 121.425 1.85342C121.255 1.96579 121.121 2.12568 121.041 2.31328L119.088 6.87495H114.672C114.466 6.87491 114.264 6.93598 114.093 7.05044C113.922 7.1649 113.788 7.3276 113.709 7.51796C113.63 7.70832 113.61 7.9178 113.65 8.11989C113.69 8.32198 113.789 8.5076 113.935 8.65328L117.141 11.8583L115.798 17.2349C115.748 17.433 115.758 17.6412 115.826 17.8337C115.894 18.0261 116.017 18.1944 116.179 18.3177C116.342 18.4409 116.537 18.5136 116.741 18.5267C116.945 18.5399 117.148 18.4929 117.325 18.3916L122 15.7199L126.676 18.3924C126.853 18.4936 127.056 18.5404 127.26 18.5271C127.464 18.5138 127.659 18.441 127.821 18.3177C127.984 18.1944 128.107 18.0261 128.175 17.8336C128.242 17.6411 128.252 17.4329 128.203 17.2349L126.859 11.8583L130.064 8.65328C130.21 8.5078 130.31 8.32207 130.35 8.11977C130.39 7.91748 130.37 7.7078 130.29 7.51745Z" fill="#FF8C45"/>
</svg>
