<svg width="32" height="32" viewBox="0 0 32 32" fill="none" xmlns="http://www.w3.org/2000/svg">
<path opacity="0.2" fill-rule="evenodd" clip-rule="evenodd" d="M29.3332 16C29.3332 23.3638 23.3636 29.3333 15.9998 29.3333C12.3659 29.3333 9.0715 27.8795 6.6665 25.5219C6.41935 25.2872 4.63649 22.6317 3.77595 21.3333C3.06236 19.7001 2.6665 17.8962 2.6665 16C2.6665 8.63616 8.63604 2.66663 15.9998 2.66663C19.6338 2.66663 22.9282 4.12038 25.3332 6.47805L28.2237 10.6666C28.9373 12.2999 29.3332 14.1037 29.3332 16ZM23.8945 17.135C23.7892 17.2994 23.4282 17.4655 22.7062 17.7976C21.6361 18.2899 20.9491 19.367 20.9862 20.4942C21.0145 21.3554 21.0286 21.786 20.9352 21.9497C20.8418 22.1135 20.6156 22.2375 20.1631 22.4854L19.7329 22.721C19.2942 22.9614 19.0749 23.0815 18.8875 23.0726C18.7002 23.0638 18.3817 22.8478 17.7448 22.4159C16.7079 21.7129 15.293 21.7129 14.2562 22.416C13.6192 22.8479 13.3008 23.0638 13.1134 23.0727C12.9261 23.0816 12.7067 22.9614 12.2681 22.7211L11.8379 22.4855C11.3855 22.2376 11.1593 22.1137 11.0658 21.9499C10.9724 21.7862 10.9865 21.3555 11.0146 20.4942C11.0515 19.367 10.3639 18.2898 9.29347 17.7975C8.57153 17.4655 8.21055 17.2995 8.1052 17.1351C7.99984 16.9707 7.99984 16.7088 7.99984 16.1849V15.8151C7.99984 15.2912 7.99984 15.0292 8.10522 14.8648C8.2106 14.7003 8.57156 14.5344 9.29349 14.2025C10.3643 13.7103 11.0523 12.633 11.0157 11.5057C10.9878 10.6443 10.9738 10.2136 11.0672 10.0499C11.1606 9.88619 11.3868 9.76228 11.8392 9.51447L12.2693 9.2788C12.7079 9.03852 12.9272 8.91838 13.1145 8.92723C13.3019 8.93608 13.6204 9.15199 14.2575 9.58381C15.2937 10.2861 16.7073 10.2861 17.7434 9.58387C18.3805 9.15207 18.6991 8.93616 18.8864 8.92731C19.0737 8.91846 19.293 9.0386 19.7316 9.27887L20.1618 9.51454C20.6142 9.7624 20.8404 9.88633 20.9338 10.0501C21.0273 10.2138 21.0132 10.6445 20.985 11.5058C20.9482 12.633 21.6357 13.7102 22.7062 14.2025C23.4281 14.5345 23.7891 14.7005 23.8945 14.8649C23.9998 15.0293 23.9998 15.2912 23.9998 15.8151V16.1849C23.9998 16.7087 23.9998 16.9706 23.8945 17.135Z" fill="#8067F6"/>
<path d="M23.0164 17.6752C23.5461 17.4993 23.8109 17.4114 23.9055 17.2804C24 17.1494 24 16.939 24 16.5182V15.4818C24 15.061 24 14.8506 23.9054 14.7196C23.8109 14.5886 23.5461 14.5006 23.0164 14.3248C21.6543 13.8725 20.7942 12.5124 21.0196 11.159C21.1177 10.57 21.1668 10.2755 21.0971 10.1321C21.0274 9.98869 20.8409 9.8865 20.4679 9.68214L19.4524 9.12583C19.0998 8.93266 18.9235 8.83608 18.769 8.85177C18.6145 8.86747 18.4087 9.04208 17.9971 9.39131C16.8669 10.3503 15.1343 10.3503 14.0042 9.39124C13.5926 9.04201 13.3868 8.8674 13.2323 8.8517C13.0777 8.836 12.9014 8.93259 12.5488 9.12576L11.5334 9.68207C11.1604 9.88641 10.9739 9.98858 10.9042 10.132C10.8346 10.2753 10.8836 10.5699 10.9816 11.1589C11.2068 12.5124 10.346 13.8726 8.98358 14.3248C8.45394 14.5006 8.18913 14.5885 8.09456 14.7195C8 14.8506 8 15.061 8 15.4818V16.5182C8 16.939 8 17.1494 8.09455 17.2804C8.1891 17.4114 8.45393 17.4994 8.98357 17.6752C10.3457 18.1275 11.2058 19.4875 10.9804 20.841C10.8823 21.43 10.8332 21.7245 10.9029 21.8679C10.9726 22.0113 11.1591 22.1135 11.5321 22.3179L12.5476 22.8742C12.9002 23.0674 13.0765 23.1639 13.2311 23.1482C13.3856 23.1325 13.5914 22.9579 14.0028 22.6086C15.1337 21.6487 16.8676 21.6487 17.9984 22.6086C18.4099 22.9578 18.6156 23.1324 18.7702 23.1482C18.9247 23.1639 19.1011 23.0673 19.4537 22.8741L20.4691 22.3178C20.8422 22.1134 21.0287 22.0112 21.0984 21.8678C21.1681 21.7244 21.119 21.4299 21.0208 20.841C20.7951 19.4875 21.6546 18.1275 23.0164 17.6752Z" stroke="#8067F6" stroke-width="1.5" stroke-linecap="round"/>
<circle opacity="0.4" cx="15.9998" cy="16" r="2.33333" fill="#8067F6"/>
<circle cx="15.9998" cy="16" r="2.33333" stroke="#8067F6" stroke-width="1.5"/>
<path d="M25.3332 2.66663V6.47805C22.9282 4.12038 19.6338 2.66663 15.9998 2.66663C8.63604 2.66663 2.6665 8.63616 2.6665 16C2.6665 17.8962 3.06236 19.7001 3.77595 21.3333M6.6665 29.3333V25.5219C9.0715 27.8795 12.3659 29.3333 15.9998 29.3333C23.3636 29.3333 29.3332 23.3638 29.3332 16C29.3332 14.1037 28.9373 12.2999 28.2237 10.6666" stroke="#8067F6" stroke-width="1.5" stroke-linecap="round" stroke-linejoin="round"/>
</svg>
