<svg width="145" height="32" viewBox="0 0 145 32" fill="none" xmlns="http://www.w3.org/2000/svg">
<g clip-path="url(#clip0_195_29277)">
<path fill-rule="evenodd" clip-rule="evenodd" d="M45.9419 2.11103C45.9419 1.03575 46.8231 0.164062 47.9102 0.164062H51.3391C52.1128 0.164062 52.8627 0.429284 53.4609 0.914581L54.504 1.76069L54.5301 1.78423C54.5542 1.7762 54.5782 1.76835 54.6024 1.76069C56.4842 1.16447 58.7675 1.05109 61.0978 1.05109C63.4282 1.05109 65.7114 1.16447 67.5933 1.76069C67.6174 1.76835 67.6415 1.7762 67.6655 1.78423L67.6916 1.76069L68.7347 0.914581C69.333 0.429284 70.0828 0.164062 70.8565 0.164062H74.2854C75.3726 0.164062 76.2538 1.03575 76.2538 2.11103V3.31462C76.2538 4.24584 75.8572 5.13398 75.1613 5.76117L74.3198 6.5196C73.909 6.88986 73.4159 7.15933 72.8804 7.30623L72.6813 7.36084C73.4611 9.20117 73.8918 11.1683 73.8918 12.7597C73.8918 19.1611 69.8876 21.9258 66.3595 24.3617C63.581 26.2801 61.0978 27.9946 61.0978 31.1209C61.0978 27.9946 58.6146 26.2801 55.8362 24.3617C52.308 21.9258 48.3038 19.1611 48.3038 12.7597C48.3038 11.1683 48.7346 9.20117 49.5143 7.36084L49.3153 7.30623C48.7797 7.15933 48.2866 6.88986 47.8758 6.5196L47.0344 5.76117C46.3385 5.13398 45.9419 4.24584 45.9419 3.31462V2.11103ZM63.6566 17.9931C63.6566 18.2989 63.5218 18.5922 63.2819 18.8085C63.042 19.0247 62.7166 19.1462 62.3772 19.1462C62.0843 19.1462 61.8016 19.0556 61.5755 18.8917C61.9604 19.9109 62.9456 20.8767 64.444 19.3236C65.7667 17.8805 64.3851 14.8367 63.0391 13.0305C62.5905 12.4285 61.8539 12.1387 61.0978 12.1387C60.3417 12.1387 59.6052 12.4285 59.1565 13.0305C57.8105 14.8367 56.4289 17.8805 57.7517 19.3236C59.2501 20.8767 60.2352 19.9109 60.6202 18.8917C60.394 19.0556 60.1114 19.1462 59.8185 19.1462C59.4791 19.1462 59.1537 19.0247 58.9137 18.8085C58.6738 18.5922 58.539 18.2989 58.539 17.9931H63.6566ZM56.1984 8.983H52.6341L55.4431 11.2078C56.0612 11.6973 56.9647 11.5408 57.3472 10.8779C57.8301 10.041 57.1887 8.983 56.1984 8.983ZM65.9973 8.983H69.5615L66.7526 11.2078C66.1344 11.6973 65.2309 11.5408 64.8485 10.8779C64.3655 10.041 65.007 8.983 65.9973 8.983Z" fill="#1E0059"/>
<path d="M80.4985 22.0918H83.6561V10.1812H80.4985V22.0918ZM80.4985 8.32377H83.6561V5.49121H80.4985V8.32377Z" fill="#1E0059"/>
<path d="M85.6909 25.9927H88.8485V20.7455H88.895C89.5683 21.7671 90.6595 22.4404 92.3312 22.4404C95.3959 22.4404 97.4855 20.0026 97.4855 16.1484C97.4855 12.4336 95.4655 9.85645 92.3079 9.85645C90.6827 9.85645 89.5683 10.6226 88.8021 11.6674H88.7324V10.1815H85.6909V25.9927ZM91.6578 19.8168C89.7772 19.8168 88.7789 18.4005 88.7789 16.2413C88.7789 14.1053 89.5683 12.4104 91.5418 12.4104C93.492 12.4104 94.2814 13.9892 94.2814 16.2413C94.2814 18.4934 93.2599 19.8168 91.6578 19.8168Z" fill="#1E0059"/>
<path d="M103.783 22.4403C106.755 22.4403 108.798 21.0008 108.798 18.6094C108.798 15.8233 106.592 15.2661 104.596 14.8482C102.901 14.4999 101.322 14.407 101.322 13.3855C101.322 12.5264 102.134 12.0621 103.365 12.0621C104.712 12.0621 105.524 12.5264 105.664 13.8034H108.519C108.287 11.412 106.546 9.85638 103.411 9.85638C100.695 9.85638 98.559 11.0869 98.559 13.6641C98.559 16.2645 100.649 16.8449 102.785 17.2628C104.41 17.5879 105.919 17.7039 105.919 18.8416C105.919 19.6774 105.13 20.2114 103.736 20.2114C102.32 20.2114 101.345 19.6078 101.136 18.2379H98.2107C98.3964 20.7687 100.323 22.4403 103.783 22.4403Z" fill="#1E0059"/>
<path d="M120.787 22.0942V10.1836H117.63V17.056C117.63 18.6348 116.724 19.7493 115.238 19.7493C113.892 19.7493 113.265 18.9831 113.265 17.59V10.1836H110.13V18.124C110.13 20.7244 111.616 22.4193 114.263 22.4193C115.935 22.4193 116.863 21.7924 117.676 20.7012H117.746V22.0942H120.787Z" fill="#1E0059"/>
<path d="M122.832 22.0921H125.989V15.1732C125.989 13.5944 126.848 12.5728 128.125 12.5728C129.286 12.5728 129.96 13.2694 129.96 14.616V22.0921H133.117V15.1732C133.117 13.5944 133.93 12.5728 135.253 12.5728C136.414 12.5728 137.087 13.2694 137.087 14.616V22.0921H140.245V14.082C140.245 11.4816 138.829 9.85638 136.321 9.85638C134.812 9.85638 133.558 10.6458 132.746 11.946H132.699C132.119 10.6922 130.912 9.85638 129.402 9.85638C127.754 9.85638 126.593 10.6922 125.943 11.7834H125.873V10.1814H122.832V22.0921Z" fill="#1E0059"/>
<path d="M0.777832 22.0918H3.93543V5.49121H0.777832V22.0918Z" fill="#1E0059"/>
<path d="M11.6594 22.4404C15.351 22.4404 17.8817 19.7007 17.8817 16.1484C17.8817 12.5961 15.351 9.85645 11.6594 9.85645C7.96773 9.85645 5.43701 12.5961 5.43701 16.1484C5.43701 19.7007 7.96773 22.4404 11.6594 22.4404ZM11.6594 20.0258C9.7091 20.0258 8.64108 18.4702 8.64108 16.1484C8.64108 13.8267 9.7091 12.2479 11.6594 12.2479C13.5864 12.2479 14.6777 13.8267 14.6777 16.1484C14.6777 18.4702 13.5864 20.0258 11.6594 20.0258Z" fill="#1E0059"/>
<path d="M24.5936 26.1552C26.3582 26.1552 27.8905 25.7372 28.8889 24.8085C29.7712 23.9959 30.3052 22.8583 30.3052 21.1866V10.1814H27.2636V11.4352H27.2172C26.4975 10.4368 25.4062 9.85638 23.9203 9.85638C20.902 9.85638 18.766 12.1317 18.766 15.684C18.766 19.2827 21.3664 21.3723 24.0132 21.3723C25.5223 21.3723 26.4278 20.7687 27.1243 19.9793H27.194V21.2795C27.194 22.9047 26.3349 23.7637 24.5472 23.7637C23.0845 23.7637 22.4112 23.1833 22.1558 22.4403H19.0214C19.3464 24.7621 21.3431 26.1552 24.5936 26.1552ZM24.5472 18.8416C22.9219 18.8416 21.8539 17.6575 21.8539 15.6376C21.8539 13.6409 22.9219 12.3871 24.524 12.3871C26.4278 12.3871 27.3565 13.873 27.3565 15.6144C27.3565 17.3789 26.5439 18.8416 24.5472 18.8416Z" fill="#1E0059"/>
<path d="M37.9806 22.4403C41.6722 22.4403 44.203 19.7007 44.203 16.1484C44.203 12.5961 41.6722 9.85638 37.9806 9.85638C34.289 9.85638 31.7583 12.5961 31.7583 16.1484C31.7583 19.7007 34.289 22.4403 37.9806 22.4403ZM37.9806 20.0257C36.0303 20.0257 34.9623 18.4701 34.9623 16.1484C34.9623 13.8266 36.0303 12.2478 37.9806 12.2478C39.9077 12.2478 40.9989 13.8266 40.9989 16.1484C40.9989 18.4701 39.9077 20.0257 37.9806 20.0257Z" fill="#1E0059"/>
<path d="M140.098 7.58166C140.098 7.04738 140.531 6.61426 141.066 6.61426H143C143.534 6.61426 143.968 7.04738 143.968 7.58166C143.968 8.1159 143.534 8.54907 143 8.54907H141.066C140.531 8.54907 140.098 8.1159 140.098 7.58166Z" fill="#1E0059"/>
</g>
<defs>
<clipPath id="clip0_195_29277">
<rect width="143.949" height="31.7308" fill="white" transform="translate(0.249512)"/>
</clipPath>
</defs>
</svg>
