<svg width="15" height="13" viewBox="0 0 15 13" fill="none" xmlns="http://www.w3.org/2000/svg">
<g clip-path="url(#clip0_195_27895)">
<path d="M3.51161 13V4.22893H0.510096V13H3.51161ZM2.01124 3.03066C3.05792 3.03066 3.70943 2.35715 3.70943 1.51547C3.68993 0.654823 3.05796 0 2.0311 0C1.00441 0 0.333008 0.654836 0.333008 1.51547C0.333008 2.35719 0.984356 3.03066 1.99165 3.03066H2.01115H2.01124ZM5.17294 13H8.17445V8.10181C8.17445 7.83966 8.19395 7.57779 8.27322 7.3904C8.4902 6.86664 8.98407 6.32417 9.81322 6.32417C10.8993 6.32417 11.3338 7.12851 11.3338 8.30761V12.9999H14.3352V7.97069C14.3352 5.27656 12.8544 4.02301 10.8796 4.02301C9.26038 4.02301 8.54944 4.90209 8.15448 5.50083H8.17452V4.22874H5.17301C5.2124 5.05177 5.17301 12.9998 5.17301 12.9998L5.17294 13Z" fill="white"/>
</g>
<defs>
<clipPath id="clip0_195_27895">
<rect width="14" height="13" fill="white" transform="translate(0.333008)"/>
</clipPath>
</defs>
</svg>
