<svg width="64" height="64" viewBox="0 0 64 64" fill="none" xmlns="http://www.w3.org/2000/svg">
<rect width="64" height="64" rx="12" fill="white"/>
<path fill-rule="evenodd" clip-rule="evenodd" d="M34.802 21.7722L34.9181 20.8983L33.1849 20.6641L33.0687 21.5379L32.0119 29.4871L27.7663 21.7456L27.3431 20.974L25.8127 21.8274L26.2359 22.5989L31.2256 31.697L21.3269 31.1803L20.4537 31.1348L20.3633 32.8957L21.2365 32.9413L29.4418 33.3696L23.0158 37.2208L22.2642 37.6713L23.1577 39.1871L23.9093 38.7366L29.6804 35.2779L25.3289 40.9134L24.7917 41.6091L26.1716 42.6924L26.7087 41.9967L32.3112 34.7411L36.8584 42.0051L37.3251 42.7506L38.8039 41.8095L38.3372 41.0639L35.1854 36.0289L40.084 40.2228L40.7505 40.7934L41.8823 39.4492L41.2159 38.8786L35.9666 34.3845L42.4514 35.4805L43.3138 35.6262L43.6028 33.8872L42.7404 33.7414L34.1844 32.2954L40.3186 24.5534L40.8644 23.8646L39.4981 22.7639L38.9523 23.4527L33.6967 30.0858L34.802 21.7722Z" fill="#8067F6"/>
<path opacity="0.4" fill-rule="evenodd" clip-rule="evenodd" d="M22.8198 25.125L23.5386 25.6269L32.4239 31.8309L32.4461 31.8464L32.9421 31.7392L42.4155 29.6918L43.2705 29.507L43.6369 31.2312L42.782 31.416L33.6975 33.3793L33.5937 34.0699L32.2142 43.2563L32.0833 44.128L30.3542 43.864L30.4852 42.9923L31.8647 33.8059L31.8947 33.6061L31.4284 33.2805L22.5431 27.0766L21.8242 26.5747L22.8198 25.125Z" fill="#8067F6"/>
</svg>
