<svg width="65" height="64" viewBox="0 0 65 64" fill="none" xmlns="http://www.w3.org/2000/svg">
<rect x="0.724609" width="64" height="64" rx="12" fill="white"/>
<path fill-rule="evenodd" clip-rule="evenodd" d="M27.3708 31.5519C25.7689 30.1359 23.5362 29.621 21.0259 29.621V23.3584C24.2232 23.3584 28.2689 23.9871 31.5186 26.8598C32.3837 27.6245 33.1507 28.5106 33.812 29.5238V23.3584C37.0093 23.3584 41.055 23.9871 44.3047 26.8598C47.6248 29.7947 49.5002 34.5159 49.5002 41.357H43.2375C43.2375 35.618 41.6883 32.9056 40.1569 31.5519C38.5685 30.1478 36.3597 29.6297 33.875 29.6211C35.7116 32.4869 36.714 36.3554 36.714 41.357H30.4514C30.4514 35.618 28.9021 32.9056 27.3708 31.5519ZM21.1226 33.3457C21.0781 33.3181 21.043 33.2964 21.0232 33.2839C21.0035 33.2964 20.9683 33.3181 20.9238 33.3457C20.7613 33.4465 20.4737 33.6249 20.3512 33.7109C20.0396 33.9296 19.6232 34.2478 19.2057 34.6452C18.3826 35.4288 17.5005 36.5724 17.5005 37.9046C17.5005 39.8128 19.0777 41.3598 21.0232 41.3598C22.9688 41.3598 24.546 39.8128 24.546 37.9046C24.546 36.5724 23.6638 35.4288 22.8407 34.6452C22.4232 34.2478 22.0069 33.9296 21.6953 33.7109C21.5728 33.6249 21.2851 33.4465 21.1226 33.3457Z" fill="#8067F6"/>
</svg>
