<svg width="34" height="33" viewBox="0 0 34 33" fill="none" xmlns="http://www.w3.org/2000/svg">
<rect x="0.845703" y="0.0322266" width="32.2065" height="32.2065" rx="6.03871" fill="white"/>
<path d="M17.0867 9.20483C20.725 9.20483 23.6744 12.1688 23.6744 15.825H22.4763H20.1508C20.1508 14.1245 18.7789 12.7459 17.0867 12.7459C15.3946 12.7459 14.0227 14.1245 14.0227 15.825H11.6965H10.499C10.499 12.1688 13.4485 9.20483 17.0867 9.20483Z" fill="#8067F6"/>
<path d="M17.0867 22.4457C13.4485 22.4457 10.499 19.4817 10.499 15.8254H11.6965H14.0227H20.1508C20.1508 17.526 18.7789 18.9046 17.0867 18.9046C15.3946 18.9046 14.0227 17.526 14.0227 15.8254H11.6965C11.6965 18.8169 14.1097 21.242 17.0864 21.242C20.0631 21.242 22.4763 18.8169 22.4763 15.8254H23.6744C23.6744 19.4817 20.725 22.4457 17.0867 22.4457Z" fill="#8067F6"/>
</svg>
