<svg width="18" height="18" viewBox="0 0 18 18" fill="none" xmlns="http://www.w3.org/2000/svg">
<path d="M15.75 17.0625H2.25C1.9425 17.0625 1.6875 16.8075 1.6875 16.5C1.6875 16.1925 1.9425 15.9375 2.25 15.9375H15.75C16.0575 15.9375 16.3125 16.1925 16.3125 16.5C16.3125 16.8075 16.0575 17.0625 15.75 17.0625Z" fill="#8067F6"/>
<path d="M4.2 6.28491H3C2.5875 6.28491 2.25 6.62241 2.25 7.03491V13.4999C2.25 13.9124 2.5875 14.2499 3 14.2499H4.2C4.6125 14.2499 4.95 13.9124 4.95 13.4999V7.03491C4.95 6.61491 4.6125 6.28491 4.2 6.28491Z" fill="#8067F6"/>
<path d="M9.60039 3.89258H8.40039C7.98789 3.89258 7.65039 4.23008 7.65039 4.64258V13.5001C7.65039 13.9126 7.98789 14.2501 8.40039 14.2501H9.60039C10.0129 14.2501 10.3504 13.9126 10.3504 13.5001V4.64258C10.3504 4.23008 10.0129 3.89258 9.60039 3.89258Z" fill="#8067F6"/>
<path d="M14.9998 1.5H13.7998C13.3873 1.5 13.0498 1.8375 13.0498 2.25V13.5C13.0498 13.9125 13.3873 14.25 13.7998 14.25H14.9998C15.4123 14.25 15.7498 13.9125 15.7498 13.5V2.25C15.7498 1.8375 15.4123 1.5 14.9998 1.5Z" fill="#8067F6"/>
</svg>
