<svg width="50" height="33" viewBox="0 0 50 33" fill="none" xmlns="http://www.w3.org/2000/svg">
<path d="M15.3846 0H0V15.84H15.3846V0Z" fill="#1E0059"/>
<path d="M25 15.84C29.2484 15.84 32.6923 12.2941 32.6923 7.91997C32.6923 3.5459 29.2484 0 25 0C20.7517 0 17.3077 3.5459 17.3077 7.91997C17.3077 12.2941 20.7517 15.84 25 15.84Z" fill="#1E0059"/>
<path d="M42.3077 15.84C46.5561 15.84 50 12.2941 50 7.91997C50 3.5459 46.5561 0 42.3077 0C38.0594 0 34.6154 3.5459 34.6154 7.91997C34.6154 12.2941 38.0594 15.84 42.3077 15.84Z" fill="#1E0059"/>
<path d="M6.4946 24.7309C6.44353 24.2545 6.22832 23.8836 5.84897 23.6182C5.47327 23.3527 4.98448 23.22 4.38262 23.22C3.9595 23.22 3.59656 23.2836 3.29381 23.4109C2.99105 23.5382 2.75943 23.7109 2.59893 23.9291C2.43844 24.1473 2.35637 24.3964 2.35272 24.6764C2.35272 24.9091 2.40561 25.1109 2.51139 25.2818C2.62082 25.4527 2.76855 25.5982 2.95458 25.7182C3.14061 25.8345 3.3467 25.9327 3.57285 26.0127C3.799 26.0927 4.02698 26.16 4.25678 26.2145L5.3073 26.4764C5.73042 26.5745 6.13713 26.7073 6.52743 26.8745C6.92137 27.0418 7.27337 27.2527 7.58342 27.5073C7.89711 27.7618 8.14515 28.0691 8.32753 28.4291C8.50991 28.7891 8.6011 29.2109 8.6011 29.6945C8.6011 30.3491 8.43331 30.9255 8.09773 31.4236C7.76215 31.9182 7.27702 32.3055 6.64233 32.5855C6.01129 32.8618 5.24711 33 4.3498 33C3.47801 33 2.72113 32.8655 2.07915 32.5964C1.44081 32.3273 0.941088 31.9345 0.579973 31.4182C0.222505 30.9018 0.029181 30.2727 0 29.5309H1.99708C2.02626 29.92 2.14663 30.2436 2.35819 30.5018C2.56975 30.76 2.84515 30.9527 3.18438 31.08C3.52726 31.2073 3.91026 31.2709 4.33338 31.2709C4.77474 31.2709 5.16139 31.2055 5.49333 31.0745C5.82891 30.94 6.09154 30.7545 6.28121 30.5182C6.47089 30.2782 6.56755 29.9982 6.5712 29.6782C6.56755 29.3873 6.48183 29.1473 6.31404 28.9582C6.14625 28.7655 5.91098 28.6055 5.60823 28.4782C5.30912 28.3473 4.95895 28.2309 4.55771 28.1291L3.28286 27.8018C2.36001 27.5655 1.63049 27.2073 1.09429 26.7273C0.561735 26.2436 0.295458 25.6018 0.295458 24.8018C0.295458 24.1436 0.474192 23.5673 0.831659 23.0727C1.19277 22.5782 1.68338 22.1945 2.30348 21.9218C2.92357 21.6455 3.62574 21.5073 4.40998 21.5073C5.20516 21.5073 5.90186 21.6455 6.50007 21.9218C7.10193 22.1945 7.5743 22.5745 7.91718 23.0618C8.26005 23.5455 8.43696 24.1018 8.4479 24.7309H6.4946Z" fill="#1E0059"/>
<path d="M9.70694 32.8309V24.4527H11.6876V32.8309H9.70694ZM10.7027 23.2636C10.389 23.2636 10.1191 23.16 9.89297 22.9527C9.66681 22.7418 9.55374 22.4891 9.55374 22.1945C9.55374 21.8964 9.66681 21.6436 9.89297 21.4364C10.1191 21.2255 10.389 21.12 10.7027 21.12C11.0201 21.12 11.29 21.2255 11.5125 21.4364C11.7387 21.6436 11.8517 21.8964 11.8517 22.1945C11.8517 22.4891 11.7387 22.7418 11.5125 22.9527C11.29 23.16 11.0201 23.2636 10.7027 23.2636Z" fill="#1E0059"/>
<path d="M15.0887 27.9218V32.8309H13.108V24.4527H15.0012V25.8764H15.0996C15.293 25.4073 15.6012 25.0345 16.0243 24.7582C16.4511 24.4818 16.9782 24.3436 17.6056 24.3436C18.1855 24.3436 18.6907 24.4673 19.1212 24.7145C19.5552 24.9618 19.8908 25.32 20.1279 25.7891C20.3686 26.2582 20.4872 26.8273 20.4835 27.4964V32.8309H18.5029V27.8018C18.5029 27.2418 18.357 26.8036 18.0652 26.4873C17.777 26.1709 17.3776 26.0127 16.8669 26.0127C16.5204 26.0127 16.2122 26.0891 15.9422 26.2418C15.676 26.3909 15.4662 26.6073 15.313 26.8909C15.1635 27.1745 15.0887 27.5182 15.0887 27.9218Z" fill="#1E0059"/>
<path d="M25.5466 32.9945C24.7076 32.9945 23.9872 32.8109 23.3854 32.4436C22.7872 32.0764 22.3257 31.5691 22.0011 30.9218C21.6801 30.2709 21.5196 29.5218 21.5196 28.6745C21.5196 27.8236 21.6838 27.0727 22.012 26.4218C22.3403 25.7673 22.8036 25.2582 23.4018 24.8945C24.0036 24.5273 24.7149 24.3436 25.5357 24.3436C26.2178 24.3436 26.8214 24.4691 27.3467 24.72C27.8756 24.9673 28.2969 25.3182 28.6106 25.7727C28.9243 26.2236 29.103 26.7509 29.1468 27.3545H27.2537C27.1771 26.9509 26.9947 26.6145 26.7065 26.3455C26.422 26.0727 26.0408 25.9364 25.563 25.9364C25.1581 25.9364 24.8025 26.0455 24.4961 26.2636C24.1897 26.4782 23.9508 26.7873 23.7793 27.1909C23.6115 27.5945 23.5276 28.0782 23.5276 28.6418C23.5276 29.2127 23.6115 29.7036 23.7793 30.1145C23.9471 30.5218 24.1824 30.8364 24.4851 31.0582C24.7915 31.2764 25.1508 31.3855 25.563 31.3855C25.8548 31.3855 26.1156 31.3309 26.3454 31.2218C26.5789 31.1091 26.774 30.9473 26.9309 30.7364C27.0877 30.5255 27.1953 30.2691 27.2537 29.9673H29.1468C29.0994 30.56 28.9243 31.0855 28.6215 31.5436C28.3188 31.9982 27.9066 32.3545 27.385 32.6127C26.8634 32.8673 26.2506 32.9945 25.5466 32.9945Z" fill="#1E0059"/>
<path d="M30.1569 32.8309V24.4527H32.0774V25.8491H32.1649C32.3181 25.3655 32.5807 24.9927 32.9528 24.7309C33.3285 24.4655 33.7571 24.3327 34.2386 24.3327C34.348 24.3327 34.4702 24.3382 34.6052 24.3491C34.7438 24.3564 34.8587 24.3691 34.9499 24.3873V26.2036C34.866 26.1745 34.7328 26.1491 34.5505 26.1273C34.3717 26.1018 34.1985 26.0891 34.0307 26.0891C33.6696 26.0891 33.3449 26.1673 33.0567 26.3236C32.7722 26.4764 32.5479 26.6891 32.3838 26.9618C32.2196 27.2345 32.1375 27.5491 32.1375 27.9055V32.8309H30.1569Z" fill="#1E0059"/>
<path d="M37.9174 33C37.3848 33 36.9051 32.9055 36.4784 32.7164C36.0552 32.5236 35.7197 32.24 35.4716 31.8655C35.2272 31.4909 35.105 31.0291 35.105 30.48C35.105 30.0073 35.1926 29.6164 35.3677 29.3073C35.5428 28.9982 35.7817 28.7509 36.0844 28.5655C36.3872 28.38 36.7282 28.24 37.1076 28.1455C37.4906 28.0473 37.8864 27.9764 38.2949 27.9327C38.7873 27.8818 39.1867 27.8364 39.4931 27.7964C39.7995 27.7527 40.022 27.6873 40.1607 27.6C40.3029 27.5091 40.374 27.3691 40.374 27.18V27.1473C40.374 26.7364 40.2518 26.4182 40.0074 26.1927C39.7631 25.9673 39.4111 25.8545 38.9515 25.8545C38.4663 25.8545 38.0815 25.96 37.797 26.1709C37.5161 26.3818 37.3264 26.6309 37.228 26.9182L35.3786 26.6564C35.5245 26.1473 35.7653 25.7218 36.1008 25.38C36.4364 25.0345 36.8468 24.7764 37.3319 24.6055C37.817 24.4309 38.3532 24.3436 38.9405 24.3436C39.3454 24.3436 39.7485 24.3909 40.1497 24.4855C40.5509 24.58 40.9175 24.7364 41.2495 24.9545C41.5814 25.1691 41.8477 25.4618 42.0483 25.8327C42.2526 26.2036 42.3547 26.6673 42.3547 27.2236V32.8309H40.4506V31.68H40.385C40.2646 31.9127 40.095 32.1309 39.8761 32.3345C39.6609 32.5345 39.3892 32.6964 39.0609 32.82C38.7363 32.94 38.3551 33 37.9174 33ZM38.4317 31.5491C38.8293 31.5491 39.174 31.4709 39.4658 31.3145C39.7576 31.1545 39.9819 30.9436 40.1388 30.6818C40.2993 30.42 40.3795 30.1345 40.3795 29.8255V28.8382C40.3175 28.8891 40.2117 28.9364 40.0622 28.98C39.9163 29.0236 39.7521 29.0618 39.5697 29.0945C39.3874 29.1273 39.2068 29.1564 39.0281 29.1818C38.8493 29.2073 38.6943 29.2291 38.563 29.2473C38.2675 29.2873 38.0031 29.3527 37.7696 29.4436C37.5362 29.5345 37.352 29.6618 37.217 29.8255C37.0821 29.9855 37.0146 30.1927 37.0146 30.4473C37.0146 30.8109 37.1477 31.0855 37.414 31.2709C37.6803 31.4564 38.0195 31.5491 38.4317 31.5491Z" fill="#1E0059"/>
<path d="M44.9501 32.9509C44.6182 32.9509 44.3337 32.8345 44.0966 32.6018C43.8595 32.3691 43.7428 32.0855 43.7464 31.7509C43.7428 31.4236 43.8595 31.1436 44.0966 30.9109C44.3337 30.6782 44.6182 30.5618 44.9501 30.5618C45.2711 30.5618 45.5502 30.6782 45.7873 30.9109C46.028 31.1436 46.1502 31.4236 46.1538 31.7509C46.1502 31.9727 46.0918 32.1745 45.9788 32.3564C45.8693 32.5382 45.7234 32.6836 45.541 32.7927C45.3623 32.8982 45.1653 32.9509 44.9501 32.9509Z" fill="#1E0059"/>
</svg>
