<svg width="14" height="13" viewBox="0 0 14 13" fill="none" xmlns="http://www.w3.org/2000/svg">
<g opacity="0.9" clip-path="url(#clip0_195_27925)">
<path d="M3.1786 13V4.22893H0.177088V13H3.1786ZM1.67823 3.03066C2.72491 3.03066 3.37642 2.35715 3.37642 1.51547C3.35692 0.654823 2.72495 0 1.6981 0C0.671398 0 0 0.654836 0 1.51547C0 2.35719 0.651348 3.03066 1.65864 3.03066H1.67814H1.67823ZM4.83993 13H7.84145V8.10181C7.84145 7.83966 7.86095 7.57779 7.94021 7.3904C8.1572 6.86664 8.65106 6.32417 9.48021 6.32417C10.5663 6.32417 11.0008 7.12851 11.0008 8.30761V12.9999H14.0022V7.97069C14.0022 5.27656 12.5214 4.02301 10.5466 4.02301C8.92737 4.02301 8.21643 4.90209 7.82148 5.50083H7.84151V4.22874H4.84C4.87939 5.05177 4.84 12.9998 4.84 12.9998L4.83993 13Z" fill="#1E0059"/>
</g>
<defs>
<clipPath id="clip0_195_27925">
<rect width="14" height="13" fill="white"/>
</clipPath>
</defs>
</svg>
