<svg width="64" height="64" viewBox="0 0 64 64" fill="none" xmlns="http://www.w3.org/2000/svg">
<rect width="64" height="64" rx="12" fill="white"/>
<path fill-rule="evenodd" clip-rule="evenodd" d="M39.2353 26.5966C42.4449 30.4534 42.0034 36.0834 38.3432 39.1803C36.847 40.4462 35.0399 41.1027 33.2023 41.1771C32.5823 41.2023 32.1001 41.7293 32.125 42.3543C32.1498 42.9795 32.6726 43.4658 33.2925 43.4407C35.604 43.347 37.893 42.5184 39.7873 40.9157C44.4435 36.9761 44.9248 29.9092 40.9563 25.1404C36.9879 20.3716 30.0023 19.6223 25.3461 23.5619C23.4519 25.1646 22.2451 27.2937 21.7522 29.5729C21.62 30.1841 22.0042 30.7876 22.6104 30.9208C23.2165 31.0541 23.8151 30.6668 23.9472 30.0555C24.3391 28.2437 25.294 26.5632 26.7902 25.2972C30.4504 22.2004 36.0257 22.7396 39.2353 26.5966ZM34.4262 34.7852C35.6143 33.78 35.7693 31.9939 34.7724 30.7958C33.7754 29.5978 32.004 29.4415 30.8159 30.4468C29.6278 31.452 29.4728 33.2382 30.4698 34.4363C31.4667 35.6342 33.238 35.7905 34.4262 34.7852ZM35.4071 35.9839C37.2372 34.5549 37.5772 31.7796 36.0311 29.7663C34.4851 27.7531 31.7352 27.3902 29.905 28.8193C29.0593 29.4797 28.5362 30.4152 28.3643 31.4359C28.367 31.4894 28.366 31.5438 28.361 31.5986C28.3043 32.2216 27.7575 32.6803 27.1398 32.6231C26.1071 32.5275 25.0663 32.803 24.2124 33.4696C22.3822 34.8987 22.0422 37.674 23.5883 39.6872C25.1344 41.7005 27.8842 42.0633 29.7144 40.6343C30.5602 39.9739 31.0833 39.0383 31.2551 38.0176C31.2524 37.9642 31.2535 37.9098 31.2585 37.8549C31.3151 37.2319 31.8619 36.7733 32.4796 36.8304C33.5123 36.926 34.5532 36.6506 35.4071 35.9839ZM33.3125 39.0994C34.5366 39.0169 35.7458 38.5846 36.7826 37.775C39.6615 35.5272 40.0598 31.3123 37.8075 28.3794C35.5552 25.4465 31.4084 24.7803 28.5295 27.0281C27.4138 27.8992 26.6676 29.0746 26.307 30.3541C25.0828 30.4367 23.8737 30.869 22.8369 31.6785C19.958 33.9264 19.5597 38.1413 21.812 41.0742C24.0642 44.0071 28.2111 44.6732 31.0899 42.4254C32.2056 41.5543 32.9519 40.3789 33.3125 39.0994Z" fill="#8067F6"/>
</svg>
