<svg width="18" height="18" viewBox="0 0 18 18" fill="none" xmlns="http://www.w3.org/2000/svg">
<path opacity="0.2" d="M8.04317 6.00073C5.49255 6.04093 3.78501 8.70401 4.79478 11.0998C4.93651 11.4361 5.2617 11.6541 5.62151 11.6541H6.25419C6.46744 11.6541 6.65333 11.8017 6.70505 12.0121L7.51955 15.3249C7.68938 16.0157 8.29976 16.5003 9 16.5003C9.70024 16.5003 10.3106 16.0157 10.4805 15.3249L11.2949 12.0121C11.3467 11.8017 11.5326 11.6541 11.7458 11.6541H12.3785C12.7383 11.6541 13.0635 11.4361 13.2052 11.0998C14.215 8.70401 12.5075 6.04093 9.95683 6.00073C9.63548 6.23382 9.29792 6.37527 9 6.37527C8.70208 6.37527 8.36452 6.23382 8.04317 6.00073Z" fill="#826CE9"/>
<path d="M11.25 3.75C11.25 4.99264 9.93134 6.375 9 6.375C8.06866 6.375 6.75 4.99264 6.75 3.75C6.75 2.50736 7.75736 1.5 9 1.5C10.2426 1.5 11.25 2.50736 11.25 3.75Z" stroke="#826CE9" stroke-width="1.2"/>
<path d="M12.0311 6.75C13.1733 7.75148 13.9135 9.44764 13.2488 11.0289C13.1056 11.3696 12.7771 11.5904 12.4135 11.5904C12.0439 11.5904 11.4367 11.472 11.3187 11.9531L10.4958 15.3093C10.3242 16.0091 9.70749 16.5 8.99999 16.5C8.29249 16.5 7.67578 16.0091 7.50419 15.3093L6.68125 11.9531C6.56328 11.472 5.95612 11.5904 5.58647 11.5904C5.22293 11.5904 4.89437 11.3696 4.75116 11.0289C4.0865 9.44764 4.82668 7.75148 5.96893 6.75" stroke="#826CE9" stroke-width="1.5" stroke-linecap="round"/>
</svg>
