<svg width="28" height="28" viewBox="0 0 28 28" fill="none" xmlns="http://www.w3.org/2000/svg">
<g clip-path="url(#clip0_195_68968)">
<path d="M12.1397 1.85993L13.9996 0L27.9996 14L13.9996 28L12.1396 26.14L24.2797 14L12.1397 1.85993Z" fill="#8067F6"/>
<path opacity="0.3" d="M9.71191 4.28767L11.5718 2.42773L23.1438 13.9997L11.5718 25.5717L9.71191 23.7118L19.4239 13.9997L9.71191 4.28767Z" fill="#8067F6"/>
<path d="M0 14.0004L9.14396 4.85645L18.2879 14.0004L9.14396 23.1444L7.28406 21.2845L14.5681 14.0004L9.14396 8.57633L1.85993 15.8603L0 14.0004Z" fill="#8067F6"/>
<path opacity="0.3" d="M9.14438 9.71191L7.28448 11.5718L9.7125 13.9998L4.85645 18.8559L6.71637 20.7158L13.4324 13.9998L9.14438 9.71191Z" fill="#8067F6"/>
<path d="M4.28767 18.2875L2.42773 16.4276L6.69622 12.1592L8.55617 14.0191L4.28767 18.2875Z" fill="#8067F6"/>
</g>
<defs>
<clipPath id="clip0_195_68968">
<rect width="28" height="28" fill="white"/>
</clipPath>
</defs>
</svg>
