<svg width="21" height="20" viewBox="0 0 21 20" fill="none" xmlns="http://www.w3.org/2000/svg">
<path d="M10.3333 1.6665C5.74167 1.6665 2 5.40817 2 9.99984C2 14.5915 5.74167 18.3332 10.3333 18.3332C14.925 18.3332 18.6667 14.5915 18.6667 9.99984C18.6667 5.40817 14.925 1.6665 10.3333 1.6665ZM14.3167 8.08317L9.59167 12.8082C9.475 12.9248 9.31667 12.9915 9.15 12.9915C8.98333 12.9915 8.825 12.9248 8.70833 12.8082L6.35 10.4498C6.10833 10.2082 6.10833 9.80817 6.35 9.5665C6.59167 9.32484 6.99167 9.32484 7.23333 9.5665L9.15 11.4832L13.4333 7.19984C13.675 6.95817 14.075 6.95817 14.3167 7.19984C14.5583 7.4415 14.5583 7.83317 14.3167 8.08317Z" fill="#8067F6"/>
</svg>
