<svg width="38" height="39" viewBox="0 0 38 39" fill="none" xmlns="http://www.w3.org/2000/svg">
<path fill-rule="evenodd" clip-rule="evenodd" d="M15.5832 11.1767C15.5832 11.8619 15.7822 12.497 16.1253 13.0311L14.2519 14.2427C13.6839 13.3582 13.3545 12.3044 13.3545 11.1767C13.3545 8.04747 15.8823 5.51074 19.0006 5.51074C22.1188 5.51074 24.6467 8.04747 24.6467 11.1767C24.6467 12.3044 24.3172 13.3582 23.7493 14.2427L21.8759 13.0311C22.2188 12.497 22.418 11.8619 22.418 11.1767C22.418 9.28265 20.888 7.7473 19.0006 7.7473C17.1132 7.7473 15.5832 9.28265 15.5832 11.1767ZM23.5323 19.3771C23.5323 21.8887 21.5034 23.9247 19.0006 23.9247C16.4978 23.9247 14.4688 21.8887 14.4688 19.3771C14.4688 16.8655 16.4978 14.8294 19.0006 14.8294C21.5034 14.8294 23.5323 16.8655 23.5323 19.3771ZM16.051 25.7235C15.7081 26.2575 15.509 26.8926 15.509 27.5779C15.509 29.4719 17.039 31.0073 18.9263 31.0073C20.8137 31.0073 22.3437 29.4719 22.3437 27.5779C22.3437 26.8926 22.1447 26.2575 21.8016 25.7235L23.675 24.5119C24.243 25.3963 24.5725 26.4502 24.5725 27.5779C24.5725 30.7071 22.0446 33.2438 18.9263 33.2438C15.8081 33.2438 13.2802 30.7071 13.2802 27.5779C13.2802 26.4502 13.6097 25.3963 14.1776 24.5119L16.051 25.7235ZM25.3247 22.2625C25.857 22.6067 26.4899 22.8065 27.1727 22.8065C29.06 22.8065 30.5901 21.2711 30.5901 19.3771C30.5901 17.483 29.06 15.9477 27.1727 15.9477C26.4899 15.9477 25.857 16.1475 25.3247 16.4917L24.1175 14.6117C24.9987 14.0418 26.049 13.7111 27.1727 13.7111C30.291 13.7111 32.8189 16.2479 32.8189 19.3771C32.8189 22.5063 30.291 25.043 27.1727 25.043C26.049 25.043 24.9987 24.7124 24.1175 24.1424L25.3247 22.2625ZM10.828 22.8065C11.5109 22.8065 12.1437 22.6067 12.6759 22.2625L13.8833 24.1424C13.0019 24.7124 11.9518 25.043 10.828 25.043C7.70974 25.043 5.18188 22.5063 5.18188 19.3771C5.18188 16.2479 7.70974 13.7111 10.828 13.7111C11.9518 13.7111 13.0019 14.0418 13.8833 14.6117L12.6759 16.4917C12.1437 16.1475 11.5109 15.9477 10.828 15.9477C8.9406 15.9477 7.41062 17.483 7.41062 19.3771C7.41062 21.2711 8.9406 22.8065 10.828 22.8065ZM25.7318 26.2059L25.7817 26.1945C25.8632 26.1758 26.0074 26.1429 26.072 26.1319C26.2362 26.1042 26.4638 26.0752 26.7165 26.0708C27.2146 26.0618 27.8434 26.1475 28.2593 26.5649C28.8551 27.1628 28.8524 28.135 28.2532 28.7362C27.6541 29.3375 26.6854 29.3402 26.0896 28.7423C25.6736 28.3249 25.5882 27.6939 25.597 27.194C25.6015 26.9405 25.6305 26.7121 25.6581 26.5473C25.6689 26.4827 25.7017 26.3386 25.7203 26.2567L25.7318 26.2059ZM25.8559 12.5453L25.806 12.5338L25.7946 12.4831C25.776 12.4001 25.7432 12.2533 25.7323 12.1877C25.7046 12.0207 25.6758 11.7892 25.6713 11.5323C25.6625 11.0256 25.7479 10.3861 26.1638 9.96307C26.7597 9.3571 27.7283 9.35987 28.3275 9.96922C28.9266 10.5786 28.9293 11.5639 28.3335 12.1699C27.9175 12.5929 27.2888 12.6797 26.7907 12.6708C26.5381 12.6662 26.3105 12.6368 26.1462 12.6087C26.0817 12.5976 25.9375 12.5642 25.8559 12.5453ZM12.1206 26.2059L12.0707 26.1945C11.9892 26.1759 11.8448 26.1429 11.7803 26.1319C11.6161 26.1042 11.3885 26.0752 11.1358 26.0708C10.6376 26.0618 10.0089 26.1475 9.59299 26.5649C8.99717 27.1628 8.99993 28.135 9.59904 28.7362C10.1981 29.3375 11.1669 29.3402 11.7627 28.7423C12.1786 28.3249 12.264 27.6939 12.2552 27.194C12.2507 26.9405 12.2219 26.7121 12.1942 26.5473C12.1833 26.4825 12.1505 26.3379 12.1319 26.2561L12.1206 26.2059ZM12.1449 12.5453C12.1671 12.5401 12.1848 12.536 12.1948 12.5338C12.1969 12.5236 12.201 12.5057 12.2061 12.483C12.2247 12.4 12.2576 12.2534 12.2685 12.1877C12.2961 12.0207 12.3249 11.7892 12.3294 11.5323C12.3382 11.0256 12.2528 10.3861 11.8369 9.96307C11.2411 9.3571 10.2724 9.35987 9.67323 9.96922C9.07412 10.5786 9.07144 11.5639 9.66718 12.1699C10.0832 12.5929 10.7118 12.6797 11.21 12.6708C11.4627 12.6662 11.6902 12.6368 11.8545 12.6087C11.9191 12.5976 12.0633 12.5642 12.1449 12.5453Z" fill="#8067F6"/>
</svg>
