<svg width="256" height="256" viewBox="0 0 256 256" fill="none" xmlns="http://www.w3.org/2000/svg">
<rect width="256" height="256" rx="30" fill="white"/>
<path d="M88.3077 58H24V124.88H88.3077V58Z" fill="#1E0059"/>
<path d="M128.5 124.88C146.258 124.88 160.654 109.908 160.654 91.4399C160.654 72.9716 146.258 58 128.5 58C110.742 58 96.3462 72.9716 96.3462 91.4399C96.3462 109.908 110.742 124.88 128.5 124.88Z" fill="#1E0059"/>
<path d="M200.846 124.88C218.604 124.88 233 109.908 233 91.4399C233 72.9716 218.604 58 200.846 58C183.088 58 168.692 72.9716 168.692 91.4399C168.692 109.908 183.088 124.88 200.846 124.88Z" fill="#1E0059"/>
<path d="M51.1474 162.419C50.934 160.408 50.0344 158.842 48.4487 157.721C46.8783 156.6 44.8351 156.04 42.3194 156.04C40.5507 156.04 39.0336 156.309 37.7681 156.846C36.5026 157.383 35.5344 158.113 34.8635 159.034C34.1927 159.955 33.8496 161.007 33.8344 162.189C33.8344 163.172 34.0555 164.024 34.4976 164.745C34.955 165.467 35.5725 166.081 36.3501 166.588C37.1277 167.079 37.9892 167.494 38.9345 167.832C39.8798 168.169 40.8328 168.453 41.7933 168.684L46.1845 169.789C47.9532 170.204 49.6532 170.764 51.2847 171.47C52.9313 172.177 54.4027 173.067 55.6987 174.142C57.0099 175.217 58.0467 176.514 58.8091 178.034C59.5714 179.554 59.9526 181.335 59.9526 183.377C59.9526 186.141 59.2513 188.574 57.8485 190.678C56.4458 192.766 54.4179 194.401 51.7649 195.583C49.1272 196.75 45.9329 197.333 42.1821 197.333C38.5381 197.333 35.3743 196.765 32.6908 195.629C30.0226 194.493 27.9337 192.835 26.4243 190.655C24.9301 188.474 24.122 185.818 24 182.686H32.3478C32.4698 184.329 32.9729 185.695 33.8572 186.785C34.7416 187.876 35.8927 188.689 37.3107 189.227C38.7439 189.764 40.3449 190.033 42.1135 190.033C43.9584 190.033 45.5746 189.756 46.9621 189.204C48.3648 188.636 49.4626 187.853 50.2555 186.855C51.0483 185.841 51.4524 184.659 51.4676 183.308C51.4524 182.08 51.0941 181.066 50.3927 180.268C49.6913 179.454 48.7079 178.779 47.4424 178.241C46.1921 177.688 44.7284 177.197 43.0512 176.767L37.7224 175.385C33.8649 174.387 30.8154 172.875 28.5741 170.848C26.3481 168.806 25.235 166.097 25.235 162.719C25.235 159.94 25.9821 157.506 27.4763 155.418C28.9858 153.33 31.0365 151.71 33.6285 150.559C36.2205 149.392 39.1556 148.808 42.4337 148.808C45.7576 148.808 48.6698 149.392 51.1703 150.559C53.6861 151.71 55.6606 153.315 57.0938 155.372C58.527 157.414 59.2665 159.763 59.3122 162.419H51.1474Z" fill="#1E0059"/>
<path d="M64.575 196.619V161.245H72.8542V196.619H64.575ZM68.7375 156.224C67.4262 156.224 66.2979 155.787 65.3526 154.912C64.4073 154.021 63.9346 152.954 63.9346 151.71C63.9346 150.451 64.4073 149.384 65.3526 148.509C66.2979 147.619 67.4262 147.173 68.7375 147.173C70.0639 147.173 71.1922 147.619 72.1223 148.509C73.0676 149.384 73.5403 150.451 73.5403 151.71C73.5403 152.954 73.0676 154.021 72.1223 154.912C71.1922 155.787 70.0639 156.224 68.7375 156.224Z" fill="#1E0059"/>
<path d="M87.0708 175.892V196.619H78.7916V161.245H86.7048V167.256H87.1165C87.9246 165.275 89.213 163.701 90.9817 162.535C92.7656 161.368 94.9688 160.784 97.5913 160.784C100.016 160.784 102.127 161.306 103.926 162.35C105.741 163.394 107.144 164.907 108.135 166.887C109.141 168.868 109.636 171.271 109.621 174.096V196.619H101.342V175.385C101.342 173.021 100.732 171.171 99.5124 169.835C98.3079 168.499 96.6383 167.832 94.5037 167.832C93.0553 167.832 91.7669 168.154 90.6386 168.799C89.5256 169.428 88.6488 170.342 88.0085 171.539C87.3833 172.737 87.0708 174.188 87.0708 175.892Z" fill="#1E0059"/>
<path d="M130.785 197.31C127.278 197.31 124.267 196.535 121.751 194.984C119.25 193.434 117.322 191.292 115.965 188.559C114.623 185.81 113.952 182.648 113.952 179.07C113.952 175.478 114.638 172.307 116.01 169.559C117.383 166.795 119.319 164.646 121.819 163.11C124.335 161.56 127.308 160.784 130.739 160.784C133.59 160.784 136.114 161.314 138.309 162.373C140.52 163.417 142.281 164.899 143.592 166.818C144.904 168.722 145.651 170.948 145.834 173.497H137.92C137.6 171.793 136.838 170.373 135.633 169.236C134.444 168.085 132.851 167.509 130.853 167.509C129.161 167.509 127.674 167.97 126.394 168.891C125.113 169.797 124.114 171.102 123.398 172.806C122.696 174.51 122.346 176.552 122.346 178.932C122.346 181.343 122.696 183.415 123.398 185.15C124.099 186.87 125.082 188.198 126.348 189.135C127.629 190.056 129.13 190.516 130.853 190.516C132.073 190.516 133.163 190.286 134.124 189.825C135.1 189.349 135.915 188.666 136.571 187.776C137.227 186.885 137.676 185.803 137.92 184.528H145.834C145.635 187.031 144.904 189.25 143.638 191.184C142.373 193.103 140.65 194.608 138.469 195.698C136.289 196.773 133.727 197.31 130.785 197.31Z" fill="#1E0059"/>
<path d="M150.056 196.619V161.245H158.083V167.141H158.449C159.09 165.099 160.187 163.525 161.743 162.419C163.313 161.299 165.105 160.738 167.117 160.738C167.575 160.738 168.085 160.761 168.65 160.807C169.229 160.838 169.709 160.892 170.09 160.968V168.638C169.74 168.515 169.183 168.407 168.421 168.315C167.674 168.208 166.95 168.154 166.248 168.154C164.739 168.154 163.382 168.484 162.177 169.144C160.988 169.789 160.05 170.687 159.364 171.839C158.678 172.99 158.335 174.318 158.335 175.823V196.619H150.056Z" fill="#1E0059"/>
<path d="M182.495 197.333C180.268 197.333 178.263 196.934 176.48 196.136C174.711 195.322 173.308 194.124 172.271 192.543C171.25 190.962 170.739 189.012 170.739 186.693C170.739 184.697 171.105 183.047 171.837 181.742C172.569 180.437 173.567 179.393 174.833 178.61C176.098 177.827 177.524 177.236 179.11 176.836C180.711 176.422 182.365 176.122 184.073 175.938C186.131 175.723 187.801 175.531 189.081 175.362C190.362 175.178 191.292 174.902 191.872 174.533C192.466 174.149 192.763 173.558 192.763 172.76V172.622C192.763 170.887 192.253 169.543 191.231 168.592C190.21 167.64 188.738 167.164 186.817 167.164C184.789 167.164 183.181 167.609 181.991 168.499C180.817 169.39 180.025 170.442 179.613 171.655L171.883 170.549C172.492 168.4 173.499 166.603 174.902 165.16C176.304 163.701 178.02 162.611 180.047 161.89C182.075 161.153 184.317 160.784 186.771 160.784C188.464 160.784 190.149 160.984 191.826 161.383C193.503 161.782 195.035 162.442 196.423 163.364C197.81 164.269 198.923 165.505 199.762 167.072C200.616 168.638 201.043 170.595 201.043 172.944V196.619H193.084V191.76H192.809C192.306 192.743 191.597 193.664 190.682 194.524C189.783 195.368 188.647 196.051 187.275 196.573C185.918 197.08 184.324 197.333 182.495 197.333ZM184.644 191.207C186.306 191.207 187.747 190.877 188.967 190.217C190.187 189.541 191.124 188.651 191.78 187.545C192.451 186.44 192.786 185.235 192.786 183.93V179.761C192.527 179.976 192.085 180.176 191.46 180.36C190.85 180.544 190.164 180.705 189.402 180.844C188.639 180.982 187.884 181.105 187.137 181.212C186.39 181.32 185.742 181.412 185.193 181.488C183.958 181.657 182.853 181.934 181.877 182.318C180.901 182.701 180.131 183.239 179.567 183.93C179.003 184.605 178.721 185.48 178.721 186.555C178.721 188.09 179.277 189.25 180.39 190.033C181.504 190.816 182.921 191.207 184.644 191.207Z" fill="#1E0059"/>
<path d="M211.892 197.126C210.504 197.126 209.315 196.635 208.324 195.652C207.333 194.669 206.845 193.472 206.86 192.059C206.845 190.678 207.333 189.495 208.324 188.513C209.315 187.53 210.504 187.039 211.892 187.039C213.233 187.039 214.4 187.53 215.391 188.513C216.397 189.495 216.908 190.678 216.923 192.059C216.908 192.996 216.664 193.848 216.191 194.616C215.734 195.383 215.124 195.998 214.362 196.458C213.614 196.903 212.791 197.126 211.892 197.126Z" fill="#1E0059"/>
</svg>
