<svg width="64" height="64" viewBox="0 0 64 64" fill="none" xmlns="http://www.w3.org/2000/svg">
<rect width="64" height="64" rx="12" fill="white"/>
<path fill-rule="evenodd" clip-rule="evenodd" d="M32.6321 21.7608L31.9986 21.4375L31.365 21.7608L19.8977 27.6125L17.4541 28.8594L19.8977 30.1064L31.365 35.9582L31.9986 36.2814L32.6321 35.9582L44.0994 30.1064L46.543 28.8594L44.0994 27.6125L32.6321 21.7608ZM31.9986 33.1409L23.6084 28.8594L31.9986 24.578L40.3887 28.8594L31.9986 33.1409ZM24.6049 35.3728L23.6084 35.8813L31.9986 40.1627L40.3887 35.8813L39.3922 35.3728L40.6592 32.8788L44.0994 34.6343L46.543 35.8813L44.0994 37.1283L32.6321 42.98L31.9986 43.3033L31.365 42.98L19.8977 37.1283L17.4541 35.8813L19.8977 34.6343L23.3379 32.8788L24.6049 35.3728Z" fill="#8067F6"/>
</svg>
