<svg width="58" height="38" viewBox="0 0 58 38" fill="none" xmlns="http://www.w3.org/2000/svg">
<path d="M17.7156 0H0V18.24H17.7156V0Z" fill="url(#paint0_linear_195_68911)"/>
<path d="M17.7156 0H0V18.24H17.7156V0Z" fill="white"/>
<path d="M28.7879 18.24C33.68 18.24 37.6457 14.1568 37.6457 9.11997C37.6457 4.08316 33.68 0 28.7879 0C23.8959 0 19.9301 4.08316 19.9301 9.11997C19.9301 14.1568 23.8959 18.24 28.7879 18.24Z" fill="url(#paint1_linear_195_68911)"/>
<path d="M28.7879 18.24C33.68 18.24 37.6457 14.1568 37.6457 9.11997C37.6457 4.08316 33.68 0 28.7879 0C23.8959 0 19.9301 4.08316 19.9301 9.11997C19.9301 14.1568 23.8959 18.24 28.7879 18.24Z" fill="white"/>
<path d="M48.718 18.24C53.61 18.24 57.5758 14.1568 57.5758 9.11997C57.5758 4.08316 53.61 0 48.718 0C43.826 0 39.8601 4.08316 39.8601 9.11997C39.8601 14.1568 43.826 18.24 48.718 18.24Z" fill="url(#paint2_linear_195_68911)"/>
<path d="M48.718 18.24C53.61 18.24 57.5758 14.1568 57.5758 9.11997C57.5758 4.08316 53.61 0 48.718 0C43.826 0 39.8601 4.08316 39.8601 9.11997C39.8601 14.1568 43.826 18.24 48.718 18.24Z" fill="white"/>
<path d="M7.47863 28.478C7.41983 27.9295 7.17201 27.5024 6.73518 27.1967C6.30255 26.891 5.73971 26.7382 5.04666 26.7382C4.55942 26.7382 4.14149 26.8115 3.79287 26.958C3.44424 27.1046 3.17753 27.3035 2.99271 27.5547C2.8079 27.806 2.71339 28.0928 2.70919 28.4152C2.70919 28.6832 2.7701 28.9156 2.89191 29.1124C3.01791 29.3092 3.18803 29.4767 3.40224 29.6149C3.61646 29.7489 3.85377 29.8619 4.11419 29.9541C4.37461 30.0462 4.63713 30.1236 4.90175 30.1864L6.11143 30.4879C6.59867 30.601 7.067 30.7538 7.51643 30.9464C7.97007 31.1391 8.37539 31.3819 8.73242 31.675C9.09365 31.9682 9.37927 32.322 9.58928 32.7365C9.7993 33.1511 9.9043 33.6368 9.9043 34.1937C9.9043 34.9474 9.71109 35.6111 9.32466 36.1848C8.93824 36.7543 8.3796 37.2002 7.64874 37.5226C6.92209 37.8409 6.04213 38 5.00886 38C4.00498 38 3.13342 37.8451 2.39417 37.5352C1.65912 37.2253 1.08368 36.7731 0.667847 36.1785C0.256218 35.5839 0.0336024 34.8595 0 34.0053H2.29966C2.33327 34.4533 2.47188 34.826 2.71549 35.1233C2.95911 35.4206 3.27623 35.6425 3.66686 35.7891C4.06169 35.9356 4.50272 36.0089 4.98995 36.0089C5.49819 36.0089 5.94342 35.9336 6.32565 35.7828C6.71208 35.6279 7.0145 35.4143 7.23291 35.1422C7.45133 34.8658 7.56264 34.5434 7.56684 34.1749C7.56264 33.8399 7.46393 33.5635 7.27072 33.3458C7.0775 33.1239 6.80658 32.9396 6.45796 32.7931C6.11353 32.6423 5.71031 32.5083 5.24827 32.3911L3.78027 32.0142C2.71759 31.742 1.87753 31.3296 1.26009 30.7769C0.646846 30.2199 0.340224 29.4809 0.340224 28.5597C0.340224 27.8018 0.546039 27.1381 0.957668 26.5686C1.3735 25.9991 1.93844 25.5574 2.65249 25.2433C3.36654 24.9251 4.1751 24.7659 5.07816 24.7659C5.99383 24.7659 6.79608 24.9251 7.48493 25.2433C8.17798 25.5574 8.72192 25.9949 9.11675 26.556C9.51158 27.1129 9.71529 27.7536 9.72789 28.478H7.47863Z" fill="url(#paint3_linear_195_68911)"/>
<path d="M7.47863 28.478C7.41983 27.9295 7.17201 27.5024 6.73518 27.1967C6.30255 26.891 5.73971 26.7382 5.04666 26.7382C4.55942 26.7382 4.14149 26.8115 3.79287 26.958C3.44424 27.1046 3.17753 27.3035 2.99271 27.5547C2.8079 27.806 2.71339 28.0928 2.70919 28.4152C2.70919 28.6832 2.7701 28.9156 2.89191 29.1124C3.01791 29.3092 3.18803 29.4767 3.40224 29.6149C3.61646 29.7489 3.85377 29.8619 4.11419 29.9541C4.37461 30.0462 4.63713 30.1236 4.90175 30.1864L6.11143 30.4879C6.59867 30.601 7.067 30.7538 7.51643 30.9464C7.97007 31.1391 8.37539 31.3819 8.73242 31.675C9.09365 31.9682 9.37927 32.322 9.58928 32.7365C9.7993 33.1511 9.9043 33.6368 9.9043 34.1937C9.9043 34.9474 9.71109 35.6111 9.32466 36.1848C8.93824 36.7543 8.3796 37.2002 7.64874 37.5226C6.92209 37.8409 6.04213 38 5.00886 38C4.00498 38 3.13342 37.8451 2.39417 37.5352C1.65912 37.2253 1.08368 36.7731 0.667847 36.1785C0.256218 35.5839 0.0336024 34.8595 0 34.0053H2.29966C2.33327 34.4533 2.47188 34.826 2.71549 35.1233C2.95911 35.4206 3.27623 35.6425 3.66686 35.7891C4.06169 35.9356 4.50272 36.0089 4.98995 36.0089C5.49819 36.0089 5.94342 35.9336 6.32565 35.7828C6.71208 35.6279 7.0145 35.4143 7.23291 35.1422C7.45133 34.8658 7.56264 34.5434 7.56684 34.1749C7.56264 33.8399 7.46393 33.5635 7.27072 33.3458C7.0775 33.1239 6.80658 32.9396 6.45796 32.7931C6.11353 32.6423 5.71031 32.5083 5.24827 32.3911L3.78027 32.0142C2.71759 31.742 1.87753 31.3296 1.26009 30.7769C0.646846 30.2199 0.340224 29.4809 0.340224 28.5597C0.340224 27.8018 0.546039 27.1381 0.957668 26.5686C1.3735 25.9991 1.93844 25.5574 2.65249 25.2433C3.36654 24.9251 4.1751 24.7659 5.07816 24.7659C5.99383 24.7659 6.79608 24.9251 7.48493 25.2433C8.17798 25.5574 8.72192 25.9949 9.11675 26.556C9.51158 27.1129 9.71529 27.7536 9.72789 28.478H7.47863Z" fill="white"/>
<path d="M11.1777 37.8053V28.1577H13.4584V37.8053H11.1777ZM12.3244 26.7884C11.9631 26.7884 11.6523 26.6691 11.3919 26.4304C11.1315 26.1875 11.0013 25.8965 11.0013 25.5574C11.0013 25.214 11.1315 24.923 11.3919 24.6843C11.6523 24.4414 11.9631 24.32 12.3244 24.32C12.6898 24.32 13.0006 24.4414 13.2568 24.6843C13.5173 24.923 13.6475 25.214 13.6475 25.5574C13.6475 25.8965 13.5173 26.1875 13.2568 26.4304C13.0006 26.6691 12.6898 26.7884 12.3244 26.7884Z" fill="url(#paint4_linear_195_68911)"/>
<path d="M11.1777 37.8053V28.1577H13.4584V37.8053H11.1777ZM12.3244 26.7884C11.9631 26.7884 11.6523 26.6691 11.3919 26.4304C11.1315 26.1875 11.0013 25.8965 11.0013 25.5574C11.0013 25.214 11.1315 24.923 11.3919 24.6843C11.6523 24.4414 11.9631 24.32 12.3244 24.32C12.6898 24.32 13.0006 24.4414 13.2568 24.6843C13.5173 24.923 13.6475 25.214 13.6475 25.5574C13.6475 25.8965 13.5173 26.1875 13.2568 26.4304C13.0006 26.6691 12.6898 26.7884 12.3244 26.7884Z" fill="white"/>
<path d="M17.3749 32.1524V37.8053H15.0941V28.1577H17.2741V29.797H17.3875C17.6101 29.2569 17.965 28.8277 18.4522 28.5094C18.9437 28.1912 19.5506 28.0321 20.2731 28.0321C20.9409 28.0321 21.5227 28.1744 22.0183 28.4592C22.5181 28.7439 22.9046 29.1564 23.1776 29.6965C23.4548 30.2367 23.5913 30.892 23.5871 31.6625V37.8053H21.3064V32.0142C21.3064 31.3694 21.1383 30.8648 20.8023 30.5005C20.4705 30.1362 20.0106 29.9541 19.4225 29.9541C19.0235 29.9541 18.6686 30.042 18.3577 30.2179C18.0511 30.3895 17.8096 30.6387 17.6332 30.9653C17.461 31.2919 17.3749 31.6876 17.3749 32.1524Z" fill="url(#paint5_linear_195_68911)"/>
<path d="M17.3749 32.1524V37.8053H15.0941V28.1577H17.2741V29.797H17.3875C17.6101 29.2569 17.965 28.8277 18.4522 28.5094C18.9437 28.1912 19.5506 28.0321 20.2731 28.0321C20.9409 28.0321 21.5227 28.1744 22.0183 28.4592C22.5181 28.7439 22.9046 29.1564 23.1776 29.6965C23.4548 30.2367 23.5913 30.892 23.5871 31.6625V37.8053H21.3064V32.0142C21.3064 31.3694 21.1383 30.8648 20.8023 30.5005C20.4705 30.1362 20.0106 29.9541 19.4225 29.9541C19.0235 29.9541 18.6686 30.042 18.3577 30.2179C18.0511 30.3895 17.8096 30.6387 17.6332 30.9653C17.461 31.2919 17.3749 31.6876 17.3749 32.1524Z" fill="white"/>
<path d="M29.4173 37.9937C28.4512 37.9937 27.6217 37.7823 26.9286 37.3593C26.2398 36.9364 25.7084 36.3523 25.3346 35.6069C24.965 34.8574 24.7802 33.9948 24.7802 33.0192C24.7802 32.0393 24.9692 31.1747 25.3472 30.4251C25.7252 29.6714 26.2587 29.0852 26.9475 28.6664C27.6406 28.2435 28.4596 28.0321 29.4047 28.0321C30.1901 28.0321 30.8853 28.1765 31.4901 28.4655C32.0992 28.7502 32.5843 29.1543 32.9455 29.6777C33.3068 30.1969 33.5126 30.8041 33.563 31.4992H31.383C31.2948 31.0344 31.0848 30.6471 30.753 30.3372C30.4254 30.0231 29.9864 29.8661 29.4362 29.8661C28.97 29.8661 28.5604 29.9917 28.2076 30.243C27.8548 30.49 27.5797 30.8459 27.3822 31.3107C27.189 31.7755 27.0924 32.3325 27.0924 32.9815C27.0924 33.6389 27.189 34.2042 27.3822 34.6774C27.5755 35.1463 27.8464 35.5085 28.195 35.764C28.5478 36.0152 28.9616 36.1408 29.4362 36.1408C29.7722 36.1408 30.0725 36.078 30.3372 35.9524C30.606 35.8226 30.8307 35.6363 31.0113 35.3934C31.1919 35.1505 31.3158 34.8553 31.383 34.5078H33.563C33.5084 35.1903 33.3068 35.7954 32.9581 36.323C32.6095 36.8464 32.1349 37.2568 31.5342 37.5541C30.9336 37.8472 30.2279 37.9937 29.4173 37.9937Z" fill="url(#paint6_linear_195_68911)"/>
<path d="M29.4173 37.9937C28.4512 37.9937 27.6217 37.7823 26.9286 37.3593C26.2398 36.9364 25.7084 36.3523 25.3346 35.6069C24.965 34.8574 24.7802 33.9948 24.7802 33.0192C24.7802 32.0393 24.9692 31.1747 25.3472 30.4251C25.7252 29.6714 26.2587 29.0852 26.9475 28.6664C27.6406 28.2435 28.4596 28.0321 29.4047 28.0321C30.1901 28.0321 30.8853 28.1765 31.4901 28.4655C32.0992 28.7502 32.5843 29.1543 32.9455 29.6777C33.3068 30.1969 33.5126 30.8041 33.563 31.4992H31.383C31.2948 31.0344 31.0848 30.6471 30.753 30.3372C30.4254 30.0231 29.9864 29.8661 29.4362 29.8661C28.97 29.8661 28.5604 29.9917 28.2076 30.243C27.8548 30.49 27.5797 30.8459 27.3822 31.3107C27.189 31.7755 27.0924 32.3325 27.0924 32.9815C27.0924 33.6389 27.189 34.2042 27.3822 34.6774C27.5755 35.1463 27.8464 35.5085 28.195 35.764C28.5478 36.0152 28.9616 36.1408 29.4362 36.1408C29.7722 36.1408 30.0725 36.078 30.3372 35.9524C30.606 35.8226 30.8307 35.6363 31.0113 35.3934C31.1919 35.1505 31.3158 34.8553 31.383 34.5078H33.563C33.5084 35.1903 33.3068 35.7954 32.9581 36.323C32.6095 36.8464 32.1349 37.2568 31.5342 37.5541C30.9336 37.8472 30.2279 37.9937 29.4173 37.9937Z" fill="white"/>
<path d="M34.7261 37.8053V28.1577H36.9376V29.7656H37.0384C37.2148 29.2087 37.5172 28.7795 37.9456 28.478C38.3783 28.1723 38.8718 28.0195 39.4262 28.0195C39.5523 28.0195 39.693 28.0258 39.8484 28.0383C40.008 28.0467 40.1403 28.0614 40.2453 28.0823V30.1739C40.1487 30.1404 39.9954 30.1111 39.7854 30.086C39.5796 30.0566 39.38 30.042 39.1868 30.042C38.771 30.042 38.3972 30.132 38.0653 30.3121C37.7377 30.4879 37.4794 30.7329 37.2904 31.0469C37.1014 31.361 37.0069 31.7232 37.0069 32.1336V37.8053H34.7261Z" fill="url(#paint7_linear_195_68911)"/>
<path d="M34.7261 37.8053V28.1577H36.9376V29.7656H37.0384C37.2148 29.2087 37.5172 28.7795 37.9456 28.478C38.3783 28.1723 38.8718 28.0195 39.4262 28.0195C39.5523 28.0195 39.693 28.0258 39.8484 28.0383C40.008 28.0467 40.1403 28.0614 40.2453 28.0823V30.1739C40.1487 30.1404 39.9954 30.1111 39.7854 30.086C39.5796 30.0566 39.38 30.042 39.1868 30.042C38.771 30.042 38.3972 30.132 38.0653 30.3121C37.7377 30.4879 37.4794 30.7329 37.2904 31.0469C37.1014 31.361 37.0069 31.7232 37.0069 32.1336V37.8053H34.7261Z" fill="white"/>
<path d="M43.6624 38C43.0492 38 42.4968 37.8911 42.0054 37.6734C41.5182 37.4515 41.1317 37.1248 40.8461 36.6936C40.5647 36.2623 40.424 35.7305 40.424 35.0982C40.424 34.5538 40.5248 34.1037 40.7264 33.7478C40.928 33.3918 41.2031 33.1071 41.5518 32.8936C41.9004 32.68 42.2931 32.5188 42.7299 32.4099C43.171 32.2969 43.6267 32.2152 44.0971 32.165C44.6642 32.1063 45.1241 32.054 45.4769 32.0079C45.8298 31.9577 46.086 31.8823 46.2456 31.7818C46.4094 31.6771 46.4913 31.5159 46.4913 31.2982V31.2605C46.4913 30.7873 46.3506 30.4209 46.0692 30.1613C45.7878 29.9017 45.3824 29.7719 44.8532 29.7719C44.2946 29.7719 43.8514 29.8933 43.5238 30.1362C43.2004 30.3791 42.982 30.6659 42.8686 30.9967L40.739 30.6952C40.907 30.109 41.1842 29.6191 41.5707 29.2255C41.9571 28.8277 42.4296 28.5304 42.9883 28.3336C43.5469 28.1326 44.1643 28.0321 44.8406 28.0321C45.3068 28.0321 45.771 28.0865 46.233 28.1954C46.695 28.3042 47.1172 28.4843 47.4994 28.7355C47.8816 28.9826 48.1882 29.3197 48.4193 29.7468C48.6545 30.1739 48.7721 30.7078 48.7721 31.3484V37.8053H46.5795V36.48H46.5039C46.3653 36.748 46.17 36.9992 45.918 37.2337C45.6702 37.464 45.3572 37.6504 44.9792 37.7927C44.6054 37.9309 44.1665 38 43.6624 38ZM44.2547 36.3293C44.7125 36.3293 45.1094 36.2392 45.4454 36.0592C45.7815 35.8749 46.0398 35.6321 46.2204 35.3306C46.4052 35.0291 46.4976 34.7004 46.4976 34.3445V33.2076C46.4262 33.2662 46.3044 33.3207 46.1322 33.3709C45.9642 33.4212 45.7752 33.4651 45.5652 33.5028C45.3551 33.5405 45.1472 33.574 44.9414 33.6033C44.7356 33.6326 44.5571 33.6577 44.4059 33.6787C44.0656 33.7247 43.7611 33.8001 43.4923 33.9048C43.2235 34.0095 43.0114 34.156 42.856 34.3445C42.7005 34.5287 42.6228 34.7674 42.6228 35.0605C42.6228 35.4792 42.7762 35.7954 43.0828 36.0089C43.3894 36.2225 43.78 36.3293 44.2547 36.3293Z" fill="url(#paint8_linear_195_68911)"/>
<path d="M43.6624 38C43.0492 38 42.4968 37.8911 42.0054 37.6734C41.5182 37.4515 41.1317 37.1248 40.8461 36.6936C40.5647 36.2623 40.424 35.7305 40.424 35.0982C40.424 34.5538 40.5248 34.1037 40.7264 33.7478C40.928 33.3918 41.2031 33.1071 41.5518 32.8936C41.9004 32.68 42.2931 32.5188 42.7299 32.4099C43.171 32.2969 43.6267 32.2152 44.0971 32.165C44.6642 32.1063 45.1241 32.054 45.4769 32.0079C45.8298 31.9577 46.086 31.8823 46.2456 31.7818C46.4094 31.6771 46.4913 31.5159 46.4913 31.2982V31.2605C46.4913 30.7873 46.3506 30.4209 46.0692 30.1613C45.7878 29.9017 45.3824 29.7719 44.8532 29.7719C44.2946 29.7719 43.8514 29.8933 43.5238 30.1362C43.2004 30.3791 42.982 30.6659 42.8686 30.9967L40.739 30.6952C40.907 30.109 41.1842 29.6191 41.5707 29.2255C41.9571 28.8277 42.4296 28.5304 42.9883 28.3336C43.5469 28.1326 44.1643 28.0321 44.8406 28.0321C45.3068 28.0321 45.771 28.0865 46.233 28.1954C46.695 28.3042 47.1172 28.4843 47.4994 28.7355C47.8816 28.9826 48.1882 29.3197 48.4193 29.7468C48.6545 30.1739 48.7721 30.7078 48.7721 31.3484V37.8053H46.5795V36.48H46.5039C46.3653 36.748 46.17 36.9992 45.918 37.2337C45.6702 37.464 45.3572 37.6504 44.9792 37.7927C44.6054 37.9309 44.1665 38 43.6624 38ZM44.2547 36.3293C44.7125 36.3293 45.1094 36.2392 45.4454 36.0592C45.7815 35.8749 46.0398 35.6321 46.2204 35.3306C46.4052 35.0291 46.4976 34.7004 46.4976 34.3445V33.2076C46.4262 33.2662 46.3044 33.3207 46.1322 33.3709C45.9642 33.4212 45.7752 33.4651 45.5652 33.5028C45.3551 33.5405 45.1472 33.574 44.9414 33.6033C44.7356 33.6326 44.5571 33.6577 44.4059 33.6787C44.0656 33.7247 43.7611 33.8001 43.4923 33.9048C43.2235 34.0095 43.0114 34.156 42.856 34.3445C42.7005 34.5287 42.6228 34.7674 42.6228 35.0605C42.6228 35.4792 42.7762 35.7954 43.0828 36.0089C43.3894 36.2225 43.78 36.3293 44.2547 36.3293Z" fill="white"/>
<path d="M51.7608 37.9435C51.3785 37.9435 51.0509 37.8095 50.7779 37.5415C50.5049 37.2735 50.3705 36.9469 50.3747 36.5617C50.3705 36.1848 50.5049 35.8624 50.7779 35.5944C51.0509 35.3264 51.3785 35.1924 51.7608 35.1924C52.1304 35.1924 52.4517 35.3264 52.7247 35.5944C53.0019 35.8624 53.1427 36.1848 53.1469 36.5617C53.1427 36.8171 53.0755 37.0495 52.9452 37.2588C52.8192 37.4682 52.6512 37.6357 52.4412 37.7613C52.2354 37.8828 52.0086 37.9435 51.7608 37.9435Z" fill="url(#paint9_linear_195_68911)"/>
<path d="M51.7608 37.9435C51.3785 37.9435 51.0509 37.8095 50.7779 37.5415C50.5049 37.2735 50.3705 36.9469 50.3747 36.5617C50.3705 36.1848 50.5049 35.8624 50.7779 35.5944C51.0509 35.3264 51.3785 35.1924 51.7608 35.1924C52.1304 35.1924 52.4517 35.3264 52.7247 35.5944C53.0019 35.8624 53.1427 36.1848 53.1469 36.5617C53.1427 36.8171 53.0755 37.0495 52.9452 37.2588C52.8192 37.4682 52.6512 37.6357 52.4412 37.7613C52.2354 37.8828 52.0086 37.9435 51.7608 37.9435Z" fill="white"/>
<defs>
<linearGradient id="paint0_linear_195_68911" x1="0" y1="19" x2="57.5758" y2="19" gradientUnits="userSpaceOnUse">
<stop stop-color="#1A0D34"/>
<stop offset="1" stop-color="#462191"/>
</linearGradient>
<linearGradient id="paint1_linear_195_68911" x1="0" y1="19" x2="57.5758" y2="19" gradientUnits="userSpaceOnUse">
<stop stop-color="#1A0D34"/>
<stop offset="1" stop-color="#462191"/>
</linearGradient>
<linearGradient id="paint2_linear_195_68911" x1="0" y1="19" x2="57.5758" y2="19" gradientUnits="userSpaceOnUse">
<stop stop-color="#1A0D34"/>
<stop offset="1" stop-color="#462191"/>
</linearGradient>
<linearGradient id="paint3_linear_195_68911" x1="0" y1="19" x2="57.5758" y2="19" gradientUnits="userSpaceOnUse">
<stop stop-color="#1A0D34"/>
<stop offset="1" stop-color="#462191"/>
</linearGradient>
<linearGradient id="paint4_linear_195_68911" x1="0" y1="19" x2="57.5758" y2="19" gradientUnits="userSpaceOnUse">
<stop stop-color="#1A0D34"/>
<stop offset="1" stop-color="#462191"/>
</linearGradient>
<linearGradient id="paint5_linear_195_68911" x1="0" y1="19" x2="57.5758" y2="19" gradientUnits="userSpaceOnUse">
<stop stop-color="#1A0D34"/>
<stop offset="1" stop-color="#462191"/>
</linearGradient>
<linearGradient id="paint6_linear_195_68911" x1="0" y1="19" x2="57.5758" y2="19" gradientUnits="userSpaceOnUse">
<stop stop-color="#1A0D34"/>
<stop offset="1" stop-color="#462191"/>
</linearGradient>
<linearGradient id="paint7_linear_195_68911" x1="0" y1="19" x2="57.5758" y2="19" gradientUnits="userSpaceOnUse">
<stop stop-color="#1A0D34"/>
<stop offset="1" stop-color="#462191"/>
</linearGradient>
<linearGradient id="paint8_linear_195_68911" x1="0" y1="19" x2="57.5758" y2="19" gradientUnits="userSpaceOnUse">
<stop stop-color="#1A0D34"/>
<stop offset="1" stop-color="#462191"/>
</linearGradient>
<linearGradient id="paint9_linear_195_68911" x1="0" y1="19" x2="57.5758" y2="19" gradientUnits="userSpaceOnUse">
<stop stop-color="#1A0D34"/>
<stop offset="1" stop-color="#462191"/>
</linearGradient>
</defs>
</svg>
