<svg width="330" height="330" viewBox="0 0 330 330" fill="none" xmlns="http://www.w3.org/2000/svg">
<mask id="mask0_314_5783" style="mask-type:alpha" maskUnits="userSpaceOnUse" x="0" y="0" width="330" height="330">
<rect width="330" height="330" fill="#D9D9D9"/>
</mask>
<g mask="url(#mask0_314_5783)">
<circle cx="165" cy="165.526" r="163.5" transform="rotate(-24 165 165.526)" stroke="url(#paint0_linear_314_5783)"/>
<circle cx="165" cy="165.526" r="108.5" stroke="url(#paint1_linear_314_5783)"/>
<circle cx="165" cy="165.526" r="60" fill="white" stroke="url(#paint2_linear_314_5783)"/>
<g filter="url(#filter0_d_314_5783)">
<path d="M167.501 149.963C169.771 149.976 171.663 150.029 173.229 150.239C175.379 150.528 177.119 151.137 178.491 152.509C179.863 153.881 180.472 155.621 180.761 157.771C181.041 159.859 181.042 162.735 181.042 166.104L181.037 168.501C181.024 170.771 180.971 172.663 180.761 174.229C180.472 176.379 179.863 178.119 178.491 179.491C177.119 180.863 175.379 181.472 173.229 181.761C171.141 182.041 168.472 182.042 165.104 182.042L162.674 182.037C160.346 182.024 158.337 181.971 156.771 181.761C154.621 181.472 152.881 180.863 151.509 179.491C150.137 178.119 149.528 176.379 149.239 174.229C148.959 172.141 148.958 169.473 148.958 166.104L148.963 163.674C148.976 161.346 149.029 159.337 149.239 157.771C149.528 155.621 150.137 153.881 151.509 152.509C152.881 151.137 154.621 150.528 156.771 150.239C158.859 149.959 161.734 149.958 165.104 149.958L167.501 149.963ZM165.099 155.458C163.022 155.458 161.128 155.459 159.788 155.639C158.388 155.827 157.172 156.234 156.203 157.203C155.234 158.172 154.827 159.388 154.639 160.788C154.504 161.793 154.469 163.11 154.461 164.581L154.458 166.099C154.458 168.175 154.459 169.872 154.639 171.212C154.827 172.612 155.234 173.828 156.203 174.797C157.172 175.766 158.388 176.173 159.788 176.361C160.793 176.496 162.071 176.531 163.523 176.539L165.03 176.542C166.454 176.542 167.688 176.541 168.735 176.489C169.076 176.472 169.398 176.33 169.639 176.089L175.089 170.639C175.33 170.398 175.472 170.076 175.489 169.735C175.515 169.212 175.529 168.641 175.535 168.023L175.542 166.03C175.542 163.954 175.541 162.128 175.361 160.788C175.173 159.388 174.766 158.172 173.797 157.203C172.828 156.234 171.612 155.827 170.212 155.639C169.207 155.504 168.001 155.469 166.585 155.461L165.099 155.458Z" fill="white"/>
<path d="M167.501 149.963C169.771 149.976 171.663 150.029 173.229 150.239C175.379 150.528 177.119 151.137 178.491 152.509C179.863 153.881 180.472 155.621 180.761 157.771C181.041 159.859 181.042 162.735 181.042 166.104L181.037 168.501C181.024 170.771 180.971 172.663 180.761 174.229C180.472 176.379 179.863 178.119 178.491 179.491C177.119 180.863 175.379 181.472 173.229 181.761C171.141 182.041 168.472 182.042 165.104 182.042L162.674 182.037C160.346 182.024 158.337 181.971 156.771 181.761C154.621 181.472 152.881 180.863 151.509 179.491C150.137 178.119 149.528 176.379 149.239 174.229C148.959 172.141 148.958 169.473 148.958 166.104L148.963 163.674C148.976 161.346 149.029 159.337 149.239 157.771C149.528 155.621 150.137 153.881 151.509 152.509C152.881 151.137 154.621 150.528 156.771 150.239C158.859 149.959 161.734 149.958 165.104 149.958L167.501 149.963ZM165.099 155.458C163.022 155.458 161.128 155.459 159.788 155.639C158.388 155.827 157.172 156.234 156.203 157.203C155.234 158.172 154.827 159.388 154.639 160.788C154.504 161.793 154.469 163.11 154.461 164.581L154.458 166.099C154.458 168.175 154.459 169.872 154.639 171.212C154.827 172.612 155.234 173.828 156.203 174.797C157.172 175.766 158.388 176.173 159.788 176.361C160.793 176.496 162.071 176.531 163.523 176.539L165.03 176.542C166.454 176.542 167.688 176.541 168.735 176.489C169.076 176.472 169.398 176.33 169.639 176.089L175.089 170.639C175.33 170.398 175.472 170.076 175.489 169.735C175.515 169.212 175.529 168.641 175.535 168.023L175.542 166.03C175.542 163.954 175.541 162.128 175.361 160.788C175.173 159.388 174.766 158.172 173.797 157.203C172.828 156.234 171.612 155.827 170.212 155.639C169.207 155.504 168.001 155.469 166.585 155.461L165.099 155.458Z" fill="url(#paint3_linear_314_5783)" fill-opacity="0.7"/>
<path fill-rule="evenodd" clip-rule="evenodd" d="M157.667 146.292C158.426 146.292 159.042 146.907 159.042 147.667V151.333C159.042 152.093 158.426 152.708 157.667 152.708C156.908 152.708 156.292 152.093 156.292 151.333V147.667C156.292 146.907 156.908 146.292 157.667 146.292ZM165 146.292C165.76 146.292 166.375 146.907 166.375 147.667V151.333C166.375 152.093 165.76 152.708 165 152.708C164.241 152.708 163.625 152.093 163.625 151.333V147.667C163.625 146.907 164.241 146.292 165 146.292ZM172.334 146.292C173.093 146.292 173.709 146.907 173.709 147.667V151.333C173.709 152.093 173.093 152.708 172.334 152.708C171.574 152.708 170.959 152.093 170.959 151.333V147.667C170.959 146.907 171.574 146.292 172.334 146.292ZM157.667 179.292C158.426 179.292 159.042 179.907 159.042 180.667V184.333C159.042 185.093 158.426 185.708 157.667 185.708C156.908 185.708 156.292 185.093 156.292 184.333V180.667C156.292 179.907 156.908 179.292 157.667 179.292ZM165 179.292C165.76 179.292 166.375 179.907 166.375 180.667V184.333C166.375 185.093 165.76 185.708 165 185.708C164.241 185.708 163.625 185.093 163.625 184.333V180.667C163.625 179.907 164.241 179.292 165 179.292ZM172.334 179.292C173.093 179.292 173.709 179.907 173.709 180.667V184.333C173.709 185.093 173.093 185.708 172.334 185.708C171.574 185.708 170.959 185.093 170.959 184.333V180.667C170.959 179.907 171.574 179.292 172.334 179.292Z" fill="white"/>
<path fill-rule="evenodd" clip-rule="evenodd" d="M157.667 146.292C158.426 146.292 159.042 146.907 159.042 147.667V151.333C159.042 152.093 158.426 152.708 157.667 152.708C156.908 152.708 156.292 152.093 156.292 151.333V147.667C156.292 146.907 156.908 146.292 157.667 146.292ZM165 146.292C165.76 146.292 166.375 146.907 166.375 147.667V151.333C166.375 152.093 165.76 152.708 165 152.708C164.241 152.708 163.625 152.093 163.625 151.333V147.667C163.625 146.907 164.241 146.292 165 146.292ZM172.334 146.292C173.093 146.292 173.709 146.907 173.709 147.667V151.333C173.709 152.093 173.093 152.708 172.334 152.708C171.574 152.708 170.959 152.093 170.959 151.333V147.667C170.959 146.907 171.574 146.292 172.334 146.292ZM157.667 179.292C158.426 179.292 159.042 179.907 159.042 180.667V184.333C159.042 185.093 158.426 185.708 157.667 185.708C156.908 185.708 156.292 185.093 156.292 184.333V180.667C156.292 179.907 156.908 179.292 157.667 179.292ZM165 179.292C165.76 179.292 166.375 179.907 166.375 180.667V184.333C166.375 185.093 165.76 185.708 165 185.708C164.241 185.708 163.625 185.093 163.625 184.333V180.667C163.625 179.907 164.241 179.292 165 179.292ZM172.334 179.292C173.093 179.292 173.709 179.907 173.709 180.667V184.333C173.709 185.093 173.093 185.708 172.334 185.708C171.574 185.708 170.959 185.093 170.959 184.333V180.667C170.959 179.907 171.574 179.292 172.334 179.292Z" fill="url(#paint4_linear_314_5783)" fill-opacity="0.7"/>
<path fill-rule="evenodd" clip-rule="evenodd" d="M145.292 158.667C145.292 157.907 145.908 157.292 146.667 157.292H150.334C151.093 157.292 151.709 157.907 151.709 158.667C151.709 159.426 151.093 160.042 150.334 160.042H146.667C145.908 160.042 145.292 159.426 145.292 158.667ZM178.292 158.667C178.292 157.907 178.908 157.292 179.667 157.292H183.334C184.093 157.292 184.709 157.907 184.709 158.667C184.709 159.426 184.093 160.042 183.334 160.042H179.667C178.908 160.042 178.292 159.426 178.292 158.667ZM145.292 166C145.292 165.241 145.908 164.625 146.667 164.625H150.334C151.093 164.625 151.709 165.241 151.709 166C151.709 166.759 151.093 167.375 150.334 167.375H146.667C145.908 167.375 145.292 166.759 145.292 166ZM178.292 166C178.292 165.241 178.908 164.625 179.667 164.625H183.334C184.093 164.625 184.709 165.241 184.709 166C184.709 166.759 184.093 167.375 183.334 167.375H179.667C178.908 167.375 178.292 166.759 178.292 166ZM145.292 173.333C145.292 172.574 145.908 171.958 146.667 171.958H150.334C151.093 171.958 151.709 172.574 151.709 173.333C151.709 174.093 151.093 174.708 150.334 174.708H146.667C145.908 174.708 145.292 174.093 145.292 173.333ZM178.292 173.333C178.292 172.574 178.908 171.958 179.667 171.958H183.334C184.093 171.958 184.709 172.574 184.709 173.333C184.709 174.093 184.093 174.708 183.334 174.708H179.667C178.908 174.708 178.292 174.093 178.292 173.333Z" fill="white"/>
<path fill-rule="evenodd" clip-rule="evenodd" d="M145.292 158.667C145.292 157.907 145.908 157.292 146.667 157.292H150.334C151.093 157.292 151.709 157.907 151.709 158.667C151.709 159.426 151.093 160.042 150.334 160.042H146.667C145.908 160.042 145.292 159.426 145.292 158.667ZM178.292 158.667C178.292 157.907 178.908 157.292 179.667 157.292H183.334C184.093 157.292 184.709 157.907 184.709 158.667C184.709 159.426 184.093 160.042 183.334 160.042H179.667C178.908 160.042 178.292 159.426 178.292 158.667ZM145.292 166C145.292 165.241 145.908 164.625 146.667 164.625H150.334C151.093 164.625 151.709 165.241 151.709 166C151.709 166.759 151.093 167.375 150.334 167.375H146.667C145.908 167.375 145.292 166.759 145.292 166ZM178.292 166C178.292 165.241 178.908 164.625 179.667 164.625H183.334C184.093 164.625 184.709 165.241 184.709 166C184.709 166.759 184.093 167.375 183.334 167.375H179.667C178.908 167.375 178.292 166.759 178.292 166ZM145.292 173.333C145.292 172.574 145.908 171.958 146.667 171.958H150.334C151.093 171.958 151.709 172.574 151.709 173.333C151.709 174.093 151.093 174.708 150.334 174.708H146.667C145.908 174.708 145.292 174.093 145.292 173.333ZM178.292 173.333C178.292 172.574 178.908 171.958 179.667 171.958H183.334C184.093 171.958 184.709 172.574 184.709 173.333C184.709 174.093 184.093 174.708 183.334 174.708H179.667C178.908 174.708 178.292 174.093 178.292 173.333Z" fill="url(#paint5_linear_314_5783)" fill-opacity="0.7"/>
</g>
</g>
<defs>
<filter id="filter0_d_314_5783" x="138.294" y="143.822" width="53.4129" height="53.4127" filterUnits="userSpaceOnUse" color-interpolation-filters="sRGB">
<feFlood flood-opacity="0" result="BackgroundImageFix"/>
<feColorMatrix in="SourceAlpha" type="matrix" values="0 0 0 0 0 0 0 0 0 0 0 0 0 0 0 0 0 0 127 0" result="hardAlpha"/>
<feOffset dy="4.52809"/>
<feGaussianBlur stdDeviation="3.49898"/>
<feComposite in2="hardAlpha" operator="out"/>
<feColorMatrix type="matrix" values="0 0 0 0 0.380392 0 0 0 0 0.32549 0 0 0 0 0.933333 0 0 0 0.31 0"/>
<feBlend mode="normal" in2="BackgroundImageFix" result="effect1_dropShadow_314_5783"/>
<feBlend mode="normal" in="SourceGraphic" in2="effect1_dropShadow_314_5783" result="shape"/>
</filter>
<linearGradient id="paint0_linear_314_5783" x1="165" y1="1.52632" x2="165" y2="329.526" gradientUnits="userSpaceOnUse">
<stop offset="0.0389843" stop-color="#826CE9" stop-opacity="0"/>
<stop offset="0.498548" stop-color="#826CE9"/>
<stop offset="0.936502" stop-color="#826CE9" stop-opacity="0"/>
</linearGradient>
<linearGradient id="paint1_linear_314_5783" x1="165" y1="56.5259" x2="165" y2="274.526" gradientUnits="userSpaceOnUse">
<stop offset="0.0389843" stop-color="#826CE9" stop-opacity="0"/>
<stop offset="0.498548" stop-color="#826CE9"/>
<stop offset="0.936502" stop-color="#826CE9" stop-opacity="0"/>
</linearGradient>
<linearGradient id="paint2_linear_314_5783" x1="165" y1="105.526" x2="165" y2="225.526" gradientUnits="userSpaceOnUse">
<stop offset="0.0389843" stop-color="#826CE9" stop-opacity="0"/>
<stop offset="0.498548" stop-color="#826CE9"/>
<stop offset="0.936502" stop-color="#826CE9" stop-opacity="0"/>
</linearGradient>
<linearGradient id="paint3_linear_314_5783" x1="165" y1="149.958" x2="165" y2="182.042" gradientUnits="userSpaceOnUse">
<stop stop-color="#887CF8"/>
<stop offset="1" stop-color="#594BEC"/>
</linearGradient>
<linearGradient id="paint4_linear_314_5783" x1="165" y1="146.292" x2="165" y2="185.708" gradientUnits="userSpaceOnUse">
<stop stop-color="#887CF8"/>
<stop offset="1" stop-color="#594BEC"/>
</linearGradient>
<linearGradient id="paint5_linear_314_5783" x1="165" y1="157.292" x2="165" y2="174.708" gradientUnits="userSpaceOnUse">
<stop stop-color="#887CF8"/>
<stop offset="1" stop-color="#594BEC"/>
</linearGradient>
</defs>
</svg>
