<svg width="96" height="25" viewBox="0 0 96 25" fill="none" xmlns="http://www.w3.org/2000/svg">
<g clip-path="url(#clip0_195_29360)">
<path fill-rule="evenodd" clip-rule="evenodd" d="M14.5824 5.33447C13.7239 5.33447 12.8739 5.5031 12.0809 5.83069C11.2878 6.15828 10.5672 6.63842 9.96022 7.24374C9.35323 7.84904 8.87174 8.56764 8.54323 9.35851C8.25107 10.0619 8.08502 10.8102 8.05185 11.5693C8.04426 11.7431 7.94729 11.9021 7.79162 11.9797L5.68502 13.0301C5.52935 13.1078 5.42958 13.2668 5.43717 13.4405C5.47034 14.1997 5.63639 14.948 5.92855 15.6514C6.25706 16.4422 6.73855 17.1608 7.34554 17.7661C7.95252 18.3714 8.67314 18.8516 9.46619 19.1792C10.2593 19.5068 11.1093 19.6754 11.9677 19.6754C12.8261 19.6754 13.6761 19.5068 14.4692 19.1792C15.2622 18.8516 15.9828 18.3714 16.5898 17.7661C17.1968 17.1608 17.6783 16.4422 18.0068 15.6514C18.299 14.948 18.465 14.1997 18.4982 13.4405C18.5058 13.2668 18.6027 13.1078 18.7584 13.0301L20.865 11.9797C21.0207 11.9021 21.1205 11.7431 21.1129 11.5693C21.0797 10.8102 20.9136 10.0619 20.6215 9.35851C20.293 8.56764 19.8115 7.84904 19.2045 7.24374C18.5975 6.63842 17.8769 6.15828 17.0838 5.83069C16.2908 5.5031 15.4408 5.33447 14.5824 5.33447ZM17.6019 10.6058C17.7298 10.9136 17.8094 11.2387 17.8383 11.5696C17.8535 11.7428 17.7523 11.9021 17.5967 11.9797L15.4901 13.0301C15.3344 13.1078 15.2388 13.267 15.2236 13.4403C15.1947 13.7711 15.1151 14.0962 14.9872 14.4041C14.823 14.7995 14.5822 15.1588 14.2788 15.4615C13.9752 15.7641 13.6149 16.0042 13.2184 16.168C12.8219 16.3318 12.3969 16.4161 11.9677 16.4161C11.5385 16.4161 11.1135 16.3318 10.7169 16.168C10.3204 16.0042 9.96011 15.7641 9.6566 15.4615C9.35311 15.1588 9.11238 14.7995 8.94811 14.4041C8.82025 14.0962 8.74068 13.7711 8.71171 13.4403C8.69655 13.267 8.7977 13.1078 8.95336 13.0301L11.06 11.9797C11.2156 11.9021 11.3112 11.7428 11.3264 11.5696C11.3554 11.2387 11.4349 10.9136 11.5628 10.6058C11.727 10.2104 11.9678 9.85106 12.2713 9.54839C12.5748 9.24576 12.9351 9.00567 13.3316 8.84188C13.7282 8.67807 14.1532 8.59379 14.5824 8.59379C15.0116 8.59379 15.4366 8.67807 15.8331 8.84188C16.2296 9.00567 16.5899 9.24576 16.8934 9.54839C17.1969 9.85106 17.4377 10.2104 17.6019 10.6058Z" fill="#E22935"/>
<path fill-rule="evenodd" clip-rule="evenodd" d="M14.5824 0.119629C13.0372 0.119629 11.5072 0.423123 10.0797 1.01279C8.65217 1.60245 7.3551 2.46674 6.26251 3.55628C5.16994 4.64584 4.30327 5.93933 3.71196 7.36288C3.15699 8.69899 2.85481 10.1251 2.81976 11.5693C2.81554 11.7431 2.71795 11.9022 2.56228 11.9797L0.455669 13.0302C0.300013 13.1078 0.200867 13.2668 0.205086 13.4406C0.240126 14.8848 0.542311 16.3109 1.09728 17.647C1.68858 19.0706 2.55527 20.3641 3.64783 21.4536C4.74043 22.5432 6.03749 23.4076 7.46504 23.997C8.89256 24.5867 10.4226 24.8904 11.9677 24.8904C13.5128 24.8904 15.0429 24.5867 16.4704 23.997C17.8979 23.4076 19.195 22.5432 20.2876 21.4536C21.3801 20.3641 22.2468 19.0706 22.8381 17.647C23.3932 16.3109 23.6952 14.8848 23.7303 13.4406C23.7345 13.2668 23.8322 13.1078 23.9877 13.0302L26.0943 11.9797C26.2501 11.9022 26.3491 11.7431 26.345 11.5693C26.3099 10.1251 26.0079 8.69899 25.4528 7.36288C24.8615 5.93933 23.9948 4.64584 22.9022 3.55628C21.8096 2.46674 20.5126 1.60245 19.0851 1.01279C17.6575 0.423125 16.1275 0.119629 14.5824 0.119629ZM20.4606 13.4406C20.4665 13.2668 20.5638 13.1078 20.7194 13.0302L22.826 11.9797C22.9817 11.9022 23.0813 11.7431 23.0753 11.5693C23.0411 10.5533 22.8239 9.55082 22.4332 8.61018C22.0062 7.58204 21.3802 6.64784 20.5912 5.86096C19.8021 5.07405 18.8653 4.44986 17.8343 4.02399C16.8033 3.59811 15.6983 3.37892 14.5824 3.37892C13.4664 3.37892 12.3614 3.59811 11.3304 4.02399C10.2995 4.44986 9.36267 5.07405 8.57359 5.86096C7.78451 6.64784 7.15857 7.58204 6.73153 8.61018C6.34082 9.55082 6.12357 10.5533 6.08944 11.5693C6.08359 11.7431 5.9863 11.9022 5.83063 11.9797L3.72403 13.0302C3.56836 13.1078 3.46891 13.2668 3.47476 13.4406C3.50889 14.4566 3.72614 15.4591 4.11685 16.3997C4.54389 17.4279 5.16983 18.3621 5.95891 19.1489C6.74799 19.9358 7.68478 20.56 8.71577 20.9859C9.74676 21.4118 10.8518 21.631 11.9677 21.631C13.0836 21.631 14.1886 21.4118 15.2196 20.9859C16.2506 20.56 17.1874 19.9358 17.9765 19.1489C18.7656 18.3621 19.3915 17.4279 19.8186 16.3997C20.2093 15.4591 20.4265 14.4566 20.4606 13.4406Z" fill="#E22935"/>
<path d="M61.1794 3.9793C60.831 3.9793 60.5365 3.85888 60.2957 3.61806C60.0549 3.37723 59.9344 3.0848 59.9344 2.74076C59.9344 2.38813 60.0549 2.09355 60.2957 1.85703C60.5365 1.6162 60.831 1.49579 61.1794 1.49579C61.5278 1.49579 61.8202 1.6162 62.0567 1.85703C62.2975 2.09355 62.4179 2.38813 62.4179 2.74076C62.4179 3.0848 62.2975 3.37723 62.0567 3.61806C61.8202 3.85888 61.5278 3.9793 61.1794 3.9793Z" fill="#1E0059"/>
<path d="M60.1537 11.7136V4.77271H62.1922V11.7136H60.1537Z" fill="#1E0059"/>
<path fill-rule="evenodd" clip-rule="evenodd" d="M63.3423 13.7559V4.77272H65.2774V5.46295H65.3026C65.4246 5.34283 65.5561 5.23318 65.6966 5.13396C66.1526 4.81572 66.6771 4.65662 67.2707 4.65662C67.7911 4.65662 68.2877 4.79207 68.7609 5.06299C69.2382 5.33393 69.6251 5.73602 69.9219 6.26928C70.2187 6.80253 70.3627 7.46696 70.3542 8.26253C70.3583 8.8646 70.2746 9.38925 70.1026 9.8365C69.9306 10.2795 69.6983 10.6471 69.4058 10.9396C69.1134 11.232 68.7866 11.4513 68.4253 11.5976C68.0641 11.7438 67.6985 11.8169 67.3288 11.8169C66.7439 11.8169 66.2191 11.6535 65.7547 11.3266C65.6379 11.2433 65.5271 11.1529 65.4223 11.0557H65.3806V12.5911L63.3423 13.7559ZM66.8515 10.1139C67.1524 10.1096 67.4168 10.03 67.6448 9.87522C67.8728 9.7204 68.0512 9.50107 68.1801 9.21724C68.3093 8.9334 68.3716 8.60228 68.3673 8.22384C68.3716 7.8368 68.3072 7.50565 68.1737 7.23042C68.0448 6.95091 67.862 6.73804 67.6255 6.59182C67.3888 6.4413 67.118 6.3682 66.8127 6.37249C66.5246 6.3682 66.2666 6.43914 66.0386 6.58535C65.8106 6.73157 65.6301 6.94446 65.4966 7.22398C65.3634 7.49921 65.2969 7.83249 65.2969 8.22384C65.2969 8.60228 65.3634 8.9334 65.4966 9.21724C65.6343 9.50107 65.8194 9.7204 66.0515 9.87522C66.2838 10.03 66.5503 10.1096 66.8515 10.1139Z" fill="#1E0059"/>
<path d="M73.5038 11.8169C73.0909 11.8169 72.6953 11.746 72.3168 11.604C71.9428 11.4621 71.6116 11.2621 71.3235 11.0041C71.0354 10.7418 70.8182 10.4365 70.6721 10.0881L72.2719 9.38499C72.3792 9.58712 72.5405 9.7785 72.7556 9.95912C72.9705 10.1397 73.2244 10.23 73.5168 10.23C73.6717 10.23 73.807 10.2042 73.9233 10.1526C74.0393 10.0967 74.1297 10.0258 74.1941 9.93976C74.2629 9.85375 74.2973 9.7613 74.2973 9.66238C74.2973 9.53767 74.2478 9.43015 74.149 9.33985C74.0501 9.24953 73.9233 9.17212 73.7684 9.10763C73.6136 9.04311 73.4501 8.98722 73.2781 8.9399C73.1104 8.89261 72.9556 8.8496 72.8136 8.81089C72.4868 8.71199 72.1772 8.5765 71.8847 8.40449C71.5967 8.22818 71.3623 8.00456 71.1815 7.73362C71.001 7.4627 70.9107 7.13371 70.9107 6.74667C70.9107 6.33813 71.0162 5.97903 71.2267 5.66939C71.4418 5.35547 71.732 5.11034 72.0976 4.93403C72.4675 4.7577 72.8889 4.66956 73.362 4.66956C73.951 4.66956 74.4801 4.80501 74.9487 5.07593C75.4219 5.34687 75.7572 5.70595 75.9551 6.1532L74.3877 6.83052C74.3058 6.6929 74.1854 6.5596 74.0265 6.43059C73.8717 6.30157 73.6737 6.23706 73.4329 6.23706C73.2308 6.23706 73.0632 6.28866 72.9297 6.39187C72.7964 6.49508 72.7297 6.6241 72.7297 6.77891C72.7297 6.93373 72.7964 7.05845 72.9297 7.15306C73.0632 7.24768 73.2329 7.32937 73.4393 7.39818C73.6457 7.46699 73.8609 7.53366 74.0845 7.59816C74.2565 7.64547 74.4565 7.71428 74.6843 7.80458C74.9123 7.89059 75.1338 8.00884 75.3487 8.15937C75.568 8.30988 75.7487 8.50341 75.8907 8.73992C76.0368 8.97646 76.11 9.26674 76.11 9.61077C76.11 10.0451 75.9896 10.43 75.7487 10.7655C75.5123 11.0966 75.1962 11.3546 74.8006 11.5395C74.409 11.7244 73.9769 11.8169 73.5038 11.8169Z" fill="#1E0059"/>
<path d="M84.3961 11.7137V4.77277H86.3379V5.65651H86.3734C86.525 5.44534 86.6959 5.26687 86.886 5.12109C87.2732 4.82006 87.7312 4.66956 88.2601 4.66956C88.6989 4.66956 89.0707 4.77706 89.3762 4.99208C89.6117 5.15238 89.8037 5.3674 89.9521 5.63715H89.9885C90.2083 5.35699 90.4752 5.13768 90.7888 4.97919C91.1973 4.77277 91.6424 4.66956 92.1241 4.66956C92.5842 4.66956 92.9626 4.75125 93.2594 4.91467C93.5562 5.0738 93.7883 5.28451 93.956 5.54685C94.1239 5.80488 94.242 6.08871 94.3108 6.39834C94.3796 6.70366 94.414 7.0004 94.414 7.28852V11.7137H92.3629V7.54011C92.3629 7.16167 92.2833 6.87139 92.1241 6.66926C91.9693 6.46284 91.7413 6.35962 91.4404 6.35962C91.2424 6.35962 91.0661 6.40478 90.9113 6.49508C90.7608 6.58109 90.6404 6.71226 90.55 6.88859C90.464 7.0649 90.4211 7.28208 90.4211 7.54011V11.7137H88.3826V7.54011C88.3826 7.16167 88.3032 6.87139 88.1441 6.66926C87.9849 6.46284 87.7548 6.35962 87.4537 6.35962C87.1613 6.35962 86.9184 6.46068 86.7248 6.66281C86.5314 6.86063 86.4347 7.15735 86.4347 7.553V11.7137H84.3961Z" fill="#1E0059"/>
<path d="M78.1048 11.5137C78.4963 11.7158 78.9305 11.8169 79.408 11.8169C79.9713 11.8169 80.4702 11.6792 80.9046 11.404C81.1243 11.2626 81.3243 11.1013 81.5044 10.9202H81.5562C81.6177 11.0613 81.7078 11.186 81.8271 11.2944C82.0635 11.5094 82.4376 11.6835 82.9493 11.8169L83.6718 10.1139C83.4482 10.0322 83.2998 9.93541 83.2268 9.8236C83.1537 9.71179 83.1172 9.53117 83.1172 9.28174V4.77271H81.0787V8.86243C81.0787 9.11617 81.0291 9.33548 80.9303 9.52041C80.8358 9.70103 80.7023 9.8408 80.5303 9.9397C80.3626 10.0386 80.167 10.0881 79.9434 10.0881C79.6424 10.0881 79.3865 9.98486 79.1757 9.77844C78.9693 9.56771 78.8661 9.26238 78.8661 8.86243V4.77271H76.8278V9.13337C76.8278 9.71823 76.9418 10.2106 77.1695 10.6106C77.4018 11.0062 77.7135 11.3072 78.1048 11.5137Z" fill="#1E0059"/>
<path fill-rule="evenodd" clip-rule="evenodd" d="M55.7398 11.8169C55.073 11.8169 54.4646 11.6642 53.9141 11.3589C53.368 11.0536 52.9315 10.6321 52.6047 10.0946C52.2822 9.55701 52.121 8.93774 52.121 8.23678C52.121 7.53579 52.2822 6.91653 52.6047 6.37898C52.9315 5.84141 53.368 5.42212 53.9141 5.12109C54.4646 4.82006 55.073 4.66956 55.7398 4.66956C56.4191 4.66956 57.032 4.82006 57.5781 5.12109C58.1244 5.42212 58.5565 5.84141 58.8746 6.37898C59.1973 6.91653 59.3586 7.53579 59.3586 8.23678C59.3586 8.93774 59.1973 9.55701 58.8746 10.0946C58.5565 10.6321 58.1221 11.0536 57.5717 11.3589C57.0256 11.6642 56.4148 11.8169 55.7398 11.8169ZM55.7398 10.0752C56.0579 10.0752 56.3439 9.99781 56.5976 9.843C56.8515 9.68818 57.0512 9.47316 57.1976 9.19793C57.3437 8.9227 57.4168 8.60231 57.4168 8.23678C57.4168 7.88414 57.346 7.5702 57.204 7.29497C57.062 7.01974 56.8664 6.80472 56.6171 6.6499C56.3675 6.49079 56.0795 6.41123 55.7526 6.41123C55.4301 6.41123 55.1398 6.48864 54.8818 6.64345C54.6281 6.79398 54.4281 7.00685 54.2818 7.28208C54.1357 7.55731 54.0625 7.87554 54.0625 8.23678C54.0625 8.60231 54.1357 8.9227 54.2818 9.19793C54.4324 9.47316 54.6345 9.68818 54.8882 9.843C55.1418 9.99781 55.4258 10.0752 55.7398 10.0752Z" fill="#1E0059"/>
<path fill-rule="evenodd" clip-rule="evenodd" d="M47.6746 14.5262C47.0982 14.5262 46.5694 14.4552 46.0877 14.3133C45.6104 14.1757 45.234 14.0338 44.9588 13.8876L45.6297 12.2878C45.8705 12.434 46.1501 12.5587 46.4682 12.6619C46.7907 12.7694 47.1175 12.8232 47.4487 12.8232C47.7327 12.8232 48.0272 12.7759 48.3324 12.6813C48.6379 12.5867 48.898 12.4362 49.1129 12.2297C49.3281 12.0276 49.4356 11.761 49.4356 11.4299V10.759H49.4047C49.2785 10.8835 49.1425 10.9975 48.9969 11.1009C48.5368 11.4234 48.012 11.5847 47.423 11.5847C47.0574 11.5847 46.6941 11.5159 46.3329 11.3782C45.9716 11.2363 45.6425 11.0235 45.3457 10.7396C45.0533 10.4515 44.8191 10.0924 44.6427 9.66237C44.4664 9.23233 44.3783 8.72701 44.3783 8.14646C44.3783 7.37238 44.5288 6.72946 44.8297 6.2177C45.1352 5.70164 45.5265 5.3146 46.0038 5.05657C46.481 4.79426 46.9778 4.66309 47.4939 4.66309C48.0916 4.66309 48.6141 4.81575 49.0613 5.12109C49.2049 5.21815 49.3384 5.32568 49.4616 5.44361H49.5001V4.7663H51.3515V11.3138C51.3515 11.8427 51.2611 12.3071 51.0806 12.7071C50.8999 13.107 50.6439 13.4425 50.3129 13.7134C49.9861 13.9843 49.5989 14.1865 49.1517 14.3198C48.7044 14.4574 48.212 14.5262 47.6746 14.5262ZM47.926 9.92685C48.2356 9.92685 48.5088 9.84944 48.7453 9.69462C48.982 9.53981 49.1689 9.32478 49.3065 9.04955C49.4441 8.77001 49.5129 8.44749 49.5129 8.08194C49.5129 7.7121 49.4464 7.39602 49.3129 7.13371C49.1797 6.86708 48.9969 6.66279 48.7648 6.52088C48.5324 6.37896 48.2636 6.30802 47.9583 6.30802C47.6531 6.30802 47.3799 6.38111 47.1391 6.52733C46.8983 6.66926 46.709 6.87352 46.5714 7.14015C46.4382 7.40678 46.3714 7.7207 46.3714 8.08194C46.3714 8.44318 46.4382 8.76357 46.5714 9.04311C46.7047 9.31834 46.8875 9.53549 47.1198 9.69462C47.3519 9.84944 47.6207 9.92685 47.926 9.92685Z" fill="#1E0059"/>
<path fill-rule="evenodd" clip-rule="evenodd" d="M40.2416 11.8169C39.5749 11.8169 38.9664 11.6642 38.4159 11.3589C37.8698 11.0536 37.4334 10.6321 37.1065 10.0946C36.784 9.55701 36.6228 8.93774 36.6228 8.23678C36.6228 7.53579 36.784 6.91653 37.1065 6.37898C37.4334 5.84141 37.8698 5.42212 38.4159 5.12109C38.9664 4.82006 39.5749 4.66956 40.2416 4.66956C40.921 4.66956 41.5338 4.82006 42.0799 5.12109C42.6262 5.42212 43.0584 5.84141 43.3765 6.37898C43.6992 6.91653 43.8604 7.53579 43.8604 8.23678C43.8604 8.93774 43.6992 9.55701 43.3765 10.0946C43.0584 10.6321 42.6239 11.0536 42.0735 11.3589C41.5274 11.6642 40.9166 11.8169 40.2416 11.8169ZM40.2416 10.0752C40.5597 10.0752 40.8457 9.99781 41.0994 9.843C41.3533 9.68818 41.5531 9.47316 41.6994 9.19793C41.8455 8.9227 41.9187 8.60231 41.9187 8.23678C41.9187 7.88414 41.8478 7.5702 41.7058 7.29497C41.5639 7.01974 41.3682 6.80472 41.1189 6.6499C40.8694 6.49079 40.5813 6.41123 40.2545 6.41123C39.932 6.41123 39.6416 6.48864 39.3836 6.64345C39.1299 6.79398 38.9299 7.00685 38.7836 7.28208C38.6375 7.55731 38.5643 7.87554 38.5643 8.23678C38.5643 8.60231 38.6375 8.9227 38.7836 9.19793C38.9343 9.47316 39.1363 9.68818 39.39 9.843C39.6437 9.99781 39.9276 10.0752 40.2416 10.0752Z" fill="#1E0059"/>
<path d="M31.1119 11.7137V2.20538H33.2278V9.83009H36.653V11.7137H31.1119Z" fill="#1E0059"/>
<path fill-rule="evenodd" clip-rule="evenodd" d="M63.3451 15.1305V17.0376H63.2871C63.2029 16.9644 63.1148 16.8956 63.0224 16.8312C62.571 16.513 62.0506 16.3539 61.4614 16.3539C60.941 16.3539 60.4421 16.4893 59.9648 16.7602C59.4875 17.0312 59.1004 17.4333 58.8038 17.9665C58.507 18.4998 58.365 19.1642 58.3779 19.9598C58.3694 20.5618 58.451 21.0865 58.6231 21.5337C58.7951 21.9767 59.0274 22.3444 59.3198 22.6368C59.6123 22.9293 59.9391 23.1486 60.3004 23.2947C60.6616 23.441 61.027 23.5142 61.3969 23.5142C61.9818 23.5142 62.5063 23.3507 62.9708 23.0238C63.2036 22.8579 63.412 22.6644 63.5962 22.4433H63.6598C63.7082 22.5679 63.7815 22.6861 63.8804 22.7981C64.0137 22.9399 64.19 23.0711 64.4093 23.1915C64.6329 23.3078 64.904 23.4151 65.2221 23.5142L65.9382 21.8111C65.7403 21.738 65.5985 21.6499 65.5125 21.5467C65.4265 21.4435 65.3834 21.265 65.3834 21.0112V13.9657L63.3451 15.1305ZM62.6742 21.5725C62.4419 21.7273 62.1754 21.8068 61.8742 21.8111C61.5774 21.8068 61.313 21.7273 61.0809 21.5725C60.8485 21.4176 60.668 21.1983 60.5389 20.9145C60.4143 20.6307 60.354 20.2995 60.3584 19.9211C60.354 19.534 60.4185 19.2029 60.552 18.9277C60.6852 18.6482 60.868 18.4353 61.1001 18.2891C61.3366 18.1385 61.6077 18.0654 61.913 18.0697C62.201 18.0654 62.4591 18.1364 62.6871 18.2826C62.915 18.4288 63.0955 18.6417 63.2288 18.9212C63.3623 19.1965 63.4311 19.5297 63.4352 19.9211C63.4311 20.2995 63.3623 20.6307 63.2288 20.9145C63.0955 21.1983 62.9107 21.4176 62.6742 21.5725Z" fill="#AAAAAA"/>
<path d="M88.6495 23.411V16.47H90.6236V17.3795H90.6546C90.7092 17.2973 90.7699 17.2199 90.8365 17.1473C91.0773 16.8893 91.3654 16.6958 91.7009 16.5667C92.0362 16.4334 92.3954 16.3668 92.778 16.3668C93.2424 16.3668 93.6424 16.4743 93.978 16.6893C94.3133 16.9043 94.5713 17.1989 94.7521 17.573C94.9326 17.9472 95.0229 18.3794 95.0229 18.8696V23.411H92.9844V19.3147C92.9844 18.8976 92.8855 18.5858 92.6878 18.3794C92.4899 18.1686 92.2211 18.0633 91.8814 18.0633C91.6578 18.0633 91.4557 18.1127 91.275 18.2116C91.0945 18.3063 90.9505 18.4482 90.8429 18.6374C90.7397 18.8223 90.6881 19.0545 90.6881 19.3341V23.411H88.6495Z" fill="#AAAAAA"/>
<path fill-rule="evenodd" clip-rule="evenodd" d="M84.4597 23.5142C83.793 23.5142 83.1845 23.3615 82.634 23.0562C82.0879 22.7508 81.6515 22.3294 81.3246 21.7918C81.0022 21.2542 80.8407 20.635 80.8407 19.934C80.8407 19.233 81.0022 18.6138 81.3246 18.0762C81.6515 17.5386 82.0879 17.1193 82.634 16.8183C83.1845 16.5173 83.793 16.3668 84.4597 16.3668C85.1391 16.3668 85.7519 16.5173 86.298 16.8183C86.8441 17.1193 87.2765 17.5386 87.5946 18.0762C87.9173 18.6138 88.0785 19.233 88.0785 19.934C88.0785 20.635 87.9173 21.2542 87.5946 21.7918C87.2765 22.3294 86.8421 22.7508 86.2916 23.0562C85.7455 23.3615 85.1347 23.5142 84.4597 23.5142ZM84.4597 21.7724C84.7779 21.7724 85.0639 21.695 85.3175 21.5402C85.5712 21.3854 85.7712 21.1704 85.9175 20.8951C86.0636 20.6199 86.1368 20.2995 86.1368 19.934C86.1368 19.5813 86.0659 19.2674 85.924 18.9922C85.782 18.717 85.5863 18.5019 85.337 18.3471C85.0875 18.188 84.7994 18.1084 84.4726 18.1084C84.1501 18.1084 83.8597 18.1858 83.6017 18.3407C83.348 18.4912 83.148 18.7041 83.0017 18.9793C82.8556 19.2545 82.7824 19.5727 82.7824 19.934C82.7824 20.2995 82.8556 20.6199 83.0017 20.8951C83.1524 21.1704 83.3545 21.3854 83.6081 21.5402C83.8618 21.695 84.1457 21.7724 84.4597 21.7724Z" fill="#AAAAAA"/>
<path d="M78.2053 23.411V16.47H80.2436V23.411H78.2053Z" fill="#AAAAAA"/>
<path d="M78.3471 15.3153C78.5879 15.5561 78.8826 15.6766 79.231 15.6766C79.5792 15.6766 79.8716 15.5561 80.1083 15.3153C80.3491 15.0745 80.4696 14.7821 80.4696 14.438C80.4696 14.0854 80.3491 13.7908 80.1083 13.5543C79.8716 13.3135 79.5792 13.1931 79.231 13.1931C78.8826 13.1931 78.5879 13.3135 78.3471 13.5543C78.1062 13.7908 77.9858 14.0854 77.9858 14.438C77.9858 14.7821 78.1062 15.0745 78.3471 15.3153Z" fill="#AAAAAA"/>
<path d="M74.4602 22.8046C74.8774 23.2775 75.5138 23.5142 76.3696 23.5142C76.632 23.5142 76.89 23.4904 77.1437 23.4431C77.4017 23.3959 77.6276 23.325 77.8212 23.2303L77.1631 21.6241C77.09 21.6628 77.006 21.695 76.9115 21.7208C76.8168 21.7467 76.7203 21.7596 76.6212 21.7596C76.4106 21.7596 76.232 21.695 76.0859 21.566C75.9439 21.4327 75.873 21.2177 75.873 20.921V18.1601H77.4792V16.47H75.873V14.4703H73.8345V16.47H72.6735V18.1601H73.8345V20.9726C73.8345 21.7166 74.0432 22.3272 74.4602 22.8046Z" fill="#AAAAAA"/>
<path fill-rule="evenodd" clip-rule="evenodd" d="M67.3415 23.2303C67.6984 23.4195 68.1113 23.5142 68.5801 23.5142C69.1218 23.5142 69.5993 23.4066 70.0122 23.1915C70.3459 23.0195 70.5902 22.8281 70.745 22.6175H70.7764C70.8367 22.7207 70.9172 22.8239 71.0184 22.9271C71.2204 23.1335 71.5216 23.3034 71.9216 23.4367L72.1601 23.5142L72.8762 21.8111L72.7214 21.7595C72.5709 21.7122 72.4654 21.6284 72.4053 21.508C72.3493 21.3833 72.3214 21.2026 72.3214 20.9661V18.8761C72.3214 18.6266 72.2913 18.3579 72.2312 18.0697C72.1753 17.7773 72.0548 17.5042 71.87 17.2505C71.6849 16.9925 71.4012 16.7818 71.0184 16.6183C70.6356 16.4506 70.1195 16.3668 69.4702 16.3668C69.053 16.3668 68.6617 16.4012 68.2961 16.47C67.9349 16.5345 67.6124 16.6162 67.3287 16.7151C67.0491 16.814 66.8232 16.9129 66.6512 17.0118L67.3287 18.5471C67.4876 18.4439 67.6769 18.3536 67.8964 18.2762C68.1156 18.1944 68.3436 18.1321 68.5801 18.0891C68.8165 18.0418 69.0381 18.0181 69.2445 18.0181C69.425 18.0181 69.5863 18.0396 69.7282 18.0826C69.8702 18.1213 69.9906 18.1794 70.0895 18.2568C70.1883 18.3342 70.2615 18.4288 70.3087 18.5406C70.3603 18.6482 70.3863 18.7686 70.3863 18.9019V19.2502H69.0766C68.4746 19.2502 67.9585 19.3427 67.5285 19.5276C67.1028 19.7125 66.7759 19.9662 66.548 20.2888C66.3243 20.6113 66.2126 20.9811 66.2126 21.3983C66.2126 21.7939 66.3115 22.1509 66.5094 22.4691C66.7115 22.7873 66.9888 23.041 67.3415 23.2303ZM69.3218 20.5274H70.4831V20.9597C70.4831 21.2134 70.4012 21.4155 70.2379 21.566C70.0787 21.7165 69.8895 21.824 69.6702 21.8885C69.4509 21.953 69.2594 21.9853 69.0961 21.9853C68.9198 21.9853 68.7606 21.9574 68.6188 21.9014C68.4812 21.8412 68.3737 21.7595 68.2961 21.6563C68.2188 21.5488 68.1801 21.4198 68.1801 21.2693C68.1801 21.0155 68.2769 20.8285 68.4704 20.7081C68.6681 20.5877 68.9521 20.5274 69.3218 20.5274Z" fill="#AAAAAA"/>
<path d="M51.5365 23.411V16.47H53.5103V17.3795H53.5415C53.5961 17.2973 53.6567 17.2199 53.7234 17.1473C53.9642 16.8893 54.2523 16.6958 54.5876 16.5667C54.9232 16.4334 55.2821 16.3668 55.6649 16.3668C56.1294 16.3668 56.5294 16.4743 56.8647 16.6893C57.2003 16.9043 57.4583 17.1989 57.6388 17.573C57.8195 17.9472 57.9099 18.3794 57.9099 18.8696V23.411H55.8714V19.3147C55.8714 18.8976 55.7725 18.5858 55.5746 18.3794C55.3769 18.1686 55.1081 18.0633 54.7684 18.0633C54.5448 18.0633 54.3427 18.1127 54.162 18.2116C53.9815 18.3063 53.8372 18.4482 53.7298 18.6374C53.6266 18.8223 53.575 19.0545 53.575 19.3341V23.411H51.5365Z" fill="#AAAAAA"/>
<path d="M46.7402 23.5142C46.2627 23.5142 45.8285 23.4131 45.437 23.211C45.0457 23.0046 44.734 22.7035 44.5017 22.3078C44.2737 21.9079 44.1599 21.4155 44.1599 20.8306V16.47H46.1982V20.5597C46.1982 20.9596 46.3014 21.265 46.5078 21.4757C46.7186 21.6821 46.9744 21.7853 47.2755 21.7853C47.4991 21.7853 47.6948 21.7359 47.8624 21.637C48.0345 21.5381 48.1679 21.3983 48.2624 21.2177C48.3613 21.0327 48.4108 20.8134 48.4108 20.5597V16.47H50.4491V20.979C50.4491 21.2284 50.4858 21.4091 50.559 21.5209C50.6319 21.6327 50.7803 21.7294 51.0039 21.8111L50.2815 23.5142C49.7698 23.3807 49.3957 23.2066 49.159 22.9915C49.04 22.8833 48.9496 22.7586 48.8884 22.6175H48.8365C48.6565 22.7986 48.4565 22.9599 48.2367 23.1014C47.8023 23.3766 47.3035 23.5142 46.7402 23.5142Z" fill="#AAAAAA"/>
<path fill-rule="evenodd" clip-rule="evenodd" d="M40.015 23.5142C39.3483 23.5142 38.7398 23.3615 38.1893 23.0562C37.6432 22.7508 37.2068 22.3294 36.8799 21.7918C36.5575 21.2542 36.396 20.635 36.396 19.934C36.396 19.233 36.5575 18.6138 36.8799 18.0762C37.2068 17.5386 37.6432 17.1193 38.1893 16.8183C38.7398 16.5173 39.3483 16.3668 40.015 16.3668C40.6944 16.3668 41.3072 16.5173 41.8533 16.8183C42.3994 17.1193 42.8318 17.5386 43.1499 18.0762C43.4726 18.6138 43.6338 19.233 43.6338 19.934C43.6338 20.635 43.4726 21.2542 43.1499 21.7918C42.8318 22.3294 42.3974 22.7508 41.8469 23.0562C41.3008 23.3615 40.69 23.5142 40.015 23.5142ZM40.015 21.7724C40.3332 21.7724 40.6192 21.695 40.8728 21.5402C41.1265 21.3854 41.3265 21.1704 41.4728 20.8951C41.6189 20.6199 41.6921 20.2995 41.6921 19.934C41.6921 19.5813 41.6212 19.2674 41.4793 18.9922C41.3373 18.717 41.1416 18.5019 40.8923 18.3471C40.6428 18.188 40.3547 18.1084 40.0279 18.1084C39.7054 18.1084 39.415 18.1858 39.157 18.3407C38.9033 18.4912 38.7033 18.7041 38.557 18.9793C38.4109 19.2545 38.3377 19.5727 38.3377 19.934C38.3377 20.2995 38.4109 20.6199 38.557 20.8951C38.7077 21.1704 38.9098 21.3854 39.1634 21.5402C39.4171 21.695 39.701 21.7724 40.015 21.7724Z" fill="#AAAAAA"/>
<path d="M31.0964 23.411V13.9026H36.6375V15.7862H33.2123V17.973H36.0634V19.8566H33.2123V23.411H31.0964Z" fill="#AAAAAA"/>
<path d="M26.3451 11.5875H23.0756C23.0742 11.7542 22.9763 11.9049 22.8261 11.9798L20.7195 13.0302C20.5693 13.105 20.4735 13.2557 20.4617 13.4224H23.7311C23.7416 13.2557 23.8377 13.105 23.988 13.0302L26.0946 11.9798C26.2446 11.9049 26.3423 11.7542 26.3451 11.5875Z" fill="#FF6670"/>
<path d="M0.205078 13.4224H3.4746C3.47602 13.2557 3.57389 13.105 3.72407 13.0302L5.8307 11.9798C5.9809 11.9049 6.07675 11.7542 6.08854 11.5875H2.81902C2.80868 11.7542 2.71253 11.9049 2.56235 11.9798L0.455725 13.0302C0.305535 13.105 0.207955 13.2557 0.205078 13.4224Z" fill="#FF6670"/>
<path d="M8.05086 11.5875C8.03753 11.7541 7.94196 11.9049 7.79175 11.9798L5.68512 13.0302C5.53492 13.105 5.43675 13.2558 5.43689 13.4224H8.71067C8.70373 13.2561 8.8032 13.1051 8.95347 13.0302L11.0601 11.9798C11.2104 11.9048 11.3047 11.7538 11.3247 11.5875H8.05086Z" fill="#FF6670"/>
<path d="M17.8396 11.5875C17.8465 11.7538 17.747 11.9048 17.5968 11.9798L15.4901 13.0302C15.3399 13.1051 15.2456 13.2561 15.2256 13.4224H18.4994C18.5127 13.2558 18.6083 13.105 18.7585 13.0302L20.8651 11.9798C21.0153 11.9049 21.1135 11.7541 21.1133 11.5875H17.8396Z" fill="#FF6670"/>
</g>
<defs>
<clipPath id="clip0_195_29360">
<rect width="95.1835" height="25" fill="white"/>
</clipPath>
</defs>
</svg>
