<svg width="16" height="17" viewBox="0 0 16 17" fill="none" xmlns="http://www.w3.org/2000/svg">
<g clip-path="url(#clip0_195_27899)">
<path d="M7.83618 4.68208C5.70671 4.68208 3.98908 6.3854 3.98908 8.49711C3.98908 10.6088 5.70671 12.3122 7.83618 12.3122C9.96564 12.3122 11.6833 10.6088 11.6833 8.49711C11.6833 6.3854 9.96564 4.68208 7.83618 4.68208ZM7.83618 10.9774C6.46006 10.9774 5.33506 9.86508 5.33506 8.49711C5.33506 7.12915 6.45671 6.01684 7.83618 6.01684C9.21564 6.01684 10.3373 7.12915 10.3373 8.49711C10.3373 9.86508 9.21229 10.9774 7.83618 10.9774ZM12.738 4.52602C12.738 5.02075 12.3362 5.41587 11.8406 5.41587C11.3418 5.41587 10.9433 5.01743 10.9433 4.52602C10.9433 4.03462 11.3451 3.63618 11.8406 3.63618C12.3362 3.63618 12.738 4.03462 12.738 4.52602ZM15.2859 5.42915C15.229 4.23716 14.9545 3.1813 14.0739 2.31138C13.1967 1.44145 12.1319 1.16919 10.9299 1.10942C9.69109 1.0397 5.97792 1.0397 4.73908 1.10942C3.54042 1.16587 2.47569 1.43813 1.59511 2.30806C0.71453 3.17798 0.443324 4.23384 0.383057 5.42583C0.312744 6.65434 0.312744 10.3366 0.383057 11.5651C0.439976 12.7571 0.71453 13.8129 1.59511 14.6829C2.47569 15.5528 3.53707 15.825 4.73908 15.8848C5.97792 15.9545 9.69109 15.9545 10.9299 15.8848C12.1319 15.8284 13.1967 15.5561 14.0739 14.6829C14.9511 13.8129 15.2257 12.7571 15.2859 11.5651C15.3563 10.3366 15.3563 6.65766 15.2859 5.42915ZM13.6855 12.8832C13.4243 13.534 12.9188 14.0354 12.2592 14.2977C11.2714 14.6862 8.92769 14.5965 7.83618 14.5965C6.74466 14.5965 4.39756 14.6829 3.41319 14.2977C2.75694 14.0387 2.25136 13.5373 1.98685 12.8832C1.59511 11.9038 1.68551 9.57954 1.68551 8.49711C1.68551 7.41469 1.59846 5.08716 1.98685 4.11098C2.24801 3.4602 2.75359 2.95884 3.41319 2.69653C4.40091 2.30806 6.74466 2.3977 7.83618 2.3977C8.92769 2.3977 11.2748 2.31138 12.2592 2.69653C12.9154 2.95552 13.421 3.45688 13.6855 4.11098C14.0772 5.09048 13.9868 7.41469 13.9868 8.49711C13.9868 9.57954 14.0772 11.9071 13.6855 12.8832Z" fill="white"/>
</g>
<defs>
<clipPath id="clip0_195_27899">
<rect width="15" height="17" fill="white" transform="translate(0.333008)"/>
</clipPath>
</defs>
</svg>
