<svg width="64" height="64" viewBox="0 0 64 64" fill="none" xmlns="http://www.w3.org/2000/svg">
<rect width="64" height="64" rx="12" fill="white"/>
<g clip-path="url(#clip0_320_5817)">
<path d="M29.1397 19.8599L30.9996 18L44.9996 32L30.9996 46L29.1396 44.14L41.2797 32L29.1397 19.8599Z" fill="#8067F6"/>
<path opacity="0.3" d="M26.7119 22.2877L28.5718 20.4277L40.1438 31.9997L28.5718 43.5717L26.7119 41.7118L36.4239 31.9997L26.7119 22.2877Z" fill="#8067F6"/>
<path d="M17 32.0004L26.144 22.8564L35.2879 32.0004L26.144 41.1444L24.2841 39.2845L31.5681 32.0004L26.144 26.5763L18.8599 33.8603L17 32.0004Z" fill="#8067F6"/>
<path opacity="0.3" d="M26.1444 27.7119L24.2845 29.5718L26.7125 31.9998L21.8564 36.8559L23.7164 38.7158L30.4324 31.9998L26.1444 27.7119Z" fill="#8067F6"/>
<path d="M21.2877 36.2875L19.4277 34.4276L23.6962 30.1592L25.5562 32.0191L21.2877 36.2875Z" fill="#8067F6"/>
</g>
<defs>
<clipPath id="clip0_320_5817">
<rect width="28" height="28" fill="white" transform="translate(17 18)"/>
</clipPath>
</defs>
</svg>
