<svg width="33" height="33" viewBox="0 0 33 33" fill="none" xmlns="http://www.w3.org/2000/svg">
<rect x="0.439453" y="0.0322266" width="32.2065" height="32.2065" rx="6.03871" fill="white"/>
<path fill-rule="evenodd" clip-rule="evenodd" d="M14.7848 15.822C14.7848 14.7709 15.6339 13.9189 16.6813 13.9189V12.6501C14.9356 12.6501 13.5205 14.0703 13.5205 15.822C13.5205 17.5737 14.9356 18.9939 16.6813 18.9939V17.7251C15.6339 17.7251 14.7848 16.8731 14.7848 15.822Z" fill="#8067F6"/>
<path fill-rule="evenodd" clip-rule="evenodd" d="M12.8893 15.822C12.8893 13.7199 14.5874 12.0158 16.6822 12.0158V10.7471C13.8892 10.7471 11.625 13.0192 11.625 15.822C11.625 18.6249 13.8892 20.897 16.6822 20.897C19.4753 20.897 21.7394 18.6249 21.7394 15.822H20.4751C20.4751 17.9241 18.777 19.6282 16.6822 19.6282C14.5874 19.6282 12.8893 17.9241 12.8893 15.822Z" fill="#8067F6"/>
<path fill-rule="evenodd" clip-rule="evenodd" d="M10.9909 15.8221C10.9909 12.6689 13.538 10.1127 16.6802 10.1127V8.84399C12.8398 8.84399 9.72656 11.9682 9.72656 15.8221C9.72656 19.6759 12.8398 22.8001 16.6802 22.8001C20.5207 22.8001 23.6339 19.6759 23.6339 15.8221C23.6339 14.5611 23.3 13.3765 22.7158 12.3544L21.6191 12.9857C22.0964 13.8208 22.3696 14.7884 22.3696 15.8221C22.3696 18.9753 19.8224 21.5314 16.6802 21.5314C13.538 21.5314 10.9909 18.9753 10.9909 15.8221Z" fill="#8067F6"/>
<path d="M16.6807 18.994C18.4266 18.994 19.8419 17.5737 19.8419 15.8217C19.8419 14.0697 18.4266 12.6494 16.6807 12.6494V18.994Z" fill="#8067F6"/>
</svg>
