<svg width="32" height="32" viewBox="0 0 32 32" fill="none" xmlns="http://www.w3.org/2000/svg">
<path opacity="0.2" d="M3.3335 16C3.3335 10.0289 3.3335 7.04335 5.18849 5.18836C7.04348 3.33337 10.029 3.33337 16.0002 3.33337C21.9713 3.33337 24.9568 3.33337 26.8118 5.18836C28.6668 7.04335 28.6668 10.0289 28.6668 16C28.6668 21.9712 28.6668 24.9567 26.8118 26.8117C24.9568 28.6667 21.9713 28.6667 16.0002 28.6667C10.029 28.6667 7.04348 28.6667 5.18849 26.8117C3.3335 24.9567 3.3335 21.9712 3.3335 16Z" fill="#8067F6"/>
<path d="M3.3335 16C3.3335 10.0289 3.3335 7.04335 5.18849 5.18836C7.04348 3.33337 10.029 3.33337 16.0002 3.33337C21.9713 3.33337 24.9568 3.33337 26.8118 5.18836C28.6668 7.04335 28.6668 10.0289 28.6668 16C28.6668 21.9712 28.6668 24.9567 26.8118 26.8117C24.9568 28.6667 21.9713 28.6667 16.0002 28.6667C10.029 28.6667 7.04348 28.6667 5.18849 26.8117C3.3335 24.9567 3.3335 21.9712 3.3335 16Z" stroke="#8067F6" stroke-width="1.5"/>
<path d="M15.9998 21.3334L15.9998 10.6667M15.9998 21.3334C15.0662 21.3334 13.3219 18.6743 12.6665 18M15.9998 21.3334C16.9335 21.3334 18.6778 18.6743 19.3332 18" stroke="#8067F6" stroke-width="1.5" stroke-linecap="round" stroke-linejoin="round"/>
</svg>
