<svg width="33" height="33" viewBox="0 0 33 33" fill="none" xmlns="http://www.w3.org/2000/svg">
<rect x="0.251953" y="0.0322266" width="32.2065" height="32.2065" rx="6.03871" fill="white"/>
<path fill-rule="evenodd" clip-rule="evenodd" d="M13.6604 15.91C12.8542 15.1975 11.7307 14.9384 10.4674 14.9384V11.7869C12.0764 11.7869 14.1123 12.1032 15.7476 13.5489C16.183 13.9337 16.5689 14.3796 16.9017 14.8895V11.7869C18.5107 11.7869 20.5466 12.1032 22.1819 13.5489C23.8527 15.0258 24.7964 17.4016 24.7964 20.8442H21.6449C21.6449 17.9562 20.8653 16.5913 20.0946 15.91C19.2953 15.2035 18.1838 14.9427 16.9334 14.9384C17.8577 16.3806 18.3621 18.3273 18.3621 20.8442H15.2106C15.2106 17.9562 14.4309 16.5913 13.6604 15.91ZM10.5161 16.8127C10.4937 16.7988 10.476 16.7879 10.4661 16.7816C10.4562 16.7879 10.4385 16.7988 10.4161 16.8127C10.3343 16.8635 10.1896 16.9532 10.1279 16.9965C9.97111 17.1066 9.76158 17.2667 9.55149 17.4667C9.13726 17.861 8.69336 18.4365 8.69336 19.1069C8.69336 20.0671 9.48704 20.8456 10.4661 20.8456C11.4451 20.8456 12.2388 20.0671 12.2388 19.1069C12.2388 18.4365 11.7949 17.861 11.3807 17.4667C11.1706 17.2667 10.9611 17.1066 10.8043 16.9965C10.7426 16.9532 10.5979 16.8635 10.5161 16.8127Z" fill="#8067F6"/>
</svg>
