<svg width="33" height="33" viewBox="0 0 33 33" fill="none" xmlns="http://www.w3.org/2000/svg">
<rect x="0.44043" y="0.0322266" width="32.2065" height="32.2065" rx="6.03871" fill="white"/>
<path fill-rule="evenodd" clip-rule="evenodd" d="M20.1844 13.4163C21.7995 15.3572 21.5774 18.1904 19.7355 19.7488C18.9825 20.3858 18.0731 20.7162 17.1484 20.7537C16.8364 20.7663 16.5938 21.0315 16.6063 21.3461C16.6188 21.6607 16.8819 21.9054 17.1938 21.8928C18.357 21.8456 19.5089 21.4286 20.4622 20.6221C22.8053 18.6396 23.0475 15.0834 21.0504 12.6836C19.0534 10.2838 15.5381 9.90671 13.195 11.8892C12.2418 12.6957 11.6345 13.7672 11.3864 14.9141C11.3199 15.2217 11.5132 15.5254 11.8183 15.5924C12.1233 15.6595 12.4245 15.4646 12.491 15.157C12.6882 14.2452 13.1688 13.3995 13.9217 12.7625C15.7636 11.2041 18.5692 11.4754 20.1844 13.4163ZM17.7643 17.5371C18.3622 17.0312 18.4402 16.1324 17.9385 15.5295C17.4368 14.9266 16.5454 14.848 15.9475 15.3539C15.3496 15.8597 15.2716 16.7586 15.7733 17.3615C16.275 17.9643 17.1664 18.043 17.7643 17.5371ZM18.2579 18.1403C19.1789 17.4212 19.35 16.0246 18.572 15.0114C17.794 13.9983 16.4101 13.8157 15.4892 14.5349C15.0636 14.8672 14.8003 15.338 14.7138 15.8516C14.7152 15.8785 14.7147 15.9059 14.7122 15.9335C14.6836 16.247 14.4085 16.4778 14.0976 16.449C13.578 16.401 13.0542 16.5396 12.6245 16.8751C11.7035 17.5942 11.5324 18.9908 12.3104 20.0039C13.0885 21.017 14.4722 21.1996 15.3932 20.4805C15.8189 20.1482 16.0821 19.6773 16.1686 19.1637C16.1672 19.1368 16.1677 19.1095 16.1702 19.0818C16.1988 18.7683 16.4739 18.5375 16.7848 18.5663C17.3044 18.6144 17.8282 18.4758 18.2579 18.1403ZM17.2039 19.7081C17.8199 19.6666 18.4284 19.449 18.9501 19.0416C20.3988 17.9105 20.5993 15.7894 19.4659 14.3135C18.3325 12.8376 16.2457 12.5024 14.797 13.6335C14.2355 14.0719 13.86 14.6634 13.6785 15.3072C13.0625 15.3488 12.454 15.5663 11.9323 15.9737C10.4835 17.1049 10.2831 19.226 11.4165 20.7018C12.5499 22.1778 14.6367 22.513 16.0854 21.3818C16.6469 20.9435 17.0224 20.352 17.2039 19.7081Z" fill="#8067F6"/>
</svg>
