<svg width="72" height="48" viewBox="0 0 72 48" fill="none" xmlns="http://www.w3.org/2000/svg">
<path d="M22.1538 0H0V23.04H22.1538V0Z" fill="#1E0059"/>
<path d="M36.0001 23.04C42.1177 23.04 47.0769 17.8823 47.0769 11.52C47.0769 5.15768 42.1177 0 36.0001 0C29.8824 0 24.9231 5.15768 24.9231 11.52C24.9231 17.8823 29.8824 23.04 36.0001 23.04Z" fill="#1E0059"/>
<path d="M60.9231 23.04C67.0408 23.04 72 17.8823 72 11.52C72 5.15768 67.0408 0 60.9231 0C54.8055 0 49.8462 5.15768 49.8462 11.52C49.8462 17.8823 54.8055 23.04 60.9231 23.04Z" fill="#1E0059"/>
<path d="M9.35223 35.9722C9.27869 35.2793 8.96879 34.7398 8.42252 34.3537C7.8815 33.9676 7.17766 33.7745 6.31098 33.7745C5.70168 33.7745 5.17905 33.8671 4.74308 34.0522C4.30712 34.2374 3.97358 34.4886 3.74247 34.806C3.51135 35.1233 3.39317 35.4856 3.38792 35.8929C3.38792 36.2314 3.46408 36.525 3.6164 36.7736C3.77398 37.0221 3.98671 37.2337 4.25459 37.4083C4.52247 37.5775 4.81925 37.7203 5.14491 37.8367C5.47057 37.9531 5.79885 38.0509 6.12977 38.1302L7.64251 38.5111C8.25181 38.6539 8.83747 38.8469 9.3995 39.0902C9.96678 39.3336 10.4737 39.6403 10.9201 40.0106C11.3718 40.3808 11.729 40.8278 11.9916 41.3514C12.2543 41.875 12.3856 42.4886 12.3856 43.1921C12.3856 44.1441 12.144 44.9825 11.6607 45.7071C11.1775 46.4264 10.4789 46.9897 9.56495 47.397C8.65626 47.799 7.55584 48 6.26371 48C5.00834 48 3.91843 47.8043 2.99397 47.4129C2.07477 47.0215 1.35517 46.4502 0.835161 45.6992C0.320408 44.9481 0.0420207 44.0331 0 42.954H2.87579C2.91781 43.52 3.09115 43.9907 3.3958 44.3663C3.70045 44.7418 4.09702 45.0221 4.58551 45.2073C5.07925 45.3924 5.63077 45.485 6.24007 45.485C6.87563 45.485 7.43241 45.3898 7.91039 45.1993C8.39363 45.0036 8.77181 44.7339 9.04495 44.3901C9.31808 44.041 9.45728 43.6337 9.46253 43.1683C9.45728 42.7451 9.33384 42.396 9.09222 42.121C8.8506 41.8407 8.51181 41.6079 8.07585 41.4228C7.64514 41.2324 7.14089 41.0631 6.5631 40.915L4.72733 40.439C3.39842 40.0952 2.3479 39.5742 1.57578 38.876C0.808898 38.1726 0.425459 37.239 0.425459 36.0754C0.425459 35.118 0.682836 34.2797 1.19759 33.5603C1.71759 32.841 2.42407 32.283 3.31701 31.8863C4.20995 31.4843 5.22107 31.2833 6.35037 31.2833C7.49544 31.2833 8.49868 31.4843 9.3601 31.8863C10.2268 32.283 10.907 32.8357 11.4007 33.5445C11.8945 34.2479 12.1492 35.0572 12.165 35.9722H9.35223Z" fill="#1E0059"/>
<path d="M13.978 47.754V35.5676H16.8301V47.754H13.978ZM15.4119 33.838C14.9602 33.838 14.5715 33.6873 14.2459 33.3858C13.9202 33.079 13.7574 32.7114 13.7574 32.283C13.7574 31.8493 13.9202 31.4817 14.2459 31.1802C14.5715 30.8734 14.9602 30.72 15.4119 30.72C15.8689 30.72 16.2576 30.8734 16.578 31.1802C16.9037 31.4817 17.0665 31.8493 17.0665 32.283C17.0665 32.7114 16.9037 33.079 16.578 33.3858C16.2576 33.6873 15.8689 33.838 15.4119 33.838Z" fill="#1E0059"/>
<path d="M21.7277 40.6136V47.754H18.8756V35.5676H21.6017V37.6383H21.7435C22.0219 36.956 22.4657 36.4139 23.075 36.0119C23.6896 35.6099 24.4486 35.4089 25.352 35.4089C26.1872 35.4089 26.9147 35.5888 27.5345 35.9484C28.1595 36.3081 28.6428 36.8291 28.9842 37.5114C29.3308 38.1937 29.5016 39.0215 29.4963 39.9947V47.754H26.6442V40.439C26.6442 39.6245 26.434 38.9871 26.0138 38.5269C25.5989 38.0668 25.0237 37.8367 24.2884 37.8367C23.7894 37.8367 23.3455 37.9478 22.9568 38.1699C22.5734 38.3868 22.2714 38.7015 22.0508 39.114C21.8354 39.5266 21.7277 40.0264 21.7277 40.6136Z" fill="#1E0059"/>
<path d="M36.7871 47.9921C35.579 47.9921 34.5416 47.725 33.6749 47.1907C32.8135 46.6565 32.1491 45.9187 31.6816 44.9772C31.2194 44.0304 30.9882 42.9408 30.9882 41.7084C30.9882 40.4707 31.2246 39.3785 31.6973 38.4317C32.1701 37.4797 32.8372 36.7392 33.6986 36.2102C34.5653 35.676 35.5895 35.4089 36.7713 35.4089C37.7536 35.4089 38.6229 35.5914 39.3792 35.9564C40.1409 36.316 40.7475 36.8264 41.1993 37.4876C41.651 38.1435 41.9084 38.9104 41.9714 39.7884H39.2453C39.135 39.2013 38.8724 38.7121 38.4574 38.3207C38.0477 37.924 37.4988 37.7256 36.8107 37.7256C36.2277 37.7256 35.7156 37.8843 35.2744 38.2017C34.8331 38.5137 34.4891 38.9633 34.2422 39.5504C34.0006 40.1375 33.8798 40.841 33.8798 41.6608C33.8798 42.4912 34.0006 43.2053 34.2422 43.803C34.4838 44.3954 34.8226 44.8529 35.2586 45.1755C35.6998 45.4929 36.2172 45.6516 36.8107 45.6516C37.2309 45.6516 37.6065 45.5722 37.9374 45.4136C38.2736 45.2496 38.5546 45.0142 38.7805 44.7074C39.0063 44.4007 39.1613 44.0278 39.2453 43.5888H41.9714C41.9031 44.4509 41.651 45.2152 41.215 45.8817C40.7791 46.5428 40.1855 47.0612 39.4344 47.4367C38.6833 47.8069 37.8008 47.9921 36.7871 47.9921Z" fill="#1E0059"/>
<path d="M43.4259 47.754V35.5676H46.1914V37.5987H46.3175C46.5381 36.8952 46.9163 36.3531 47.452 35.9722C47.993 35.5861 48.6102 35.3931 49.3036 35.3931C49.4611 35.3931 49.6371 35.401 49.8314 35.4169C50.031 35.4274 50.1965 35.4459 50.3278 35.4724V38.1144C50.207 38.0721 50.0153 38.035 49.7527 38.0033C49.4953 37.9663 49.2458 37.9478 49.0042 37.9478C48.4842 37.9478 48.0167 38.0615 47.6017 38.2889C47.192 38.5111 46.869 38.8205 46.6326 39.2172C46.3963 39.6139 46.2781 40.0714 46.2781 40.5897V47.754H43.4259Z" fill="#1E0059"/>
<path d="M54.601 48C53.8341 48 53.1434 47.8625 52.5289 47.5874C51.9196 47.3071 51.4363 46.8945 51.0791 46.3498C50.7272 45.805 50.5513 45.1332 50.5513 44.3345C50.5513 43.6469 50.6773 43.0783 50.9294 42.6288C51.1816 42.1792 51.5256 41.8195 51.9616 41.5498C52.3975 41.28 52.8887 41.0764 53.4349 40.9388C53.9864 40.796 54.5564 40.6929 55.1446 40.6294C55.8537 40.5554 56.4289 40.4893 56.8701 40.4311C57.3113 40.3676 57.6317 40.2724 57.8313 40.1455C58.0362 40.0132 58.1386 39.8096 58.1386 39.5345V39.4869C58.1386 38.8893 57.9627 38.4264 57.6107 38.0985C57.2588 37.7706 56.7519 37.6066 56.0901 37.6066C55.3915 37.6066 54.8374 37.76 54.4277 38.0668C54.0232 38.3736 53.7501 38.7359 53.6083 39.1537L50.9452 38.7729C51.1553 38.0324 51.502 37.4136 51.9852 36.9164C52.4685 36.4139 53.0594 36.0383 53.758 35.7897C54.4566 35.5359 55.2287 35.4089 56.0743 35.4089C56.6574 35.4089 57.2378 35.4777 57.8156 35.6152C58.3934 35.7527 58.9212 35.9802 59.3992 36.2975C59.8772 36.6096 60.2607 37.0354 60.5496 37.5749C60.8437 38.1144 60.9908 38.7888 60.9908 39.598V47.754H58.2489V46.08H58.1544C57.981 46.4185 57.7368 46.7359 57.4216 47.0321C57.1117 47.323 56.7204 47.5583 56.2477 47.7382C55.7802 47.9127 55.2313 48 54.601 48ZM55.3416 45.8896C55.9141 45.8896 56.4105 45.7759 56.8307 45.5484C57.2509 45.3157 57.574 45.0089 57.7998 44.6281C58.0309 44.2473 58.1465 43.8321 58.1465 43.3825V41.9464C58.0572 42.0205 57.9049 42.0893 57.6895 42.1527C57.4794 42.2162 57.2431 42.2717 56.9804 42.3193C56.7178 42.3669 56.4578 42.4093 56.2004 42.4463C55.943 42.4833 55.7198 42.515 55.5307 42.5415C55.1052 42.5997 54.7244 42.6949 54.3883 42.8271C54.0521 42.9593 53.7868 43.1445 53.5925 43.3825C53.3982 43.6152 53.301 43.9167 53.301 44.2869C53.301 44.8159 53.4927 45.2152 53.8761 45.485C54.2596 45.7547 54.7481 45.8896 55.3416 45.8896Z" fill="#1E0059"/>
<path d="M64.7282 47.9286C64.2502 47.9286 63.8405 47.7593 63.4991 47.4208C63.1577 47.0823 62.9896 46.6698 62.9948 46.1831C62.9896 45.7071 63.1577 45.2998 63.4991 44.9613C63.8405 44.6228 64.2502 44.4536 64.7282 44.4536C65.1904 44.4536 65.5922 44.6228 65.9337 44.9613C66.2803 45.2998 66.4563 45.7071 66.4615 46.1831C66.4563 46.5058 66.3723 46.7993 66.2094 47.0638C66.0518 47.3283 65.8417 47.5398 65.5791 47.6985C65.3217 47.8519 65.0381 47.9286 64.7282 47.9286Z" fill="#1E0059"/>
</svg>
