<svg width="63" height="42" viewBox="0 0 63 42" fill="none" xmlns="http://www.w3.org/2000/svg">
<path d="M19.3846 0H0V20.16H19.3846V0Z" fill="#1E0059"/>
<path d="M31.5 20.16C36.853 20.16 41.1923 15.647 41.1923 10.08C41.1923 4.51297 36.853 0 31.5 0C26.1471 0 21.8077 4.51297 21.8077 10.08C21.8077 15.647 26.1471 20.16 31.5 20.16Z" fill="#1E0059"/>
<path d="M53.3077 20.16C58.6607 20.16 63 15.647 63 10.08C63 4.51297 58.6607 0 53.3077 0C47.9548 0 43.6154 4.51297 43.6154 10.08C43.6154 15.647 47.9548 20.16 53.3077 20.16Z" fill="#1E0059"/>
<path d="M8.1832 31.4757C8.11885 30.8694 7.84769 30.3974 7.3697 30.0595C6.89631 29.7217 6.28045 29.5527 5.52211 29.5527C4.98897 29.5527 4.53167 29.6337 4.1502 29.7957C3.76873 29.9577 3.47688 30.1775 3.27466 30.4552C3.07243 30.7329 2.96902 31.0499 2.96443 31.4063C2.96443 31.7025 3.03107 31.9593 3.16435 32.1769C3.30223 32.3944 3.48837 32.5795 3.72277 32.7322C3.95717 32.8803 4.21684 33.0053 4.50179 33.1071C4.78675 33.2089 5.074 33.2945 5.36354 33.364L6.6872 33.6972C7.22033 33.8221 7.73279 33.9911 8.22456 34.204C8.72093 34.4169 9.16444 34.6853 9.55511 35.0093C9.95036 35.3332 10.2629 35.7243 10.4927 36.1825C10.7225 36.6407 10.8374 37.1775 10.8374 37.7931C10.8374 38.6261 10.626 39.3597 10.2031 39.9937C9.78031 40.6231 9.16904 41.116 8.36933 41.4724C7.57422 41.8241 6.61136 42 5.48074 42C4.3823 42 3.42862 41.8288 2.61973 41.4863C1.81542 41.1438 1.18577 40.644 0.730766 39.9868C0.280357 39.3296 0.0367681 38.5289 0 37.5848H2.51632C2.55308 38.08 2.70475 38.4919 2.97132 38.8205C3.23789 39.1491 3.58489 39.3944 4.01232 39.5564C4.44434 39.7183 4.92692 39.7993 5.46006 39.7993C6.01618 39.7993 6.50336 39.716 6.92159 39.5494C7.34442 39.3782 7.67534 39.1422 7.91433 38.8413C8.15332 38.5359 8.27512 38.1795 8.27971 37.7722C8.27512 37.402 8.16711 37.0965 7.95569 36.8559C7.74428 36.6106 7.44783 36.4069 7.06637 36.245C6.68949 36.0783 6.24828 35.9302 5.74271 35.8007L4.13641 35.3841C2.97362 35.0833 2.05442 34.6274 1.3788 34.0165C0.707786 33.401 0.372277 32.5841 0.372277 31.5659C0.372277 30.7283 0.597481 29.9947 1.04789 29.3653C1.5029 28.7359 2.12106 28.2476 2.90238 27.9005C3.6837 27.5488 4.56843 27.3729 5.55658 27.3729C6.55851 27.3729 7.43634 27.5488 8.19009 27.9005C8.94843 28.2476 9.54362 28.7312 9.97564 29.3514C10.4077 29.9669 10.6306 30.675 10.6444 31.4757H8.1832Z" fill="#1E0059"/>
<path d="M12.2307 41.7848V31.1217H14.7264V41.7848H12.2307ZM13.4855 29.6083C13.0902 29.6083 12.7501 29.4764 12.4651 29.2126C12.1802 28.9441 12.0377 28.6225 12.0377 28.2476C12.0377 27.8681 12.1802 27.5464 12.4651 27.2826C12.7501 27.0142 13.0902 26.88 13.4855 26.88C13.8853 26.88 14.2254 27.0142 14.5058 27.2826C14.7907 27.5464 14.9332 27.8681 14.9332 28.2476C14.9332 28.6225 14.7907 28.9441 14.5058 29.2126C14.2254 29.4764 13.8853 29.6083 13.4855 29.6083Z" fill="#1E0059"/>
<path d="M19.0118 35.5369V41.7848H16.5161V31.1217H18.9015V32.9336H19.0256C19.2691 32.3365 19.6575 31.8621 20.1906 31.5104C20.7284 31.1587 21.3925 30.9828 22.183 30.9828C22.9138 30.9828 23.5503 31.1402 24.0927 31.4549C24.6396 31.7696 25.0624 32.2255 25.3612 32.8225C25.6645 33.4195 25.8139 34.1438 25.8093 34.9954V41.7848H23.3136V35.3841C23.3136 34.6714 23.1298 34.1137 22.7621 33.7111C22.399 33.3084 21.8958 33.1071 21.2523 33.1071C20.8157 33.1071 20.4273 33.2043 20.0872 33.3987C19.7517 33.5884 19.4874 33.8638 19.2944 34.2248C19.106 34.5858 19.0118 35.0231 19.0118 35.5369Z" fill="#1E0059"/>
<path d="M32.1887 41.9931C31.1316 41.9931 30.2239 41.7593 29.4656 41.2919C28.7118 40.8245 28.1304 40.1788 27.7214 39.355C27.3169 38.5266 27.1147 37.5732 27.1147 36.4949C27.1147 35.4119 27.3215 34.4562 27.7352 33.6278C28.1488 32.7947 28.7325 32.1468 29.4863 31.684C30.2446 31.2165 31.1408 30.9828 32.1749 30.9828C33.0344 30.9828 33.795 31.1425 34.4568 31.4618C35.1233 31.7765 35.6541 32.2231 36.0494 32.8017C36.4446 33.3755 36.6698 34.0466 36.725 34.8149H34.3396C34.2431 34.3012 34.0133 33.8731 33.6502 33.5306C33.2917 33.1835 32.8115 33.0099 32.2094 33.0099C31.6992 33.0099 31.2511 33.1488 30.8651 33.4264C30.479 33.6995 30.178 34.0929 29.9619 34.6066C29.7505 35.1203 29.6448 35.7359 29.6448 36.4532C29.6448 37.1798 29.7505 37.8046 29.9619 38.3276C30.1734 38.846 30.4698 39.2463 30.8513 39.5286C31.2373 39.8063 31.69 39.9451 32.2094 39.9451C32.5771 39.9451 32.9057 39.8757 33.1952 39.7369C33.4894 39.5934 33.7353 39.3874 33.9329 39.119C34.1305 38.8506 34.2661 38.5243 34.3396 38.1402H36.725C36.6652 38.8945 36.4446 39.5633 36.0631 40.1464C35.6817 40.725 35.1623 41.1785 34.5051 41.5071C33.8479 41.8311 33.0757 41.9931 32.1887 41.9931Z" fill="#1E0059"/>
<path d="M37.9977 41.7848V31.1217H40.4175V32.8988H40.5278C40.7208 32.2833 41.0517 31.8089 41.5205 31.4757C41.9939 31.1378 42.5339 30.9689 43.1406 30.9689C43.2785 30.9689 43.4325 30.9759 43.6025 30.9898C43.7772 30.999 43.9219 31.0152 44.0368 31.0383V33.3501C43.9311 33.3131 43.7634 33.2807 43.5336 33.2529C43.3084 33.2205 43.0901 33.2043 42.8786 33.2043C42.4236 33.2043 42.0146 33.3038 41.6515 33.5028C41.293 33.6972 41.0104 33.9679 40.8035 34.315C40.5967 34.6621 40.4933 35.0625 40.4933 35.516V41.7848H37.9977Z" fill="#1E0059"/>
<path d="M47.7759 42C47.1049 42 46.5005 41.8797 45.9627 41.639C45.4296 41.3937 45.0068 41.0327 44.6942 40.556C44.3863 40.0793 44.2323 39.4916 44.2323 38.7927C44.2323 38.1911 44.3427 37.6936 44.5633 37.3002C44.7839 36.9068 45.0849 36.5921 45.4664 36.356C45.8478 36.12 46.2776 35.9418 46.7556 35.8215C47.2381 35.6965 47.7368 35.6063 48.2516 35.5507C48.872 35.486 49.3753 35.4281 49.7613 35.3772C50.1474 35.3217 50.4278 35.2383 50.6024 35.1273C50.7817 35.0116 50.8713 34.8334 50.8713 34.5927V34.5511C50.8713 34.0281 50.7173 33.6231 50.4094 33.3362C50.1014 33.0493 49.6579 32.9058 49.0788 32.9058C48.4676 32.9058 47.9827 33.04 47.6242 33.3084C47.2703 33.5769 47.0313 33.8939 46.9072 34.2595L44.577 33.9263C44.7609 33.2783 45.0642 32.7369 45.4871 32.3018C45.9099 31.8621 46.4269 31.5336 47.0382 31.316C47.6495 31.0939 48.3251 30.9828 49.0651 30.9828C49.5752 30.9828 50.0831 31.043 50.5886 31.1633C51.0942 31.2836 51.5561 31.4826 51.9743 31.7603C52.3926 32.0334 52.7281 32.4059 52.9809 32.878C53.2382 33.3501 53.3669 33.9402 53.3669 34.6483V41.7848H50.9678V40.32H50.8851C50.7334 40.6162 50.5197 40.8939 50.2439 41.1531C49.9728 41.4076 49.6304 41.6136 49.2167 41.7709C48.8077 41.9236 48.3274 42 47.7759 42ZM48.4239 40.1534C48.9249 40.1534 49.3592 40.0539 49.7269 39.8549C50.0946 39.6512 50.3772 39.3828 50.5748 39.0496C50.7771 38.7164 50.8782 38.3531 50.8782 37.9597V36.7031C50.8 36.7679 50.6668 36.8281 50.4783 36.8836C50.2945 36.9392 50.0877 36.9878 49.8579 37.0294C49.6281 37.0711 49.4006 37.1081 49.1754 37.1405C48.9502 37.1729 48.7548 37.2007 48.5894 37.2238C48.2171 37.2747 47.8839 37.358 47.5897 37.4737C47.2956 37.5894 47.0635 37.7514 46.8934 37.9597C46.7234 38.1633 46.6384 38.4271 46.6384 38.7511C46.6384 39.2139 46.8061 39.5633 47.1416 39.7993C47.4771 40.0354 47.9046 40.1534 48.4239 40.1534Z" fill="#1E0059"/>
<path d="M56.6372 41.9375C56.2189 41.9375 55.8604 41.7894 55.5617 41.4932C55.263 41.197 55.1159 40.836 55.1205 40.4102C55.1159 39.9937 55.263 39.6374 55.5617 39.3412C55.8604 39.045 56.2189 38.8969 56.6372 38.8969C57.0416 38.8969 57.3932 39.045 57.6919 39.3412C57.9953 39.6374 58.1493 39.9937 58.1538 40.4102C58.1493 40.6926 58.0757 40.9494 57.9332 41.1808C57.7954 41.4122 57.6115 41.5974 57.3817 41.7362C57.1565 41.8704 56.9083 41.9375 56.6372 41.9375Z" fill="#1E0059"/>
</svg>
