<svg width="40" height="40" fill="none" xmlns="http://www.w3.org/2000/svg"><path d="M21.25 19.583a1.25 1.25 0 11-2.5 0 1.25 1.25 0 012.5 0z" fill="#fff"/><path d="M25 12.265C23.72 10.865 21.953 10 20 10c-1.953 0-3.72.866-5 2.265m2.5 3.868c.64-.7 1.524-1.133 2.5-1.133s1.86.433 2.5 1.133M30 36.667H16.667A6.667 6.667 0 0110 30V10a6.667 6.667 0 016.667-6.667h6.666A6.667 6.667 0 0130 10v11.667m-7.5 10h11.667a2.5 2.5 0 100-5H22.5a2.5 2.5 0 000 5z" stroke="#fff" stroke-width="2" stroke-linecap="round" stroke-linejoin="round"/></svg>