<svg width="32" height="32" viewBox="0 0 32 32" fill="none" xmlns="http://www.w3.org/2000/svg">
<path opacity="0.2" fill-rule="evenodd" clip-rule="evenodd" d="M16.0001 29.3334C23.3639 29.3334 29.3334 23.3639 29.3334 16.0001C29.3334 8.63628 23.3639 2.66675 16.0001 2.66675C8.63628 2.66675 2.66675 8.63628 2.66675 16.0001C2.66675 23.3639 8.63628 29.3334 16.0001 29.3334ZM12.7738 14.857C13.2026 14.6667 13.7462 14.6667 14.8334 14.6667H17.1667C18.2539 14.6667 18.7975 14.6667 19.2263 14.857C19.7981 15.1108 20.2523 15.5975 20.4891 16.21C20.6667 16.6695 20.6667 17.2519 20.6667 18.4167C20.6667 19.5816 20.6667 20.164 20.4891 20.6235C20.2523 21.236 19.7981 21.7227 19.2263 21.9764C18.7975 22.1667 18.2539 22.1667 17.1667 22.1667H14.8334C13.7462 22.1667 13.2026 22.1667 12.7738 21.9764C12.2021 21.7227 11.7478 21.236 11.511 20.6235C11.3334 20.164 11.3334 19.5816 11.3334 18.4167C11.3334 17.2519 11.3334 16.6695 11.511 16.21C11.7478 15.5975 12.2021 15.1108 12.7738 14.857Z" fill="#8067F6"/>
<path d="M26.0578 14.0003L29.3334 14.667C28.6628 7.92923 22.964 2.66699 16.0331 2.66699C8.65106 2.66699 2.66675 8.63653 2.66675 16.0003C2.66675 23.3641 8.65106 29.3337 16.0331 29.3337C21.5141 29.3337 26.2246 26.0427 28.2872 21.3337" stroke="#8067F6" stroke-width="1.5" stroke-linecap="round" stroke-linejoin="round"/>
<path d="M12.7737 21.8099L12.4694 22.4955L12.4694 22.4955L12.7737 21.8099ZM11.5109 20.457L10.8113 20.7274H10.8113L11.5109 20.457ZM20.489 20.457L21.1885 20.7274V20.7274L20.489 20.457ZM19.2262 21.8099L19.5304 22.4955L19.5304 22.4955L19.2262 21.8099ZM19.2262 14.6905L19.5304 14.005L19.2262 14.6905ZM20.489 16.0435L21.1885 15.7731V15.7731L20.489 16.0435ZM12.7737 14.6905L12.4694 14.005L12.7737 14.6905ZM11.5109 16.0435L10.8113 15.7731H10.8113L11.5109 16.0435ZM12.9166 14.5002C12.9166 14.9145 13.2524 15.2502 13.6666 15.2502C14.0808 15.2502 14.4166 14.9145 14.4166 14.5002H12.9166ZM17.5833 14.5002C17.5833 14.9145 17.919 15.2502 18.3333 15.2502C18.7475 15.2502 19.0833 14.9145 19.0833 14.5002H17.5833ZM14.8333 14.5002V15.2502H17.1666V14.5002V13.7502H14.8333V14.5002ZM17.1666 22.0002V21.2502H14.8333V22.0002V22.7502H17.1666V22.0002ZM14.8333 22.0002V21.2502C14.2787 21.2502 13.903 21.2498 13.6112 21.2285C13.3273 21.2077 13.1808 21.1701 13.0779 21.1244L12.7737 21.8099L12.4694 22.4955C12.7954 22.6401 13.135 22.6976 13.5019 22.7245C13.861 22.7507 14.3006 22.7502 14.8333 22.7502V22.0002ZM11.3333 18.2502H10.5833C10.5833 18.8231 10.5829 19.2878 10.607 19.6658C10.6314 20.0496 10.6832 20.396 10.8113 20.7274L11.5109 20.457L12.2104 20.1865C12.1609 20.0584 12.1239 19.8839 12.1039 19.5705C12.0836 19.2512 12.0833 18.8423 12.0833 18.2502H11.3333ZM12.7737 21.8099L13.0779 21.1244C12.6975 20.9556 12.3796 20.6241 12.2104 20.1865L11.5109 20.457L10.8113 20.7274C11.1158 21.5149 11.7063 22.1568 12.4694 22.4955L12.7737 21.8099ZM20.6666 18.2502H19.9166C19.9166 18.8423 19.9162 19.2512 19.8959 19.5705C19.8759 19.8839 19.8389 20.0584 19.7894 20.1865L20.489 20.457L21.1885 20.7274C21.3166 20.396 21.3684 20.0496 21.3929 19.6658C21.4169 19.2878 21.4166 18.8231 21.4166 18.2502H20.6666ZM17.1666 22.0002V22.7502C17.6992 22.7502 18.1389 22.7507 18.498 22.7245C18.8649 22.6976 19.2045 22.6401 19.5304 22.4955L19.2262 21.8099L18.9219 21.1244C18.8191 21.1701 18.6725 21.2077 18.3886 21.2285C18.0969 21.2498 17.7212 21.2502 17.1666 21.2502V22.0002ZM20.489 20.457L19.7894 20.1865C19.6202 20.6241 19.3023 20.9556 18.9219 21.1244L19.2262 21.8099L19.5304 22.4955C20.2935 22.1568 20.8841 21.5149 21.1885 20.7274L20.489 20.457ZM17.1666 14.5002V15.2502C17.7212 15.2502 18.0969 15.2507 18.3886 15.272C18.6725 15.2928 18.8191 15.3304 18.9219 15.3761L19.2262 14.6905L19.5304 14.005C19.2045 13.8604 18.8649 13.8028 18.498 13.776C18.1389 13.7498 17.6992 13.7502 17.1666 13.7502V14.5002ZM20.6666 18.2502H21.4166C21.4166 17.6774 21.4169 17.2127 21.3929 16.8347C21.3684 16.4509 21.3166 16.1044 21.1885 15.7731L20.489 16.0435L19.7894 16.314C19.8389 16.4421 19.8759 16.6166 19.8959 16.93C19.9162 17.2493 19.9166 17.6582 19.9166 18.2502H20.6666ZM19.2262 14.6905L18.9219 15.3761C19.3023 15.5449 19.6202 15.8764 19.7894 16.314L20.489 16.0435L21.1885 15.7731C20.8841 14.9856 20.2935 14.3437 19.5304 14.005L19.2262 14.6905ZM14.8333 14.5002V13.7502C14.3006 13.7502 13.861 13.7498 13.5019 13.776C13.135 13.8028 12.7954 13.8604 12.4694 14.005L12.7737 14.6905L13.0779 15.3761C13.1808 15.3304 13.3273 15.2928 13.6112 15.272C13.903 15.2507 14.2787 15.2502 14.8333 15.2502V14.5002ZM11.3333 18.2502H12.0833C12.0833 17.6582 12.0836 17.2493 12.1039 16.93C12.1239 16.6166 12.1609 16.4421 12.2104 16.314L11.5109 16.0435L10.8113 15.7731C10.6832 16.1044 10.6314 16.4509 10.607 16.8347C10.5829 17.2127 10.5833 17.6774 10.5833 18.2502H11.3333ZM12.7737 14.6905L12.4694 14.005C11.7063 14.3437 11.1158 14.9856 10.8113 15.7731L11.5109 16.0435L12.2104 16.314C12.3796 15.8764 12.6975 15.5449 13.0779 15.3761L12.7737 14.6905ZM13.6666 14.5002H14.4166V12.2502H13.6666H12.9166V14.5002H13.6666ZM18.3333 12.2502H17.5833V14.5002H18.3333H19.0833V12.2502H18.3333ZM15.9999 10.0002V10.7502C16.9003 10.7502 17.5833 11.4473 17.5833 12.2502H18.3333H19.0833C19.0833 10.5679 17.6769 9.25024 15.9999 9.25024V10.0002ZM13.6666 12.2502H14.4166C14.4166 11.4473 15.0995 10.7502 15.9999 10.7502V10.0002V9.25024C14.323 9.25024 12.9166 10.5679 12.9166 12.2502H13.6666Z" fill="#8067F6"/>
</svg>
