<svg width="33" height="33" viewBox="0 0 33 33" fill="none" xmlns="http://www.w3.org/2000/svg">
<rect x="0.0332031" y="0.0322266" width="32.2065" height="32.2065" rx="6.03871" fill="white"/>
<path opacity="0.5" fill-rule="evenodd" clip-rule="evenodd" d="M15.9024 10.0351C15.9985 9.60565 15.7305 9.17912 15.3039 9.0824C14.8773 8.98567 14.4535 9.25537 14.3574 9.68479C14.0051 11.2593 13.5488 12.2634 12.8609 12.9701C12.1748 13.675 11.1691 14.1751 9.5262 14.5476C9.09957 14.6443 8.83163 15.0709 8.92773 15.5003C9.02383 15.9297 9.44759 16.1994 9.87421 16.1026C11.6606 15.6976 13.0036 15.1011 13.992 14.0857C14.9785 13.0723 15.5225 11.7326 15.9024 10.0351ZM20.7335 16.1026C21.1601 16.0059 21.4281 15.5793 21.3319 15.1499C21.2358 14.7205 20.8121 14.4508 20.3855 14.5476C18.6989 14.9299 17.368 15.4774 16.3611 16.4704C15.3523 17.4652 14.7597 18.817 14.3573 20.6151C14.2612 21.0445 14.5291 21.471 14.9557 21.5678C15.3824 21.6645 15.8061 21.3948 15.9023 20.9654C16.2723 19.3118 16.7692 18.2996 17.4694 17.609C18.1716 16.9165 19.1692 16.4573 20.7335 16.1026Z" fill="#8067F6"/>
<path fill-rule="evenodd" clip-rule="evenodd" d="M15.9023 9.68479C15.8061 9.25537 15.3824 8.98567 14.9558 9.0824C14.5291 9.17912 14.2612 9.60565 14.3573 10.0351C14.7372 11.7326 15.2811 13.0723 16.2676 14.0857C17.256 15.1011 18.5991 15.6976 20.3855 16.1026C20.8121 16.1994 21.2358 15.9297 21.3319 15.5003C21.4281 15.0709 21.1601 14.6443 20.7335 14.5476C19.0906 14.1751 18.0849 13.675 17.3988 12.9701C16.7108 12.2634 16.2546 11.2593 15.9023 9.68479ZM9.87421 14.5476C9.44759 14.4508 9.02383 14.7205 8.92773 15.1499C8.83163 15.5793 9.09957 16.0059 9.5262 16.1026C11.1691 16.4751 12.1748 16.9752 12.8609 17.68C13.5488 18.3868 14.0051 19.3909 14.3574 20.9654C14.4535 21.3948 14.8773 21.6645 15.3039 21.5678C15.7305 21.471 15.9985 21.0445 15.9024 20.6151C15.5225 18.9176 14.9785 17.5779 13.992 16.5644C13.0036 15.5491 11.6606 14.9526 9.87421 14.5476Z" fill="#8067F6"/>
</svg>
