<svg width="34" height="33" viewBox="0 0 34 33" fill="none" xmlns="http://www.w3.org/2000/svg">
<rect x="0.847656" y="0.0322266" width="32.2065" height="32.2065" rx="6.03871" fill="white"/>
<g clip-path="url(#clip0_315_5812)">
<path d="M15.5118 10.0263L16.4477 9.09033L23.4929 16.1355L16.4477 23.1807L15.5117 22.2447L21.6209 16.1355L15.5118 10.0263Z" fill="#8067F6"/>
<path opacity="0.3" d="M14.29 11.248L15.226 10.312L21.0493 16.1353L15.226 21.9587L14.29 21.0227L19.1774 16.1353L14.29 11.248Z" fill="#8067F6"/>
<path d="M9.40332 16.1357L14.0048 11.5342L18.6063 16.1357L14.0048 20.7371L13.0688 19.8012L16.7343 16.1357L14.0048 13.4061L10.3393 17.0716L9.40332 16.1357Z" fill="#8067F6"/>
<path opacity="0.3" d="M14.0045 13.9775L13.0685 14.9135L14.2904 16.1353L11.8467 18.579L12.7826 19.515L16.1623 16.1353L14.0045 13.9775Z" fill="#8067F6"/>
<path d="M11.561 18.2932L10.625 17.3572L12.773 15.2092L13.709 16.1452L11.561 18.2932Z" fill="#8067F6"/>
</g>
<defs>
<clipPath id="clip0_315_5812">
<rect width="14.0903" height="14.0903" fill="white" transform="translate(9.40332 9.09033)"/>
</clipPath>
</defs>
</svg>
