<svg width="32" height="33" viewBox="0 0 32 33" fill="none" xmlns="http://www.w3.org/2000/svg">
<path fill-rule="evenodd" clip-rule="evenodd" d="M18.802 5.7722L18.9181 4.89835L17.1849 4.66406L17.0687 5.53792L16.0119 13.4871L11.7663 5.7456L11.3431 4.97404L9.81274 5.82739L10.2359 6.59894L15.2256 15.697L5.3269 15.1803L4.45369 15.1348L4.36328 16.8957L5.2365 16.9413L13.4418 17.3696L7.01585 21.2208L6.2642 21.6713L7.1577 23.1871L7.90932 22.7366L13.6804 19.2779L9.32888 24.9134L8.79172 25.6091L10.1716 26.6924L10.7087 25.9967L16.3112 18.7411L20.8584 26.0051L21.3251 26.7506L22.8039 25.8095L22.3372 25.0639L19.1854 20.0289L24.084 24.2228L24.7505 24.7934L25.8823 23.4492L25.2159 22.8786L19.9666 18.3845L26.4514 19.4805L27.3138 19.6262L27.6028 17.8872L26.7404 17.7414L18.1844 16.2954L24.3186 8.55341L24.8644 7.86459L23.4981 6.76394L22.9523 7.45275L17.6967 14.0858L18.802 5.7722Z" fill="#8067F6"/>
<path opacity="0.4" fill-rule="evenodd" clip-rule="evenodd" d="M6.81978 9.125L7.53861 9.62689L16.4239 15.8309L16.4461 15.8464L16.9421 15.7392L26.4155 13.6918L27.2705 13.507L27.6369 15.2312L26.782 15.416L17.6975 17.3793L17.5937 18.0699L16.2142 27.2563L16.0833 28.128L14.3542 27.864L14.4852 26.9923L15.8647 17.8059L15.8947 17.6061L15.4284 17.2805L6.54308 11.0766L5.82422 10.5747L6.81978 9.125Z" fill="#8067F6"/>
</svg>
