<svg width="18" height="18" viewBox="0 0 18 18" fill="none" xmlns="http://www.w3.org/2000/svg">
<path d="M13.5 13.5C14.4335 13.8183 15 14.2364 15 14.6944C15 15.6916 12.3137 16.5 9 16.5C5.68629 16.5 3 15.6916 3 14.6944C3 14.2364 3.56646 13.8183 4.5 13.5" stroke="#826CE9" stroke-width="1.2" stroke-linecap="round"/>
<path d="M9 1.5C12.0441 1.5 14.625 4.07102 14.625 7.19018C14.625 10.359 12.0021 12.5827 9.57938 14.0949C9.40282 14.1965 9.20315 14.25 9 14.25C8.79685 14.25 8.59718 14.1965 8.42062 14.0949C6.00243 12.568 3.375 10.37 3.375 7.19018C3.375 4.07102 5.9559 1.5 9 1.5Z" stroke="#826CE9" stroke-width="1.3"/>
<path opacity="0.2" fill-rule="evenodd" clip-rule="evenodd" d="M14.625 7.19018C14.625 4.07102 12.0441 1.5 9 1.5C5.9559 1.5 3.375 4.07102 3.375 7.19018C3.375 10.37 6.00243 12.568 8.42062 14.0949C8.59718 14.1965 8.79685 14.25 9 14.25C9.20315 14.25 9.40282 14.1965 9.57938 14.0949C12.0021 12.5827 14.625 10.359 14.625 7.19018ZM9 9.375C10.2426 9.375 11.25 8.36764 11.25 7.125C11.25 5.88236 10.2426 4.875 9 4.875C7.75736 4.875 6.75 5.88236 6.75 7.125C6.75 8.36764 7.75736 9.375 9 9.375Z" fill="#826CE9"/>
<path d="M11.25 7.125C11.25 8.36764 10.2426 9.375 9 9.375C7.75736 9.375 6.75 8.36764 6.75 7.125C6.75 5.88236 7.75736 4.875 9 4.875C10.2426 4.875 11.25 5.88236 11.25 7.125Z" stroke="#826CE9" stroke-width="1.3"/>
</svg>
