<svg width="302" height="150" viewBox="0 0 302 150" fill="none" xmlns="http://www.w3.org/2000/svg">
<rect x="0.400391" y="0.273071" width="300.8" height="149.333" rx="12.6061" fill="#F8F6FE"/>
<rect x="0.885239" y="0.75792" width="299.83" height="148.364" rx="12.1212" stroke="#0B264C" stroke-opacity="0.1" stroke-width="0.969697"/>
<rect x="30.0723" y="25.873" width="98.1333" height="98.1333" rx="12.8" fill="white"/>
<path d="M56.2201 92.9397H50.3356L63.5326 56.2541H69.9341L83.1065 92.9397H77.2466L66.8565 62.9264H66.561L56.2201 92.9397ZM57.205 78.5855H76.2372V83.2143H57.205V78.5855ZM91.7997 93.5306C90.0598 93.5306 88.4841 93.2105 87.0725 92.5704C85.6608 91.9138 84.5447 90.9618 83.724 89.7143C82.9033 88.4668 82.4929 86.9485 82.4929 85.1594C82.4929 83.6001 82.7884 82.328 83.3793 81.3431C83.9866 80.3418 84.7991 79.5458 85.8168 78.9548C86.8345 78.3639 87.967 77.9208 89.2145 77.6253C90.462 77.3298 91.7423 77.1001 93.0554 76.9359C94.7132 76.7554 96.051 76.5994 97.0687 76.4681C98.0863 76.3368 98.825 76.1316 99.2846 75.8526C99.7606 75.5571 99.9986 75.0893 99.9986 74.4492V74.3261C99.9986 72.7667 99.5554 71.5603 98.6691 70.7067C97.7991 69.8532 96.5024 69.4264 94.7789 69.4264C92.9898 69.4264 91.5699 69.8204 90.5194 70.6083C89.4853 71.3797 88.7713 72.2579 88.3774 73.2427L83.33 72.0855C83.9374 70.4113 84.8155 69.0653 85.9645 68.0477C87.1299 67.0136 88.4595 66.2585 89.9531 65.7825C91.4632 65.3065 93.039 65.0685 94.6804 65.0685C95.7802 65.0685 96.9456 65.1998 98.1766 65.4624C99.4077 65.7086 100.565 66.1764 101.648 66.8658C102.748 67.5388 103.643 68.5072 104.332 69.7711C105.021 71.035 105.366 72.6682 105.366 74.6708V92.9397H100.122V89.1727H99.9247C99.5965 89.8456 99.0794 90.5186 98.3736 91.1916C97.6842 91.8646 96.7978 92.4227 95.7145 92.8658C94.6312 93.309 93.3262 93.5306 91.7997 93.5306ZM92.9569 89.2465C94.4506 89.2465 95.7227 88.9593 96.7732 88.3848C97.8237 87.7939 98.628 87.0224 99.1861 86.0704C99.7442 85.1184 100.023 84.1089 100.023 83.042V79.4719C99.8262 79.6524 99.4569 79.8248 98.9153 79.9889C98.3736 80.1531 97.7581 80.2926 97.0687 80.4075C96.3793 80.5224 95.7063 80.6291 95.0497 80.7276C94.3932 80.8096 93.8433 80.8753 93.4001 80.9245C92.366 81.0723 91.4222 81.3021 90.5687 81.6139C89.7151 81.9094 89.0257 82.3526 88.5005 82.9435C87.9917 83.518 87.7372 84.2812 87.7372 85.2333C87.7372 86.5628 88.2297 87.5641 89.2145 88.237C90.1994 88.91 91.4468 89.2465 92.9569 89.2465Z" fill="#1E0059"/>
<path d="M157.496 52.1223V66.673H154.859V52.1223H157.496ZM161.666 60.2863V66.673H159.098V55.7551H161.618V57.6203H161.745C161.992 57.0083 162.379 56.5233 162.907 56.1652C163.44 55.8006 164.118 55.6183 164.938 55.6183C165.693 55.6183 166.351 55.7779 166.911 56.0969C167.47 56.4159 167.903 56.8846 168.209 57.5031C168.522 58.1151 168.678 58.8573 168.678 59.7297V66.673H166.11V60.1301C166.11 59.4009 165.921 58.8312 165.543 58.4211C165.166 58.0044 164.645 57.7961 163.981 57.7961C163.532 57.7961 163.131 57.8937 162.78 58.0891C162.435 58.2844 162.161 58.5676 161.959 58.9387C161.764 59.3032 161.666 59.7525 161.666 60.2863ZM175.622 55.7551V57.7473H169.362V55.7551H175.622ZM170.895 53.1574H173.464V63.3918C173.464 63.8215 173.558 64.1405 173.747 64.3488C173.936 64.5506 174.235 64.6516 174.645 64.6516C174.756 64.6516 174.88 64.6418 175.016 64.6223C175.153 64.6027 175.277 64.5799 175.387 64.5539L175.827 66.5656C175.554 66.6502 175.277 66.7121 174.997 66.7512C174.717 66.7967 174.437 66.8195 174.157 66.8195C173.141 66.8195 172.344 66.5526 171.764 66.0187C171.185 65.4784 170.895 64.7427 170.895 63.8117V53.1574ZM181.355 66.8879C180.261 66.8879 179.317 66.66 178.523 66.2043C177.728 65.742 177.116 65.091 176.687 64.2512C176.264 63.4113 176.052 62.4217 176.052 61.2824C176.052 60.1561 176.264 59.1698 176.687 58.3234C177.11 57.4706 177.706 56.8065 178.474 56.3312C179.242 55.856 180.147 55.6183 181.189 55.6183C181.859 55.6183 182.494 55.7258 183.093 55.9406C183.698 56.1555 184.232 56.4875 184.695 56.9367C185.163 57.3859 185.531 57.9588 185.798 58.6555C186.065 59.3456 186.198 60.1691 186.198 61.1262V61.9269H177.253V60.1984H184.919L183.718 60.7062C183.718 60.0877 183.624 59.5506 183.435 59.0949C183.246 58.6327 182.966 58.2713 182.595 58.0109C182.224 57.7505 181.762 57.6203 181.208 57.6203C180.655 57.6203 180.183 57.7505 179.792 58.0109C179.402 58.2713 179.105 58.6229 178.904 59.0656C178.702 59.5018 178.601 59.9901 178.601 60.5305V61.7316C178.601 62.3957 178.715 62.9654 178.943 63.4406C179.177 63.9094 179.502 64.2674 179.919 64.5148C180.342 64.7622 180.834 64.8859 181.394 64.8859C181.758 64.8859 182.09 64.8338 182.39 64.7297C182.696 64.6255 182.956 64.4693 183.171 64.2609C183.392 64.0461 183.562 63.7824 183.679 63.4699L186.081 63.7531C185.925 64.3846 185.635 64.938 185.212 65.4133C184.795 65.882 184.258 66.2466 183.601 66.507C182.95 66.7609 182.201 66.8879 181.355 66.8879ZM187.195 66.673V55.7551H189.685V57.591H189.802C189.998 56.953 190.339 56.4647 190.828 56.1262C191.316 55.7811 191.873 55.6086 192.498 55.6086C192.634 55.6086 192.791 55.6151 192.966 55.6281C193.149 55.6411 193.298 55.6574 193.416 55.6769V58.0402C193.305 58.0012 193.132 57.9686 192.898 57.9426C192.664 57.9165 192.439 57.9035 192.224 57.9035C191.749 57.9035 191.326 58.0044 190.955 58.2062C190.584 58.4081 190.291 58.6848 190.076 59.0363C189.867 59.3879 189.763 59.798 189.763 60.2668V66.673H187.195ZM197.274 54.3293V52.1223H208.875V54.3293H204.383V66.673H201.776V54.3293H197.274ZM209.843 66.673V55.7551H212.411V66.673H209.843ZM211.132 54.2219C210.721 54.2219 210.37 54.0851 210.077 53.8117C209.784 53.5383 209.638 53.2095 209.638 52.8254C209.638 52.4348 209.784 52.1027 210.077 51.8293C210.37 51.5558 210.721 51.4191 211.132 51.4191C211.535 51.4191 211.884 51.5558 212.177 51.8293C212.47 52.1027 212.616 52.4315 212.616 52.8156C212.616 53.2062 212.47 53.5383 212.177 53.8117C211.884 54.0851 211.535 54.2219 211.132 54.2219ZM218.642 70.9894C217.255 70.9894 216.165 70.7193 215.37 70.1789C214.576 69.645 214.065 68.9973 213.837 68.2355L216.142 67.6691C216.246 67.884 216.399 68.0956 216.601 68.3039C216.803 68.5187 217.073 68.6945 217.411 68.8312C217.75 68.9745 218.176 69.0461 218.691 69.0461C219.42 69.0461 220.022 68.867 220.497 68.509C220.979 68.1574 221.22 67.5812 221.22 66.7805V64.7199H221.073C220.95 64.9803 220.761 65.2505 220.507 65.5305C220.253 65.8039 219.918 66.0383 219.501 66.2336C219.091 66.4224 218.57 66.5168 217.939 66.5168C217.105 66.5168 216.347 66.3182 215.663 65.9211C214.986 65.5239 214.446 64.9315 214.042 64.1437C213.645 63.356 213.446 62.3696 213.446 61.1848C213.446 59.9868 213.645 58.9745 214.042 58.1476C214.446 57.3208 214.989 56.6926 215.673 56.2629C216.357 55.8332 217.118 55.6183 217.958 55.6183C218.596 55.6183 219.124 55.7258 219.54 55.9406C219.957 56.1555 220.289 56.4159 220.536 56.7219C220.784 57.0213 220.976 57.3013 221.112 57.5617H221.249V55.7551H223.759V66.8488C223.759 67.7798 223.538 68.5513 223.095 69.1633C222.652 69.7752 222.043 70.231 221.269 70.5305C220.501 70.8364 219.625 70.9894 218.642 70.9894ZM218.661 64.4953C219.482 64.4953 220.113 64.2023 220.556 63.6164C221.005 63.0239 221.23 62.2069 221.23 61.1652C221.23 60.4751 221.132 59.8729 220.937 59.3586C220.741 58.8443 220.452 58.4439 220.068 58.1574C219.683 57.871 219.215 57.7277 218.661 57.7277C218.088 57.7277 217.61 57.8775 217.226 58.1769C216.842 58.4764 216.552 58.8866 216.357 59.4074C216.168 59.9217 216.073 60.5077 216.073 61.1652C216.073 61.8293 216.171 62.412 216.366 62.9133C216.562 63.4146 216.851 63.8052 217.236 64.0851C217.626 64.3586 218.101 64.4953 218.661 64.4953ZM227.822 60.2863V66.673H225.254V52.1223H227.763V57.6203H227.9C228.154 57.0018 228.548 56.5135 229.082 56.1555C229.615 55.7974 230.302 55.6183 231.142 55.6183C231.897 55.6183 232.555 55.7779 233.115 56.0969C233.681 56.4159 234.121 56.8814 234.433 57.4933C234.746 58.1053 234.902 58.8508 234.902 59.7297V66.673H232.324V60.1301C232.324 59.3879 232.135 58.815 231.757 58.4113C231.38 58.0012 230.852 57.7961 230.175 57.7961C229.72 57.7961 229.313 57.8937 228.955 58.0891C228.603 58.2844 228.326 58.5676 228.125 58.9387C227.923 59.3032 227.822 59.7525 227.822 60.2863ZM241.836 55.7551V57.7473H235.576V55.7551H241.836ZM237.109 53.1574H239.678V63.3918C239.678 63.8215 239.772 64.1405 239.961 64.3488C240.15 64.5506 240.449 64.6516 240.859 64.6516C240.97 64.6516 241.094 64.6418 241.23 64.6223C241.367 64.6027 241.491 64.5799 241.602 64.5539L242.041 66.5656C241.768 66.6502 241.491 66.7121 241.211 66.7512C240.931 66.7967 240.651 66.8195 240.371 66.8195C239.355 66.8195 238.558 66.5526 237.979 66.0187C237.399 65.4784 237.109 64.7427 237.109 63.8117V53.1574Z" fill="#1E0059"/>
<path d="M158.494 100.388C157.651 100.388 156.918 100.257 156.297 99.9943C155.681 99.7266 155.199 99.3453 154.85 98.8504C154.502 98.3554 154.307 97.767 154.267 97.0852H155.979C156.014 97.4943 156.146 97.8352 156.373 98.1079C156.605 98.3756 156.906 98.5751 157.274 98.7064C157.643 98.8377 158.047 98.9034 158.487 98.9034C158.966 98.9034 159.396 98.8276 159.774 98.6761C160.153 98.5246 160.449 98.3125 160.661 98.0398C160.878 97.762 160.987 97.4387 160.987 97.0701C160.987 96.7367 160.891 96.464 160.699 96.2519C160.512 96.0398 160.257 95.8655 159.933 95.7291C159.61 95.5877 159.247 95.464 158.843 95.3579L157.517 94.9943C156.608 94.7519 155.891 94.3908 155.365 93.911C154.84 93.4261 154.577 92.7923 154.577 92.0095C154.577 91.3579 154.752 90.7898 155.1 90.3049C155.454 89.8201 155.931 89.4438 156.532 89.1761C157.138 88.9034 157.817 88.767 158.57 88.767C159.338 88.767 160.012 88.9034 160.593 89.1761C161.178 89.4438 161.641 89.8125 161.979 90.2822C162.322 90.7468 162.502 91.2797 162.517 91.8807H160.865C160.805 91.3605 160.562 90.9564 160.138 90.6685C159.719 90.3807 159.183 90.2367 158.532 90.2367C158.077 90.2367 157.678 90.31 157.335 90.4564C156.997 90.5978 156.734 90.7948 156.547 91.0473C156.365 91.2999 156.274 91.5903 156.274 91.9185C156.274 92.2721 156.383 92.56 156.6 92.7822C156.822 93.0044 157.09 93.1812 157.403 93.3125C157.721 93.4387 158.027 93.5423 158.32 93.6231L159.418 93.9185C159.777 94.0095 160.146 94.1307 160.524 94.2822C160.903 94.4337 161.254 94.6332 161.577 94.8807C161.906 95.1231 162.168 95.4261 162.365 95.7898C162.567 96.1483 162.668 96.5827 162.668 97.0928C162.668 97.7241 162.504 98.2898 162.176 98.7898C161.848 99.2847 161.373 99.6761 160.752 99.964C160.13 100.247 159.378 100.388 158.494 100.388ZM164.047 100.206V88.9185H171.13V90.3807H165.752V93.7822H170.752V95.2367H165.752V98.7443H171.183V100.206H164.047ZM172.744 88.9185H174.82L178.411 97.6913H178.54L182.138 88.9185H184.244V100.206H182.577V92.0398H182.471L179.13 100.191H177.782L174.479 92.0322H174.373V100.206H172.744V88.9185ZM187.767 88.9185V100.206H186.062V88.9185H187.767ZM189.593 100.206V88.9185H193.737C194.534 88.9185 195.196 89.0499 195.721 89.3125C196.247 89.5751 196.638 89.9312 196.896 90.3807C197.158 90.8251 197.29 91.3251 197.29 91.8807C197.29 92.3504 197.201 92.7468 197.024 93.0701C196.853 93.3933 196.623 93.6509 196.335 93.8428C196.047 94.0347 195.729 94.1761 195.38 94.267V94.3731C195.759 94.3933 196.128 94.5145 196.487 94.7367C196.845 94.9589 197.141 95.2746 197.373 95.6837C197.61 96.0877 197.729 96.5827 197.729 97.1685C197.729 97.7443 197.593 98.262 197.32 98.7216C197.052 99.1761 196.638 99.5372 196.077 99.8049C195.517 100.073 194.797 100.206 193.918 100.206H189.593ZM191.297 98.7519H193.752C194.57 98.7519 195.156 98.5928 195.509 98.2746C195.863 97.9564 196.04 97.56 196.04 97.0852C196.04 96.7266 195.949 96.4009 195.767 96.1079C195.59 95.81 195.335 95.5726 195.002 95.3958C194.668 95.219 194.274 95.1307 193.82 95.1307H191.297V98.7519ZM191.297 93.8049H193.585C193.964 93.8049 194.307 93.7317 194.615 93.5852C194.923 93.4387 195.166 93.2317 195.343 92.964C195.524 92.6913 195.615 92.3756 195.615 92.017C195.615 91.5524 195.451 91.1635 195.123 90.8504C194.8 90.5322 194.302 90.3731 193.63 90.3731H191.297V93.8049ZM203.82 100.358C202.85 100.358 201.981 100.126 201.214 99.661C200.446 99.1963 199.84 98.5322 199.396 97.6685C198.951 96.7999 198.729 95.767 198.729 94.5701C198.729 93.363 198.951 92.3276 199.396 91.464C199.84 90.5953 200.446 89.9286 201.214 89.464C201.981 88.9993 202.85 88.767 203.82 88.767C204.8 88.767 205.671 88.9993 206.433 89.464C207.196 89.9286 207.797 90.5953 208.237 91.464C208.681 92.3276 208.903 93.363 208.903 94.5701C208.903 95.7721 208.681 96.8049 208.237 97.6685C207.797 98.5322 207.196 99.1963 206.433 99.661C205.671 100.126 204.8 100.358 203.82 100.358ZM203.82 98.8049C204.471 98.8049 205.052 98.6433 205.562 98.3201C206.072 97.9968 206.474 97.5196 206.767 96.8882C207.065 96.2569 207.214 95.4842 207.214 94.5701C207.214 93.6509 207.065 92.8756 206.767 92.2443C206.474 91.6079 206.072 91.1281 205.562 90.8049C205.052 90.4817 204.471 90.3201 203.82 90.3201C203.173 90.3201 202.593 90.4817 202.077 90.8049C201.567 91.1281 201.163 91.6079 200.865 92.2443C200.567 92.8756 200.418 93.6509 200.418 94.5701C200.418 95.4842 200.567 96.2569 200.865 96.8882C201.163 97.5196 201.567 97.9968 202.077 98.3201C202.593 98.6433 203.173 98.8049 203.82 98.8049ZM210.365 100.206V88.9185H212.07V98.7443H217.183V100.206H210.365ZM222.13 100.206H219.343V98.714H222.032C222.891 98.714 223.605 98.5549 224.176 98.2367C224.747 97.9135 225.173 97.4413 225.456 96.8201C225.739 96.1938 225.88 95.4362 225.88 94.5473C225.88 93.6635 225.739 92.9135 225.456 92.2973C225.178 91.6812 224.762 91.214 224.206 90.8958C223.651 90.5726 222.961 90.411 222.138 90.411H219.282V88.9185H222.244C223.35 88.9185 224.3 89.1433 225.093 89.5928C225.885 90.0423 226.494 90.6887 226.918 91.5322C227.343 92.3706 227.555 93.3756 227.555 94.5473C227.555 95.7241 227.34 96.7342 226.911 97.5776C226.487 98.4211 225.87 99.0701 225.062 99.5246C224.254 99.9791 223.277 100.206 222.13 100.206ZM220.176 88.9185V100.206H218.471V88.9185H220.176Z" fill="#1E0059"/>
</svg>
