<svg width="18" height="18" viewBox="0 0 18 18" fill="none" xmlns="http://www.w3.org/2000/svg">
<path opacity="0.2" d="M16.5 9C16.5 13.1421 13.1421 16.5 9 16.5C4.85786 16.5 1.5 13.1421 1.5 9C1.5 4.85786 4.85786 1.5 9 1.5C13.1421 1.5 16.5 4.85786 16.5 9Z" fill="#826CE9"/>
<path d="M16.5 9C16.5 13.1421 13.1421 16.5 9 16.5C4.85786 16.5 1.5 13.1421 1.5 9C1.5 4.85786 4.85786 1.5 9 1.5C13.1421 1.5 16.5 4.85786 16.5 9Z" stroke="#826CE9" stroke-width="1.2"/>
<path d="M10.4625 7.59584C10.4625 7.92721 10.7311 8.19584 11.0625 8.19584C11.3939 8.19584 11.6625 7.92721 11.6625 7.59584H10.4625ZM7.35 10.4045C7.35 10.0731 7.08137 9.80448 6.75 9.80448C6.41863 9.80448 6.15 10.0731 6.15 10.4045H7.35ZM9.6 5.25C9.6 4.91863 9.33137 4.65 9 4.65C8.66863 4.65 8.4 4.91863 8.4 5.25L9.6 5.25ZM8.4 12.75C8.4 13.0814 8.66863 13.35 9 13.35C9.33137 13.35 9.6 13.0814 9.6 12.75H8.4ZM9 8.89214V8.29214C8.28825 8.29214 7.91882 8.17831 7.74004 8.05862C7.61263 7.97333 7.5375 7.85849 7.5375 7.59584H6.9375H6.3375C6.3375 8.16844 6.54362 8.70175 7.07246 9.05579C7.54993 9.37544 8.21175 9.49214 9 9.49214V8.89214ZM6.9375 7.59584H7.5375C7.5375 7.41531 7.63604 7.20121 7.89639 7.01031C8.15637 6.81967 8.54461 6.6835 9 6.6835V6.0835V5.4835C8.31631 5.4835 7.67329 5.68587 7.1868 6.04259C6.70066 6.39905 6.3375 6.94113 6.3375 7.59584H6.9375ZM9 6.0835V6.6835C9.45539 6.6835 9.84363 6.81967 10.1036 7.01031C10.364 7.20121 10.4625 7.41531 10.4625 7.59584H11.0625H11.6625C11.6625 6.94113 11.2993 6.39905 10.8132 6.04259C10.3267 5.68587 9.68369 5.4835 9 5.4835V6.0835ZM11.25 10.4045H10.65C10.65 10.7171 10.5237 10.9072 10.2835 11.0506C10.0068 11.2157 9.56724 11.3168 9 11.3168V11.9168V12.5168C9.6754 12.5168 10.3608 12.4019 10.8985 12.0809C11.4726 11.7382 11.85 11.1721 11.85 10.4045H11.25ZM9 11.9168V11.3168C8.48161 11.3168 8.03922 11.1745 7.74372 10.9759C7.44446 10.7748 7.35 10.5614 7.35 10.4045H6.75H6.15C6.15 11.0828 6.55922 11.6256 7.0743 11.9718C7.59314 12.3206 8.27575 12.5168 9 12.5168V11.9168ZM9 8.89214V9.49214C9.71654 9.49214 10.1349 9.60003 10.3612 9.74671C10.5329 9.85803 10.65 10.0256 10.65 10.4045H11.25H11.85C11.85 9.70315 11.5921 9.11452 11.0138 8.73973C10.4901 8.4003 9.78346 8.29214 9 8.29214V8.89214ZM9 6.0835L9.6 6.0835L9.6 5.25L9 5.25L8.4 5.25L8.4 6.0835L9 6.0835ZM9 11.9168H8.4V12.75H9H9.6V11.9168H9Z" fill="#826CE9"/>
</svg>
