<svg width="33" height="33" viewBox="0 0 33 33" fill="none" xmlns="http://www.w3.org/2000/svg">
<rect x="0.170898" y="0.0322266" width="32.2065" height="32.2065" rx="6.03871" fill="white"/>
<path fill-rule="evenodd" clip-rule="evenodd" d="M16.5921 10.983L16.2732 10.8203L15.9544 10.983L10.1838 13.9277L8.9541 14.5552L10.1838 15.1828L15.9544 18.1275L16.2732 18.2902L16.5921 18.1275L22.3627 15.1828L23.5924 14.5552L22.3627 13.9277L16.5921 10.983ZM16.2732 16.7098L12.0511 14.5552L16.2732 12.4007L20.4954 14.5552L16.2732 16.7098ZM12.5526 17.8329L12.0511 18.0888L16.2732 20.2433L20.4954 18.0888L19.9939 17.8329L20.6315 16.5779L22.3627 17.4613L23.5924 18.0888L22.3627 18.7163L16.5921 21.6611L16.2732 21.8237L15.9544 21.6611L10.1838 18.7163L8.9541 18.0888L10.1838 17.4613L11.915 16.5779L12.5526 17.8329Z" fill="#8067F6"/>
</svg>
