<svg width="32" height="32" viewBox="0 0 32 32" fill="none" xmlns="http://www.w3.org/2000/svg">
<path opacity="0.2" d="M3.33325 15.9999C3.33325 10.0288 3.33325 7.04323 5.18824 5.18824C7.04323 3.33325 10.0288 3.33325 15.9999 3.33325C21.971 3.33325 24.9566 3.33325 26.8116 5.18824C28.6666 7.04323 28.6666 10.0288 28.6666 15.9999C28.6666 21.971 28.6666 24.9566 26.8116 26.8116C24.9566 28.6666 21.971 28.6666 15.9999 28.6666C10.0288 28.6666 7.04323 28.6666 5.18824 26.8116C3.33325 24.9566 3.33325 21.971 3.33325 15.9999Z" fill="#8067F6"/>
<path d="M3.33325 15.9999C3.33325 10.0288 3.33325 7.04323 5.18824 5.18824C7.04323 3.33325 10.0288 3.33325 15.9999 3.33325C21.971 3.33325 24.9566 3.33325 26.8116 5.18824C28.6666 7.04323 28.6666 10.0288 28.6666 15.9999C28.6666 21.971 28.6666 24.9566 26.8116 26.8116C24.9566 28.6666 21.971 28.6666 15.9999 28.6666C10.0288 28.6666 7.04323 28.6666 5.18824 26.8116C3.33325 24.9566 3.33325 21.971 3.33325 15.9999Z" stroke="#8067F6" stroke-width="1.5"/>
<path d="M16.0001 21.3333L16.0001 10.6666M16.0001 21.3333C15.0664 21.3333 13.3221 18.6742 12.6667 17.9999M16.0001 21.3333C16.9337 21.3333 18.678 18.6742 19.3334 17.9999" stroke="#8067F6" stroke-width="1.5" stroke-linecap="round" stroke-linejoin="round"/>
</svg>
