<svg width="32" height="32" viewBox="0 0 32 32" fill="none" xmlns="http://www.w3.org/2000/svg">
<g opacity="0.2">
<path d="M5.03667 15.9231C3.77264 13.719 3.1623 11.9193 2.79429 10.0949C2.25 7.39673 3.49558 4.76103 5.55901 3.07926C6.4311 2.36847 7.43081 2.61132 7.94651 3.53649L9.11075 5.62517C10.0336 7.28071 10.495 8.10848 10.4034 8.98608C10.3119 9.86368 9.68966 10.5784 8.44514 12.008L5.03667 15.9231Z" fill="#8067F6"/>
<path d="M16.0767 26.9631C18.2808 28.2272 20.0805 28.8375 21.9049 29.2055C24.6031 29.7498 27.2388 28.5042 28.9205 26.4408C29.6313 25.5687 29.3885 24.569 28.4633 24.0533L26.3746 22.8891C24.7191 21.9662 23.8913 21.5048 23.0137 21.5964C22.1361 21.6879 21.4214 22.3101 19.9918 23.5547L16.0767 26.9631Z" fill="#8067F6"/>
</g>
<path d="M5.03667 15.9231C3.77264 13.719 3.1623 11.9193 2.79429 10.0949C2.25 7.39673 3.49558 4.76103 5.55901 3.07926C6.4311 2.36847 7.43081 2.61132 7.94651 3.53649L9.11075 5.62517C10.0336 7.28071 10.495 8.10848 10.4034 8.98608C10.3119 9.86368 9.68966 10.5784 8.44514 12.008L5.03667 15.9231ZM5.03667 15.9231C7.59518 20.3843 11.6103 24.4016 16.0767 26.9631M16.0767 26.9631C18.2808 28.2272 20.0805 28.8375 21.9049 29.2055C24.6031 29.7498 27.2388 28.5042 28.9205 26.4408C29.6313 25.5687 29.3885 24.569 28.4633 24.0533L26.3746 22.8891C24.7191 21.9662 23.8913 21.5048 23.0137 21.5964C22.1361 21.6879 21.4214 22.3101 19.9918 23.5547L16.0767 26.9631Z" stroke="#8067F6" stroke-width="1.5" stroke-linejoin="round"/>
<path d="M16 9.33337H17.1429C17.6816 9.33337 17.951 9.33337 18.1183 9.49609C18.2857 9.65881 18.2857 9.9207 18.2857 10.4445C18.2857 11.4921 18.2857 12.0158 17.951 12.3413C17.6964 12.5888 17.3238 12.648 16.686 12.6622C16.3589 12.6695 16.1953 12.6732 16.0977 12.7703C16 12.8675 16 13.0228 16 13.3334V14.8889C16 15.4127 16 15.6746 16.1674 15.8373C16.3347 16 16.6041 16 17.1429 16H18.2857M24 9.33337V12.6667M24 12.6667H22.0571C21.6261 12.6667 21.4106 12.6667 21.2768 12.5365C21.1429 12.4064 21.1429 12.1968 21.1429 11.7778V9.33337M24 12.6667V16" stroke="#8067F6" stroke-width="1.5" stroke-linecap="round" stroke-linejoin="round"/>
<path d="M13.3335 5.74019C13.4522 5.60687 13.5755 5.47619 13.7033 5.34834C17.2789 1.77272 23.0762 1.77272 26.6518 5.34834C30.2274 8.92396 30.2274 14.7212 26.6518 18.2968C26.5239 18.4246 26.3933 18.5479 26.2599 18.6666" stroke="#8067F6" stroke-width="1.5" stroke-linecap="round"/>
</svg>
