<svg width="151" height="146" viewBox="0 0 151 146" fill="none" xmlns="http://www.w3.org/2000/svg">
<mask id="mask0_321_5925" style="mask-type:alpha" maskUnits="userSpaceOnUse" x="0" y="0" width="151" height="146">
<rect width="151" height="146" fill="#D9D9D9"/>
</mask>
<g mask="url(#mask0_321_5925)">
<rect x="1" y="1" width="148.966" height="144" fill="white" fill-opacity="0.24"/>
<rect x="1.5" y="1.5" width="147.966" height="143" stroke="white" stroke-opacity="0.24"/>
<g filter="url(#filter0_d_321_5925)">
<rect x="15.4829" y="15" width="120" height="116" rx="10" fill="white"/>
<rect x="16.4829" y="16" width="118" height="114" rx="9" stroke="#200060" stroke-opacity="0.1" stroke-width="2"/>
</g>
<path d="M62.7878 50.624H41.9243V72.1051H62.7878V50.624Z" fill="url(#paint0_linear_321_5925)"/>
<path d="M62.7878 50.624H41.9243V72.1051H62.7878V50.624Z" fill="white"/>
<path d="M62.7878 50.624H41.9243V72.1051H62.7878V50.624Z" fill="url(#paint1_linear_321_5925)"/>
<path d="M75.8275 72.1051C81.5888 72.1051 86.2592 67.2963 86.2592 61.3645C86.2592 55.4327 81.5888 50.624 75.8275 50.624C70.0662 50.624 65.3957 55.4327 65.3957 61.3645C65.3957 67.2963 70.0662 72.1051 75.8275 72.1051Z" fill="url(#paint2_linear_321_5925)"/>
<path d="M75.8275 72.1051C81.5888 72.1051 86.2592 67.2963 86.2592 61.3645C86.2592 55.4327 81.5888 50.624 75.8275 50.624C70.0662 50.624 65.3957 55.4327 65.3957 61.3645C65.3957 67.2963 70.0662 72.1051 75.8275 72.1051Z" fill="white"/>
<path d="M75.8275 72.1051C81.5888 72.1051 86.2592 67.2963 86.2592 61.3645C86.2592 55.4327 81.5888 50.624 75.8275 50.624C70.0662 50.624 65.3957 55.4327 65.3957 61.3645C65.3957 67.2963 70.0662 72.1051 75.8275 72.1051Z" fill="url(#paint3_linear_321_5925)"/>
<path d="M99.299 72.1051C105.06 72.1051 109.731 67.2963 109.731 61.3645C109.731 55.4327 105.06 50.624 99.299 50.624C93.5377 50.624 88.8672 55.4327 88.8672 61.3645C88.8672 67.2963 93.5377 72.1051 99.299 72.1051Z" fill="url(#paint4_linear_321_5925)"/>
<path d="M99.299 72.1051C105.06 72.1051 109.731 67.2963 109.731 61.3645C109.731 55.4327 105.06 50.624 99.299 50.624C93.5377 50.624 88.8672 55.4327 88.8672 61.3645C88.8672 67.2963 93.5377 72.1051 99.299 72.1051Z" fill="white"/>
<path d="M99.299 72.1051C105.06 72.1051 109.731 67.2963 109.731 61.3645C109.731 55.4327 105.06 50.624 99.299 50.624C93.5377 50.624 88.8672 55.4327 88.8672 61.3645C88.8672 67.2963 93.5377 72.1051 99.299 72.1051Z" fill="url(#paint5_linear_321_5925)"/>
<path d="M50.7318 84.1623C50.6626 83.5163 50.3707 83.0133 49.8563 82.6533C49.3468 82.2933 48.6839 82.1133 47.8677 82.1133C47.2939 82.1133 46.8017 82.1996 46.3911 82.3722C45.9806 82.5448 45.6665 82.779 45.4488 83.0749C45.2311 83.3708 45.1198 83.7086 45.1149 84.0883C45.1149 84.4039 45.1866 84.6776 45.3301 84.9094C45.4785 85.1411 45.6788 85.3384 45.9311 85.5011C46.1834 85.6589 46.4629 85.7921 46.7696 85.9006C47.0762 86.0091 47.3854 86.1003 47.6971 86.1743L49.1217 86.5293C49.6955 86.6625 50.247 86.8425 50.7763 87.0693C51.3106 87.2962 51.7879 87.5822 52.2084 87.9274C52.6338 88.2726 52.9702 88.6893 53.2175 89.1775C53.4648 89.6657 53.5885 90.2377 53.5885 90.8936C53.5885 91.7812 53.361 92.5629 52.9059 93.2385C52.4508 93.9091 51.7929 94.4343 50.9322 94.814C50.0764 95.1888 49.0401 95.3762 47.8232 95.3762C46.6409 95.3762 45.6145 95.1937 44.7439 94.8288C43.8782 94.4639 43.2006 93.9313 42.7108 93.2311C42.2261 92.5308 41.9639 91.6777 41.9243 90.6717H44.6326C44.6722 91.1993 44.8354 91.6382 45.1223 91.9884C45.4092 92.3385 45.7827 92.5998 46.2427 92.7724C46.7077 92.945 47.2271 93.0313 47.8009 93.0313C48.3995 93.0313 48.9238 92.9426 49.374 92.765C49.8291 92.5826 50.1852 92.3311 50.4424 92.0106C50.6997 91.6851 50.8308 91.3054 50.8357 90.8714C50.8308 90.4769 50.7145 90.1514 50.487 89.895C50.2594 89.6336 49.9404 89.4166 49.5298 89.244C49.1242 89.0665 48.6493 88.9087 48.1052 88.7706L46.3763 88.3268C45.1248 88.0063 44.1355 87.5205 43.4083 86.8696C42.6861 86.2137 42.325 85.3433 42.325 84.2584C42.325 83.3659 42.5674 82.5842 43.0522 81.9136C43.5419 81.2429 44.2072 80.7226 45.0481 80.3528C45.8891 79.978 46.8413 79.7906 47.9048 79.7906C48.9832 79.7906 49.928 79.978 50.7392 80.3528C51.5554 80.7226 52.196 81.238 52.661 81.8988C53.126 82.5546 53.3659 83.3091 53.3807 84.1623H50.7318Z" fill="url(#paint6_linear_321_5925)"/>
<path d="M50.7318 84.1623C50.6626 83.5163 50.3707 83.0133 49.8563 82.6533C49.3468 82.2933 48.6839 82.1133 47.8677 82.1133C47.2939 82.1133 46.8017 82.1996 46.3911 82.3722C45.9806 82.5448 45.6665 82.779 45.4488 83.0749C45.2311 83.3708 45.1198 83.7086 45.1149 84.0883C45.1149 84.4039 45.1866 84.6776 45.3301 84.9094C45.4785 85.1411 45.6788 85.3384 45.9311 85.5011C46.1834 85.6589 46.4629 85.7921 46.7696 85.9006C47.0762 86.0091 47.3854 86.1003 47.6971 86.1743L49.1217 86.5293C49.6955 86.6625 50.247 86.8425 50.7763 87.0693C51.3106 87.2962 51.7879 87.5822 52.2084 87.9274C52.6338 88.2726 52.9702 88.6893 53.2175 89.1775C53.4648 89.6657 53.5885 90.2377 53.5885 90.8936C53.5885 91.7812 53.361 92.5629 52.9059 93.2385C52.4508 93.9091 51.7929 94.4343 50.9322 94.814C50.0764 95.1888 49.0401 95.3762 47.8232 95.3762C46.6409 95.3762 45.6145 95.1937 44.7439 94.8288C43.8782 94.4639 43.2006 93.9313 42.7108 93.2311C42.2261 92.5308 41.9639 91.6777 41.9243 90.6717H44.6326C44.6722 91.1993 44.8354 91.6382 45.1223 91.9884C45.4092 92.3385 45.7827 92.5998 46.2427 92.7724C46.7077 92.945 47.2271 93.0313 47.8009 93.0313C48.3995 93.0313 48.9238 92.9426 49.374 92.765C49.8291 92.5826 50.1852 92.3311 50.4424 92.0106C50.6997 91.6851 50.8308 91.3054 50.8357 90.8714C50.8308 90.4769 50.7145 90.1514 50.487 89.895C50.2594 89.6336 49.9404 89.4166 49.5298 89.244C49.1242 89.0665 48.6493 88.9087 48.1052 88.7706L46.3763 88.3268C45.1248 88.0063 44.1355 87.5205 43.4083 86.8696C42.6861 86.2137 42.325 85.3433 42.325 84.2584C42.325 83.3659 42.5674 82.5842 43.0522 81.9136C43.5419 81.2429 44.2072 80.7226 45.0481 80.3528C45.8891 79.978 46.8413 79.7906 47.9048 79.7906C48.9832 79.7906 49.928 79.978 50.7392 80.3528C51.5554 80.7226 52.196 81.238 52.661 81.8988C53.126 82.5546 53.3659 83.3091 53.3807 84.1623H50.7318Z" fill="white"/>
<path d="M50.7318 84.1623C50.6626 83.5163 50.3707 83.0133 49.8563 82.6533C49.3468 82.2933 48.6839 82.1133 47.8677 82.1133C47.2939 82.1133 46.8017 82.1996 46.3911 82.3722C45.9806 82.5448 45.6665 82.779 45.4488 83.0749C45.2311 83.3708 45.1198 83.7086 45.1149 84.0883C45.1149 84.4039 45.1866 84.6776 45.3301 84.9094C45.4785 85.1411 45.6788 85.3384 45.9311 85.5011C46.1834 85.6589 46.4629 85.7921 46.7696 85.9006C47.0762 86.0091 47.3854 86.1003 47.6971 86.1743L49.1217 86.5293C49.6955 86.6625 50.247 86.8425 50.7763 87.0693C51.3106 87.2962 51.7879 87.5822 52.2084 87.9274C52.6338 88.2726 52.9702 88.6893 53.2175 89.1775C53.4648 89.6657 53.5885 90.2377 53.5885 90.8936C53.5885 91.7812 53.361 92.5629 52.9059 93.2385C52.4508 93.9091 51.7929 94.4343 50.9322 94.814C50.0764 95.1888 49.0401 95.3762 47.8232 95.3762C46.6409 95.3762 45.6145 95.1937 44.7439 94.8288C43.8782 94.4639 43.2006 93.9313 42.7108 93.2311C42.2261 92.5308 41.9639 91.6777 41.9243 90.6717H44.6326C44.6722 91.1993 44.8354 91.6382 45.1223 91.9884C45.4092 92.3385 45.7827 92.5998 46.2427 92.7724C46.7077 92.945 47.2271 93.0313 47.8009 93.0313C48.3995 93.0313 48.9238 92.9426 49.374 92.765C49.8291 92.5826 50.1852 92.3311 50.4424 92.0106C50.6997 91.6851 50.8308 91.3054 50.8357 90.8714C50.8308 90.4769 50.7145 90.1514 50.487 89.895C50.2594 89.6336 49.9404 89.4166 49.5298 89.244C49.1242 89.0665 48.6493 88.9087 48.1052 88.7706L46.3763 88.3268C45.1248 88.0063 44.1355 87.5205 43.4083 86.8696C42.6861 86.2137 42.325 85.3433 42.325 84.2584C42.325 83.3659 42.5674 82.5842 43.0522 81.9136C43.5419 81.2429 44.2072 80.7226 45.0481 80.3528C45.8891 79.978 46.8413 79.7906 47.9048 79.7906C48.9832 79.7906 49.928 79.978 50.7392 80.3528C51.5554 80.7226 52.196 81.238 52.661 81.8988C53.126 82.5546 53.3659 83.3091 53.3807 84.1623H50.7318Z" fill="url(#paint7_linear_321_5925)"/>
<path d="M55.0882 95.1469V83.785H57.7742V95.1469H55.0882ZM56.4386 82.1725C56.0132 82.1725 55.6471 82.0319 55.3404 81.7508C55.0337 81.4648 54.8804 81.1221 54.8804 80.7226C54.8804 80.3183 55.0337 79.9755 55.3404 79.6945C55.6471 79.4084 56.0132 79.2654 56.4386 79.2654C56.8689 79.2654 57.235 79.4084 57.5367 79.6945C57.8434 79.9755 57.9968 80.3183 57.9968 80.7226C57.9968 81.1221 57.8434 81.4648 57.5367 81.7508C57.235 82.0319 56.8689 82.1725 56.4386 82.1725Z" fill="url(#paint8_linear_321_5925)"/>
<path d="M55.0882 95.1469V83.785H57.7742V95.1469H55.0882ZM56.4386 82.1725C56.0132 82.1725 55.6471 82.0319 55.3404 81.7508C55.0337 81.4648 54.8804 81.1221 54.8804 80.7226C54.8804 80.3183 55.0337 79.9755 55.3404 79.6945C55.6471 79.4084 56.0132 79.2654 56.4386 79.2654C56.8689 79.2654 57.235 79.4084 57.5367 79.6945C57.8434 79.9755 57.9968 80.3183 57.9968 80.7226C57.9968 81.1221 57.8434 81.4648 57.5367 81.7508C57.235 82.0319 56.8689 82.1725 56.4386 82.1725Z" fill="white"/>
<path d="M55.0882 95.1469V83.785H57.7742V95.1469H55.0882ZM56.4386 82.1725C56.0132 82.1725 55.6471 82.0319 55.3404 81.7508C55.0337 81.4648 54.8804 81.1221 54.8804 80.7226C54.8804 80.3183 55.0337 79.9755 55.3404 79.6945C55.6471 79.4084 56.0132 79.2654 56.4386 79.2654C56.8689 79.2654 57.235 79.4084 57.5367 79.6945C57.8434 79.9755 57.9968 80.3183 57.9968 80.7226C57.9968 81.1221 57.8434 81.4648 57.5367 81.7508C57.235 82.0319 56.8689 82.1725 56.4386 82.1725Z" fill="url(#paint9_linear_321_5925)"/>
<path d="M62.3865 88.4896V95.1469H59.7005V83.785H62.2678V85.7157H62.4014C62.6635 85.0795 63.0815 84.574 63.6553 84.1993C64.2341 83.8245 64.9489 83.6371 65.7997 83.6371C66.5862 83.6371 67.2713 83.8047 67.855 84.1401C68.4437 84.4754 68.8988 84.9612 69.2203 85.5973C69.5468 86.2334 69.7075 87.0052 69.7026 87.9126V95.1469H67.0166V88.3268C67.0166 87.5674 66.8187 86.9732 66.423 86.5441C66.0322 86.1151 65.4905 85.9006 64.798 85.9006C64.3281 85.9006 63.9101 86.0041 63.544 86.2113C63.1829 86.4134 62.8985 86.7069 62.6907 87.0915C62.4879 87.4762 62.3865 87.9422 62.3865 88.4896Z" fill="url(#paint10_linear_321_5925)"/>
<path d="M62.3865 88.4896V95.1469H59.7005V83.785H62.2678V85.7157H62.4014C62.6635 85.0795 63.0815 84.574 63.6553 84.1993C64.2341 83.8245 64.9489 83.6371 65.7997 83.6371C66.5862 83.6371 67.2713 83.8047 67.855 84.1401C68.4437 84.4754 68.8988 84.9612 69.2203 85.5973C69.5468 86.2334 69.7075 87.0052 69.7026 87.9126V95.1469H67.0166V88.3268C67.0166 87.5674 66.8187 86.9732 66.423 86.5441C66.0322 86.1151 65.4905 85.9006 64.798 85.9006C64.3281 85.9006 63.9101 86.0041 63.544 86.2113C63.1829 86.4134 62.8985 86.7069 62.6907 87.0915C62.4879 87.4762 62.3865 87.9422 62.3865 88.4896Z" fill="white"/>
<path d="M62.3865 88.4896V95.1469H59.7005V83.785H62.2678V85.7157H62.4014C62.6635 85.0795 63.0815 84.574 63.6553 84.1993C64.2341 83.8245 64.9489 83.6371 65.7997 83.6371C66.5862 83.6371 67.2713 83.8047 67.855 84.1401C68.4437 84.4754 68.8988 84.9612 69.2203 85.5973C69.5468 86.2334 69.7075 87.0052 69.7026 87.9126V95.1469H67.0166V88.3268C67.0166 87.5674 66.8187 86.9732 66.423 86.5441C66.0322 86.1151 65.4905 85.9006 64.798 85.9006C64.3281 85.9006 63.9101 86.0041 63.544 86.2113C63.1829 86.4134 62.8985 86.7069 62.6907 87.0915C62.4879 87.4762 62.3865 87.9422 62.3865 88.4896Z" fill="url(#paint11_linear_321_5925)"/>
<path d="M76.5687 95.3688C75.431 95.3688 74.4541 95.1198 73.6379 94.6217C72.8266 94.1236 72.2009 93.4357 71.7606 92.5579C71.3253 91.6752 71.1076 90.6594 71.1076 89.5103C71.1076 88.3564 71.3302 87.3381 71.7754 86.4554C72.2206 85.5677 72.8489 84.8773 73.6601 84.3842C74.4763 83.8861 75.4409 83.6371 76.5539 83.6371C77.4789 83.6371 78.2976 83.8072 79.0099 84.1475C79.7272 84.4828 80.2985 84.9587 80.7239 85.5751C81.1493 86.1866 81.3917 86.9016 81.4511 87.7203H78.8838C78.7799 87.1729 78.5326 86.7167 78.1418 86.3518C77.7559 85.9819 77.239 85.797 76.591 85.797C76.0419 85.797 75.5596 85.945 75.1441 86.2408C74.7286 86.5318 74.4046 86.951 74.1721 87.4983C73.9445 88.0457 73.8308 88.7016 73.8308 89.466C73.8308 90.2402 73.9445 90.9059 74.1721 91.4632C74.3996 92.0155 74.7187 92.442 75.1293 92.7429C75.5448 93.0387 76.032 93.1867 76.591 93.1867C76.9867 93.1867 77.3404 93.1127 77.6521 92.9648C77.9686 92.8119 78.2333 92.5925 78.446 92.3064C78.6587 92.0204 78.8046 91.6728 78.8838 91.2634H81.4511C81.3868 92.0673 81.1493 92.7798 80.7388 93.4012C80.3282 94.0176 79.7692 94.5009 79.0619 94.851C78.3545 95.1962 77.5234 95.3688 76.5687 95.3688Z" fill="url(#paint12_linear_321_5925)"/>
<path d="M76.5687 95.3688C75.431 95.3688 74.4541 95.1198 73.6379 94.6217C72.8266 94.1236 72.2009 93.4357 71.7606 92.5579C71.3253 91.6752 71.1076 90.6594 71.1076 89.5103C71.1076 88.3564 71.3302 87.3381 71.7754 86.4554C72.2206 85.5677 72.8489 84.8773 73.6601 84.3842C74.4763 83.8861 75.4409 83.6371 76.5539 83.6371C77.4789 83.6371 78.2976 83.8072 79.0099 84.1475C79.7272 84.4828 80.2985 84.9587 80.7239 85.5751C81.1493 86.1866 81.3917 86.9016 81.4511 87.7203H78.8838C78.7799 87.1729 78.5326 86.7167 78.1418 86.3518C77.7559 85.9819 77.239 85.797 76.591 85.797C76.0419 85.797 75.5596 85.945 75.1441 86.2408C74.7286 86.5318 74.4046 86.951 74.1721 87.4983C73.9445 88.0457 73.8308 88.7016 73.8308 89.466C73.8308 90.2402 73.9445 90.9059 74.1721 91.4632C74.3996 92.0155 74.7187 92.442 75.1293 92.7429C75.5448 93.0387 76.032 93.1867 76.591 93.1867C76.9867 93.1867 77.3404 93.1127 77.6521 92.9648C77.9686 92.8119 78.2333 92.5925 78.446 92.3064C78.6587 92.0204 78.8046 91.6728 78.8838 91.2634H81.4511C81.3868 92.0673 81.1493 92.7798 80.7388 93.4012C80.3282 94.0176 79.7692 94.5009 79.0619 94.851C78.3545 95.1962 77.5234 95.3688 76.5687 95.3688Z" fill="white"/>
<path d="M76.5687 95.3688C75.431 95.3688 74.4541 95.1198 73.6379 94.6217C72.8266 94.1236 72.2009 93.4357 71.7606 92.5579C71.3253 91.6752 71.1076 90.6594 71.1076 89.5103C71.1076 88.3564 71.3302 87.3381 71.7754 86.4554C72.2206 85.5677 72.8489 84.8773 73.6601 84.3842C74.4763 83.8861 75.4409 83.6371 76.5539 83.6371C77.4789 83.6371 78.2976 83.8072 79.0099 84.1475C79.7272 84.4828 80.2985 84.9587 80.7239 85.5751C81.1493 86.1866 81.3917 86.9016 81.4511 87.7203H78.8838C78.7799 87.1729 78.5326 86.7167 78.1418 86.3518C77.7559 85.9819 77.239 85.797 76.591 85.797C76.0419 85.797 75.5596 85.945 75.1441 86.2408C74.7286 86.5318 74.4046 86.951 74.1721 87.4983C73.9445 88.0457 73.8308 88.7016 73.8308 89.466C73.8308 90.2402 73.9445 90.9059 74.1721 91.4632C74.3996 92.0155 74.7187 92.442 75.1293 92.7429C75.5448 93.0387 76.032 93.1867 76.591 93.1867C76.9867 93.1867 77.3404 93.1127 77.6521 92.9648C77.9686 92.8119 78.2333 92.5925 78.446 92.3064C78.6587 92.0204 78.8046 91.6728 78.8838 91.2634H81.4511C81.3868 92.0673 81.1493 92.7798 80.7388 93.4012C80.3282 94.0176 79.7692 94.5009 79.0619 94.851C78.3545 95.1962 77.5234 95.3688 76.5687 95.3688Z" fill="url(#paint13_linear_321_5925)"/>
<path d="M82.8209 95.1469V83.785H85.4253V85.6787H85.544C85.7518 85.0228 86.1079 84.5173 86.6125 84.1623C87.122 83.8023 87.7032 83.6223 88.3562 83.6223C88.5046 83.6223 88.6703 83.6297 88.8533 83.6445C89.0413 83.6543 89.1971 83.6716 89.3208 83.6963V86.1595C89.207 86.12 89.0264 86.0855 88.7791 86.0559C88.5367 86.0214 88.3018 86.0041 88.0742 86.0041C87.5845 86.0041 87.1442 86.1102 86.7535 86.3222C86.3676 86.5293 86.0634 86.8178 85.8408 87.1877C85.6182 87.5575 85.5069 87.9841 85.5069 88.4674V95.1469H82.8209Z" fill="url(#paint14_linear_321_5925)"/>
<path d="M82.8209 95.1469V83.785H85.4253V85.6787H85.544C85.7518 85.0228 86.1079 84.5173 86.6125 84.1623C87.122 83.8023 87.7032 83.6223 88.3562 83.6223C88.5046 83.6223 88.6703 83.6297 88.8533 83.6445C89.0413 83.6543 89.1971 83.6716 89.3208 83.6963V86.1595C89.207 86.12 89.0264 86.0855 88.7791 86.0559C88.5367 86.0214 88.3018 86.0041 88.0742 86.0041C87.5845 86.0041 87.1442 86.1102 86.7535 86.3222C86.3676 86.5293 86.0634 86.8178 85.8408 87.1877C85.6182 87.5575 85.5069 87.9841 85.5069 88.4674V95.1469H82.8209Z" fill="white"/>
<path d="M82.8209 95.1469V83.785H85.4253V85.6787H85.544C85.7518 85.0228 86.1079 84.5173 86.6125 84.1623C87.122 83.8023 87.7032 83.6223 88.3562 83.6223C88.5046 83.6223 88.6703 83.6297 88.8533 83.6445C89.0413 83.6543 89.1971 83.6716 89.3208 83.6963V86.1595C89.207 86.12 89.0264 86.0855 88.7791 86.0559C88.5367 86.0214 88.3018 86.0041 88.0742 86.0041C87.5845 86.0041 87.1442 86.1102 86.7535 86.3222C86.3676 86.5293 86.0634 86.8178 85.8408 87.1877C85.6182 87.5575 85.5069 87.9841 85.5069 88.4674V95.1469H82.8209Z" fill="url(#paint15_linear_321_5925)"/>
<path d="M93.3451 95.3762C92.6229 95.3762 91.9724 95.248 91.3936 94.9916C90.8198 94.7302 90.3647 94.3456 90.0283 93.8376C89.6969 93.3297 89.5312 92.7034 89.5312 91.9588C89.5312 91.3177 89.6499 90.7876 89.8874 90.3684C90.1248 89.9492 90.4488 89.6139 90.8594 89.3624C91.2699 89.1109 91.7325 88.921 92.2469 88.7928C92.7663 88.6597 93.303 88.5635 93.857 88.5043C94.5248 88.4353 95.0665 88.3737 95.482 88.3194C95.8975 88.2602 96.1993 88.1715 96.3873 88.0531C96.5802 87.9298 96.6766 87.74 96.6766 87.4835V87.4392C96.6766 86.8819 96.5109 86.4504 96.1795 86.1447C95.8481 85.8389 95.3707 85.6861 94.7474 85.6861C94.0895 85.6861 93.5677 85.8291 93.1818 86.1151C92.8009 86.4011 92.5437 86.7389 92.4102 87.1285L89.9022 86.7734C90.1001 86.083 90.4265 85.5061 90.8816 85.0425C91.3367 84.574 91.8932 84.2239 92.5511 83.9921C93.209 83.7554 93.9362 83.6371 94.7326 83.6371C95.2817 83.6371 95.8283 83.7012 96.3724 83.8294C96.9165 83.9576 97.4137 84.1697 97.8638 84.4656C98.314 84.7565 98.6751 85.1535 98.9471 85.6565C99.2242 86.1595 99.3627 86.7882 99.3627 87.5427V95.1469H96.7805V93.5861H96.6915C96.5282 93.9017 96.2982 94.1976 96.0014 94.4738C95.7096 94.745 95.341 94.9644 94.8958 95.1321C94.4556 95.2948 93.9387 95.3762 93.3451 95.3762ZM94.0425 93.4086C94.5817 93.4086 95.0492 93.3026 95.4449 93.0905C95.8406 92.8735 96.1449 92.5875 96.3576 92.2325C96.5752 91.8774 96.6841 91.4903 96.6841 91.0711V89.7323C96.6 89.8013 96.4565 89.8654 96.2537 89.9246C96.0558 89.9838 95.8332 90.0355 95.5859 90.0799C95.3386 90.1243 95.0937 90.1637 94.8513 90.1983C94.6089 90.2328 94.3987 90.2624 94.2206 90.287C93.8199 90.3413 93.4613 90.43 93.1447 90.5533C92.8281 90.6766 92.5783 90.8492 92.3953 91.0711C92.2123 91.2881 92.1208 91.5692 92.1208 91.9144C92.1208 92.4075 92.3013 92.7798 92.6624 93.0313C93.0235 93.2828 93.4836 93.4086 94.0425 93.4086Z" fill="url(#paint16_linear_321_5925)"/>
<path d="M93.3451 95.3762C92.6229 95.3762 91.9724 95.248 91.3936 94.9916C90.8198 94.7302 90.3647 94.3456 90.0283 93.8376C89.6969 93.3297 89.5312 92.7034 89.5312 91.9588C89.5312 91.3177 89.6499 90.7876 89.8874 90.3684C90.1248 89.9492 90.4488 89.6139 90.8594 89.3624C91.2699 89.1109 91.7325 88.921 92.2469 88.7928C92.7663 88.6597 93.303 88.5635 93.857 88.5043C94.5248 88.4353 95.0665 88.3737 95.482 88.3194C95.8975 88.2602 96.1993 88.1715 96.3873 88.0531C96.5802 87.9298 96.6766 87.74 96.6766 87.4835V87.4392C96.6766 86.8819 96.5109 86.4504 96.1795 86.1447C95.8481 85.8389 95.3707 85.6861 94.7474 85.6861C94.0895 85.6861 93.5677 85.8291 93.1818 86.1151C92.8009 86.4011 92.5437 86.7389 92.4102 87.1285L89.9022 86.7734C90.1001 86.083 90.4265 85.5061 90.8816 85.0425C91.3367 84.574 91.8932 84.2239 92.5511 83.9921C93.209 83.7554 93.9362 83.6371 94.7326 83.6371C95.2817 83.6371 95.8283 83.7012 96.3724 83.8294C96.9165 83.9576 97.4137 84.1697 97.8638 84.4656C98.314 84.7565 98.6751 85.1535 98.9471 85.6565C99.2242 86.1595 99.3627 86.7882 99.3627 87.5427V95.1469H96.7805V93.5861H96.6915C96.5282 93.9017 96.2982 94.1976 96.0014 94.4738C95.7096 94.745 95.341 94.9644 94.8958 95.1321C94.4556 95.2948 93.9387 95.3762 93.3451 95.3762ZM94.0425 93.4086C94.5817 93.4086 95.0492 93.3026 95.4449 93.0905C95.8406 92.8735 96.1449 92.5875 96.3576 92.2325C96.5752 91.8774 96.6841 91.4903 96.6841 91.0711V89.7323C96.6 89.8013 96.4565 89.8654 96.2537 89.9246C96.0558 89.9838 95.8332 90.0355 95.5859 90.0799C95.3386 90.1243 95.0937 90.1637 94.8513 90.1983C94.6089 90.2328 94.3987 90.2624 94.2206 90.287C93.8199 90.3413 93.4613 90.43 93.1447 90.5533C92.8281 90.6766 92.5783 90.8492 92.3953 91.0711C92.2123 91.2881 92.1208 91.5692 92.1208 91.9144C92.1208 92.4075 92.3013 92.7798 92.6624 93.0313C93.0235 93.2828 93.4836 93.4086 94.0425 93.4086Z" fill="white"/>
<path d="M93.3451 95.3762C92.6229 95.3762 91.9724 95.248 91.3936 94.9916C90.8198 94.7302 90.3647 94.3456 90.0283 93.8376C89.6969 93.3297 89.5312 92.7034 89.5312 91.9588C89.5312 91.3177 89.6499 90.7876 89.8874 90.3684C90.1248 89.9492 90.4488 89.6139 90.8594 89.3624C91.2699 89.1109 91.7325 88.921 92.2469 88.7928C92.7663 88.6597 93.303 88.5635 93.857 88.5043C94.5248 88.4353 95.0665 88.3737 95.482 88.3194C95.8975 88.2602 96.1993 88.1715 96.3873 88.0531C96.5802 87.9298 96.6766 87.74 96.6766 87.4835V87.4392C96.6766 86.8819 96.5109 86.4504 96.1795 86.1447C95.8481 85.8389 95.3707 85.6861 94.7474 85.6861C94.0895 85.6861 93.5677 85.8291 93.1818 86.1151C92.8009 86.4011 92.5437 86.7389 92.4102 87.1285L89.9022 86.7734C90.1001 86.083 90.4265 85.5061 90.8816 85.0425C91.3367 84.574 91.8932 84.2239 92.5511 83.9921C93.209 83.7554 93.9362 83.6371 94.7326 83.6371C95.2817 83.6371 95.8283 83.7012 96.3724 83.8294C96.9165 83.9576 97.4137 84.1697 97.8638 84.4656C98.314 84.7565 98.6751 85.1535 98.9471 85.6565C99.2242 86.1595 99.3627 86.7882 99.3627 87.5427V95.1469H96.7805V93.5861H96.6915C96.5282 93.9017 96.2982 94.1976 96.0014 94.4738C95.7096 94.745 95.341 94.9644 94.8958 95.1321C94.4556 95.2948 93.9387 95.3762 93.3451 95.3762ZM94.0425 93.4086C94.5817 93.4086 95.0492 93.3026 95.4449 93.0905C95.8406 92.8735 96.1449 92.5875 96.3576 92.2325C96.5752 91.8774 96.6841 91.4903 96.6841 91.0711V89.7323C96.6 89.8013 96.4565 89.8654 96.2537 89.9246C96.0558 89.9838 95.8332 90.0355 95.5859 90.0799C95.3386 90.1243 95.0937 90.1637 94.8513 90.1983C94.6089 90.2328 94.3987 90.2624 94.2206 90.287C93.8199 90.3413 93.4613 90.43 93.1447 90.5533C92.8281 90.6766 92.5783 90.8492 92.3953 91.0711C92.2123 91.2881 92.1208 91.5692 92.1208 91.9144C92.1208 92.4075 92.3013 92.7798 92.6624 93.0313C93.0235 93.2828 93.4836 93.4086 94.0425 93.4086Z" fill="url(#paint17_linear_321_5925)"/>
<path d="M102.882 95.3096C102.432 95.3096 102.046 95.1518 101.725 94.8362C101.403 94.5206 101.245 94.136 101.25 93.6823C101.245 93.2385 101.403 92.8587 101.725 92.5431C102.046 92.2275 102.432 92.0697 102.882 92.0697C103.318 92.0697 103.696 92.2275 104.018 92.5431C104.344 92.8587 104.51 93.2385 104.515 93.6823C104.51 93.9831 104.431 94.2568 104.277 94.5034C104.129 94.7499 103.931 94.9472 103.684 95.0951C103.441 95.2381 103.174 95.3096 102.882 95.3096Z" fill="url(#paint18_linear_321_5925)"/>
<path d="M102.882 95.3096C102.432 95.3096 102.046 95.1518 101.725 94.8362C101.403 94.5206 101.245 94.136 101.25 93.6823C101.245 93.2385 101.403 92.8587 101.725 92.5431C102.046 92.2275 102.432 92.0697 102.882 92.0697C103.318 92.0697 103.696 92.2275 104.018 92.5431C104.344 92.8587 104.51 93.2385 104.515 93.6823C104.51 93.9831 104.431 94.2568 104.277 94.5034C104.129 94.7499 103.931 94.9472 103.684 95.0951C103.441 95.2381 103.174 95.3096 102.882 95.3096Z" fill="white"/>
<path d="M102.882 95.3096C102.432 95.3096 102.046 95.1518 101.725 94.8362C101.403 94.5206 101.245 94.136 101.25 93.6823C101.245 93.2385 101.403 92.8587 101.725 92.5431C102.046 92.2275 102.432 92.0697 102.882 92.0697C103.318 92.0697 103.696 92.2275 104.018 92.5431C104.344 92.8587 104.51 93.2385 104.515 93.6823C104.51 93.9831 104.431 94.2568 104.277 94.5034C104.129 94.7499 103.931 94.9472 103.684 95.0951C103.441 95.2381 103.174 95.3096 102.882 95.3096Z" fill="url(#paint19_linear_321_5925)"/>
<path d="M1 31V1H32.0345" stroke="white" stroke-opacity="0.4" stroke-width="2"/>
<path d="M1 115V145H32.0345" stroke="white" stroke-opacity="0.4" stroke-width="2"/>
<path d="M149.966 31V1H118.931" stroke="white" stroke-opacity="0.4" stroke-width="2"/>
<path d="M149.966 115V145H118.931" stroke="white" stroke-opacity="0.4" stroke-width="2"/>
</g>
<defs>
<filter id="filter0_d_321_5925" x="-16.5171" y="-5" width="184" height="180" filterUnits="userSpaceOnUse" color-interpolation-filters="sRGB">
<feFlood flood-opacity="0" result="BackgroundImageFix"/>
<feColorMatrix in="SourceAlpha" type="matrix" values="0 0 0 0 0 0 0 0 0 0 0 0 0 0 0 0 0 0 127 0" result="hardAlpha"/>
<feOffset dy="12"/>
<feGaussianBlur stdDeviation="16"/>
<feComposite in2="hardAlpha" operator="out"/>
<feColorMatrix type="matrix" values="0 0 0 0 0.0837717 0 0 0 0 0.0915935 0 0 0 0 0.240209 0 0 0 0.1 0"/>
<feBlend mode="normal" in2="BackgroundImageFix" result="effect1_dropShadow_321_5925"/>
<feBlend mode="normal" in="SourceGraphic" in2="effect1_dropShadow_321_5925" result="shape"/>
</filter>
<linearGradient id="paint0_linear_321_5925" x1="41.9243" y1="73.0001" x2="109.731" y2="73.0001" gradientUnits="userSpaceOnUse">
<stop stop-color="#1A0D34"/>
<stop offset="1" stop-color="#462191"/>
</linearGradient>
<linearGradient id="paint1_linear_321_5925" x1="75.8275" y1="50.624" x2="75.8275" y2="95.3762" gradientUnits="userSpaceOnUse">
<stop stop-color="#7A7CF5"/>
<stop offset="1" stop-color="#5D58F1"/>
</linearGradient>
<linearGradient id="paint2_linear_321_5925" x1="41.9243" y1="73.0001" x2="109.731" y2="73.0001" gradientUnits="userSpaceOnUse">
<stop stop-color="#1A0D34"/>
<stop offset="1" stop-color="#462191"/>
</linearGradient>
<linearGradient id="paint3_linear_321_5925" x1="75.8275" y1="50.624" x2="75.8275" y2="95.3762" gradientUnits="userSpaceOnUse">
<stop stop-color="#7A7CF5"/>
<stop offset="1" stop-color="#5D58F1"/>
</linearGradient>
<linearGradient id="paint4_linear_321_5925" x1="41.9243" y1="73.0001" x2="109.731" y2="73.0001" gradientUnits="userSpaceOnUse">
<stop stop-color="#1A0D34"/>
<stop offset="1" stop-color="#462191"/>
</linearGradient>
<linearGradient id="paint5_linear_321_5925" x1="75.8275" y1="50.624" x2="75.8275" y2="95.3762" gradientUnits="userSpaceOnUse">
<stop stop-color="#7A7CF5"/>
<stop offset="1" stop-color="#5D58F1"/>
</linearGradient>
<linearGradient id="paint6_linear_321_5925" x1="41.9243" y1="73.0001" x2="109.731" y2="73.0001" gradientUnits="userSpaceOnUse">
<stop stop-color="#1A0D34"/>
<stop offset="1" stop-color="#462191"/>
</linearGradient>
<linearGradient id="paint7_linear_321_5925" x1="75.8275" y1="50.624" x2="75.8275" y2="95.3762" gradientUnits="userSpaceOnUse">
<stop stop-color="#7A7CF5"/>
<stop offset="1" stop-color="#5D58F1"/>
</linearGradient>
<linearGradient id="paint8_linear_321_5925" x1="41.9243" y1="73.0001" x2="109.731" y2="73.0001" gradientUnits="userSpaceOnUse">
<stop stop-color="#1A0D34"/>
<stop offset="1" stop-color="#462191"/>
</linearGradient>
<linearGradient id="paint9_linear_321_5925" x1="75.8275" y1="50.624" x2="75.8275" y2="95.3762" gradientUnits="userSpaceOnUse">
<stop stop-color="#7A7CF5"/>
<stop offset="1" stop-color="#5D58F1"/>
</linearGradient>
<linearGradient id="paint10_linear_321_5925" x1="41.9243" y1="73.0001" x2="109.731" y2="73.0001" gradientUnits="userSpaceOnUse">
<stop stop-color="#1A0D34"/>
<stop offset="1" stop-color="#462191"/>
</linearGradient>
<linearGradient id="paint11_linear_321_5925" x1="75.8275" y1="50.624" x2="75.8275" y2="95.3762" gradientUnits="userSpaceOnUse">
<stop stop-color="#7A7CF5"/>
<stop offset="1" stop-color="#5D58F1"/>
</linearGradient>
<linearGradient id="paint12_linear_321_5925" x1="41.9243" y1="73.0001" x2="109.731" y2="73.0001" gradientUnits="userSpaceOnUse">
<stop stop-color="#1A0D34"/>
<stop offset="1" stop-color="#462191"/>
</linearGradient>
<linearGradient id="paint13_linear_321_5925" x1="75.8275" y1="50.624" x2="75.8275" y2="95.3762" gradientUnits="userSpaceOnUse">
<stop stop-color="#7A7CF5"/>
<stop offset="1" stop-color="#5D58F1"/>
</linearGradient>
<linearGradient id="paint14_linear_321_5925" x1="41.9243" y1="73.0001" x2="109.731" y2="73.0001" gradientUnits="userSpaceOnUse">
<stop stop-color="#1A0D34"/>
<stop offset="1" stop-color="#462191"/>
</linearGradient>
<linearGradient id="paint15_linear_321_5925" x1="75.8275" y1="50.624" x2="75.8275" y2="95.3762" gradientUnits="userSpaceOnUse">
<stop stop-color="#7A7CF5"/>
<stop offset="1" stop-color="#5D58F1"/>
</linearGradient>
<linearGradient id="paint16_linear_321_5925" x1="41.9243" y1="73.0001" x2="109.731" y2="73.0001" gradientUnits="userSpaceOnUse">
<stop stop-color="#1A0D34"/>
<stop offset="1" stop-color="#462191"/>
</linearGradient>
<linearGradient id="paint17_linear_321_5925" x1="75.8275" y1="50.624" x2="75.8275" y2="95.3762" gradientUnits="userSpaceOnUse">
<stop stop-color="#7A7CF5"/>
<stop offset="1" stop-color="#5D58F1"/>
</linearGradient>
<linearGradient id="paint18_linear_321_5925" x1="41.9243" y1="73.0001" x2="109.731" y2="73.0001" gradientUnits="userSpaceOnUse">
<stop stop-color="#1A0D34"/>
<stop offset="1" stop-color="#462191"/>
</linearGradient>
<linearGradient id="paint19_linear_321_5925" x1="75.8275" y1="50.624" x2="75.8275" y2="95.3762" gradientUnits="userSpaceOnUse">
<stop stop-color="#7A7CF5"/>
<stop offset="1" stop-color="#5D58F1"/>
</linearGradient>
</defs>
</svg>
