<svg width="131" height="32" viewBox="0 0 131 32" fill="none" xmlns="http://www.w3.org/2000/svg">
<g clip-path="url(#clip0_195_29289)">
<path d="M38.3665 22.4084H47.6164V19.6223H41.6541V9.12793H38.3665V22.4084Z" fill="#1E0059"/>
<path d="M53.0964 20.5503C51.7776 20.5503 51.0904 19.3987 51.0904 17.6713C51.0904 15.9439 51.7776 14.7737 53.0964 14.7737C54.4151 14.7737 55.1209 15.9439 55.1209 17.6713C55.1209 19.3987 54.4151 20.5503 53.0964 20.5503ZM53.1149 22.7049C56.1797 22.7049 58.1857 20.5317 58.1857 17.6713C58.1857 14.8109 56.1797 12.6377 53.1149 12.6377C50.0688 12.6377 48.0256 14.8109 48.0256 17.6713C48.0256 20.5317 50.0688 22.7049 53.1149 22.7049Z" fill="#1E0059"/>
<path d="M63.4897 25.6943C64.9013 25.6943 66.1458 25.3786 66.9816 24.6356C67.7432 23.9484 68.2447 22.9082 68.2447 21.478V12.8968H65.3471V13.9184H65.31C64.7527 13.1197 63.8983 12.6182 62.6353 12.6182C60.2764 12.6182 58.6418 14.587 58.6418 17.3731C58.6418 20.2893 60.6293 21.8866 62.7653 21.8866C63.9169 21.8866 64.6413 21.4223 65.1985 20.7908H65.2728V21.7381C65.2728 22.8896 64.7342 23.5583 63.4525 23.5583C62.4495 23.5583 61.948 23.1311 61.7809 22.6296H58.8462C59.1433 24.617 60.8707 25.6943 63.4897 25.6943ZM63.4711 19.6392C62.3381 19.6392 61.5951 18.7105 61.5951 17.2803C61.5951 15.8315 62.3381 14.9028 63.4711 14.9028C64.7342 14.9028 65.4028 15.9801 65.4028 17.2617C65.4028 18.599 64.7899 19.6392 63.4711 19.6392Z" fill="#1E0059"/>
<path d="M74.2067 20.5503C72.888 20.5503 72.2007 19.3987 72.2007 17.6713C72.2007 15.9439 72.888 14.7737 74.2067 14.7737C75.5255 14.7737 76.2313 15.9439 76.2313 17.6713C76.2313 19.3987 75.5255 20.5503 74.2067 20.5503ZM74.2253 22.7049C77.29 22.7049 79.2956 20.5317 79.2956 17.6713C79.2956 14.8109 77.29 12.6377 74.2253 12.6377C71.1791 12.6377 69.136 14.8109 69.136 17.6713C69.136 20.5317 71.1791 22.7049 74.2253 22.7049Z" fill="#1E0059"/>
<path d="M80.176 22.4084H83.2036V12.8985H80.176V22.4084ZM80.176 11.5797H83.2036V9.12793H80.176V11.5797Z" fill="#1E0059"/>
<path d="M84.5198 25.5457H87.5474V21.4223H87.5845C88.1789 22.221 89.0519 22.7039 90.2777 22.7039C92.7667 22.7039 94.4198 20.7351 94.4198 17.6517C94.4198 14.7913 92.8781 12.6182 90.352 12.6182C89.0519 12.6182 88.1231 13.194 87.4731 14.0484H87.4173V12.8968H84.5198V25.5457ZM89.4976 20.3636C88.1974 20.3636 87.4545 19.3048 87.4545 17.7632C87.4545 16.2215 88.1232 15.0514 89.4419 15.0514C90.7421 15.0514 91.355 16.1287 91.355 17.7632C91.355 19.3791 90.6492 20.3636 89.4976 20.3636Z" fill="#1E0059"/>
<path d="M99.3469 22.7039C101.836 22.7039 103.675 21.6266 103.675 19.5463C103.675 17.1131 101.706 16.6859 100.034 16.4073C98.8268 16.1844 97.7495 16.0915 97.7495 15.4229C97.7495 14.8285 98.3253 14.5499 99.0683 14.5499C99.9041 14.5499 100.48 14.8099 100.591 15.6643H103.377C103.229 13.7883 101.78 12.6182 99.0868 12.6182C96.8394 12.6182 94.982 13.6583 94.982 15.6643C94.982 17.8932 96.7465 18.339 98.3996 18.6176C99.6626 18.8405 100.814 18.9334 100.814 19.7878C100.814 20.4007 100.238 20.735 99.3283 20.735C98.3253 20.735 97.6938 20.2707 97.5823 19.3234H94.7219C94.8148 21.4223 96.5608 22.7039 99.3469 22.7039Z" fill="#1E0059"/>
<path d="M107.79 22.6841C109.109 22.6841 109.944 22.164 110.632 21.2353H110.687V22.4055H113.585V12.8955H110.557V18.2077C110.557 19.3407 109.926 20.1208 108.886 20.1208C107.92 20.1208 107.456 19.545 107.456 18.5049V12.8955H104.447V19.1364C104.447 21.2539 105.598 22.6841 107.79 22.6841Z" fill="#1E0059"/>
<path d="M114.899 22.4065H117.926V17.0757C117.926 15.9427 118.483 15.144 119.431 15.144C120.341 15.144 120.768 15.7384 120.768 16.7599V22.4065H123.796V17.0757C123.796 15.9427 124.334 15.144 125.3 15.144C126.21 15.144 126.638 15.7384 126.638 16.7599V22.4065H129.665V16.2213C129.665 14.0853 128.588 12.6179 126.433 12.6179C125.207 12.6179 124.186 13.138 123.443 14.2896H123.406C122.923 13.268 121.975 12.6179 120.731 12.6179C119.356 12.6179 118.446 13.268 117.852 14.2524H117.796V12.8965H114.899V22.4065Z" fill="#1E0059"/>
<path d="M19.8967 1.52953L16.8528 0.713928L14.2878 10.287L11.972 1.64437L8.92805 2.45997L11.4301 11.7977L5.19803 5.56562L2.96976 7.79389L9.8056 14.6298L1.29265 12.3487L0.477051 15.3926L9.77851 17.8849C9.67202 17.4256 9.61568 16.947 9.61568 16.4552C9.61568 12.9744 12.4374 10.1527 15.9182 10.1527C19.399 10.1527 22.2207 12.9744 22.2207 16.4552C22.2207 16.9438 22.165 17.4195 22.0599 17.8761L30.5132 20.1411L31.3287 17.0973L21.9903 14.595L30.5038 12.3138L29.6882 9.26999L20.3501 11.7721L26.5822 5.54004L24.3539 3.31177L17.6129 10.0528L19.8967 1.52953Z" fill="#1E0059"/>
<path d="M22.0506 17.9131C21.7896 19.0164 21.2386 20.0075 20.4827 20.8017L26.6067 26.9258L28.835 24.6975L22.0506 17.9131Z" fill="#1E0059"/>
<path d="M20.4229 20.8633C19.6578 21.6447 18.691 22.2279 17.6067 22.5284L19.8351 30.8449L22.879 30.0293L20.4229 20.8633Z" fill="#1E0059"/>
<path d="M17.4903 22.5599C16.9872 22.6892 16.46 22.7579 15.9166 22.7579C15.3345 22.7579 14.7707 22.679 14.2356 22.5312L12.0051 30.8554L15.049 31.671L17.4903 22.5599Z" fill="#1E0059"/>
<path d="M14.1269 22.5002C13.0592 22.1848 12.1095 21.5942 11.3601 20.8105L5.22095 26.9497L7.44921 29.1779L14.1269 22.5002Z" fill="#1E0059"/>
<path d="M11.3095 20.7559C10.5729 19.9673 10.0363 18.9894 9.78096 17.9031L1.30005 20.1755L2.11565 23.2194L11.3095 20.7559Z" fill="#1E0059"/>
</g>
<defs>
<clipPath id="clip0_195_29289">
<rect width="130.019" height="31.7308" fill="white" transform="translate(0.230713)"/>
</clipPath>
</defs>
</svg>
