<svg width="18" height="17" viewBox="0 0 18 17" fill="none" xmlns="http://www.w3.org/2000/svg">
<path opacity="0.4" d="M4.43579 2.68662L6.80588 3.48546C7.13357 3.59889 7.63084 3.52472 7.91241 3.32413L9.57505 2.13838C10.6388 1.38058 11.5192 1.83254 11.5202 3.14619L11.5293 5.37C11.5309 5.74661 11.7928 6.21397 12.1119 6.41703L13.8107 7.48211C15.1544 8.32604 15.0017 9.32521 13.4702 9.71345L11.3387 10.2517C10.9536 10.3487 10.5563 10.7461 10.4548 11.1357L9.91669 13.2676C9.53299 14.7949 8.52504 14.9477 7.68577 13.6081L6.62089 11.909C6.41786 11.5899 5.95059 11.3279 5.57405 11.3264L3.35065 11.3172C2.04172 11.3118 1.58537 10.4357 2.34303 9.37175L3.52856 7.7088C3.72465 7.43163 3.79881 6.93428 3.6854 6.60652L2.88671 4.23599C2.45556 2.94748 3.15198 2.25093 4.43579 2.68662Z" fill="#141B34" stroke="url(#paint0_linear_195_78918)" stroke-opacity="0.7" stroke-width="1.5" stroke-linecap="round" stroke-linejoin="round"/>
<path d="M12.6016 12.3959L15.4349 15.2292" stroke="url(#paint1_linear_195_78918)" stroke-opacity="0.7" stroke-width="1.5" stroke-linecap="round" stroke-linejoin="round"/>
<path d="M4.43579 2.68662L6.80588 3.48546C7.13357 3.59889 7.63084 3.52472 7.91241 3.32413L9.57505 2.13838C10.6388 1.38058 11.5192 1.83254 11.5202 3.14619L11.5293 5.37C11.5309 5.74661 11.7928 6.21397 12.1119 6.41703L13.8107 7.48211C15.1544 8.32604 15.0017 9.32521 13.4702 9.71345L11.3387 10.2517C10.9536 10.3487 10.5563 10.7461 10.4548 11.1357L9.91669 13.2676C9.53299 14.7949 8.52504 14.9477 7.68577 13.6081L6.62089 11.909C6.41786 11.5899 5.95059 11.3279 5.57405 11.3264L3.35065 11.3172C2.04172 11.3118 1.58537 10.4357 2.34303 9.37175L3.52856 7.7088C3.72465 7.43163 3.79881 6.93428 3.6854 6.60652L2.88671 4.23599C2.45556 2.94748 3.15198 2.25093 4.43579 2.68662Z" fill="#8067F6"/>
<defs>
<linearGradient id="paint0_linear_195_78918" x1="8.35156" y1="1.77087" x2="8.35156" y2="14.5209" gradientUnits="userSpaceOnUse">
<stop stop-color="#887CF8"/>
<stop offset="1" stop-color="#594BEC"/>
</linearGradient>
<linearGradient id="paint1_linear_195_78918" x1="14.0182" y1="12.3959" x2="14.0182" y2="15.2292" gradientUnits="userSpaceOnUse">
<stop stop-color="#887CF8"/>
<stop offset="1" stop-color="#594BEC"/>
</linearGradient>
</defs>
</svg>
