<svg width="133" height="32" viewBox="0 0 133 32" fill="none" xmlns="http://www.w3.org/2000/svg">
<g clip-path="url(#clip0_195_29316)">
<path d="M40.9011 21.7785H50.151V18.9924H44.1887V8.49805H40.9011V21.7785Z" fill="#1E0059"/>
<path d="M55.629 19.9182C54.3102 19.9182 53.623 18.7666 53.623 17.0392C53.623 15.3118 54.3102 14.1416 55.629 14.1416C56.9477 14.1416 57.6535 15.3118 57.6535 17.0392C57.6535 18.7666 56.9477 19.9182 55.629 19.9182ZM55.6475 22.0728C58.7123 22.0728 60.7183 19.8996 60.7183 17.0392C60.7183 14.1788 58.7123 12.0056 55.6475 12.0056C52.6014 12.0056 50.5582 14.1788 50.5582 17.0392C50.5582 19.8996 52.6014 22.0728 55.6475 22.0728Z" fill="#1E0059"/>
<path d="M66.0222 25.0645C67.4338 25.0645 68.6783 24.7487 69.5141 24.0057C70.2756 23.3185 70.7771 22.2783 70.7771 20.8481V12.2669H67.8796V13.2885H67.8424C67.2852 12.4898 66.4308 11.9883 65.1678 11.9883C62.8088 11.9883 61.1743 13.9571 61.1743 16.7433C61.1743 19.6594 63.1617 21.2568 65.2978 21.2568C66.4494 21.2568 67.1738 20.7924 67.731 20.1609H67.8053V21.1082C67.8053 22.2598 67.2666 22.9284 65.985 22.9284C64.982 22.9284 64.4805 22.5012 64.3133 21.9997H61.3786C61.6758 23.9872 63.4032 25.0645 66.0222 25.0645ZM66.0036 19.0093C64.8706 19.0093 64.1276 18.0806 64.1276 16.6504C64.1276 15.2016 64.8706 14.2729 66.0036 14.2729C67.2666 14.2729 67.9353 15.3502 67.9353 16.6318C67.9353 17.9691 67.3223 19.0093 66.0036 19.0093Z" fill="#1E0059"/>
<path d="M76.7394 19.9184C75.4207 19.9184 74.7334 18.7668 74.7334 17.0394C74.7334 15.3121 75.4207 14.1419 76.7394 14.1419C78.0582 14.1419 78.764 15.3121 78.764 17.0394C78.764 18.7668 78.0582 19.9184 76.7394 19.9184ZM76.758 22.073C79.8227 22.073 81.8287 19.8999 81.8287 17.0394C81.8287 14.179 79.8227 12.0059 76.758 12.0059C73.7119 12.0059 71.6687 14.179 71.6687 17.0394C71.6687 19.8999 73.7119 22.073 76.758 22.073Z" fill="#1E0059"/>
<path d="M82.7107 21.7785H85.7383V12.2686H82.7107V21.7785ZM82.7107 10.9498H85.7383V8.49805H82.7107V10.9498Z" fill="#1E0059"/>
<path d="M87.0522 24.9159H90.0798V20.7924H90.117C90.7113 21.5911 91.5843 22.074 92.8102 22.074C95.2991 22.074 96.9522 20.1052 96.9522 17.0219C96.9522 14.1615 95.4106 11.9883 92.8845 11.9883C91.5843 11.9883 90.6556 12.5641 90.0055 13.4185H89.9498V12.2669H87.0522V24.9159ZM92.0301 19.7337C90.7299 19.7337 89.987 18.675 89.987 17.1333C89.987 15.5917 90.6556 14.4215 91.9744 14.4215C93.2746 14.4215 93.8875 15.4988 93.8875 17.1333C93.8875 18.7493 93.1817 19.7337 92.0301 19.7337Z" fill="#1E0059"/>
<path d="M101.882 22.074C104.37 22.074 106.209 20.9967 106.209 18.9164C106.209 16.4832 104.24 16.056 102.569 15.7774C101.361 15.5545 100.284 15.4616 100.284 14.793C100.284 14.1986 100.86 13.92 101.603 13.92C102.439 13.92 103.015 14.18 103.126 15.0344H105.912C105.764 13.1585 104.315 11.9883 101.622 11.9883C99.374 11.9883 97.5166 13.0284 97.5166 15.0344C97.5166 17.2633 99.2812 17.7091 100.934 17.9877C102.197 18.2106 103.349 18.3035 103.349 19.1579C103.349 19.7708 102.773 20.1052 101.863 20.1052C100.86 20.1052 100.228 19.6408 100.117 18.6935H97.2566C97.3495 20.7924 99.0954 22.074 101.882 22.074Z" fill="#1E0059"/>
<path d="M110.322 22.0542C111.64 22.0542 112.476 21.5341 113.163 20.6054H113.219V21.7756H116.117V12.2656H113.089V17.5778C113.089 18.7108 112.458 19.491 111.417 19.491C110.452 19.491 109.987 18.9152 109.987 17.875V12.2656H106.978V18.5065C106.978 20.624 108.13 22.0542 110.322 22.0542Z" fill="#1E0059"/>
<path d="M117.433 21.7768H120.461V16.4461C120.461 15.313 121.018 14.5144 121.965 14.5144C122.875 14.5144 123.303 15.1087 123.303 16.1303V21.7768H126.33V16.4461C126.33 15.313 126.869 14.5144 127.835 14.5144C128.745 14.5144 129.172 15.1087 129.172 16.1303V21.7768H132.2V15.5917C132.2 13.4556 131.122 11.9883 128.968 11.9883C127.742 11.9883 126.72 12.5084 125.977 13.66H125.94C125.457 12.6384 124.51 11.9883 123.265 11.9883C121.891 11.9883 120.981 12.6384 120.387 13.6228H120.331V12.2669H117.433V21.7768Z" fill="#1E0059"/>
<path fill-rule="evenodd" clip-rule="evenodd" d="M16.7721 31.0634C25.3206 31.0634 32.2506 24.1335 32.2506 15.585C32.2506 7.0365 25.3206 0.106567 16.7721 0.106567C8.22362 0.106567 1.2937 7.0365 1.2937 15.585C1.2937 24.1335 8.22362 31.0634 16.7721 31.0634ZM21.6009 7.31707C21.8359 6.48217 21.0257 5.98847 20.2857 6.51564L9.95629 13.8743C9.15381 14.446 9.28004 15.585 10.1459 15.585H12.8659V15.5639H18.1671L13.8476 17.088L11.9434 23.8529C11.7084 24.6878 12.5185 25.1815 13.2585 24.6543L23.588 17.2957C24.3905 16.724 24.2642 15.585 23.3984 15.585H19.2735L21.6009 7.31707Z" fill="#1E0059"/>
</g>
<defs>
<clipPath id="clip0_195_29316">
<rect width="131.567" height="31.7308" fill="white" transform="translate(0.765381)"/>
</clipPath>
</defs>
</svg>
