<svg width="58" height="33" viewBox="0 0 58 33" fill="none" xmlns="http://www.w3.org/2000/svg">
<path d="M15.3846 0H0V15.84H15.3846V0Z" fill="#1E0059"/>
<path d="M25 15.84C29.2484 15.84 32.6923 12.2941 32.6923 7.91997C32.6923 3.5459 29.2484 0 25 0C20.7517 0 17.3077 3.5459 17.3077 7.91997C17.3077 12.2941 20.7517 15.84 25 15.84Z" fill="#1E0059"/>
<path d="M42.3077 15.84C46.5561 15.84 50 12.2941 50 7.91997C50 3.5459 46.5561 0 42.3077 0C38.0594 0 34.6154 3.5459 34.6154 7.91997C34.6154 12.2941 38.0594 15.84 42.3077 15.84Z" fill="#1E0059"/>
<text x="0" y="31" fill="#1E0059" font-family="Inter, Arial, sans-serif" font-size="15" font-weight="600" letter-spacing="-0.02em">Trowas.</text>
</svg>
