<svg width="30" height="30" viewBox="0 0 30 30" fill="none" xmlns="http://www.w3.org/2000/svg">
<path opacity="0.4" d="M19.8482 7.00488H10.1513C8.36611 7.00488 6.91895 8.41988 6.91895 10.1654V19.6469C6.91895 21.3923 8.36611 22.8074 10.1513 22.8074H19.8482C21.6334 22.8074 23.0806 21.3923 23.0806 19.6469V10.1654C23.0806 8.41988 21.6334 7.00488 19.8482 7.00488Z" fill="#8067F6"/>
<path opacity="0.2" d="M17.0201 9.76953H7.32314C5.53798 9.76953 4.09082 11.1845 4.09082 12.93V22.4115C4.09082 24.157 5.53798 25.572 7.32314 25.572H17.0201C18.8053 25.572 20.2524 24.157 20.2524 22.4115V12.93C20.2524 11.1845 18.8053 9.76953 17.0201 9.76953Z" fill="#8067F6"/>
<path d="M22.6773 4.23907H12.9804C11.1952 4.23907 9.74805 5.65408 9.74805 7.39957V16.881C9.74805 18.6265 11.1952 20.0415 12.9804 20.0415H22.6773C24.4625 20.0415 25.9097 18.6265 25.9097 16.881V7.39957C25.9097 5.65408 24.4625 4.23907 22.6773 4.23907Z" fill="#8067F6"/>
</svg>
