<svg width="32" height="33" viewBox="0 0 32 33" fill="none" xmlns="http://www.w3.org/2000/svg">
<path fill-rule="evenodd" clip-rule="evenodd" d="M23.2353 10.5966C26.4449 14.4534 26.0034 20.0834 22.3432 23.1803C20.847 24.4462 19.0399 25.1027 17.2023 25.1771C16.5823 25.2023 16.1001 25.7293 16.125 26.3543C16.1498 26.9795 16.6726 27.4658 17.2925 27.4407C19.604 27.347 21.893 26.5184 23.7873 24.9157C28.4435 20.9761 28.9248 13.9092 24.9563 9.14037C20.9879 4.37156 14.0023 3.6223 9.34612 7.56188C7.45186 9.16458 6.24506 11.2937 5.75221 13.5729C5.62 14.1841 6.00418 14.7876 6.61041 14.9208C7.21655 15.0541 7.81506 14.6668 7.94721 14.0555C8.33906 12.2437 9.29404 10.5632 10.7902 9.29723C14.4504 6.20037 20.0257 6.73957 23.2353 10.5966ZM18.4262 18.7852C19.6143 17.78 19.7693 15.9939 18.7724 14.7958C17.7754 13.5978 16.004 13.4415 14.8159 14.4468C13.6278 15.452 13.4728 17.2382 14.4698 18.4363C15.4667 19.6342 17.238 19.7905 18.4262 18.7852ZM19.4071 19.9839C21.2372 18.5549 21.5772 15.7796 20.0311 13.7663C18.4851 11.7531 15.7352 11.3902 13.905 12.8193C13.0593 13.4797 12.5362 14.4152 12.3643 15.4359C12.367 15.4894 12.366 15.5438 12.361 15.5986C12.3043 16.2216 11.7575 16.6803 11.1398 16.6231C10.1071 16.5275 9.06626 16.803 8.21237 17.4696C6.3822 18.8987 6.04224 21.674 7.5883 23.6872C9.13441 25.7005 11.8842 26.0633 13.7144 24.6343C14.5602 23.9739 15.0833 23.0383 15.2551 22.0176C15.2524 21.9642 15.2535 21.9098 15.2585 21.8549C15.3151 21.2319 15.8619 20.7733 16.4796 20.8304C17.5123 20.926 18.5532 20.6506 19.4071 19.9839ZM17.3125 23.0994C18.5366 23.0169 19.7458 22.5846 20.7826 21.775C23.6615 19.5272 24.0598 15.3123 21.8075 12.3794C19.5552 9.44654 15.4084 8.78031 12.5295 11.0281C11.4138 11.8992 10.6676 13.0746 10.307 14.3541C9.08284 14.4367 7.87368 14.869 6.83686 15.6785C3.95799 17.9264 3.55968 22.1413 5.81197 25.0742C8.06423 28.0071 12.2111 28.6732 15.0899 26.4254C16.2056 25.5543 16.9519 24.3789 17.3125 23.0994Z" fill="#8067F6"/>
</svg>
