<svg width="34" height="35" viewBox="0 0 34 35" fill="none" xmlns="http://www.w3.org/2000/svg">
<path opacity="0.5" fill-rule="evenodd" clip-rule="evenodd" d="M18.5354 6.87749C18.7264 6.02416 18.1939 5.17658 17.3461 4.98437C16.4983 4.79216 15.6563 5.3281 15.4653 6.18142C14.7652 9.3102 13.8584 11.3056 12.4913 12.71C11.1279 14.1107 9.12943 15.1045 5.86478 15.8447C5.017 16.0369 4.48455 16.8845 4.67552 17.7378C4.8665 18.5911 5.70858 19.1271 6.55636 18.9348C10.1062 18.13 12.7751 16.9446 14.7392 14.9268C16.6995 12.913 17.7805 10.2508 18.5354 6.87749ZM28.1357 18.9347C28.9834 18.7425 29.5159 17.8949 29.3249 17.0416C29.134 16.1883 28.2918 15.6524 27.4441 15.8446C24.0927 16.6044 21.4478 17.6925 19.447 19.6656C17.4424 21.6426 16.2647 24.3289 15.465 27.9019C15.2741 28.7553 15.8065 29.6028 16.6543 29.7951C17.5021 29.9873 18.3441 29.4514 18.5351 28.598C19.2705 25.312 20.2579 23.3006 21.6494 21.9282C23.0448 20.5521 25.0272 19.6396 28.1357 18.9347Z" fill="#8067F6"/>
<path fill-rule="evenodd" clip-rule="evenodd" d="M18.5351 6.18142C18.3441 5.3281 17.5021 4.79216 16.6543 4.98437C15.8065 5.17658 15.2741 6.02416 15.465 6.87749C16.2199 10.2508 17.3009 12.913 19.2612 14.9268C21.2253 16.9446 23.8942 18.13 27.4441 18.9348C28.2918 19.1271 29.134 18.5911 29.3249 17.7378C29.5159 16.8845 28.9834 16.0369 28.1357 15.8447C24.871 15.1045 22.8725 14.1107 21.5091 12.71C20.142 11.3056 19.2353 9.3102 18.5351 6.18142ZM6.55636 15.8446C5.70858 15.6524 4.8665 16.1883 4.67552 17.0416C4.48455 17.8949 5.017 18.7425 5.86478 18.9347C9.12943 19.6749 11.1279 20.6687 12.4913 22.0693C13.8584 23.4738 14.7652 25.4692 15.4653 28.598C15.6563 29.4513 16.4983 29.9873 17.3461 29.7951C18.1939 29.6028 18.7264 28.7553 18.5354 27.902C17.7805 24.5287 16.6995 21.8664 14.7392 19.8525C12.7751 17.8348 10.1062 16.6495 6.55636 15.8446Z" fill="#8067F6"/>
</svg>
