<svg width="40" height="41" viewBox="0 0 40 41" fill="none" xmlns="http://www.w3.org/2000/svg">
<path fill-rule="evenodd" clip-rule="evenodd" d="M20.6321 9.76076L19.9986 9.4375L19.365 9.76076L7.89773 15.6125L5.4541 16.8594L7.89773 18.1064L19.365 23.9582L19.9986 24.2814L20.6321 23.9582L32.0994 18.1064L34.543 16.8594L32.0994 15.6125L20.6321 9.76076ZM19.9986 21.1409L11.6084 16.8594L19.9986 12.578L28.3887 16.8594L19.9986 21.1409ZM12.6049 23.3728L11.6084 23.8813L19.9986 28.1627L28.3887 23.8813L27.3922 23.3728L28.6592 20.8788L32.0994 22.6343L34.543 23.8813L32.0994 25.1283L20.6321 30.98L19.9986 31.3033L19.365 30.98L7.89773 25.1283L5.4541 23.8813L7.89773 22.6343L11.3379 20.8788L12.6049 23.3728Z" fill="#8067F6"/>
</svg>
