<svg width="24" height="26" viewBox="0 0 24 26" fill="none" xmlns="http://www.w3.org/2000/svg">
<g clip-path="url(#clip0_195_39087)">
<path fill-rule="evenodd" clip-rule="evenodd" d="M0 9.75V20.15H3.33333C3.68351 20.15 4.03027 20.2173 4.35384 20.3479C4.67733 20.4786 4.97135 20.6701 5.21891 20.9115C5.46655 21.153 5.66301 21.4396 5.79704 21.755C5.93099 22.0705 6 22.4086 6 22.75V26H14L24 16.25V5.85H20.6667C20.3165 5.85 19.9697 5.78276 19.6461 5.65209C19.3227 5.52143 19.0287 5.32991 18.7811 5.08848C18.5335 4.84705 18.337 4.56041 18.2029 4.24497C18.069 3.92954 18 3.59144 18 3.25V0H10L0 9.75ZM11.3333 19.5H6.66667V12.35L12.6667 6.5H17.3333V13.65L11.3333 19.5Z" fill="#8067F6"/>
</g>
<defs>
<clipPath id="clip0_195_39087">
<rect width="24" height="26" fill="white"/>
</clipPath>
</defs>
</svg>
