<svg width="30" height="31" viewBox="0 0 30 31" fill="none" xmlns="http://www.w3.org/2000/svg">
<path fill-rule="evenodd" clip-rule="evenodd" d="M10.913 11.7277C14.6765 11.7254 17.7266 8.64218 17.7266 4.83912V4.37988H7.72703C5.71881 4.37988 4.09082 6.02476 4.09082 8.0538C4.09082 10.0821 5.71762 11.7265 7.72484 11.7277C5.71762 11.7289 4.09082 13.3733 4.09082 15.4017C4.09082 17.4307 5.71881 19.0756 7.72703 19.0756H10.9087C7.14332 19.0756 4.09082 22.1597 4.09082 25.9642V26.4234H14.0904C16.0987 26.4234 17.7266 24.7786 17.7266 22.7495C17.7266 20.7205 16.0987 19.0756 14.0904 19.0756C16.0987 19.0756 17.7266 17.4307 17.7266 15.4017C17.7266 13.3726 16.0987 11.7277 14.0904 11.7277H10.913ZM25.8971 4.37992C22.3888 4.37992 19.5446 7.25351 19.5446 10.7983V12.1859V12.1995L19.5658 26.4239C23.0742 26.4185 25.914 23.5406 25.9087 19.9958L25.9065 18.6082C25.9064 18.4931 25.9032 18.3787 25.8971 18.2651V4.37992Z" fill="#8067F6"/>
</svg>
