<svg width="30" height="31" viewBox="0 0 30 31" fill="none" xmlns="http://www.w3.org/2000/svg">
<path opacity="0.4" fill-rule="evenodd" clip-rule="evenodd" d="M12.0425 8.37793H10.0511V10.3763H8.07355V12.3754H10.065V10.3768H12.0425V8.37793ZM19.9501 10.3768H17.998V8.37793H19.9894V10.3763H21.9417V12.3754H19.9501V10.3768ZM17.9965 12.3757H16.0051V14.3745H17.9965V12.3757ZM16.0051 16.3728H17.9965V18.3716H16.0051V16.3728ZM14.0142 12.3757H12.0227V14.3745H14.0142V12.3757ZM12.0227 16.3728H14.0142V18.3716H12.0227V16.3728ZM8.05957 20.4281H10.051V18.4288H8.05957V20.4281ZM19.9355 20.4281H21.927V18.4288H19.9355V20.4281ZM12.0273 24.4259H14.0188V22.4269H12.0273V24.4259ZM15.9918 24.4259H17.9832V22.4269H15.9918V24.4259Z" fill="#8067F6"/>
<path fill-rule="evenodd" clip-rule="evenodd" d="M14.0337 4.37988H10.0507V6.37872H14.0337V4.37988ZM6.09699 6.37878H10.05V10.3762H6.09761V12.3751H4.10613V10.3759L6.09761 10.3762L6.09699 6.37878ZM23.9428 6.37878H19.9897V10.3762H23.9175V12.3751H25.909V10.3759H23.9428V6.37878ZM19.9488 14.3914H21.9253V16.3906H19.9488V14.3914ZM10.08 14.3747H8.08859V16.4286H10.08V14.3747ZM8.08791 12.3753H4.11545V14.3741H8.08791V12.3753ZM25.8984 12.3753H21.9259V14.3741H25.8984V12.3753ZM14.0337 6.37872L12.0416 6.37878V8.37764H14.0331L14.0337 6.37872ZM17.9982 6.37878H16.0067V8.37757L14.0331 8.37764L14.0332 10.3765H16.0246V8.37764H17.9982V6.37878ZM16.0046 14.3736H14.0132V16.3725H16.0046V14.3736ZM19.989 4.37988H16.0061L16.0067 6.37878L19.989 6.37872V4.37988ZM10.0355 24.4255H6.08234V20.4278H10.0355L12.0269 20.4277V22.4266H10.0355V24.4255L14.0184 24.4254V26.4244H10.0355V24.4255ZM19.9351 24.4255H23.9275V20.4278H19.9346L17.9437 20.4282V22.4266H19.9346L19.9351 24.4255L15.992 24.4254V26.4244H19.9351V24.4255ZM4.09082 20.4278H6.08234L6.08229 18.4285H4.09082V20.4278ZM23.9022 20.4278H25.8937V18.4285H23.9022V20.4278ZM4.10147 18.4284H8.07393V16.4294H4.10147V18.4284ZM21.9266 18.4284H25.8844V16.3911H21.9266V18.4284ZM14.0178 22.4266H16.0093V20.4277H14.0178V22.4266Z" fill="#8067F6"/>
</svg>
